<svg width="40" height="40" viewBox="0 0 40 40" fill="none" xmlns="http://www.w3.org/2000/svg">
<path d="M20 7.92923C19.4195 7.92842 18.863 7.6974 18.4526 7.28685C18.0422 6.8763 17.8114 6.31974 17.8108 5.73923V2.18923C17.8108 1.60861 18.0414 1.05177 18.452 0.641211C18.8626 0.230651 19.4194 0 20 0C20.5806 0 21.1375 0.230651 21.548 0.641211C21.9586 1.05177 22.1893 1.60861 22.1893 2.18923V5.73923C22.1886 6.31974 21.9578 6.8763 21.5474 7.28685C21.137 7.6974 20.5805 7.92842 20 7.92923ZM20 1.53846C19.8274 1.53846 19.6619 1.60702 19.5399 1.72907C19.4178 1.85111 19.3493 2.01664 19.3493 2.18923V5.73923C19.3493 5.82469 19.3661 5.90931 19.3988 5.98827C19.4315 6.06722 19.4794 6.13897 19.5399 6.1994C19.6003 6.25982 19.672 6.30776 19.751 6.34046C19.8299 6.37317 19.9146 6.39 20 6.39C20.0855 6.39 20.1701 6.37317 20.2491 6.34046C20.328 6.30776 20.3998 6.25982 20.4602 6.1994C20.5206 6.13897 20.5686 6.06722 20.6013 5.98827C20.634 5.90931 20.6508 5.82469 20.6508 5.73923V2.18923C20.6508 2.01664 20.5822 1.85111 20.4602 1.72907C20.3381 1.60702 20.1726 1.53846 20 1.53846Z" fill="white"/>
<path d="M5.74 22.1892H2.18923C1.60861 22.1892 1.05177 21.9586 0.641211 21.548C0.230651 21.1375 0 20.5806 0 20C0 19.4194 0.230651 18.8625 0.641211 18.452C1.05177 18.0414 1.60861 17.8108 2.18923 17.8108H5.74C6.32062 17.8108 6.87746 18.0414 7.28802 18.452C7.69858 18.8625 7.92923 19.4194 7.92923 20C7.92923 20.5806 7.69858 21.1375 7.28802 21.548C6.87746 21.9586 6.32062 22.1892 5.74 22.1892ZM2.18923 19.3492C2.10377 19.3492 2.01915 19.3661 1.94019 19.3988C1.86124 19.4315 1.7895 19.4794 1.72907 19.5398C1.66864 19.6003 1.6207 19.672 1.588 19.751C1.55529 19.8299 1.53846 19.9145 1.53846 20C1.53846 20.0855 1.55529 20.1701 1.588 20.249C1.6207 20.328 1.66864 20.3997 1.72907 20.4602C1.7895 20.5206 1.86124 20.5685 1.94019 20.6012C2.01915 20.6339 2.10377 20.6508 2.18923 20.6508H5.74C5.9126 20.6508 6.07812 20.5822 6.20016 20.4602C6.32221 20.3381 6.39077 20.1726 6.39077 20C6.39077 19.8274 6.32221 19.6619 6.20016 19.5398C6.07812 19.4178 5.9126 19.3492 5.74 19.3492H2.18923Z" fill="white"/>
<path d="M20 40C19.4197 39.9992 18.8633 39.7683 18.4529 39.3579C18.0425 38.9475 17.8116 38.3911 17.8108 37.8108V34.2608C17.8108 33.6801 18.0414 33.1233 18.452 32.7127C18.8626 32.3022 19.4194 32.0715 20 32.0715C20.5806 32.0715 21.1375 32.3022 21.548 32.7127C21.9586 33.1233 22.1893 33.6801 22.1893 34.2608V37.8108C22.1884 38.3911 21.9575 38.9475 21.5471 39.3579C21.1368 39.7683 20.5804 39.9992 20 40ZM20 33.6092C19.8274 33.6094 19.6618 33.6782 19.5398 33.8003C19.4178 33.9225 19.3493 34.0881 19.3493 34.2608V37.8108C19.3493 37.8962 19.3661 37.9808 19.3988 38.0598C19.4315 38.1388 19.4794 38.2105 19.5399 38.2709C19.6003 38.3314 19.672 38.3793 19.751 38.412C19.8299 38.4447 19.9146 38.4615 20 38.4615C20.0855 38.4615 20.1701 38.4447 20.2491 38.412C20.328 38.3793 20.3998 38.3314 20.4602 38.2709C20.5206 38.2105 20.5686 38.1388 20.6013 38.0598C20.634 37.9808 20.6508 37.8962 20.6508 37.8108V34.2608C20.6508 34.0881 20.5823 33.9225 20.4602 33.8003C20.3382 33.6782 20.1727 33.6094 20 33.6092Z" fill="white"/>
<path d="M37.8108 22.1892H34.26C33.6794 22.1892 33.1226 21.9586 32.712 21.548C32.3014 21.1375 32.0708 20.5806 32.0708 20C32.0708 19.4194 32.3014 18.8625 32.712 18.452C33.1226 18.0414 33.6794 17.8108 34.26 17.8108H37.8108C38.3914 17.8108 38.9483 18.0414 39.3588 18.452C39.7694 18.8625 40 19.4194 40 20C40 20.5806 39.7694 21.1375 39.3588 21.548C38.9483 21.9586 38.3914 22.1892 37.8108 22.1892ZM34.26 19.3492C34.0874 19.3492 33.9219 19.4178 33.7999 19.5398C33.6778 19.6619 33.6093 19.8274 33.6093 20C33.6093 20.1726 33.6778 20.3381 33.7999 20.4602C33.9219 20.5822 34.0874 20.6508 34.26 20.6508H37.8108C37.9834 20.6508 38.1489 20.5822 38.271 20.4602C38.393 20.3381 38.4616 20.1726 38.4616 20C38.4616 19.8274 38.393 19.6619 38.271 19.5398C38.1489 19.4178 37.9834 19.3492 37.8108 19.3492H34.26Z" fill="white"/>
<path d="M21.2769 34.7693C21.0729 34.7783 20.8736 34.706 20.7229 34.5682C20.5722 34.4303 20.4825 34.2383 20.4734 34.0343C20.4643 33.8302 20.5367 33.631 20.6745 33.4803C20.8124 33.3296 21.0044 33.2399 21.2084 33.2308C24.3041 32.9539 27.2041 31.5986 29.4023 29.4014C31.6005 27.2042 32.9571 24.3048 33.2353 21.2093C33.2558 21.0069 33.3547 20.8207 33.5109 20.6904C33.667 20.5601 33.868 20.4962 34.0707 20.5123C34.2738 20.5307 34.4612 20.6289 34.5919 20.7854C34.7226 20.9419 34.7858 21.1439 34.7677 21.347C34.4584 24.8024 32.9451 28.0394 30.4921 30.4927C28.0391 32.946 24.8023 34.4596 21.3469 34.7693C21.3238 34.7693 21.3 34.7693 21.2769 34.7693Z" fill="white"/>
<path d="M21.5276 37.85C21.3236 37.8591 21.1243 37.7867 20.9737 37.6489C20.823 37.511 20.7332 37.319 20.7242 37.115C20.7151 36.911 20.7874 36.7117 20.9252 36.561C21.0631 36.4103 21.2551 36.3206 21.4591 36.3115C25.2826 35.9685 28.8642 34.2939 31.579 31.5799C34.2939 28.8659 35.9696 25.2848 36.3138 21.4615C36.3341 21.2591 36.4329 21.0727 36.5891 20.9424C36.7453 20.8121 36.9464 20.7483 37.1491 20.7646C37.2498 20.7737 37.3476 20.8025 37.4371 20.8494C37.5266 20.8963 37.6059 20.9604 37.6706 21.0379C37.7354 21.1155 37.7842 21.2051 37.8143 21.3015C37.8444 21.3979 37.8552 21.4994 37.8461 21.6C37.47 25.7825 35.6372 29.7001 32.6676 32.6693C29.698 35.6385 25.7801 37.4706 21.5976 37.8461C21.5745 37.8461 21.5515 37.85 21.5276 37.85Z" fill="white"/>
<path d="M34.0001 19.4907C33.8082 19.4906 33.6233 19.4187 33.4817 19.2892C33.3401 19.1596 33.252 18.9819 33.2347 18.7907C32.9574 15.6945 31.6013 12.794 29.4033 10.5958C27.2052 8.39762 24.3048 7.04134 21.2086 6.76382C21.108 6.75473 21.0101 6.72591 20.9207 6.67901C20.8312 6.63211 20.7518 6.56804 20.6871 6.49047C20.6224 6.4129 20.5736 6.32334 20.5435 6.2269C20.5134 6.13047 20.5026 6.02905 20.5117 5.92844C20.5208 5.82783 20.5496 5.72999 20.5965 5.64051C20.6434 5.55104 20.7074 5.47168 20.785 5.40696C20.8626 5.34225 20.9522 5.29345 21.0486 5.26334C21.145 5.23324 21.2464 5.22242 21.3471 5.23152C24.8025 5.5411 28.0395 7.05456 30.4927 9.50766C32.9459 11.9608 34.4596 15.1976 34.7694 18.6531C34.7875 18.8561 34.7243 19.0581 34.5936 19.2146C34.463 19.3711 34.2755 19.4693 34.0724 19.4877C34.0478 19.49 34.024 19.4907 34.0001 19.4907Z" fill="white"/>
<path d="M37.0769 19.24C36.8843 19.2408 36.6985 19.1693 36.5561 19.0397C36.4136 18.9101 36.325 18.7318 36.3077 18.54C35.9655 14.717 34.2917 11.1356 31.5783 8.42081C28.8649 5.70603 25.2844 4.03033 21.4615 3.68619C21.2583 3.66783 21.0707 3.5695 20.94 3.41283C20.8093 3.25617 20.7462 3.054 20.7646 2.8508C20.783 2.64761 20.8813 2.46003 21.038 2.32933C21.1946 2.19863 21.3968 2.13552 21.6 2.15388C25.7823 2.52993 29.6999 4.36257 32.6691 7.33202C35.6382 10.3015 37.4705 14.2192 37.8461 18.4016C37.8552 18.5022 37.8444 18.6036 37.8143 18.7C37.7842 18.7965 37.7354 18.886 37.6707 18.9636C37.606 19.0412 37.5266 19.1053 37.4371 19.1522C37.3477 19.1991 37.2498 19.2279 37.1492 19.237C37.1261 19.2393 37.1023 19.24 37.0769 19.24Z" fill="white"/>
<path d="M5.99996 19.4908C5.97689 19.4908 5.95304 19.4908 5.92996 19.4908C5.72691 19.4724 5.53944 19.3742 5.40876 19.2177C5.27809 19.0612 5.21488 18.8592 5.23304 18.6562C5.54171 15.2005 7.0545 11.963 9.50722 9.50916C11.9599 7.05531 15.1967 5.54104 18.6523 5.23078C18.8555 5.21242 19.0576 5.27553 19.2143 5.40623C19.371 5.53693 19.4693 5.72451 19.4877 5.92771C19.506 6.1309 19.4429 6.33307 19.3122 6.48974C19.1815 6.6464 18.9939 6.74473 18.7907 6.76309C15.6942 7.04047 12.7936 8.39678 10.5954 10.5952C8.39711 12.7935 7.04099 15.6943 6.76381 18.7908C6.74656 18.9816 6.65869 19.1592 6.51741 19.2887C6.37613 19.4181 6.1916 19.4902 5.99996 19.4908Z" fill="white"/>
<path d="M2.92301 19.24C2.89993 19.24 2.87609 19.24 2.85301 19.24C2.75191 19.2312 2.65355 19.2025 2.56359 19.1555C2.47363 19.1086 2.39386 19.0443 2.32886 18.9663C2.26386 18.8884 2.21493 18.7984 2.18488 18.7014C2.15484 18.6045 2.14426 18.5026 2.15378 18.4015C2.52949 14.2189 4.36197 10.301 7.33145 7.33152C10.3009 4.36204 14.2188 2.52956 18.4015 2.15384C18.6043 2.13794 18.8052 2.20204 18.9614 2.33243C19.1175 2.46283 19.2164 2.64915 19.2369 2.85154C19.246 2.95215 19.2351 3.05357 19.205 3.15001C19.1749 3.24644 19.1261 3.336 19.0614 3.41358C18.9967 3.49115 18.9173 3.55522 18.8279 3.60212C18.7384 3.64902 18.6405 3.67784 18.5399 3.68692C14.7161 4.02927 11.134 5.70389 8.41909 8.41836C5.7042 11.1328 4.02903 14.7147 3.68609 18.5385C3.66921 18.7295 3.58161 18.9073 3.44045 19.0371C3.2993 19.1668 3.11476 19.2392 2.92301 19.24Z" fill="white"/>
<path d="M18.7224 34.7693C18.6993 34.7693 18.6755 34.7693 18.6524 34.7693C15.1969 34.4596 11.9599 32.946 9.50682 30.4928C7.0537 28.0395 5.54028 24.8025 5.23084 21.347C5.21268 21.1439 5.27589 20.9419 5.40657 20.7854C5.53725 20.6289 5.72471 20.5307 5.92777 20.5123C6.13048 20.4962 6.33145 20.5601 6.4876 20.6904C6.64376 20.8207 6.74267 21.0069 6.76315 21.2093C7.04053 24.3057 8.39684 27.2064 10.5952 29.4046C12.7936 31.6029 15.6943 32.959 18.7908 33.2362C18.9949 33.2453 19.1869 33.335 19.3247 33.4857C19.4626 33.6364 19.5349 33.8356 19.5258 34.0396C19.5168 34.2437 19.427 34.4357 19.2763 34.5735C19.1257 34.7114 18.9264 34.7837 18.7224 34.7746V34.7693Z" fill="white"/>
<path d="M18.4707 37.8462C18.4474 37.8473 18.424 37.8473 18.4007 37.8462C14.2182 37.4703 10.3005 35.6377 7.33114 32.6683C4.36182 29.6988 2.52944 25.781 2.15376 21.5985C2.14466 21.4979 2.15547 21.3964 2.18557 21.3C2.21568 21.2036 2.26448 21.114 2.32919 21.0364C2.39391 20.9589 2.47327 20.8948 2.56275 20.8479C2.65223 20.801 2.75007 20.7722 2.85068 20.7631C3.0534 20.747 3.25437 20.8109 3.41052 20.9412C3.56667 21.0714 3.66559 21.2577 3.68607 21.46C4.02932 25.2837 5.70433 28.8654 8.41879 31.5801C11.1332 34.2948 14.7148 35.9702 18.5384 36.3139C18.7424 36.3229 18.9344 36.4127 19.0723 36.5634C19.2101 36.7141 19.2825 36.9133 19.2734 37.1173C19.2643 37.3213 19.1745 37.5134 19.0239 37.6512C18.8732 37.7891 18.6739 37.8614 18.4699 37.8523L18.4707 37.8462Z" fill="white"/>
<path d="M20 21.1208C19.2915 21.1208 18.5989 20.9107 18.0098 20.5171C17.4207 20.1234 16.9615 19.564 16.6904 18.9094C16.4193 18.2548 16.3483 17.5345 16.4866 16.8396C16.6248 16.1447 16.966 15.5064 17.467 15.0054C17.968 14.5044 18.6063 14.1632 19.3012 14.025C19.9961 13.8868 20.7163 13.9577 21.3709 14.2289C22.0255 14.5 22.585 14.9592 22.9786 15.5483C23.3722 16.1374 23.5823 16.83 23.5823 17.5385C23.5813 18.4883 23.2036 19.3988 22.532 20.0704C21.8604 20.742 20.9498 21.1198 20 21.1208ZM20 15.4946C19.5958 15.4946 19.2006 15.6145 18.8645 15.8391C18.5284 16.0637 18.2665 16.3829 18.1118 16.7563C17.9571 17.1298 17.9166 17.5408 17.9955 17.9372C18.0743 18.3337 18.269 18.6979 18.5548 18.9837C18.8407 19.2695 19.2048 19.4642 19.6013 19.5431C19.9978 19.6219 20.4087 19.5814 20.7822 19.4268C21.1556 19.2721 21.4748 19.0101 21.6994 18.674C21.924 18.3379 22.0439 17.9427 22.0439 17.5385C22.0433 16.9966 21.8277 16.4771 21.4446 16.0939C21.0614 15.7108 20.5419 15.4953 20 15.4946Z" fill="white"/>
<path d="M19.9999 29.5608C17.9633 29.5652 15.9596 29.0468 14.1806 28.0554C14.0028 27.9559 13.8716 27.7899 13.816 27.5939C13.6708 27.0679 13.5996 26.5242 13.6045 25.9785C13.6045 24.2823 14.2783 22.6556 15.4776 21.4563C16.677 20.2569 18.3037 19.5831 19.9999 19.5831C21.696 19.5831 23.3227 20.2569 24.5221 21.4563C25.7215 22.6556 26.3953 24.2823 26.3953 25.9785C26.4001 26.5242 26.3289 27.0679 26.1837 27.5939C26.1281 27.7899 25.997 27.9559 25.8191 28.0554C24.0401 29.0468 22.0365 29.5652 19.9999 29.5608ZM15.2245 26.8685C16.7065 27.612 18.3418 27.9992 19.9999 27.9992C21.658 27.9992 23.2932 27.612 24.7753 26.8685C24.8313 26.5739 24.8586 26.2745 24.8568 25.9746C24.8568 24.6865 24.3451 23.4511 23.4342 22.5403C22.5234 21.6294 21.288 21.1177 19.9999 21.1177C18.7117 21.1177 17.4764 21.6294 16.5655 22.5403C15.6547 23.4511 15.1429 24.6865 15.1429 25.9746C15.141 26.2755 15.1683 26.5759 15.2245 26.8716V26.8685Z" fill="white"/>
<path d="M15.6046 19.3623C14.9246 19.363 14.2584 19.1701 13.684 18.8063C13.1095 18.4424 12.6505 17.9226 12.3605 17.3075C12.0706 16.6924 11.9617 16.0075 12.0466 15.3328C12.1315 14.6581 12.4066 14.0216 12.8399 13.4975C13.2731 12.9734 13.8466 12.5834 14.4933 12.3732C15.14 12.1629 15.8331 12.1411 16.4918 12.3102C17.1504 12.4793 17.7473 12.8324 18.2127 13.3282C18.6781 13.824 18.9928 14.442 19.12 15.11C19.1427 15.2107 19.145 15.3151 19.1266 15.4167C19.1081 15.5184 19.0694 15.6153 19.0127 15.7017C18.956 15.7881 18.8825 15.8621 18.7965 15.9195C18.7106 15.9768 18.614 16.0162 18.5124 16.0354C18.4109 16.0546 18.3066 16.0531 18.2056 16.0311C18.1047 16.0091 18.0092 15.9669 17.9249 15.9072C17.8406 15.8474 17.7692 15.7713 17.715 15.6834C17.6607 15.5955 17.6247 15.4975 17.6092 15.3954C17.5266 14.9603 17.3052 14.5638 16.9782 14.2653C16.6512 13.9668 16.2362 13.7824 15.7954 13.7397C15.3547 13.697 14.912 13.7984 14.5338 14.0286C14.1556 14.2589 13.8623 14.6055 13.6978 15.0166C13.5333 15.4277 13.5065 15.8811 13.6215 16.3087C13.7365 16.7363 13.987 17.115 14.3355 17.3882C14.684 17.6613 15.1117 17.8141 15.5544 17.8235C15.997 17.833 16.4309 17.6987 16.7907 17.4407C16.9567 17.3218 17.1631 17.2737 17.3646 17.3069C17.566 17.3402 17.746 17.4521 17.865 17.618C17.9839 17.784 18.032 17.9904 17.9988 18.1919C17.9655 18.3933 17.8536 18.5733 17.6877 18.6923C17.0811 19.1293 16.3521 19.3637 15.6046 19.3623Z" fill="white"/>
<path d="M19.7009 21.1385C19.5823 21.1422 19.4644 21.1191 19.3559 21.0709C19.2475 21.0227 19.1514 20.9507 19.0747 20.8602C18.9979 20.7696 18.9427 20.663 18.9129 20.5481C18.8831 20.4333 18.8797 20.3132 18.9028 20.1968C18.9259 20.0804 18.975 19.9708 19.0464 19.876C19.1177 19.7812 19.2096 19.7038 19.3151 19.6495C19.4205 19.5951 19.5369 19.5653 19.6555 19.5622C19.7741 19.5591 19.8919 19.5828 20.0001 19.6315C20.1371 19.7017 20.253 19.8069 20.336 19.9365C20.4189 20.0661 20.466 20.2155 20.4724 20.3692C20.4724 20.4704 20.4524 20.5707 20.4136 20.6641C20.3748 20.7576 20.3179 20.8425 20.2463 20.914C20.1746 20.9854 20.0895 21.042 19.9959 21.0806C19.9023 21.1191 19.8021 21.1388 19.7009 21.1385Z" fill="white"/>
<path d="M14.4616 27.7315C14.4385 27.7315 14.4146 27.7315 14.3916 27.7315C12.7721 27.5869 11.2019 27.0991 9.78542 26.3008C9.61057 26.2023 9.48111 26.0395 9.42465 25.8469C9.27411 25.319 9.2013 24.772 9.20849 24.2231C9.21012 22.5273 9.88442 20.9015 11.0834 19.7024C12.2824 18.5032 13.9081 17.8287 15.6039 17.8269C16.3729 17.8226 17.1359 17.963 17.8531 18.2408C17.9491 18.2762 18.037 18.3304 18.1117 18.4002C18.1865 18.47 18.2465 18.554 18.2884 18.6473C18.3303 18.7406 18.3532 18.8414 18.3557 18.9436C18.3582 19.0458 18.3402 19.1476 18.303 19.2428C18.2657 19.338 18.2098 19.4249 18.1385 19.4983C18.0673 19.5716 17.9821 19.6301 17.888 19.6701C17.7939 19.7102 17.6927 19.7311 17.5905 19.7316C17.4882 19.7321 17.3868 19.7122 17.2923 19.6731C16.7525 19.4654 16.1784 19.361 15.6 19.3654C14.3123 19.367 13.0777 19.8793 12.1672 20.79C11.2567 21.7007 10.7445 22.9353 10.7431 24.2231C10.7394 24.522 10.7652 24.8207 10.82 25.1146C11.9712 25.7158 13.2295 26.0844 14.5231 26.1992C14.7271 26.2083 14.9192 26.298 15.057 26.4487C15.1949 26.5994 15.2672 26.7987 15.2581 27.0027C15.249 27.2067 15.1593 27.3987 15.0086 27.5366C14.8579 27.6744 14.6587 27.7468 14.4546 27.7377L14.4616 27.7315Z" fill="white"/>
<path d="M24.3954 19.3623C23.6477 19.3633 22.9187 19.1283 22.3123 18.6908C22.2302 18.6319 22.1606 18.5574 22.1073 18.4716C22.054 18.3858 22.0181 18.2903 22.0017 18.1906C21.9686 17.9893 22.0168 17.7831 22.1358 17.6173C22.2547 17.4515 22.4346 17.3398 22.6359 17.3067C22.8373 17.2736 23.0435 17.3218 23.2092 17.4408C23.5542 17.6907 23.9694 17.8253 24.3954 17.8254C24.7833 17.8259 25.1633 17.716 25.4911 17.5086C25.8188 17.3012 26.0808 17.0048 26.2464 16.654C26.412 16.3032 26.4743 15.9126 26.4261 15.5277C26.378 15.1428 26.2212 14.7796 25.9743 14.4804C25.7274 14.1813 25.4004 13.9586 25.0317 13.8384C24.6629 13.7181 24.2675 13.7053 23.8917 13.8014C23.5159 13.8975 23.1752 14.0986 22.9094 14.3811C22.6437 14.6636 22.4638 15.016 22.3908 15.3969C22.3752 15.4991 22.3393 15.597 22.285 15.685C22.2308 15.7729 22.1594 15.849 22.0751 15.9087C21.9908 15.9685 21.8953 16.0106 21.7943 16.0327C21.6934 16.0547 21.5891 16.0562 21.4875 16.037C21.386 16.0178 21.2894 15.9784 21.2034 15.921C21.1175 15.8637 21.044 15.7896 20.9873 15.7033C20.9306 15.6169 20.8918 15.52 20.8734 15.4183C20.855 15.3166 20.8572 15.2123 20.88 15.1115C21.0075 14.444 21.3222 13.8266 21.7875 13.3313C22.2528 12.8361 22.8494 12.4834 23.5076 12.3146C24.1659 12.1457 24.8585 12.1677 25.5048 12.3779C26.151 12.5881 26.7241 12.9778 27.1571 13.5015C27.59 14.0253 27.865 14.6614 27.95 15.3356C28.0349 16.0099 27.9262 16.6943 27.6366 17.3091C27.347 17.9238 26.8884 18.4435 26.3145 18.8073C25.7406 19.1712 25.0749 19.3642 24.3954 19.3638V19.3623Z" fill="white"/>
<path d="M25.5385 27.7315C25.4374 27.736 25.3365 27.7206 25.2415 27.6861C25.1464 27.6516 25.0591 27.5987 24.9845 27.5304C24.8338 27.3926 24.7441 27.2006 24.735 26.9965C24.7259 26.7925 24.7983 26.5933 24.9361 26.4426C25.0739 26.2919 25.266 26.2022 25.47 26.1931C26.7636 26.0782 28.0219 25.7097 29.1731 25.1085C29.2279 24.8145 29.2537 24.5159 29.25 24.2169C29.2486 22.9292 28.7364 21.6945 27.8259 20.7839C26.9154 19.8732 25.6808 19.3609 24.3931 19.3592C23.8147 19.3548 23.2406 19.4592 22.7008 19.6669C22.6063 19.7061 22.5049 19.726 22.4026 19.7255C22.3004 19.7249 22.1992 19.7041 22.1051 19.664C22.011 19.6239 21.9258 19.5655 21.8546 19.4921C21.7833 19.4188 21.7274 19.3319 21.6901 19.2367C21.6529 19.1414 21.6349 19.0397 21.6374 18.9375C21.6399 18.8352 21.6628 18.7345 21.7047 18.6412C21.7466 18.5479 21.8066 18.4639 21.8814 18.3941C21.9561 18.3242 22.0441 18.27 22.14 18.2346C22.8572 17.9569 23.6202 17.8165 24.3892 17.8208C26.085 17.8226 27.7107 18.4971 28.9097 19.6962C30.1087 20.8954 30.783 22.5212 30.7846 24.2169C30.7918 24.7658 30.719 25.3129 30.5685 25.8408C30.512 26.0333 30.3825 26.1962 30.2077 26.2946C28.7912 27.093 27.2211 27.5807 25.6015 27.7254C25.5846 27.7308 25.5608 27.7315 25.5385 27.7315Z" fill="white"/>
<path d="M20.2993 21.1385C20.0952 21.1385 19.8996 21.0575 19.7553 20.9132C19.6111 20.7689 19.53 20.5733 19.53 20.3693C19.5362 20.2157 19.5829 20.0666 19.6655 19.937C19.748 19.8074 19.8635 19.702 20 19.6316C20.1067 19.5888 20.2215 19.5701 20.3362 19.5768C20.451 19.5834 20.5628 19.6153 20.6638 19.6702C20.7648 19.725 20.8525 19.8015 20.9206 19.8941C20.9886 19.9867 21.0354 20.0931 21.0577 20.2059C21.0799 20.3187 21.077 20.4349 21.0491 20.5464C21.0212 20.6579 20.9691 20.7619 20.8965 20.851C20.8238 20.94 20.7324 21.012 20.6288 21.0617C20.5252 21.1114 20.4119 21.1376 20.297 21.1385H20.2993Z" fill="white"/>
</svg>
