<svg width="40" height="40" viewBox="0 0 40 40" fill="none" xmlns="http://www.w3.org/2000/svg">
<g clip-path="url(#clip0_912_4832)">
<path d="M1.04208 25.6356H24.9258C25.1491 25.6357 25.3637 25.5484 25.5235 25.3924C25.6833 25.2363 25.7759 25.024 25.7812 24.8007V0.896509C25.7812 0.669635 25.6911 0.452054 25.5307 0.291623C25.3702 0.131198 25.1526 0.0410767 24.9258 0.0410767H1.04208C0.815204 0.0410767 0.597623 0.131198 0.437198 0.291623C0.276774 0.452054 0.186646 0.669635 0.186646 0.896509V24.8007C0.192004 25.024 0.284493 25.2363 0.444343 25.3924C0.604186 25.5484 0.818714 25.6357 1.04208 25.6356ZM1.89751 1.75194H24.0703V23.9248H1.89751V1.75194Z" fill="white"/>
<path d="M25.0284 28.0855C24.8015 28.0855 24.5839 28.1757 24.4235 28.3361C24.2631 28.4965 24.173 28.714 24.173 28.941V33.5261L19.3826 30.3576C19.2204 30.2561 19.0292 30.2113 18.8389 30.2304C18.6486 30.2495 18.47 30.3313 18.3313 30.463C18.1926 30.5946 18.1017 30.7687 18.0726 30.9577C18.0437 31.1468 18.0784 31.3401 18.1713 31.5073L19.8068 34.2447H6.32523L7.95397 31.6441C8.0504 31.4792 8.08934 31.2869 8.06463 31.0974C8.03993 30.908 7.95302 30.7321 7.81758 30.5974C7.68208 30.4627 7.50566 30.3768 7.3161 30.3532C7.12646 30.3296 6.93444 30.3697 6.77006 30.4671L1.89751 33.5603V28.941C1.89751 28.714 1.80738 28.4965 1.64696 28.3361C1.48653 28.1757 1.26895 28.0855 1.04208 28.0855C0.815204 28.0855 0.597623 28.1757 0.437198 28.3361C0.276774 28.4965 0.186646 28.714 0.186646 28.941V35.1001C0.194981 35.2356 0.233763 35.3675 0.30011 35.486C0.366464 35.6045 0.458673 35.7065 0.569879 35.7844L6.66056 39.8563C6.80024 39.9499 6.96461 39.9999 7.13276 40C7.28167 39.999 7.42778 39.9596 7.55692 39.8854C7.68598 39.8112 7.7937 39.7048 7.86953 39.5767C7.94528 39.4485 7.98662 39.3029 7.98942 39.154C7.99223 39.0051 7.95644 38.858 7.88554 38.7271L6.24995 35.9897H19.7521L18.1507 38.5766C18.0497 38.7405 18.007 38.9337 18.0293 39.1249C18.0517 39.3161 18.1379 39.4941 18.2741 39.6303C18.4102 39.7664 18.5883 39.8527 18.7795 39.875C18.9707 39.8974 19.1639 39.8547 19.3278 39.7536L25.4869 35.846C25.641 35.7499 25.7589 35.6055 25.8223 35.4354C25.8652 35.3335 25.8884 35.2243 25.8907 35.1138V28.9547C25.8925 28.8406 25.8715 28.7273 25.8289 28.6215C25.7863 28.5157 25.723 28.4194 25.6426 28.3384C25.5623 28.2574 25.4665 28.1933 25.3611 28.1499C25.2556 28.1065 25.1425 28.0846 25.0284 28.0855Z" fill="white"/>
<path d="M39.9882 18.1625C39.853 18.0236 39.6755 17.9334 39.4835 17.9062C39.2915 17.8789 39.096 17.9162 38.9275 18.012L36.1901 19.6544V6.17964L38.7906 7.80838C38.9544 7.90939 39.1476 7.95223 39.3389 7.92985C39.5301 7.90748 39.7082 7.82118 39.8444 7.68506C39.9805 7.54895 40.0667 7.37081 40.0891 7.17961C40.1115 6.9884 40.0687 6.79521 39.9677 6.63131L36.1285 0.540633C36.0646 0.381954 35.9551 0.245824 35.8138 0.149557C35.6724 0.05329 35.5057 0.00123182 35.3347 0H29.1755C28.9486 0 28.7311 0.0901285 28.5706 0.250553C28.4102 0.410977 28.3201 0.628558 28.3201 0.855433C28.3201 1.08231 28.4102 1.29989 28.5706 1.46031C28.7311 1.62074 28.9486 1.71087 29.1755 1.71087H33.7538L30.5579 6.50128C30.4594 6.66286 30.4174 6.85249 30.4382 7.04055C30.459 7.22861 30.5416 7.40441 30.673 7.54053C30.8044 7.67665 30.9773 7.76534 31.1645 7.79278C31.3517 7.82015 31.5427 7.78477 31.7076 7.69204L34.445 6.05646V19.5381L31.8376 17.9572C31.6733 17.8599 31.4812 17.8198 31.2916 17.8434C31.102 17.867 30.9256 17.9529 30.7901 18.0876C30.6546 18.2223 30.5677 18.3982 30.543 18.5877C30.5184 18.7771 30.5572 18.9694 30.6537 19.1343L33.7333 24.0137H29.1413C28.9144 24.0137 28.6968 24.1038 28.5364 24.2642C28.376 24.4247 28.2859 24.6423 28.2859 24.8691C28.2859 25.096 28.376 25.3136 28.5364 25.474C28.6968 25.6344 28.9144 25.7246 29.1413 25.7246H35.3004C35.4036 25.7213 35.5054 25.7004 35.6015 25.663C35.7745 25.6054 35.9237 25.4924 36.0258 25.3413L40.0498 19.2233C40.1606 19.0654 40.2148 18.8747 40.2036 18.6822C40.1924 18.4897 40.1165 18.3065 39.9882 18.1625Z" fill="white"/>
</g>
<defs>
<clipPath id="clip0_912_4832">
<rect width="40" height="40" fill="white"/>
</clipPath>
</defs>
</svg>
