<svg width="40" height="40" viewBox="0 0 40 40" fill="none" xmlns="http://www.w3.org/2000/svg">
<path d="M22.2569 31.7431L14.7656 34.9081C14.3619 34.5057 14.0599 34.013 13.8844 33.4706C14.8419 32.4375 20.0038 28.9312 21.875 28.0787C21.9498 28.0447 22.0171 27.9963 22.0731 27.9363C22.1291 27.8763 22.1727 27.8058 22.2015 27.7289C22.2303 27.652 22.2437 27.5702 22.2408 27.4881C22.238 27.4061 22.219 27.3254 22.185 27.2506C22.151 27.1759 22.1026 27.1086 22.0426 27.0526C21.9825 26.9965 21.9121 26.9529 21.8352 26.9241C21.7583 26.8953 21.6764 26.882 21.5944 26.8848C21.5123 26.8876 21.4316 26.9066 21.3569 26.9406C19.7906 27.6544 14.4863 31.0419 12.9888 32.6281C11.0869 31.9544 9.05127 32.25 7.07127 32.5494C6.01328 32.7425 4.94102 32.847 3.86565 32.8619H3.74065C3.69815 32.8619 3.62752 32.8619 3.57627 32.8619C3.34477 32.6525 3.0539 32.5203 2.74395 32.4836C2.434 32.4469 2.12029 32.5074 1.84627 32.6569C1.64663 32.7775 1.48893 32.9567 1.39456 33.17C1.3002 33.3833 1.27374 33.6205 1.31877 33.8494C1.2394 35.0419 1.1269 37.6731 1.60877 38.4325C1.66728 38.5227 1.74721 38.597 1.84144 38.6488C1.93566 38.7006 2.04125 38.7283 2.14877 38.7294H2.16315C2.5619 38.7194 2.71252 38.4544 3.04377 37.8737C3.99752 36.1987 4.40002 35.9325 4.54377 35.9219C4.57811 35.9295 4.61302 35.9344 4.64815 35.9362C12.5038 36.3494 12.6131 36.3525 12.6413 36.3525C13.3985 36.3762 14.1562 36.3243 14.9031 36.1975C14.9206 36.1931 14.9331 36.1812 14.95 36.1756C14.9669 36.1734 14.9835 36.1703 15 36.1662L22.7444 32.8944C22.8217 32.8636 22.892 32.8178 22.9514 32.7595C23.0107 32.7012 23.0578 32.6316 23.0899 32.5549C23.122 32.4781 23.1385 32.3958 23.1383 32.3126C23.1382 32.2294 23.1214 32.1471 23.0891 32.0705C23.0567 31.9939 23.0094 31.9245 22.9499 31.8664C22.8903 31.8083 22.8198 31.7626 22.7424 31.7322C22.665 31.7017 22.5823 31.6869 22.4992 31.6888C22.416 31.6907 22.3341 31.7092 22.2581 31.7431H22.2569ZM4.7569 34.6906C3.8494 34.5319 3.09252 35.4119 2.50377 36.3306C2.48752 35.5844 2.51252 34.6687 2.56627 33.8475C2.56926 33.8058 2.56779 33.7639 2.5619 33.7225C2.65676 33.7418 2.74377 33.7887 2.8119 33.8575C2.94545 33.9599 3.09788 34.0349 3.26046 34.0784C3.42303 34.1218 3.59258 34.1328 3.7594 34.1106H3.8369C4.98301 34.0989 6.12607 33.9899 7.25377 33.785C9.20565 33.4887 11.0525 33.2225 12.6913 33.8475C12.8449 34.2824 13.0464 34.6989 13.2919 35.0894C13.0681 35.0956 12.8475 35.0994 12.6544 35.1012C12.495 35.0969 7.44565 34.8319 4.75752 34.6906H4.7569Z" fill="white"></path>
<path d="M38.4555 26.0319C37.9399 25.1031 37.1243 25.1894 36.5181 25.25L33.0049 25.6119C32.1924 25.6956 31.3174 25.8619 30.4737 26.0256C30.0262 26.1119 29.5737 26.1956 29.128 26.27C29.4847 25.4165 29.6594 24.4979 29.6409 23.573C29.6224 22.6482 29.4111 21.7373 29.0205 20.8988C28.2337 19.3031 27.0099 18.2838 25.6706 18.0725L25.6618 17.94C26.3335 16.611 26.5146 15.0875 26.173 13.6381C26.173 13.6287 26.1806 13.62 26.1831 13.61C26.3122 13.1299 26.2453 12.6181 25.9972 12.1873C25.7491 11.7564 25.34 11.4418 24.8599 11.3125C24.7574 11.2864 24.6529 11.2693 24.5474 11.2613C24.3413 11.1663 24.1297 11.0839 23.9137 11.0144C25.923 9.67617 28.0837 8.58042 30.3505 7.75C30.4377 7.72018 30.5171 7.67147 30.5833 7.60736C30.6494 7.54325 30.7005 7.46532 30.733 7.37915C30.7655 7.29298 30.7785 7.20069 30.7712 7.10889C30.7638 7.01709 30.7363 6.92804 30.6905 6.84812L27.6618 1.5625C27.5871 1.43202 27.4679 1.33284 27.326 1.28313C27.1841 1.23343 27.0291 1.23653 26.8893 1.29187C24.3482 2.40537 21.9011 3.72215 19.5718 5.22937C19.4987 5.27575 19.4361 5.3368 19.3878 5.40865C19.3395 5.48051 19.3067 5.5616 19.2915 5.6468C19.2762 5.732 19.2788 5.81944 19.299 5.90359C19.3193 5.98773 19.3569 6.06675 19.4093 6.13562L22.9506 10.7856C22.0163 10.6477 21.0621 10.7685 20.1918 11.135C19.8166 11.0829 19.4344 11.1456 19.0955 11.315C17.6374 12.0444 16.618 14.1425 16.7474 15.93C16.3823 16.0481 16.0519 16.2543 15.7853 16.5302C15.5187 16.8062 15.3241 17.1436 15.2187 17.5125C14.9062 18.7 15.4855 19.8188 16.0474 20.8994C16.5474 21.8581 17.0162 22.7631 16.8818 23.6569C16.8684 23.7458 16.8744 23.8366 16.8993 23.9231C16.9242 24.0095 16.9674 24.0896 17.0261 24.1577C17.0848 24.2259 17.1575 24.2806 17.2393 24.3181C17.3211 24.3556 17.41 24.375 17.4999 24.375C17.5235 24.3751 17.5471 24.3737 17.5705 24.3706C18.1055 24.3236 18.6171 24.1299 19.0492 23.8109C19.4812 23.4919 19.8169 23.0599 20.0193 22.5625C20.397 21.5123 20.3599 20.3576 19.9155 19.3337C20.4756 19.6129 21.0733 19.8089 21.6899 19.9156C21.6493 19.9862 21.6037 20.0513 21.5649 20.125C21.2377 20.7915 21.1708 21.5562 21.3774 22.2694C21.6234 22.9506 21.9695 23.5914 22.4043 24.1706C22.6999 24.5794 22.956 25.0153 23.1693 25.4725L24.1862 33.3787L24.3749 36.1875C24.3823 36.301 24.4206 36.4104 24.4856 36.5038C24.5505 36.5972 24.6398 36.6711 24.7437 36.7175C27.1293 37.78 28.2074 38.0744 28.7481 38.0744C28.8597 38.0849 28.9722 38.0676 29.0755 38.024C29.1788 37.9804 29.2697 37.9118 29.3399 37.8244C29.4469 37.7053 29.5128 37.5549 29.5276 37.3955C29.5425 37.2361 29.5056 37.0762 29.4224 36.9394C28.9525 36.0238 28.2857 35.2236 27.4699 34.5963C27.3239 34.4959 27.2049 34.3611 27.1234 34.2038C27.0418 34.0465 27.0003 33.8715 27.0024 33.6944L26.9899 32.5113H27.0249C27.1274 32.5063 27.2268 32.5013 27.3156 32.4994C27.5229 32.4875 27.729 32.4591 27.9318 32.4144C27.8518 32.4994 27.7787 32.5794 27.7193 32.6494L27.5499 32.8481C27.4422 32.9741 27.3889 33.1377 27.4018 33.303C27.4147 33.4683 27.4927 33.6216 27.6187 33.7294C27.7447 33.8371 27.9083 33.8904 28.0735 33.8775C28.2388 33.8646 28.3922 33.7866 28.4999 33.6606L28.6718 33.4606C29.238 32.8553 29.8351 32.2795 30.4605 31.7356C31.8437 31.3106 33.4462 30.7575 34.8531 30.2075C34.553 30.4056 34.2505 30.5987 33.9499 30.7831C32.438 31.7119 30.943 32.7206 29.4968 33.6987L28.678 34.2513C28.5671 34.3261 28.483 34.4347 28.4384 34.5609C28.3937 34.6871 28.3908 34.8243 28.43 34.9524C28.4692 35.0804 28.5484 35.1924 28.6561 35.272C28.7638 35.3516 28.8942 35.3945 29.028 35.3944C29.152 35.3938 29.2728 35.3559 29.3749 35.2856L30.1949 34.7325C31.6324 33.7631 33.1137 32.7612 34.6031 31.8462C35.5646 31.2949 36.463 30.6402 37.2824 29.8938C37.3224 29.8556 37.373 29.8088 37.4305 29.7569C37.951 29.3784 38.3307 28.8375 38.5099 28.2194C38.6774 27.8773 38.7599 27.4998 38.7505 27.119C38.741 26.7382 38.6398 26.3653 38.4555 26.0319ZM26.8505 2.66313L29.2362 6.825C27.298 7.59937 25.4387 8.55793 23.6837 9.6875L20.8187 5.92438C22.7551 4.70541 24.7702 3.61594 26.8505 2.66313ZM23.7956 15.625L25.0774 14.885C25.1543 15.7625 24.9597 16.6424 24.5199 17.4056C24.4353 17.5233 24.3942 17.6667 24.4037 17.8113L24.4218 18.0919C24.3231 18.1075 24.228 18.13 24.1324 18.1513C24.1793 17.2955 24.065 16.4386 23.7956 15.625ZM24.9162 12.8125C24.9989 12.956 25.0212 13.1264 24.9783 13.2864C24.9354 13.4463 24.8308 13.5827 24.6874 13.6656L22.5218 14.9156C22.3784 14.9984 22.208 15.0208 22.048 14.978C21.8881 14.9353 21.7517 14.8308 21.6687 14.6875C21.5858 14.544 21.5633 14.3734 21.6062 14.2133C21.6491 14.0531 21.7539 13.9166 21.8974 13.8338L24.0624 12.5838C24.1574 12.5287 24.2652 12.4998 24.3749 12.5C24.4298 12.5003 24.4844 12.5074 24.5374 12.5213C24.6973 12.5643 24.8335 12.6691 24.9162 12.8125ZM22.5693 12L22.0599 12.2944C21.9662 12.1862 21.8724 12.0919 21.7749 11.9988C22.0391 11.9735 22.3052 11.974 22.5693 12ZM19.6543 12.4325C20.108 12.2063 20.6074 12.5712 20.978 12.9606C20.7505 13.1602 20.5745 13.4117 20.4649 13.6939C20.3554 13.976 20.3155 14.2804 20.3487 14.5813L18.0093 15.2925C18.1249 14.1319 18.7962 12.8631 19.6543 12.4375V12.4325ZM18.8643 22.0863C18.7233 22.4401 18.4631 22.7334 18.1287 22.9156C17.9625 22.0007 17.6333 21.123 17.1568 20.3244C16.683 19.4138 16.2368 18.5544 16.4224 17.8481C16.4846 17.6278 16.6163 17.4335 16.7978 17.2941C16.9793 17.1547 17.2011 17.0776 17.4299 17.0744H17.4499C17.547 17.0735 17.6428 17.0522 17.7312 17.0119C17.7123 17.0266 17.6945 17.0427 17.678 17.06C17.5713 17.1691 17.5082 17.3135 17.5006 17.4659C17.493 17.6184 17.5414 17.7683 17.6368 17.8875C19.0755 19.6875 19.2143 21.2369 18.8643 22.0863ZM18.5043 17.0031C18.413 16.9335 18.3043 16.8903 18.19 16.8784C18.0758 16.8665 17.9605 16.8863 17.8568 16.9356C17.8928 16.9065 17.9253 16.8734 17.9537 16.8369C18.0121 16.762 18.0527 16.6748 18.0724 16.5819L20.913 15.7188C21.1383 15.9431 21.4183 16.1047 21.7253 16.1875C22.0322 16.2704 22.3555 16.2717 22.6631 16.1913C23.0487 17.5719 22.9249 18.4581 22.7087 18.5888C21.9374 19.0575 19.9662 18.1206 18.5043 17.0031ZM22.5862 21.9375C22.4617 21.5233 22.4963 21.0776 22.683 20.6875C22.9057 20.2436 23.2528 19.8742 23.682 19.6244C24.1113 19.3747 24.604 19.2554 25.0999 19.2812C26.708 19.2275 27.6462 20.9331 27.9018 21.4513C28.2325 22.1727 28.4018 22.9576 28.398 23.7512C28.3943 24.5448 28.2174 25.328 27.8799 26.0462C27.5549 26.7919 27.2437 27.4444 26.9424 28.02L26.8749 21.57C26.8771 21.3655 26.8366 21.1627 26.756 20.9747C26.6754 20.7867 26.5565 20.6176 26.4068 20.4781C25.9428 20.1057 25.3502 19.9322 24.7587 19.9956C23.4743 20.0825 22.683 20.7413 22.6962 21.715C22.6966 21.7392 22.6983 21.7634 22.7012 21.7875L22.778 22.3856C22.7 22.2427 22.6357 22.0926 22.5862 21.9375ZM27.6912 36.5525C27.0868 36.3438 26.3162 36.0381 25.5968 35.7275L25.4337 33.2606L23.9449 21.675C23.9743 21.3194 24.6949 21.2531 24.8418 21.2431C25.0908 21.2062 25.3449 21.2601 25.5574 21.395C25.5822 21.4191 25.6011 21.4485 25.6128 21.481C25.6245 21.5135 25.6286 21.5482 25.6249 21.5825L25.7499 33.7075C25.7499 34.0895 25.8438 34.4656 26.0236 34.8026C26.2033 35.1397 26.4633 35.4273 26.7805 35.64C27.1309 35.8928 27.4384 36.2003 27.6912 36.5506V36.5525ZM27.2912 31.25C27.1943 31.25 27.0868 31.2569 26.9787 31.2631L26.9699 30.4044C27.5717 29.5216 28.0973 28.5893 28.5412 27.6175C29.2518 27.5269 29.9906 27.3931 30.7143 27.2544C31.5324 27.0975 32.3774 26.9356 33.1374 26.8575L36.6587 26.4944C37.2505 26.4319 37.2649 26.46 37.3649 26.64C37.4434 26.7852 37.4896 26.9457 37.5004 27.1104C37.5112 27.2751 37.4863 27.4402 37.4274 27.5944C37.4039 27.6215 37.3829 27.6508 37.3649 27.6819C36.7456 28.2131 32.7805 29.7169 29.9587 30.5938C29.9421 30.5978 29.9259 30.6028 29.9099 30.6087C29.0601 30.9078 28.183 31.1226 27.2912 31.25Z" fill="white"></path>
<path d="M27.5813 11.84C27.4612 11.9362 27.3809 12.0733 27.3556 12.2251C27.3304 12.3769 27.362 12.5326 27.4444 12.6625L31.0894 18.4194C31.1364 18.4935 31.1985 18.557 31.2716 18.6055C31.3447 18.6541 31.4272 18.6867 31.5138 18.7013C31.5479 18.7069 31.5824 18.7098 31.6169 18.71C31.759 18.7099 31.8967 18.6614 32.0075 18.5725C37.28 14.3525 39.7688 10.1744 38.3357 7.91063L34.75 2.65688C34.6484 2.5021 34.5272 2.36113 34.3894 2.23751C33.5869 1.78071 32.7172 1.45375 31.8125 1.26876C31.5747 1.22895 31.3303 1.25857 31.1089 1.35407C30.8874 1.44957 30.6981 1.6069 30.5638 1.8072C30.4294 2.00751 30.3557 2.2423 30.3514 2.48345C30.347 2.72461 30.4123 2.96189 30.5394 3.16688L31.9769 5.34501C32.0714 5.47536 32.2125 5.56424 32.3709 5.59312C32.5293 5.62199 32.6927 5.58864 32.8271 5.50001C32.9615 5.41138 33.0565 5.27431 33.0923 5.11736C33.1281 4.9604 33.102 4.79568 33.0194 4.65751L31.5957 2.50001C32.2708 2.65457 32.928 2.87868 33.5569 3.16876C33.603 3.20947 33.6449 3.25469 33.6819 3.30376L33.6875 3.31251L33.72 3.36001C33.8152 3.50853 33.8592 3.68416 33.845 3.86001C33.6563 5.83063 31.2575 8.88938 27.5813 11.84ZM34.855 5.02751L37.2925 8.59876C38.1269 9.91626 36.48 13.2438 31.7694 17.1563L28.7982 12.4631C31.9838 9.82688 34.1538 7.15001 34.855 5.02626V5.02751Z" fill="white"></path>
<path d="M16.2575 1.25H16.25C16.0855 1.24999 15.9277 1.31481 15.8107 1.4304C15.6937 1.54599 15.627 1.70304 15.625 1.8675L15.6175 2.4925C15.6165 2.57463 15.6317 2.65615 15.6622 2.7324C15.6928 2.80865 15.738 2.87813 15.7954 2.93687C15.8528 2.99561 15.9213 3.04246 15.9968 3.07474C16.0723 3.10703 16.1535 3.1241 16.2356 3.125H16.2425C16.4069 3.12501 16.5648 3.06019 16.6818 2.9446C16.7988 2.82901 16.8655 2.67196 16.8675 2.5075L16.875 1.8825C16.876 1.80042 16.8608 1.71895 16.8303 1.64275C16.7998 1.56654 16.7546 1.49708 16.6972 1.43835C16.6399 1.37961 16.5715 1.33275 16.4961 1.30043C16.4206 1.26812 16.3396 1.25098 16.2575 1.25Z" fill="white"></path>
<path d="M15.6251 3.76439C15.6269 3.59873 15.5629 3.43912 15.4471 3.32064C15.3313 3.20215 15.1733 3.13449 15.0076 3.13251L14.3826 3.12501H14.3751C14.293 3.12452 14.2117 3.1402 14.1356 3.17115C14.0596 3.20211 13.9904 3.24773 13.9321 3.30542C13.8737 3.36311 13.8272 3.43173 13.7954 3.50737C13.7635 3.58301 13.7468 3.66419 13.7463 3.74626C13.7459 3.82834 13.7615 3.90971 13.7925 3.98572C13.8234 4.06174 13.8691 4.13092 13.9268 4.1893C13.9844 4.24769 14.0531 4.29414 14.1287 4.326C14.2043 4.35787 14.2855 4.37452 14.3676 4.37501L14.9926 4.38251H15.0001C15.1647 4.38252 15.3226 4.31762 15.4396 4.20189C15.5566 4.08616 15.6233 3.92895 15.6251 3.76439Z" fill="white"></path>
<path d="M17.4926 4.3675L18.1176 4.375H18.1251C18.2072 4.3755 18.2885 4.35982 18.3646 4.32886C18.4406 4.29791 18.5098 4.25229 18.5681 4.1946C18.6265 4.13691 18.673 4.06829 18.7048 3.99265C18.7367 3.91701 18.7534 3.83583 18.7538 3.75375C18.7543 3.67168 18.7387 3.59031 18.7077 3.51429C18.6768 3.43827 18.6311 3.3691 18.5734 3.31071C18.5158 3.25233 18.4471 3.20588 18.3715 3.17401C18.2959 3.14215 18.2147 3.1255 18.1326 3.125L17.5076 3.1175H17.5001C17.418 3.11701 17.3367 3.13269 17.2606 3.16364C17.1846 3.1946 17.1154 3.24022 17.0571 3.29791C16.9987 3.3556 16.9522 3.42422 16.9204 3.49986C16.8885 3.5755 16.8718 3.65668 16.8713 3.73875C16.8709 3.82083 16.8865 3.9022 16.9175 3.97822C16.9484 4.05423 16.9941 4.12341 17.0518 4.18179C17.1094 4.24018 17.1781 4.28663 17.2537 4.31849C17.3293 4.35036 17.4105 4.36701 17.4926 4.3675Z" fill="white"></path>
<path d="M16.2356 6.25H16.2425C16.4069 6.25001 16.5648 6.18519 16.6818 6.0696C16.7988 5.95401 16.8655 5.79696 16.8675 5.6325L16.875 5.0075C16.876 4.92542 16.8608 4.84395 16.8303 4.76775C16.7998 4.69154 16.7546 4.62208 16.6972 4.56335C16.6399 4.50461 16.5715 4.45775 16.4961 4.42543C16.4206 4.39312 16.3396 4.37598 16.2575 4.375H16.25C16.0855 4.37499 15.9277 4.43981 15.8107 4.5554C15.6937 4.67099 15.627 4.82804 15.625 4.9925L15.6175 5.6175C15.6165 5.69963 15.6317 5.78115 15.6622 5.8574C15.6928 5.93365 15.738 6.00313 15.7954 6.06187C15.8528 6.12061 15.9213 6.16746 15.9968 6.19974C16.0723 6.23203 16.1535 6.2491 16.2356 6.25Z" fill="white"></path>
<path d="M12.5075 8.75751H12.5C12.3355 8.7575 12.1777 8.82231 12.0607 8.93791C11.9437 9.0535 11.877 9.21055 11.875 9.37501L11.8675 10C11.8665 10.0821 11.8817 10.1637 11.9122 10.2399C11.9428 10.3162 11.988 10.3856 12.0454 10.4444C12.1028 10.5031 12.1713 10.55 12.2468 10.5823C12.3223 10.6145 12.4035 10.6316 12.4856 10.6325H12.4925C12.6571 10.6325 12.815 10.5676 12.932 10.4519C13.049 10.3362 13.1157 10.1789 13.1175 10.0144L13.125 9.38938C13.1268 9.22373 13.0628 9.06412 12.947 8.94563C12.8312 8.82715 12.6731 8.75949 12.5075 8.75751Z" fill="white"></path>
<path d="M11.2575 10.6394L10.6325 10.6325C10.5501 10.6302 10.4681 10.6445 10.3913 10.6746C10.3146 10.7046 10.2446 10.7498 10.1856 10.8074C10.1266 10.865 10.0798 10.9338 10.0479 11.0099C10.016 11.0859 9.99976 11.1676 10 11.25C9.99905 11.3321 10.0142 11.4135 10.0447 11.4898C10.0752 11.566 10.1204 11.6354 10.1778 11.6941C10.2351 11.7529 10.3035 11.7997 10.3789 11.8321C10.4544 11.8644 10.5355 11.8815 10.6175 11.8825L11.2425 11.8894H11.25C11.3321 11.8899 11.4135 11.8742 11.4895 11.8432C11.5655 11.8123 11.6347 11.7667 11.6931 11.709C11.7515 11.6513 11.7979 11.5827 11.8298 11.507C11.8616 11.4314 11.8783 11.3502 11.8788 11.2681C11.8793 11.186 11.8636 11.1047 11.8327 11.0287C11.8017 10.9526 11.7561 10.8835 11.6984 10.8251C11.6407 10.7667 11.5721 10.7202 11.4964 10.6884C11.4208 10.6565 11.3396 10.6399 11.2575 10.6394Z" fill="white"></path>
<path d="M13.7424 11.875L14.3674 11.8825H14.3749C14.457 11.883 14.5383 11.8673 14.6144 11.8364C14.6904 11.8054 14.7596 11.7598 14.8179 11.7021C14.8763 11.6444 14.9228 11.5758 14.9546 11.5001C14.9865 11.4245 15.0032 11.3433 15.0036 11.2612C15.0041 11.1792 14.9885 11.0978 14.9575 11.0218C14.9266 10.9458 14.8809 10.8766 14.8232 10.8182C14.7656 10.7598 14.6969 10.7134 14.6213 10.6815C14.5456 10.6496 14.4645 10.633 14.3824 10.6325L13.7574 10.625C13.6746 10.6212 13.5919 10.6345 13.5145 10.664C13.437 10.6935 13.3664 10.7386 13.3071 10.7965C13.2478 10.8544 13.201 10.9238 13.1697 11.0006C13.1383 11.0773 13.1231 11.1596 13.1249 11.2425C13.1239 11.3246 13.1391 11.406 13.1696 11.4822C13.2001 11.5585 13.2453 11.6279 13.3026 11.6866C13.36 11.7454 13.4283 11.7922 13.5038 11.8246C13.5792 11.8569 13.6603 11.874 13.7424 11.875Z" fill="white"></path>
<path d="M12.4856 13.7575H12.4925C12.6571 13.7575 12.815 13.6926 12.932 13.5769C13.049 13.4612 13.1157 13.304 13.1175 13.1394L13.125 12.5144C13.1268 12.3487 13.0628 12.1891 12.947 12.0706C12.8312 11.9522 12.6731 11.8845 12.5075 11.8825C12.4245 11.8781 12.3415 11.8909 12.2638 11.9201C12.186 11.9494 12.1152 11.9945 12.0558 12.0525C11.9963 12.1105 11.9496 12.1803 11.9184 12.2573C11.8873 12.3343 11.8725 12.417 11.875 12.5L11.8675 13.125C11.8665 13.2071 11.8817 13.2887 11.9122 13.3649C11.9428 13.4412 11.988 13.5106 12.0454 13.5694C12.1028 13.6281 12.1713 13.675 12.2468 13.7073C12.3223 13.7395 12.4035 13.7566 12.4856 13.7575Z" fill="white"></path>
<path d="M33.9611 13.6506C34.0167 13.7431 34.0952 13.8196 34.189 13.8727C34.2829 13.9258 34.3889 13.9537 34.4968 13.9538C34.5197 13.9537 34.5427 13.9525 34.5655 13.95C34.6843 13.937 34.7969 13.8903 34.89 13.8153C34.983 13.7403 35.0526 13.6402 35.0905 13.5269L36.1999 10.1975C36.2312 10.1036 36.2397 10.0036 36.2248 9.90575C36.2098 9.8079 36.1719 9.715 36.114 9.63469C36.0562 9.55438 35.9801 9.48895 35.892 9.44381C35.8039 9.39866 35.7064 9.37508 35.6074 9.375H32.4999C32.3893 9.37502 32.2806 9.4044 32.1851 9.46014C32.0895 9.51589 32.0105 9.59599 31.956 9.69227C31.9015 9.78856 31.8736 9.89758 31.8751 10.0082C31.8765 10.1188 31.9073 10.227 31.9643 10.3219L33.9611 13.6506ZM34.7399 10.625L34.3343 11.8419L33.6036 10.625H34.7399Z" fill="white"></path>
</svg>
