<svg width="40" height="40" fill="none" xmlns="http://www.w3.org/2000/svg"><g clip-path="url('#clip0_912_4832')" fill="#fff"><path d="M1.042 25.636h23.884a.855.855 0 0 0 .855-.835V.897a.856.856 0 0 0-.855-.856H1.042a.855.855 0 0 0-.855.856V24.8a.856.856 0 0 0 .855.835Zm.856-23.884H24.07v22.173H1.898V1.752ZM25.028 28.085a.856.856 0 0 0-.855.856v4.585l-4.79-3.168a.863.863 0 0 0-1.212 1.15l1.636 2.737H6.325l1.629-2.6a.862.862 0 0 0-1.184-1.178L1.898 33.56v-4.619a.855.855 0 1 0-1.711 0v6.16a.903.903 0 0 0 .383.683l6.09 4.072a.85.85 0 0 0 1.21-.28.863.863 0 0 0 .016-.849L6.25 35.99h13.502l-1.601 2.587a.856.856 0 0 0 1.177 1.177l6.159-3.908a.822.822 0 0 0 .335-.41.876.876 0 0 0 .069-.322v-6.16a.856.856 0 0 0-.863-.869ZM39.988 18.163a.876.876 0 0 0-1.06-.151l-2.738 1.642V6.18l2.6 1.628a.855.855 0 0 0 1.178-1.177l-3.84-6.09A.863.863 0 0 0 35.336 0h-6.16a.856.856 0 0 0 0 1.71h4.579l-3.196 4.791a.855.855 0 0 0 1.15 1.191l2.737-1.636v13.482l-2.607-1.58a.863.863 0 0 0-1.184 1.176l3.08 4.88H29.14a.855.855 0 1 0 0 1.71h6.16a.91.91 0 0 0 .3-.061.827.827 0 0 0 .425-.322l4.024-6.118a.856.856 0 0 0-.062-1.06Z"/></g><defs><clipPath id="clip0_912_4832"><path fill="#fff" d="M0 0h40v40H0z"/></clipPath></defs></svg>