<svg width="40" height="40" fill="none" xmlns="http://www.w3.org/2000/svg"><path d="M20 7.93a2.192 2.192 0 0 1-2.19-2.19V2.19a2.189 2.189 0 1 1 4.38 0v3.55A2.193 2.193 0 0 1 20 7.93Zm0-6.392a.65.65 0 0 0-.65.651v3.55a.65.65 0 1 0 1.3 0V2.19a.65.65 0 0 0-.65-.65ZM5.74 22.19H2.19a2.189 2.189 0 1 1 0-4.38h3.55a2.19 2.19 0 1 1 0 4.38Zm-3.55-2.84a.65.65 0 0 0 0 1.3h3.55a.65.65 0 0 0 0-1.3H2.19ZM20 40a2.192 2.192 0 0 1-2.19-2.19v-3.55a2.19 2.19 0 1 1 4.38 0v3.55A2.193 2.193 0 0 1 20 40Zm0-6.39a.652.652 0 0 0-.65.65v3.55a.651.651 0 1 0 1.3 0v-3.55a.651.651 0 0 0-.65-.65ZM37.81 22.19h-3.55a2.19 2.19 0 1 1 0-4.38h3.55a2.189 2.189 0 1 1 0 4.38Zm-3.55-2.84a.65.65 0 0 0 0 1.3h3.55a.651.651 0 0 0 0-1.3h-3.55Z" fill="#fff"/><path d="M21.277 34.77a.77.77 0 0 1-.069-1.54 13.262 13.262 0 0 0 12.027-12.02.778.778 0 0 1 .836-.698.77.77 0 0 1 .697.835 14.801 14.801 0 0 1-13.421 13.422h-.07Z" fill="#fff"/><path d="M21.528 37.85a.77.77 0 0 1-.069-1.538 16.384 16.384 0 0 0 14.855-14.85.777.777 0 0 1 .835-.697.77.77 0 0 1 .697.835 17.923 17.923 0 0 1-16.248 16.246c-.023 0-.046.004-.07.004ZM34 19.49a.769.769 0 0 1-.765-.7A13.263 13.263 0 0 0 21.209 6.765a.769.769 0 1 1 .138-1.532A14.802 14.802 0 0 1 34.77 18.653a.77.77 0 0 1-.769.838Z" fill="#fff"/><path d="M37.077 19.24a.769.769 0 0 1-.77-.7A16.38 16.38 0 0 0 21.462 3.686a.77.77 0 1 1 .139-1.532 17.923 17.923 0 0 1 16.246 16.248.769.769 0 0 1-.77.838ZM6 19.49h-.07a.77.77 0 0 1-.697-.834 14.802 14.802 0 0 1 13.42-13.425.77.77 0 1 1 .138 1.532A13.263 13.263 0 0 0 6.764 18.791a.77.77 0 0 1-.764.7Z" fill="#fff"/><path d="M2.923 19.24h-.07a.769.769 0 0 1-.7-.838A17.923 17.923 0 0 1 18.402 2.153a.779.779 0 0 1 .836.698.77.77 0 0 1-.697.835A16.38 16.38 0 0 0 3.686 18.538a.77.77 0 0 1-.763.702ZM18.722 34.77h-.07A14.802 14.802 0 0 1 5.231 21.346a.77.77 0 0 1 .697-.835.778.778 0 0 1 .835.697 13.263 13.263 0 0 0 12.028 12.027.77.77 0 1 1-.069 1.539v-.006Z" fill="#fff"/><path d="M18.47 37.846a.743.743 0 0 1-.07 0A17.924 17.924 0 0 1 2.155 21.6a.77.77 0 0 1 .697-.836.778.778 0 0 1 .835.697 16.384 16.384 0 0 0 14.852 14.854.77.77 0 1 1-.068 1.538v-.006ZM20 21.12a3.582 3.582 0 1 1 0-7.164 3.582 3.582 0 0 1 0 7.165Zm0-5.625a2.044 2.044 0 1 0 0 4.087 2.044 2.044 0 0 0 0-4.087Z" fill="#fff"/><path d="M20 29.56a11.902 11.902 0 0 1-5.82-1.505.77.77 0 0 1-.364-.461 5.873 5.873 0 0 1-.212-1.616 6.395 6.395 0 1 1 12.791 0 5.877 5.877 0 0 1-.211 1.616.77.77 0 0 1-.365.461A11.901 11.901 0 0 1 20 29.561Zm-4.775-2.691a10.65 10.65 0 0 0 9.55 0 4.857 4.857 0 1 0-9.632-.894c-.002.3.025.6.082.897v-.003ZM15.605 19.362a3.583 3.583 0 1 1 3.515-4.252.77.77 0 0 1-1.195.797.77.77 0 0 1-.316-.512 2.047 2.047 0 1 0-.818 2.046.77.77 0 0 1 .897 1.251 3.552 3.552 0 0 1-2.083.67Z" fill="#fff"/><path d="M19.7 21.139a.79.79 0 1 1 .3-1.508.87.87 0 0 1 .472.738.769.769 0 0 1-.771.77ZM14.462 27.732h-.07A11.457 11.457 0 0 1 9.785 26.3a.77.77 0 0 1-.36-.454 5.651 5.651 0 0 1-.217-1.624 6.402 6.402 0 0 1 6.396-6.396 6.132 6.132 0 0 1 2.25.414.768.768 0 0 1 .034 1.43.769.769 0 0 1-.596.002 4.615 4.615 0 0 0-1.692-.308 4.863 4.863 0 0 0-4.857 4.858c-.004.299.022.598.077.892 1.151.6 2.41.97 3.703 1.084a.77.77 0 1 1-.068 1.539l.007-.006ZM24.395 19.362a3.552 3.552 0 0 1-2.083-.671.77.77 0 0 1 .897-1.25 2.044 2.044 0 1 0-.818-2.044.77.77 0 1 1-1.511-.285 3.581 3.581 0 1 1 3.515 4.252v-.002Z" fill="#fff"/><path d="M25.538 27.732a.77.77 0 1 1-.068-1.539 9.89 9.89 0 0 0 3.703-1.085c.055-.294.08-.592.077-.891a4.863 4.863 0 0 0-4.857-4.858 4.615 4.615 0 0 0-1.692.308.768.768 0 1 1-.561-1.432 6.134 6.134 0 0 1 2.25-.414 6.402 6.402 0 0 1 6.395 6.396 5.653 5.653 0 0 1-.216 1.624.77.77 0 0 1-.361.454 11.457 11.457 0 0 1-4.67 1.436ZM20.3 21.139a.77.77 0 0 1-.77-.77.87.87 0 0 1 .47-.737.78.78 0 1 1 .297 1.506h.002Z" fill="#fff"/></svg>