<svg width="40" height="40" fill="none" xmlns="http://www.w3.org/2000/svg"><path d="m22.257 31.743-7.491 3.165a3.59 3.59 0 0 1-.882-1.437c.958-1.033 6.12-4.54 7.991-5.392a.624.624 0 1 0-.518-1.138c-1.566.713-6.87 4.1-8.368 5.687-1.902-.674-3.938-.378-5.918-.079-1.058.194-2.13.298-3.205.313H3.576a1.504 1.504 0 0 0-1.73-.205 1.137 1.137 0 0 0-.527 1.192c-.08 1.193-.192 3.824.29 4.584a.651.651 0 0 0 .54.296h.014c.399-.01.55-.275.88-.855.955-1.675 1.357-1.942 1.5-1.952.035.008.07.012.105.014 7.856.413 7.965.416 7.993.416.758.024 1.515-.028 2.262-.154.018-.005.03-.017.047-.022a.445.445 0 0 0 .05-.01l7.744-3.272a.626.626 0 0 0-.245-1.205.627.627 0 0 0-.24.054h-.002Zm-17.5 2.948c-.908-.16-1.664.72-2.253 1.64a30.2 30.2 0 0 1 .062-2.484.589.589 0 0 0-.004-.125c.095.02.182.067.25.136a1.281 1.281 0 0 0 .947.253h.078a20.27 20.27 0 0 0 3.417-.326c1.952-.296 3.799-.563 5.437.063.154.434.355.85.6 1.241-.223.007-.444.01-.637.012-.159-.004-5.208-.27-7.896-.41h-.001Z" fill="#fff"/><path d="M38.456 26.032c-.516-.929-1.332-.843-1.938-.782l-3.513.362c-.813.084-1.688.25-2.531.414-.448.086-.9.17-1.346.244a6.65 6.65 0 0 0-.108-5.371c-.786-1.596-2.01-2.615-3.35-2.826l-.008-.133a6.322 6.322 0 0 0 .511-4.302c0-.01.008-.018.01-.028a1.875 1.875 0 0 0-1.323-2.297 1.825 1.825 0 0 0-.313-.052 5.641 5.641 0 0 0-.633-.247A30.602 30.602 0 0 1 30.35 7.75a.625.625 0 0 0 .34-.902l-3.028-5.285a.625.625 0 0 0-.773-.271 51.567 51.567 0 0 0-7.317 3.937.625.625 0 0 0-.163.907l3.542 4.65a5.165 5.165 0 0 0-2.76.349 1.875 1.875 0 0 0-1.095.18c-1.459.73-2.478 2.828-2.349 4.615a2.34 2.34 0 0 0-1.528 1.582c-.313 1.188.267 2.307.828 3.387.5.96.97 1.864.835 2.758a.625.625 0 0 0 .688.714 2.92 2.92 0 0 0 2.45-1.808 4.383 4.383 0 0 0-.104-3.23c.56.28 1.157.476 1.774.583-.04.07-.086.135-.125.209a2.983 2.983 0 0 0-.188 2.144 7.293 7.293 0 0 0 1.027 1.902c.296.408.552.844.765 1.302l1.017 7.906.189 2.809a.625.625 0 0 0 .369.53c2.385 1.062 3.463 1.356 4.004 1.356a.679.679 0 0 0 .592-.25.745.745 0 0 0 .082-.885 6.97 6.97 0 0 0-1.952-2.343 1.078 1.078 0 0 1-.468-.902l-.012-1.183h.035c.102-.005.202-.01.29-.012.208-.012.414-.04.617-.085a6.39 6.39 0 0 0-.213.235l-.17.2a.625.625 0 0 0 .95.812l.173-.2a24.15 24.15 0 0 1 1.788-1.725 65.397 65.397 0 0 0 4.393-1.529c-.3.199-.602.392-.903.576-1.512.929-3.007 1.938-4.453 2.916l-.819.552a.625.625 0 0 0 .697 1.035l.82-.553c1.437-.97 2.919-1.972 4.408-2.887a15.224 15.224 0 0 0 2.828-2.09 2.9 2.9 0 0 0 1.079-1.537 2.37 2.37 0 0 0-.054-2.187ZM26.85 2.663l2.386 4.162a32.623 32.623 0 0 0-5.552 2.862l-2.865-3.763a51.856 51.856 0 0 1 6.032-3.26Zm-3.054 12.962 1.281-.74a4.297 4.297 0 0 1-.557 2.52.625.625 0 0 0-.116.406l.018.28c-.099.017-.194.039-.29.06a6.845 6.845 0 0 0-.336-2.526Zm1.12-2.813a.625.625 0 0 1-.229.854l-2.165 1.25a.625.625 0 1 1-.625-1.082l2.165-1.25a.62.62 0 0 1 .475-.063c.16.043.297.148.38.291ZM22.57 12l-.51.294a4.254 4.254 0 0 0-.284-.295 4.11 4.11 0 0 1 .794.001Zm-2.915.432c.454-.226.953.14 1.324.529a1.882 1.882 0 0 0-.63 1.62l-2.339.712c.116-1.161.787-2.43 1.645-2.855v-.006Zm-.79 9.654a1.633 1.633 0 0 1-.735.83 7.766 7.766 0 0 0-.972-2.592c-.474-.91-.92-1.77-.735-2.476a1.063 1.063 0 0 1 1.008-.774h.02a.694.694 0 0 0 .281-.062.625.625 0 0 0-.094.876c1.439 1.8 1.577 3.349 1.227 4.198Zm-.36-5.083a.625.625 0 0 0-.647-.067.626.626 0 0 0 .216-.354l2.84-.863a1.825 1.825 0 0 0 1.75.472c.386 1.38.262 2.267.046 2.398-.772.469-2.743-.468-4.205-1.586Zm4.082 4.934c-.124-.414-.09-.86.097-1.25a2.556 2.556 0 0 1 2.417-1.406c1.608-.053 2.546 1.652 2.802 2.17a5.456 5.456 0 0 1-.022 4.595 30.774 30.774 0 0 1-.938 1.974l-.067-6.45a1.47 1.47 0 0 0-.468-1.092 2.25 2.25 0 0 0-1.648-.482c-1.285.087-2.076.745-2.063 1.719 0 .024.002.048.005.073l.077.598a2.56 2.56 0 0 1-.192-.448Zm5.105 14.616a32.009 32.009 0 0 1-2.094-.825l-.163-2.467-1.49-11.586c.03-.356.75-.422.898-.432.249-.037.503.017.715.152a.227.227 0 0 1 .068.188l.125 12.125a2.326 2.326 0 0 0 1.03 1.932c.35.253.658.56.911.91v.003Zm-.4-5.303c-.097 0-.204.007-.312.013l-.01-.859a18.858 18.858 0 0 0 1.572-2.787c.71-.09 1.45-.224 2.173-.363.818-.157 1.663-.318 2.423-.396l3.522-.364c.592-.062.606-.034.706.146a1.147 1.147 0 0 1 .062.954.568.568 0 0 0-.062.088c-.62.531-4.584 2.035-7.406 2.912a13.74 13.74 0 0 1-2.668.656Z" fill="#fff"/><path d="M27.581 11.84a.625.625 0 0 0-.137.822l3.645 5.757a.625.625 0 0 0 .919.154c5.272-4.22 7.76-8.399 6.328-10.662L34.75 2.657a2.144 2.144 0 0 0-.36-.42 8.754 8.754 0 0 0-2.578-.968 1.254 1.254 0 0 0-1.273 1.898l1.438 2.178a.625.625 0 0 0 1.042-.687L31.596 2.5c.675.155 1.332.379 1.96.669.047.04.089.086.126.135l.005.009.033.047c.095.149.14.324.125.5-.189 1.97-2.587 5.03-6.264 7.98Zm7.274-6.812 2.438 3.57c.834 1.318-.813 4.646-5.524 8.558l-2.97-4.693c3.185-2.636 5.355-5.313 6.056-7.437v.002ZM16.258 1.25h-.008a.625.625 0 0 0-.625.617l-.008.626a.625.625 0 0 0 .619.632h.006a.625.625 0 0 0 .625-.618l.008-.625a.625.625 0 0 0-.617-.632ZM15.625 3.764a.625.625 0 0 0-.617-.631l-.625-.008h-.008a.626.626 0 0 0-.007 1.25l.625.008H15a.625.625 0 0 0 .625-.619ZM17.493 4.367l.625.008h.007a.625.625 0 1 0 .008-1.25l-.625-.007H17.5a.626.626 0 0 0-.007 1.25ZM16.236 6.25h.006a.625.625 0 0 0 .625-.617l.008-.625a.625.625 0 0 0-.617-.633h-.008a.625.625 0 0 0-.625.617l-.008.625a.625.625 0 0 0 .619.633ZM12.508 8.758H12.5a.625.625 0 0 0-.625.617l-.008.625a.625.625 0 0 0 .619.633h.006a.625.625 0 0 0 .625-.619l.008-.625a.625.625 0 0 0-.617-.631ZM11.258 10.64l-.625-.008a.614.614 0 0 0-.633.618.626.626 0 0 0 .617.633l.625.006h.008a.624.624 0 1 0 .008-1.25ZM13.742 11.875l.625.008h.008a.626.626 0 0 0 .007-1.25l-.625-.008a.604.604 0 0 0-.632.617.624.624 0 0 0 .617.633ZM12.486 13.758h.006a.625.625 0 0 0 .625-.619l.008-.625a.625.625 0 0 0-.617-.631.602.602 0 0 0-.633.617l-.008.625a.625.625 0 0 0 .619.633Z" fill="#fff"/><path d="M33.961 13.65a.625.625 0 0 0 1.13-.123l1.109-3.33a.625.625 0 0 0-.593-.822H32.5a.625.625 0 0 0-.536.947l1.997 3.329Zm.779-3.025-.406 1.217-.73-1.217h1.136Z" fill="#fff"/></svg>