<svg width="50" height="50" fill="none" xmlns="http://www.w3.org/2000/svg"><path d="M13.281 25a.78.78 0 0 1-.552-1.334l5.469-5.468a.781.781 0 0 1 1.104 1.104l-5.468 5.47a.78.78 0 0 1-.553.228ZM36.719 25a.78.78 0 0 1-.553-.229l-5.468-5.469a.781.781 0 0 1 1.104-1.104l5.469 5.468A.782.782 0 0 1 36.719 25ZM32.813 40.625H17.187a.781.781 0 1 1 0-1.563h15.625a.781.781 0 1 1 0 1.563ZM25 30.469a15.79 15.79 0 0 1-5.772-.938c-1.685-.686-2.04-1.569-2.04-2.187 0-.619.355-1.502 2.049-2.192a.78.78 0 1 1 .589 1.446c-.89.363-1.076.696-1.076.746 0 .05.187.383 1.076.745 1.66.59 3.414.867 5.174.817 1.757.05 3.509-.225 5.166-.814.897-.365 1.084-.698 1.084-.748 0-.05-.187-.383-1.076-.746a.78.78 0 1 1 .59-1.446c1.693.69 2.049 1.573 2.049 2.192 0 .618-.356 1.501-2.05 2.192a15.78 15.78 0 0 1-5.763.933ZM28.906 17.188h-.781a.781.781 0 1 1 0-1.563h.781a.781.781 0 0 0 .782-.781v-4.688a.781.781 0 0 0-.782-.781h-7.812a.781.781 0 0 0-.782.781v4.688a.781.781 0 0 0 .782.781h.781a.781.781 0 1 1 0 1.563h-.781a2.343 2.343 0 0 1-2.344-2.344v-4.688a2.343 2.343 0 0 1 2.344-2.344h7.812a2.344 2.344 0 0 1 2.344 2.344v4.688a2.343 2.343 0 0 1-2.344 2.344ZM25 7.031a3.125 3.125 0 1 1 0-6.25 3.125 3.125 0 0 1 0 6.25Zm0-4.687a1.563 1.563 0 1 0 0 3.125 1.563 1.563 0 0 0 0-3.125Z" fill="#CE2127"/><path d="M28.125 28.125h-6.25a.781.781 0 0 1-.781-.781V10.937a.781.781 0 1 1 1.562 0v15.626h4.688V10.938a.781.781 0 1 1 1.562 0v16.406a.781.781 0 0 1-.781.781Z" fill="#CE2127"/><path d="M25 28.125a.781.781 0 0 1-.781-.781V17.187a.781.781 0 1 1 1.562 0v10.157a.781.781 0 0 1-.781.781ZM41.406 49.219a15.79 15.79 0 0 1-5.772-.938c-1.685-.686-2.04-1.569-2.04-2.187 0-.619.355-1.502 2.049-2.192a.78.78 0 1 1 .589 1.446c-.889.363-1.076.696-1.076.746 0 .05.187.383 1.076.745 1.66.59 3.414.867 5.174.817 1.758.05 3.51-.225 5.166-.814.897-.365 1.084-.698 1.084-.748 0-.05-.187-.383-1.075-.746a.78.78 0 1 1 .588-1.446c1.694.69 2.05 1.573 2.05 2.192 0 .618-.356 1.501-2.05 2.192-1.846.667-3.8.983-5.763.933ZM45.313 35.938h-.782a.781.781 0 1 1 0-1.563h.782a.781.781 0 0 0 .78-.781v-4.688a.781.781 0 0 0-.78-.781H37.5a.781.781 0 0 0-.781.781v4.688a.781.781 0 0 0 .781.781h.781a.781.781 0 1 1 0 1.563H37.5a2.344 2.344 0 0 1-2.344-2.344v-4.688a2.344 2.344 0 0 1 2.344-2.343h7.813a2.344 2.344 0 0 1 2.343 2.343v4.688a2.344 2.344 0 0 1-2.343 2.343ZM41.406 25.781a3.125 3.125 0 1 1 0-6.25 3.125 3.125 0 0 1 0 6.25Zm0-4.687a1.562 1.562 0 1 0 0 3.124 1.562 1.562 0 0 0 0-3.124Z" fill="#CE2127"/><path d="M44.531 46.875h-6.25a.781.781 0 0 1-.781-.781V29.687a.781.781 0 1 1 1.563 0v15.625h4.687V29.688a.781.781 0 1 1 1.563 0v16.406a.781.781 0 0 1-.782.781Z" fill="#CE2127"/><path d="M41.406 46.875a.781.781 0 0 1-.781-.781V35.937a.781.781 0 1 1 1.563 0v10.157a.781.781 0 0 1-.782.781ZM8.594 49.219a15.79 15.79 0 0 1-5.772-.938c-1.685-.686-2.04-1.569-2.04-2.187 0-.619.355-1.502 2.048-2.192a.78.78 0 1 1 .59 1.446c-.89.363-1.076.696-1.076.746 0 .05.186.383 1.076.745 1.659.59 3.413.867 5.174.817 1.757.05 3.509-.225 5.165-.814.898-.365 1.085-.698 1.085-.748 0-.05-.187-.383-1.076-.746a.78.78 0 1 1 .589-1.446c1.694.69 2.05 1.573 2.05 2.192 0 .618-.356 1.501-2.05 2.192-1.846.667-3.8.983-5.763.933ZM12.5 35.938h-.781a.781.781 0 1 1 0-1.563h.781a.781.781 0 0 0 .781-.781v-4.688a.781.781 0 0 0-.781-.781H4.687a.781.781 0 0 0-.78.781v4.688a.781.781 0 0 0 .78.781h.782a.781.781 0 1 1 0 1.563h-.782a2.344 2.344 0 0 1-2.343-2.344v-4.688a2.343 2.343 0 0 1 2.344-2.343H12.5a2.344 2.344 0 0 1 2.344 2.343v4.688a2.344 2.344 0 0 1-2.344 2.343ZM8.594 25.781a3.125 3.125 0 1 1 0-6.25 3.125 3.125 0 0 1 0 6.25Zm0-4.687a1.562 1.562 0 1 0 0 3.125 1.562 1.562 0 0 0 0-3.125Z" fill="#CE2127"/><path d="M11.719 46.875h-6.25a.781.781 0 0 1-.782-.781V29.687a.781.781 0 1 1 1.563 0v15.625h4.688V29.688a.781.781 0 1 1 1.562 0v16.406a.781.781 0 0 1-.781.781Z" fill="#CE2127"/><path d="M8.594 46.875a.781.781 0 0 1-.781-.781V35.937a.781.781 0 1 1 1.562 0v10.157a.781.781 0 0 1-.781.781Z" fill="#CE2127"/></svg>