<svg width="50" height="50" fill="none" xmlns="http://www.w3.org/2000/svg"><path d="M14.583 19.27a1.042 1.042 0 0 0 0-2.082h-1.562v-1.563a1.041 1.041 0 0 0-2.084 0v1.563H9.375a1.042 1.042 0 0 0 0 2.083h1.562v1.562a1.042 1.042 0 0 0 2.084 0v-1.562h1.562ZM38.02 16.667a1.042 1.042 0 1 0 .001-2.084 1.042 1.042 0 0 0 0 2.084ZM38.02 21.875a1.042 1.042 0 1 0 0-2.083 1.042 1.042 0 0 0 0 2.083ZM40.625 19.27a1.042 1.042 0 1 0 0-2.082 1.042 1.042 0 0 0 0 2.083ZM35.417 19.27a1.042 1.042 0 1 0 0-2.082 1.042 1.042 0 0 0 0 2.083ZM17.188 22.917a3.646 3.646 0 1 0 0 7.291 3.646 3.646 0 0 0 0-7.291Zm0 5.208a1.563 1.563 0 1 1 0-3.126 1.563 1.563 0 0 1 0 3.126ZM32.813 22.917a3.646 3.646 0 1 0 0 7.291 3.646 3.646 0 0 0 0-7.291Zm0 5.208a1.563 1.563 0 1 1 0-3.126 1.563 1.563 0 0 1 0 3.126ZM22.917 19.792h-1.042a1.042 1.042 0 0 0 0 2.083h1.042a1.042 1.042 0 0 0 0-2.083ZM28.125 19.792h-1.042a1.042 1.042 0 0 0 0 2.083h1.042a1.042 1.042 0 0 0 0-2.083Z" fill="#CE2127"/><path d="M46.335 15.357a9.473 9.473 0 0 0-11.603-6.699 10.745 10.745 0 0 0-5.044 3.453 1.06 1.06 0 0 1-.847.389h-7.677a1.063 1.063 0 0 1-.847-.389 10.745 10.745 0 0 0-5.047-3.453 9.472 9.472 0 0 0-11.605 6.7C-.595 31.258.326 39.791 6.483 41.44c3.82 1.025 7.292-1.355 10.345-7.077a7.732 7.732 0 0 0 5.664-2.073h5.016a7.732 7.732 0 0 0 5.305 2.084c.117 0 .236 0 .359-.01 2.59 4.858 5.49 7.307 8.646 7.307a6.54 6.54 0 0 0 1.7-.231c6.156-1.65 7.078-10.182 2.817-26.084ZM42.977 39.43c-2.876.77-5.657-1.465-8.277-6.642a1.042 1.042 0 0 0-1.075-.56c-.269.04-.54.062-.813.065a5.674 5.674 0 0 1-4.127-1.764 1.042 1.042 0 0 0-.752-.32h-5.866a1.044 1.044 0 0 0-.752.32 5.676 5.676 0 0 1-4.128 1.764 5.847 5.847 0 0 1-.812-.065 1.042 1.042 0 0 0-1.075.56c-2.62 5.177-5.405 7.413-8.277 6.642-4.67-1.25-5.135-9.39-1.347-23.532a7.402 7.402 0 0 1 7.127-5.48c.65 0 1.297.086 1.925.255a8.664 8.664 0 0 1 3.934 2.708 3.155 3.155 0 0 0 2.5 1.203h7.677a3.156 3.156 0 0 0 2.5-1.205 8.667 8.667 0 0 1 3.933-2.708 7.396 7.396 0 0 1 9.052 5.226c3.788 14.143 3.323 22.281-1.347 23.533Z" fill="#CE2127"/></svg>