<svg width="1181" height="872" viewBox="0 0 312.473 230.717" version="1.1" id="svg5" xml:space="preserve" xmlns="http://www.w3.org/2000/svg"><defs id="defs2"><filter id="filter0_d_1712_6993" x="1094.92" y="546.296" width="69.598" height="43.564" filterUnits="userSpaceOnUse" color-interpolation-filters="sRGB"><feFlood flood-opacity="0" result="BackgroundImageFix" id="feFlood265"/><feColorMatrix in="SourceAlpha" type="matrix" values="0 0 0 0 0 0 0 0 0 0 0 0 0 0 0 0 0 0 127 0" result="hardAlpha" id="feColorMatrix267"/><feOffset id="feOffset269"/><feGaussianBlur stdDeviation="2" id="feGaussianBlur271"/><feComposite in2="hardAlpha" operator="out" id="feComposite273"/><feColorMatrix type="matrix" values="0 0 0 0 0 0 0 0 0 0 0 0 0 0 0 0 0 0 0.25 0" id="feColorMatrix275"/><feBlend mode="normal" in2="BackgroundImageFix" result="effect1_dropShadow_1712_6993" id="feBlend277"/><feBlend mode="normal" in="SourceGraphic" in2="effect1_dropShadow_1712_6993" result="shape" id="feBlend279"/></filter><filter id="filter1_d_1712_6993" x="1103.25" y="550.81" width="57.932" height="36.828" filterUnits="userSpaceOnUse" color-interpolation-filters="sRGB"><feFlood flood-opacity="0" result="BackgroundImageFix" id="feFlood282"/><feColorMatrix in="SourceAlpha" type="matrix" values="0 0 0 0 0 0 0 0 0 0 0 0 0 0 0 0 0 0 127 0" result="hardAlpha" id="feColorMatrix284"/><feOffset id="feOffset286"/><feGaussianBlur stdDeviation="2" id="feGaussianBlur288"/><feComposite in2="hardAlpha" operator="out" id="feComposite290"/><feColorMatrix type="matrix" values="0 0 0 0 0 0 0 0 0 0 0 0 0 0 0 0 0 0 0.25 0" id="feColorMatrix292"/><feBlend mode="normal" in2="BackgroundImageFix" result="effect1_dropShadow_1712_6993" id="feBlend294"/><feBlend mode="normal" in="SourceGraphic" in2="effect1_dropShadow_1712_6993" result="shape" id="feBlend296"/></filter><filter id="filter2_d_1712_6993" x="1152.95" y="512.796" width="69.598" height="43.564" filterUnits="userSpaceOnUse" color-interpolation-filters="sRGB"><feFlood flood-opacity="0" result="BackgroundImageFix" id="feFlood299"/><feColorMatrix in="SourceAlpha" type="matrix" values="0 0 0 0 0 0 0 0 0 0 0 0 0 0 0 0 0 0 127 0" result="hardAlpha" id="feColorMatrix301"/><feOffset id="feOffset303"/><feGaussianBlur stdDeviation="2" id="feGaussianBlur305"/><feComposite in2="hardAlpha" operator="out" id="feComposite307"/><feColorMatrix type="matrix" values="0 0 0 0 0 0 0 0 0 0 0 0 0 0 0 0 0 0 0.25 0" id="feColorMatrix309"/><feBlend mode="normal" in2="BackgroundImageFix" result="effect1_dropShadow_1712_6993" id="feBlend311"/><feBlend mode="normal" in="SourceGraphic" in2="effect1_dropShadow_1712_6993" result="shape" id="feBlend313"/></filter><filter id="filter3_d_1712_6993" x="1161.27" y="517.31" width="57.932" height="36.828" filterUnits="userSpaceOnUse" color-interpolation-filters="sRGB"><feFlood flood-opacity="0" result="BackgroundImageFix" id="feFlood316"/><feColorMatrix in="SourceAlpha" type="matrix" values="0 0 0 0 0 0 0 0 0 0 0 0 0 0 0 0 0 0 127 0" result="hardAlpha" id="feColorMatrix318"/><feOffset id="feOffset320"/><feGaussianBlur stdDeviation="2" id="feGaussianBlur322"/><feComposite in2="hardAlpha" operator="out" id="feComposite324"/><feColorMatrix type="matrix" values="0 0 0 0 0 0 0 0 0 0 0 0 0 0 0 0 0 0 0.25 0" id="feColorMatrix326"/><feBlend mode="normal" in2="BackgroundImageFix" result="effect1_dropShadow_1712_6993" id="feBlend328"/><feBlend mode="normal" in="SourceGraphic" in2="effect1_dropShadow_1712_6993" result="shape" id="feBlend330"/></filter><filter id="filter4_d_1712_6993" x="1054.22" y="865.964" width="94.726" height="72.572" filterUnits="userSpaceOnUse" color-interpolation-filters="sRGB"><feFlood flood-opacity="0" result="BackgroundImageFix" id="feFlood333"/><feColorMatrix in="SourceAlpha" type="matrix" values="0 0 0 0 0 0 0 0 0 0 0 0 0 0 0 0 0 0 127 0" result="hardAlpha" id="feColorMatrix335"/><feOffset id="feOffset337"/><feGaussianBlur stdDeviation="2" id="feGaussianBlur339"/><feComposite in2="hardAlpha" operator="out" id="feComposite341"/><feColorMatrix type="matrix" values="0 0 0 0 0 0 0 0 0 0 0 0 0 0 0 0 0 0 0.25 0" id="feColorMatrix343"/><feBlend mode="normal" in2="BackgroundImageFix" result="effect1_dropShadow_1712_6993" id="feBlend345"/><feBlend mode="normal" in="SourceGraphic" in2="effect1_dropShadow_1712_6993" result="shape" id="feBlend347"/></filter><filter id="filter5_d_1712_6993" x="1061.36" y="873.586" width="39.746" height="26.328" filterUnits="userSpaceOnUse" color-interpolation-filters="sRGB"><feFlood flood-opacity="0" result="BackgroundImageFix" id="feFlood350"/><feColorMatrix in="SourceAlpha" type="matrix" values="0 0 0 0 0 0 0 0 0 0 0 0 0 0 0 0 0 0 127 0" result="hardAlpha" id="feColorMatrix352"/><feOffset id="feOffset354"/><feGaussianBlur stdDeviation="2" id="feGaussianBlur356"/><feComposite in2="hardAlpha" operator="out" id="feComposite358"/><feColorMatrix type="matrix" values="0 0 0 0 0 0 0 0 0 0 0 0 0 0 0 0 0 0 0.25 0" id="feColorMatrix360"/><feBlend mode="normal" in2="BackgroundImageFix" result="effect1_dropShadow_1712_6993" id="feBlend362"/><feBlend mode="normal" in="SourceGraphic" in2="effect1_dropShadow_1712_6993" result="shape" id="feBlend364"/></filter><filter id="filter6_d_1712_6993" x="1081.28" y="885.086" width="38.014" height="25.328" filterUnits="userSpaceOnUse" color-interpolation-filters="sRGB"><feFlood flood-opacity="0" result="BackgroundImageFix" id="feFlood367"/><feColorMatrix in="SourceAlpha" type="matrix" values="0 0 0 0 0 0 0 0 0 0 0 0 0 0 0 0 0 0 127 0" result="hardAlpha" id="feColorMatrix369"/><feOffset id="feOffset371"/><feGaussianBlur stdDeviation="2" id="feGaussianBlur373"/><feComposite in2="hardAlpha" operator="out" id="feComposite375"/><feColorMatrix type="matrix" values="0 0 0 0 0 0 0 0 0 0 0 0 0 0 0 0 0 0 0.25 0" id="feColorMatrix377"/><feBlend mode="normal" in2="BackgroundImageFix" result="effect1_dropShadow_1712_6993" id="feBlend379"/><feBlend mode="normal" in="SourceGraphic" in2="effect1_dropShadow_1712_6993" result="shape" id="feBlend381"/></filter><filter id="filter7_d_1712_6993" x="1099.47" y="895.586" width="39.746" height="26.328" filterUnits="userSpaceOnUse" color-interpolation-filters="sRGB"><feFlood flood-opacity="0" result="BackgroundImageFix" id="feFlood384"/><feColorMatrix in="SourceAlpha" type="matrix" values="0 0 0 0 0 0 0 0 0 0 0 0 0 0 0 0 0 0 127 0" result="hardAlpha" id="feColorMatrix386"/><feOffset id="feOffset388"/><feGaussianBlur stdDeviation="2" id="feGaussianBlur390"/><feComposite in2="hardAlpha" operator="out" id="feComposite392"/><feColorMatrix type="matrix" values="0 0 0 0 0 0 0 0 0 0 0 0 0 0 0 0 0 0 0.25 0" id="feColorMatrix394"/><feBlend mode="normal" in2="BackgroundImageFix" result="effect1_dropShadow_1712_6993" id="feBlend396"/><feBlend mode="normal" in="SourceGraphic" in2="effect1_dropShadow_1712_6993" result="shape" id="feBlend398"/></filter><filter id="filter8_d_1712_6993" x="1079.55" y="905.586" width="42.344" height="27.828" filterUnits="userSpaceOnUse" color-interpolation-filters="sRGB"><feFlood flood-opacity="0" result="BackgroundImageFix" id="feFlood401"/><feColorMatrix in="SourceAlpha" type="matrix" values="0 0 0 0 0 0 0 0 0 0 0 0 0 0 0 0 0 0 127 0" result="hardAlpha" id="feColorMatrix403"/><feOffset id="feOffset405"/><feGaussianBlur stdDeviation="2" id="feGaussianBlur407"/><feComposite in2="hardAlpha" operator="out" id="feComposite409"/><feColorMatrix type="matrix" values="0 0 0 0 0 0 0 0 0 0 0 0 0 0 0 0 0 0 0.25 0" id="feColorMatrix411"/><feBlend mode="normal" in2="BackgroundImageFix" result="effect1_dropShadow_1712_6993" id="feBlend413"/><feBlend mode="normal" in="SourceGraphic" in2="effect1_dropShadow_1712_6993" result="shape" id="feBlend415"/></filter></defs><g id="layer1"><g style="fill:none" id="g633" transform="matrix(.26458 0 0 .26458 -189.275 -43.885)"><path d="m732.657 971.5 13.857 8m58.024 33.5 9.526 5.5" stroke="#37aee2" stroke-width="10" stroke-linecap="round" stroke-linejoin="round" id="path9"/><path d="m1191.27 329.294 73.97-42.706-19.27-11.125m38.54-22.255 19.27 11.125 80.74-46.615" stroke="#37aee2" stroke-width="10" stroke-linecap="round" stroke-linejoin="round" id="path11"/><path d="m1126.58 839.899 86.47-49.923 79.16 45.702m-273.94-102.823 90.61 52.317" stroke="#37aee2" stroke-width="10" stroke-linecap="round" stroke-linejoin="round" id="path13"/><path d="m1191.27 329.294 159.88 92.306-400.576 231.271L1049 709.698l-118.244 68.269 97.904 56.526-90.113 52.028-28.643-16.536-177.627 102.553m654.853-756.324 491.61 283.835-711.56 410.822M816.643 1021.25l196.897-113.684 79.68 46.003 73.96-42.698m0 0-79.68-46.003" stroke="#000" stroke-width="10" stroke-linecap="round" stroke-linejoin="round" id="path15"/><rect width="244.203" height="248.957" rx="10" transform="matrix(.86603 -.5 .86603 .5 1205.27 628.497)" fill="#ce2127" id="rect17" x="0" y="0"/><rect width="244.203" height="248.957" rx="10" transform="matrix(.86603 -.5 .86603 .5 1428.22 499.779)" fill="#ce2127" id="rect19" x="0" y="0"/><rect width="125.109" height="127.485" rx="10" transform="matrix(.86603 -.5 .86603 .5 1404.69 366.5)" fill="#ce2127" id="rect21" x="0" y="0"/><rect width="125.109" height="127.485" rx="10" transform="matrix(.86603 -.5 .86603 .5 1190.78 759)" fill="#ce2127" id="rect23" x="0" y="0"/><rect x=".866" width="49.525" height="29.067" rx="4.5" transform="matrix(.86603 -.5 .86603 .5 1398.13 482.773)" stroke="#000" id="rect25" y="0"/><rect x=".866" width="49.525" height="29.067" rx="4.5" transform="matrix(.86603 -.5 .86603 .5 1207.48 592.845)" stroke="#000" id="rect27" y="0"/><rect width="58.651" height="23.442" rx="5" transform="matrix(1.18298 -.18308 .31687 .68303 1352.08 267.262)" fill="#ce2127" id="rect29" x="0" y="0"/><rect width="58.651" height="23.442" rx="5" transform="matrix(1.18298 -.18308 .31687 .68303 1397.78 293.649)" fill="#ce2127" id="rect31" x="0" y="0"/><rect x=".866" width="20.654" height="48.31" rx="4.5" transform="matrix(.86603 -.5 .86603 .5 1237.74 330.024)" stroke="#000" id="rect33" y="0"/><rect width="42.104" height="54.121" rx="5" transform="matrix(.86603 -.5 .86603 .5 1246.44 489.866)" fill="#ce2127" id="rect35" x="0" y="0"/><rect width="42.104" height="54.121" rx="5" transform="matrix(.86603 -.5 .86603 .5 1023.5 618.584)" fill="#ce2127" id="rect37" x="0" y="0"/><rect x=".866" width="91.629" height="24.256" rx="1.5" transform="matrix(.86603 -.5 .86603 .5 828.036 926.933)" stroke="#000" id="rect39" y="0"/><g filter="url('#filter0_d_1712_6993')" id="g43"><rect x=".866" width="54.337" height="20.648" rx="4.5" transform="matrix(.86603 -.5 .86603 .5 1096.5 576.933)" stroke="#000" shape-rendering="crispEdges" id="rect41" y="0"/></g><g filter="url('#filter1_d_1712_6993')" id="g47"><rect x=".866" width="43" height="15" rx="1.5" transform="matrix(.86603 -.5 .86603 .5 1106.35 576.658)" stroke="#000" shape-rendering="crispEdges" id="rect45" y="0"/></g><g filter="url('#filter2_d_1712_6993')" id="g51"><rect x=".866" width="54.337" height="20.648" rx="4.5" transform="matrix(.86603 -.5 .86603 .5 1154.53 543.433)" stroke="#000" shape-rendering="crispEdges" id="rect49" y="0"/></g><g filter="url('#filter3_d_1712_6993')" id="g55"><rect x=".866" width="43" height="15" rx="1.5" transform="matrix(.86603 -.5 .86603 .5 1164.37 543.158)" stroke="#000" shape-rendering="crispEdges" id="rect53" y="0"/></g><path d="m1305.89 555.938-6.18-13.3c-.61-1.315 1.48-2.518 3.75-2.165l23.04 3.563c1.65.256 2.58 1.222 2 2.093-1.62 2.416-4.12 4.681-7.5 6.632-3.38 1.951-7.3 3.394-11.49 4.33-1.51.337-3.18-.199-3.62-1.153z" stroke="#000" id="path57"/><path d="m1334.44 520.562 14.38 10.986c1.42 1.086.27 2.653-2.07 2.82l-23.67 1.696c-1.7.122-3.19-.572-3.21-1.507-.07-2.59.77-5.231 2.63-7.772 1.86-2.54 4.56-4.729 7.83-6.504 1.18-.64 3.08-.506 4.11.281z" stroke="#000" id="path59"/><path d="m1174.61 703.895-6.18-13.301c-.61-1.314 1.48-2.517 3.75-2.165l23.04 3.564c1.65.256 2.58 1.222 2 2.093-1.62 2.416-4.12 4.681-7.5 6.632-3.38 1.951-7.3 3.394-11.49 4.33-1.51.337-3.18-.199-3.62-1.153z" stroke="#000" id="path61"/><path d="m1133 679.876 23.04 3.563c2.28.353 4.36-.85 3.75-2.165l-6.17-13.301c-.44-.953-2.12-1.489-3.63-1.152-4.18.936-8.11 2.379-11.48 4.33-3.38 1.951-5.88 4.216-7.5 6.632-.59.871.34 1.837 1.99 2.093z" stroke="#000" id="path63"/><path d="m1143.18 699.726 16.86-9.74c1.67-.962 4.52-.522 5.13.793l6.17 13.301c.44.953-.55 1.901-2.15 2.044-4.43.398-9.08.282-13.69-.432-4.62-.714-8.74-1.954-12.24-3.578-1.26-.586-1.29-1.69-.08-2.388z" stroke="#000" id="path65"/><path d="m1157.93 668.39 6.17 13.301c.61 1.315 3.45 1.755 5.12.793l16.87-9.739c1.21-.699 1.17-1.803-.09-2.389-3.49-1.624-7.62-2.864-12.23-3.578-4.62-.713-9.26-.83-13.7-.432-1.6.143-2.58 1.091-2.14 2.044z" stroke="#000" id="path67"/><path d="m1132.68 681.764 23.04 3.562c2.28.352 3.04 1.995 1.37 2.957l-16.87 9.738c-1.2.698-3.12.679-4.13-.048-2.82-2.018-4.96-4.4-6.2-7.065-1.24-2.664-1.44-5.347-.75-7.907.25-.924 1.89-1.492 3.54-1.237z" stroke="#000" id="path69"/><path d="m1188 673.848-16.87 9.737c-1.67.963-.9 2.606 1.37 2.958l23.04 3.562c1.65.255 3.29-.314 3.54-1.237.69-2.56.49-5.243-.75-7.908-1.23-2.664-3.38-5.046-6.19-7.064-1.02-.728-2.93-.746-4.14-.048z" stroke="#000" id="path71"/><path d="m1373.66 508.845-5.18 13.444c-.51 1.328-3.32 1.839-5.06.919l-17.57-9.309c-1.26-.667-1.31-1.772-.09-2.389 3.37-1.71 7.4-3.051 11.96-3.88a56.432 56.432 0 0 1 13.65-.774c1.6.103 2.66 1.026 2.29 1.989z" stroke="#000" id="path73"/><g filter="url('#filter4_d_1712_6993')" id="g77"><path d="m1060.45 878.75 12.99-7.5c2.15-1.243 5.64-1.243 7.79 0l.12.069.12.069.12.069.12.069.12.069.12.069.12.069.12.07.12.069.12.069.12.069.12.069.12.069.12.069.12.069.12.069.12.069.12.07.12.069.12.069.12.069.12.069.12.069.12.069.11.069.12.07.12.069.12.069.12.069.12.069.12.069.12.07.12.069.12.069.12.069.12.069.12.069.12.07.12.069.12.069.12.069.12.069.12.069.12.07.12.069.12.069.12.069.12.069.12.07.12.069.12.069.12.069.12.069.12.07.12.069.12.069.12.069.12.07.12.069.12.069.12.069.12.069.12.07.12.069.12.069.12.069.12.07.12.069.12.069.12.069.12.07.12.069.12.069.12.069.12.07.12.069.12.069.12.07.12.069.12.069.12.069.12.07.12.069.12.069.12.069.12.07.12.069.12.069.12.07.12.069.12.069.12.07.12.069.12.069.12.069.12.07.12.069.12.069.12.07.12.069.12.069.12.07.12.069.12.069.12.07.12.069.12.069.12.07.12.069.12.069.12.07.12.069.12.069.12.07.12.069.12.069.12.07.12.069.12.069.12.07.12.069.12.07.12.069.12.069.12.07.12.069.12.069.12.07.12.069.12.07.12.069.12.069.12.07.12.069.12.069.12.07.12.069.12.07.12.069.12.069.12.07.12.069.12.069.12.07.12.069.13.07.12.069.12.069.12.07.12.069.12.07.12.069.12.069.12.07.12.069.12.07.12.069.12.07.12.069.12.069.12.07.12.069.12.07.12.069.12.069.12.07.12.069.12.07.12.069.12.07.12.069.12.069.12.07.12.069.12.07.12.069.12.07.12.069.12.069.12.07.12.069.12.07.12.069.12.07.12.069.12.07.12.069.13.069.12.07.12.069.12.07.12.069.12.07.12.069.12.07.12.069.12.069.12.07.12.069.12.07.12.069.12.07.12.069.12.07.12.069.12.07.12.069.12.069.12.07.12.069.12.07.12.069.12.07.12.069.12.07.12.069.12.07.12.069.12.07.12.069.13.07.12.069.12.069.12.07.12.069.12.07.12.069.12.07.12.069.12.07.12.069.12.07.12.069.12.07.12.069.12.07.12.069.12.069.12.07.12.069.12.07.12.069.12.07.12.069.12.07.12.069.12.07.12.069.12.07.12.069.13.07.12.069.12.07.12.069.12.07.12.069.12.069.12.07.12.069.12.07.12.069.12.07.12.069.12.07.12.069.12.07.12.069.12.07.12.069.12.07.12.069.12.07.12.069.12.07.12.069.12.069.12.07.12.069.12.07.12.069.12.07.13.069.12.07.12.069.12.07.12.069.12.07.12.069.12.07.12.069.12.069.12.07.12.069.12.07.12.069.12.07.12.069.12.07.12.069.12.07.12.069.12.07.12.069.12.07.12.069.12.069.12.07.12.069.12.07.12.069.12.07.12.069.12.07.13.069.12.07.12.069.12.069.12.07.12.069.12.07.12.069.12.07.12.069.12.07.12.069.12.069.12.07.12.069.12.07.12.069.12.07.12.069.12.07.12.069.12.069.12.07.12.069.12.07.12.069.12.07.12.069.12.069.12.07.12.069.12.07.12.069.12.07.12.069.12.069.12.07.13.069.12.07.12.069.12.069.12.07.12.069.12.07.12.069.12.07.12.069.12.069.12.07.12.069.12.07.12.069.12.069.12.07.12.069.12.07.12.069.12.069.12.07.12.069.12.069.12.07.12.069.12.07.12.069.12.069.12.07.12.069.12.069.12.07.12.069.12.07.12.069.12.069.12.07.12.069.12.069.12.07.12.069.12.07.12.069.12.069.12.07.12.069.12.069.12.07.12.069.12.069.12.07.12.069.12.069.12.07.12.069.12.069.12.07.12.069.12.069.12.07.12.069.12.069.12.07.12.069.12.069.12.07.13.069.12.069.12.069.12.07.12.069.12.069.12.07.12.069.12.069.12.069.12.07.12.069.12.069.12.07.12.069.12.069.12.069.12.07.12.069.12.069.12.07.12.069.12.069.12.069.12.07.11.069.12.069.12.069.12.07.12.069.12.069.12.069.12.07.12.069.12.069.12.069.12.069.12.07.12.069.12.069.12.069.12.07.12.069.12.069.12.069.12.069.12.07.12.069.12.069.12.069.12.069.12.07.12.069.12.069.12.069.12.069.12.069.12.07.12.069.12.069.12.069.12.069.12.069.12.07.12.069.12.069.12.069.12.069.12.069.12.07.12.069.12.069.12.069.12.069.12.069.12.069.12.069.12.07.12.069.12.069.12.069.12.069.11.069.12.069.12.069.12.069.12.069.12.07.12.069.12.069.12.069.12.069.12.069.12.069.12.069c2.15 1.243 2.15 3.257 0 4.5l-38.1 22c-2.16 1.243-5.64 1.244-7.8.001l-.02-.016-.03-.017-.03-.016-.03-.017-.03-.016-.03-.017-.03-.016-.03-.017-.02-.016-.03-.017-.03-.017-.03-.016-.03-.017-.03-.016-.03-.017-.03-.017-.02-.016-.03-.017-.03-.017-.03-.017-.03-.016-.03-.017-.03-.017-.03-.017-.03-.016-.03-.017-.02-.017-.03-.017-.03-.017-.03-.016-.03-.017-.03-.017-.03-.017-.03-.017-.03-.017-.03-.017-.03-.017-.03-.017-.03-.017-.02-.016-.03-.017-.03-.017-.03-.017-.03-.017-.03-.017-.03-.017-.03-.017-.03-.017-.03-.018-.03-.017-.03-.017-.03-.017-.03-.017-.03-.017-.03-.017-.03-.017-.03-.017-.03-.017-.03-.018-.03-.017-.03-.017-.03-.017-.03-.017-.02-.017-.03-.018-.03-.017-.03-.017-.03-.017-.03-.018-.03-.017-.03-.017-.03-.017-.03-.018-.03-.017-.03-.017-.03-.017-.03-.018-.03-.017-.03-.017-.03-.018-.03-.017-.03-.017-.03-.018-.03-.017-.03-.017-.03-.018-.03-.017-.03-.018-.03-.017-.03-.017-.03-.018-.03-.017-.03-.018-.03-.017-.04-.017-.03-.018-.03-.017-.03-.018-.03-.017-.03-.018-.03-.017-.03-.018-.03-.017-.03-.018-.03-.017-.03-.018-.03-.017-.03-.018-.03-.017-.03-.018-.03-.017-.03-.018-.03-.017-.03-.018-.03-.017-.03-.018-.03-.018-.03-.017-.03-.018-.03-.017-.03-.018-.03-.017-.03-.018-.04-.018-.03-.017-.03-.018-.03-.017-.03-.018-.03-.018-.03-.017-.03-.018-.03-.017-.03-.018-.03-.018-.03-.017-.03-.018-.03-.018-.03-.017-.03-.018-.03-.018-.03-.017-.03-.018-.04-.017-.03-.018-.03-.018-.03-.017-.03-.018-.03-.018-.03-.018-.03-.017-.03-.018-.03-.018-.03-.017-.03-.018-.03-.018-.03-.017-.03-.018-.03-.018-.04-.017-.03-.018-.03-.018-.03-.017-.03-.018-.03-.018-.03-.018-.03-.017-.03-.018-.03-.018-.03-.017-.03-.018-.03-.018-.03-.017-.03-.018-.04-.018-.03-.018-.03-.017-.03-.018-.03-.018-.03-.017-.03-.018-.03-.018-.03-.018-.03-.017-.03-.018-.03-.018-.03-.017-.03-.018-.03-.018-.04-.017-.03-.018-.03-.018-.03-.018-.03-.017-.03-.018-.03-.018-.03-.017-.03-.018-.03-.018-.03-.017-.03-.018-.03-.018-.03-.018-.03-.017-.03-.018-.04-.018-.03-.017-.03-.018-.03-.018-.03-.017-.03-.018-.03-.018-.03-.017-.03-.018-.03-.018-.03-.017-.03-.018-.03-.018-.03-.017-.03-.018-.03-.018-.03-.017-.04-.018-.03-.017-.03-.018-.03-.018-.03-.017-.03-.018-.03-.018-.03-.017-.03-.018-.03-.017-.03-.018-.03-.018-.03-.017-.03-.018-.03-.017-.03-.018-.03-.017-.03-.018-.03-.018-.03-.017-.03-.018-.04-.017-.03-.018-.03-.017-.03-.018-.03-.017-.03-.018-.03-.017-.03-.018-.03-.017-.03-.018-.03-.017-.03-.018-.03-.017-.03-.018-.03-.017-.03-.018-.03-.017-.03-.018-.03-.017-.03-.017-.03-.018-.03-.017-.03-.018-.03-.017-.03-.018-.03-.017-.03-.017-.03-.018-.03-.017-.03-.017-.03-.018-.03-.017-.03-.017-.03-.018-.03-.017-.03-.017-.03-.018-.03-.017-.03-.017-.03-.018-.03-.017-.03-.017-.03-.017-.03-.018-.03-.017-.03-.017-.03-.017-.03-.018-.03-.017-.03-.017-.03-.017-.03-.017-.03-.018-.03-.017-.03-.017-.03-.017-.03-.017-.03-.017-.03-.017-.03-.018-.03-.017-.03-.017-.03-.017-.03-.017-.03-.017-.03-.017-.02-.017-.03-.017-.03-.017-.03-.017-.03-.017-.03-.017-.03-.017-.03-.017-.03-.017-.03-.017-.03-.017-.03-.017-.03-.017-.03-.017-.03-.017-.03-.016-.02-.017-.03-.017-.03-.017-.03-.017-.03-.017-.03-.016-.03-.017-.03-.017-.03-.017-.03-.017-.03-.016-.02-.017-.03-.017-.03-.016-.03-.017-.03-.017-.03-.016-.03-.017-.03-.017-.03-.016-.02-.017-.03-.017-.03-.016-.03-.017-.03-.016-.03-.017-.03-.016-.03-.017-.02-.017-.03-.016-.03-.016-.03-.017-.03-.016-.03-.017-.02-.016-.03-.017-.03-.016-.03-.016-.03-.017-.03-.016-.03-.017-.02-.016-.03-.016-.03-.016-.03-.017-.03-.016-.02-.016-.03-.017-.03-.016-.03-.016-.03-.016-.02-.016-.03-.016-.03-.017-.03-.016-.03-.016-.02-.016-.03-.016-.03-.016-.03-.016-.03-.016-.02-.016-.03-.016-.03-.016-.03-.016-.02-.016-.03-.016-.03-.016-.03-.016-.02-.016-.03-.016-.03-.015-.03-.016-.02-.016-.03-.016-.03-.016-.03-.015-.02-.016-.03-.016-.03-.016-.02-.015-.03-.016-.03-.016-.03-.015-.02-.016-.03-.016-.03-.015-.02-.016-.03-.015-.03-.016-.02-.015-.03-.016-.03-.015-.03-.016-.02-.015-.03-.016-.03-.015-.02-.015-.03-.016-.03-.015-.02-.015-.03-.016-.02-.015-.03-.015-.03-.015-.02-.016-.03-.015-.03-.015-.02-.015-.03-.015-.03-.015-.02-.016-.03-.015-.02-.015-.03-.015-.03-.015-.02-.015-.03-.015-.02-.015-.03-.015-.03-.015-.02-.014-.03-.015-.02-.015-.03-.015-.02-.015-.03-.015-.03-.014-.02-.015-.03-.015-.02-.015-.03-.014-.02-.015-.03-.014-.02-.015-.03-.015-.02-.014-.03-.015-.02-.014-.03-.015-.02-.014-.03-.015-.02-.014-.03-.015-.02-.014-.03-.014-.02-.015-.03-.014-.02-.014-.03-.015-.02-.014-.03-.014-.02-.014-.03-.015-.02-.014-.03-.014-.02-.014-.02-.014-.03-.014-.02-.014-.03-.014-.02-.014-.03-.014-.02-.014-.02-.014-.03-.014-.02-.014-.03-.014-.02-.013-.02-.014-.03-.014-.02-.014-.03-.013-.02-.014-.02-.014-.03-.013-.02-.014-.02-.014-.03-.013-.02-.014-.02-.013-.03-.014-.02-.013-.02-.014-.03-.013-.02-.013-.02-.014-.03-.013c-2.15-1.242-2.14-3.254.01-4.497l16.45-9.5c2.63-1.519 2.63-3.981 0-5.5l-38.1-22c-2.15-1.243-2.15-3.257 0-4.5z" stroke="#000" shape-rendering="crispEdges" id="path75"/></g><g filter="url('#filter5_d_1712_6993')" id="g81"><rect x=".866" width="17" height="20" rx="1.5" transform="matrix(.86603 -.5 .86603 .5 1064.46 886.433)" stroke="#000" shape-rendering="crispEdges" id="rect79" y="0"/></g><g filter="url('#filter6_d_1712_6993')" id="g85"><rect x=".866" width="17" height="18" rx="1.5" transform="matrix(.86603 -.5 .86603 .5 1084.38 897.933)" stroke="#000" shape-rendering="crispEdges" id="rect83" y="0"/></g><g filter="url('#filter7_d_1712_6993')" id="g89"><rect x=".866" width="17" height="20" rx="1.5" transform="matrix(.86603 -.5 .86603 .5 1102.57 908.433)" stroke="#000" shape-rendering="crispEdges" id="rect87" y="0"/></g><g filter="url('#filter8_d_1712_6993')" id="g93"><rect x=".866" width="20" height="20" rx="1.5" transform="matrix(.86603 -.5 .86603 .5 1082.65 919.933)" stroke="#000" shape-rendering="crispEdges" id="rect91" y="0"/></g><rect x=".866" width="21.856" height="35.081" rx="1.5" transform="matrix(.86603 -.5 .86603 .5 978.273 757.648)" stroke="#000" id="rect95" y="0"/><rect x="0" y=".5" width="21.851" height="35.089" rx="1.5" transform="matrix(.86603 .5 -.86603 .5 1221.29 819.394)" stroke="#000" id="rect97"/><rect x=".866" width="21.856" height="35.081" rx="1.5" transform="matrix(.86603 -.5 .86603 .5 1011.6 776.891)" stroke="#000" id="rect99" y="0"/><rect x="0" y=".5" width="21.851" height="35.089" rx="1.5" transform="matrix(.86603 .5 -.86603 .5 1187.95 838.641)" stroke="#000" id="rect101"/><rect x=".866" width="9.827" height="9.824" rx="1.5" transform="matrix(.86603 -.5 .86603 .5 967.855 767.271)" stroke="#000" id="rect103" y="0"/><rect x=".866" width="3.812" height="9.824" rx="1.5" transform="matrix(.86603 -.5 .86603 .5 964.729 769.075)" stroke="#000" id="rect105" y="0"/><rect x="0" y=".5" width="9.824" height="9.827" rx="1.5" transform="matrix(.86603 .5 -.86603 .5 1204.62 814.584)" stroke="#000" id="rect107"/><rect x="0" y=".5" width="3.811" height="9.827" rx="1.5" transform="matrix(.86603 .5 -.86603 .5 1201.5 812.78)" stroke="#000" id="rect109"/><rect x="-.866" y="0" width="9.827" height="9.824" rx="1.5" transform="matrix(-.86603 .5 -.86603 -.5 1247.37 822.582)" stroke="#000" id="rect111"/><rect x="-.866" y="0" width="3.812" height="9.824" rx="1.5" transform="matrix(-.86603 .5 -.86603 -.5 1250.49 820.778)" stroke="#000" id="rect113"/><rect x="0" y=".5" width="9.827" height="9.824" rx="1.5" transform="matrix(-.86603 .5 .86603 .5 1013.14 740.623)" stroke="#000" id="rect115"/><rect x="0" y=".5" width="3.812" height="9.824" rx="1.5" transform="matrix(-.86603 .5 .86603 .5 1016.27 738.818)" stroke="#000" id="rect117"/><rect x="-.866" y="0" width="9.824" height="9.827" rx="1.5" transform="matrix(-.86603 -.5 -.86603 .5 1248.4 840.36)" stroke="#000" id="rect119"/><rect x="-.866" y="0" width="3.811" height="9.827" rx="1.5" transform="matrix(-.86603 -.5 -.86603 .5 1251.53 842.164)" stroke="#000" id="rect121"/><rect x=".866" width="9.827" height="9.824" rx="1.5" transform="matrix(.86603 -.5 .86603 .5 984.52 776.892)" stroke="#000" id="rect123" y="0"/><rect x=".866" width="3.812" height="9.824" rx="1.5" transform="matrix(.86603 -.5 .86603 .5 981.394 778.697)" stroke="#000" id="rect125" y="0"/><rect x="0" y=".5" width="9.824" height="9.827" rx="1.5" transform="matrix(.86603 .5 -.86603 .5 1187.95 824.208)" stroke="#000" id="rect127"/><rect x="0" y=".5" width="3.811" height="9.827" rx="1.5" transform="matrix(.86603 .5 -.86603 .5 1184.83 822.404)" stroke="#000" id="rect129"/><rect x="0" y=".5" width="9.827" height="9.824" rx="1.5" transform="matrix(-.86603 .5 .86603 .5 1029.81 750.244)" stroke="#000" id="rect131"/><rect x="0" y=".5" width="3.812" height="9.824" rx="1.5" transform="matrix(-.86603 .5 .86603 .5 1032.94 748.44)" stroke="#000" id="rect133"/><rect x="-.866" y="0" width="9.824" height="9.827" rx="1.5" transform="matrix(-.86603 -.5 -.86603 .5 1231.73 849.984)" stroke="#000" id="rect135"/><rect x="-.866" y="0" width="3.811" height="9.827" rx="1.5" transform="matrix(-.86603 -.5 -.86603 .5 1234.86 851.788)" stroke="#000" id="rect137"/><rect x=".866" width="9.827" height="9.824" rx="1.5" transform="matrix(.86603 -.5 .86603 .5 1001.18 786.514)" stroke="#000" id="rect139" y="0"/><rect x=".866" width="3.812" height="9.824" rx="1.5" transform="matrix(.86603 -.5 .86603 .5 998.059 788.318)" stroke="#000" id="rect141" y="0"/><rect x="0" y=".5" width="9.824" height="9.827" rx="1.5" transform="matrix(.86603 .5 -.86603 .5 1171.29 833.831)" stroke="#000" id="rect143"/><rect x="0" y=".5" width="3.811" height="9.827" rx="1.5" transform="matrix(.86603 .5 -.86603 .5 1168.16 832.027)" stroke="#000" id="rect145"/><rect x="0" y=".5" width="9.827" height="9.824" rx="1.5" transform="matrix(-.86603 .5 .86603 .5 1046.47 759.866)" stroke="#000" id="rect147"/><rect x="0" y=".5" width="3.812" height="9.824" rx="1.5" transform="matrix(-.86603 .5 .86603 .5 1049.6 758.061)" stroke="#000" id="rect149"/><rect x="-.866" y="0" width="9.824" height="9.827" rx="1.5" transform="matrix(-.86603 -.5 -.86603 .5 1215.07 859.607)" stroke="#000" id="rect151"/><rect x="-.866" y="0" width="3.811" height="9.827" rx="1.5" transform="matrix(-.86603 -.5 -.86603 .5 1218.19 861.411)" stroke="#000" id="rect153"/><rect x=".866" width="9.827" height="9.824" rx="1.5" transform="matrix(.86603 -.5 .86603 .5 1017.85 796.135)" stroke="#000" id="rect155" y="0"/><rect x=".866" width="3.812" height="9.824" rx="1.5" transform="matrix(.86603 -.5 .86603 .5 1014.72 797.94)" stroke="#000" id="rect157" y="0"/><rect x="0" y=".5" width="9.824" height="9.827" rx="1.5" transform="matrix(.86603 .5 -.86603 .5 1154.62 843.455)" stroke="#000" id="rect159"/><rect x="0" y=".5" width="3.811" height="9.827" rx="1.5" transform="matrix(.86603 .5 -.86603 .5 1151.49 841.651)" stroke="#000" id="rect161"/><rect x="0" y=".5" width="9.827" height="9.824" rx="1.5" transform="matrix(-.86603 .5 .86603 .5 1063.14 769.487)" stroke="#000" id="rect163"/><rect x="0" y=".5" width="3.812" height="9.824" rx="1.5" transform="matrix(-.86603 .5 .86603 .5 1066.27 767.683)" stroke="#000" id="rect165"/><rect x="-.866" y="0" width="9.824" height="9.827" rx="1.5" transform="matrix(-.86603 -.5 -.86603 .5 1198.4 869.231)" stroke="#000" id="rect167"/><rect x="-.866" y="0" width="3.811" height="9.827" rx="1.5" transform="matrix(-.86603 -.5 -.86603 .5 1201.52 871.035)" stroke="#000" id="rect169"/><circle r="15.5" transform="matrix(.86603 -.5 .86603 .5 808.868 953.5)" stroke="#000" id="circle171" cx="0" cy="0"/><rect x=".866" width="17" height="24" rx="1.5" transform="matrix(.86603 -.5 .86603 .5 1050.6 904.433)" stroke="#000" id="rect173" y="0"/><path opacity=".3" d="M1226.29 627.5c-.95.552-.95 1.448 0 2l15.59 9c.96.552 2.51.552 3.46 0 .96-.552.96-1.448 0-2l-13.85-8 13.85-8c.96-.552.96-1.448 0-2-.95-.552-2.5-.552-3.46 0zm378.46 2c.95-.552.95-1.448 0-2l-15.59-9c-.96-.552-2.51-.552-3.47 0-.95.552-.95 1.448 0 2l13.86 8-13.86 8c-.95.552-.95 1.448 0 2 .96.552 2.51.552 3.47 0zm-187.5-110.25c-.96-.552-2.51-.552-3.46 0l-15.59 9c-.96.552-.96 1.448 0 2 .95.552 2.51.552 3.46 0l13.86-8 13.86 8c.95.552 2.5.552 3.46 0s.96-1.448 0-2zm-3.46 218.5c.95.552 2.5.552 3.46 0l15.59-9c.96-.552.96-1.448 0-2s-2.51-.552-3.46 0l-13.86 8-13.86-8c-.95-.552-2.51-.552-3.46 0-.96.552-.96 1.448 0 2zm-185.77-107.836h374.99v-2.828h-374.99Zm185.05-109.664v216.5h4.9v-216.5z" fill="#fff" id="path175"/><path opacity=".3" d="M1449.73 498.5c-.96.552-.96 1.448 0 2l15.59 9c.95.552 2.5.552 3.46 0s.96-1.448 0-2l-13.86-8 13.86-8c.96-.552.96-1.448 0-2s-2.51-.552-3.46 0zm378.45 2c.96-.552.96-1.448 0-2l-15.59-9c-.96-.552-2.51-.552-3.46 0-.96.552-.96 1.448 0 2l13.85 8-13.85 8c-.96.552-.96 1.448 0 2 .95.552 2.5.552 3.46 0zm-187.49-110.25c-.96-.552-2.51-.552-3.47 0l-15.59 9c-.95.552-.95 1.448 0 2 .96.552 2.51.552 3.47 0l13.85-8 13.86 8c.96.552 2.51.552 3.46 0 .96-.552.96-1.448 0-2zm-3.47 218.5c.96.552 2.51.552 3.47 0l15.58-9c.96-.552.96-1.448 0-2-.95-.552-2.5-.552-3.46 0l-13.86 8-13.85-8c-.96-.552-2.51-.552-3.47 0-.95.552-.95 1.448 0 2zm-185.76-107.836h374.99v-2.828h-374.99ZM1636.5 391.25v216.5h4.9v-216.5z" fill="#fff" id="path177"/><path opacity=".3" d="M1420.53 366.226c-.96.553-.96 1.448 0 2l15.59 9c.95.553 2.5.553 3.46 0 .96-.552.96-1.447 0-2l-13.86-8 13.86-8c.96-.552.96-1.447 0-2-.96-.552-2.51-.552-3.46 0zm187.06 2c.96-.552.96-1.447 0-2l-15.59-9c-.96-.552-2.51-.552-3.46 0-.96.553-.96 1.448 0 2l13.85 8-13.85 8c-.96.553-.96 1.448 0 2 .95.553 2.5.553 3.46 0zm-91.8-55c-.96-.552-2.51-.552-3.46 0l-15.59 9c-.96.553-.96 1.448 0 2 .96.553 2.51.553 3.46 0l13.86-8 13.86 8c.95.553 2.5.553 3.46 0 .96-.552.96-1.447 0-2zm-3.46 108c.95.553 2.5.553 3.46 0l15.59-9c.96-.552.96-1.447 0-2-.96-.552-2.51-.552-3.46 0l-13.86 8-13.86-8c-.95-.552-2.5-.552-3.46 0-.96.553-.96 1.448 0 2zm-90.07-52.585h183.6v-2.829h-183.6zm89.35-54.415v106h4.9v-106z" fill="#fff" id="path179"/><path opacity=".3" d="M1207.21 758.995c-.95.552-.95 1.448 0 2l15.59 9c.96.552 2.51.552 3.47 0 .95-.552.95-1.448 0-2l-13.86-8 13.86-8c.95-.552.95-1.448 0-2-.96-.552-2.51-.552-3.47 0zm187.06 2c.96-.552.96-1.448 0-2l-15.58-9c-.96-.552-2.51-.552-3.47 0-.95.552-.95 1.448 0 2l13.86 8-13.86 8c-.95.552-.95 1.448 0 2 .96.552 2.51.552 3.47 0zm-91.79-55c-.96-.552-2.51-.552-3.47 0l-15.59 9c-.95.552-.95 1.448 0 2 .96.552 2.51.552 3.47 0l13.85-8 13.86 8c.96.552 2.51.552 3.46 0 .96-.552.96-1.448 0-2zm-3.47 108c.96.552 2.51.552 3.47 0l15.58-9c.96-.552.96-1.448 0-2-.95-.552-2.5-.552-3.46 0l-13.86 8-13.85-8c-.96-.552-2.51-.552-3.47 0-.95.552-.95 1.448 0 2zm-90.06-52.586h183.59v-2.828h-183.59zm89.34-54.414v106h4.9v-106z" fill="#fff" id="path181"/><circle r="8" transform="matrix(.86603 -.5 .86603 .5 1226.29 513)" stroke="#000" id="circle183" cx="0" cy="0"/><rect x=".866" width="19" height="19" rx="4.5" transform="matrix(.86603 -.5 .86603 .5 964.002 653.433)" stroke="#000" id="rect185" y="0"/><rect x=".866" width="19" height="19" rx="4.5" transform="matrix(.86603 -.5 .86603 .5 983.055 664.433)" stroke="#000" id="rect187" y="0"/><rect x=".866" width="19" height="19" rx="4.5" transform="matrix(.86603 -.5 .86603 .5 1002.11 675.433)" stroke="#000" id="rect189" y="0"/><rect x=".866" width="19" height="19" rx="4.5" transform="matrix(.86603 -.5 .86603 .5 1021.16 686.433)" stroke="#000" id="rect191" y="0"/><path d="M1418 629.092V566h83.43c2.49 13.144-1.91 39.433-39.43 39.433-19.93 0-44 16.188-44 23.659z" fill="#fff" id="path193"/><rect x="1418" y="507" width="117" height="98" rx="30" fill="#fff" id="rect195"/><path d="M1438.02 550h3.6l1.64-3.888h7.27l1.65 3.888h3.65l-7.37-17.04h-3.09zm8.88-12.456 2.33 5.52h-4.68zm13.81 17.472v-6.36c.55.768 1.82 1.608 3.48 1.608 3.19 0 5.64-2.88 5.64-6.264 0-3.384-2.45-6.264-5.64-6.264-1.66 0-2.93.84-3.48 1.608V538h-3.29v17.016zm2.76-7.752c-1.83 0-3.03-1.368-3.03-3.264 0-1.896 1.2-3.264 3.03-3.264 1.82 0 3.02 1.368 3.02 3.264 0 1.896-1.2 3.264-3.02 3.264zm14.28 3c3.05 0 5.45-1.752 6.15-4.176h-3.44c-.38.84-1.39 1.32-2.54 1.32-2.06 0-3.12-1.224-3.24-2.64h9.36c.19-4.512-2.76-7.032-6.26-7.032-3.65 0-6.32 2.664-6.32 6.24 0 3.648 2.62 6.288 6.29 6.288zm-.07-9.864c1.1 0 2.38.6 2.76 2.208h-5.64c.31-1.344 1.34-2.208 2.88-2.208zm8.76 9.6h3.28v-4.608h4.95V550h3.29v-12h-3.29v4.536h-4.95V538h-3.28zm19.56.264c1.66 0 2.91-.84 3.46-1.608V550h3.29v-12h-3.29v1.344c-.55-.768-1.8-1.608-3.46-1.608-3.19 0-5.64 2.88-5.64 6.264 0 3.384 2.45 6.264 5.64 6.264zm.7-3c-1.83 0-3.03-1.368-3.03-3.264 0-1.896 1.2-3.264 3.03-3.264 1.82 0 3.02 1.368 3.02 3.264 0 1.896-1.2 3.264-3.02 3.264zM1441.65 579h3.29v-17.04h-4.49l-2.4 3.24h3.6zm12.77.264c3.72 0 6.34-2.832 6.34-6.744v-4.128c0-3.888-2.62-6.72-6.34-6.72-3.74 0-6.36 2.832-6.36 6.72v4.128c0 3.912 2.62 6.744 6.36 6.744zm0-3.24c-1.82 0-3.07-1.296-3.07-3.504v-4.128c0-2.208 1.25-3.48 3.07-3.48 1.82 0 3.05 1.272 3.05 3.48v4.128c0 2.208-1.23 3.504-3.05 3.504zm15.14 3.24c3.72 0 6.34-2.832 6.34-6.744v-4.128c0-3.888-2.62-6.72-6.34-6.72-3.74 0-6.36 2.832-6.36 6.72v4.128c0 3.912 2.62 6.744 6.36 6.744zm0-3.24c-1.82 0-3.07-1.296-3.07-3.504v-4.128c0-2.208 1.25-3.48 3.07-3.48 1.82 0 3.05 1.272 3.05 3.48v4.128c0 2.208-1.23 3.504-3.05 3.504zm14.6-9.024v12h3.29v-6.936l3.46 4.344 3.43-4.344V579h3.29v-12h-2.79l-3.96 4.992-3.93-4.992zm22.86-.144h-3.87c.27-.456 1.35-1.032 1.73-1.296 1.15-.768 2.09-1.752 2.09-3.672 0-2.184-1.66-3.264-3.38-3.264-2.12 0-3.72 1.488-3.72 3.504h2.35c-.03-.6.45-1.2 1.29-1.2.75 0 1.11.48 1.11 1.056 0 .744-.75 1.464-1.51 1.968-1.54 1.08-3.29 2.04-3.29 4.44v.768h7.2z" fill="#000" id="path197"/><path d="M1057 617.092V554h83.43c2.49 13.144-1.91 39.433-39.43 39.433-19.93 0-44 16.188-44 23.659z" fill="#fff" id="path199"/><rect x="1057" y="524" width="134" height="69" rx="30" fill="#fff" id="rect201"/><path d="M1084.1 567h3.1l7.06-17.04h-3.84l-4.76 11.832-4.82-11.832h-3.77zm12.09 0h3.48v-7.176h.84l5.86 7.176h4.2l-6.12-7.56c2.28-.696 3.5-2.136 3.5-4.44 0-2.832-2.06-5.04-5.23-5.04h-6.53zm3.48-10.152v-3.696h2.64c1.32 0 2.19.672 2.19 1.848 0 1.152-.87 1.848-2.19 1.848zM1114.31 567h3.6l1.64-3.888h7.27l1.65 3.888h3.65l-7.37-17.04h-3.09zm8.88-12.456 2.33 5.52h-4.68zm14.51 12.72c1.54 0 2.64-.672 3.29-1.632V567h3.29v-12h-3.29v5.856c0 2.328-1.01 3.408-2.47 3.408-1.44 0-2.04-1.032-2.04-2.856V555h-3.29v6.96c0 3.168 1.63 5.304 4.51 5.304zm15.55-.12c.94 0 1.54-.096 2.09-.264v-2.904c-.38.144-.84.216-1.34.216-1.44 0-2.04-.576-2.04-2.04v-4.272h3.38V555h-3.38v-3.336h-3.29V555h-2.43v2.88h2.43v4.92c0 2.952 2.04 4.344 4.58 4.344zm9.79.12c3.48 0 6.31-2.736 6.31-6.264 0-3.504-2.83-6.264-6.31-6.264-3.48 0-6.31 2.76-6.31 6.264 0 3.528 2.83 6.264 6.31 6.264zm0-3.072c-1.73 0-3-1.344-3-3.192s1.27-3.192 3-3.192c1.71 0 2.98 1.344 2.98 3.192s-1.27 3.192-2.98 3.192z" fill="#000" id="path203"/><path d="M999 650.092V587h-83.431c-2.49 13.144 1.909 39.433 39.433 39.433 19.924 0 43.998 16.188 43.998 23.659z" fill="#fff" id="path205"/><rect x="800" y="528" width="199" height="98" rx="30" fill="#fff" id="rect207"/><path d="M821.896 571h7.2c3.024 0 5.28-2.184 5.28-5.016 0-1.92-1.008-3.288-2.52-4.032.84-.744 1.344-1.728 1.344-3.048 0-2.688-2.184-4.944-5.064-4.944h-6.24zm3.48-3.192v-3.912h3.48c1.32 0 2.136.84 2.136 1.968 0 1.128-.816 1.944-2.136 1.944zm0-6.864v-3.816h2.424c1.224 0 2.016.888 2.016 1.92 0 1.056-.792 1.896-2.016 1.896zm16.939 10.32c3.048 0 5.448-1.752 6.144-4.176h-3.432c-.384.84-1.392 1.32-2.544 1.32-2.064 0-3.12-1.224-3.24-2.64h9.36c.192-4.512-2.76-7.032-6.264-7.032-3.648 0-6.312 2.664-6.312 6.24 0 3.648 2.616 6.288 6.288 6.288zm-.072-9.864c1.104 0 2.376.6 2.76 2.208h-5.64c.312-1.344 1.344-2.208 2.88-2.208zm8.755 9.6h3.288v-4.608h4.944V571h3.288v-12h-3.288v4.536h-4.944V559h-3.288zm13.807-2.88v5.832h2.952V571h8.352v2.952h2.952v-5.832h-1.944V559h-10.32v6.024c0 2.328-.696 3.096-1.68 3.096zm5.28-6.24h3.744v6.24h-4.344c.384-.672.6-1.392.6-2.904zm14.24 9.12 5.376-7.08V571h3.264v-12h-2.928l-5.376 7.08V559h-3.288v12zm11.837 0h3.288v-4.608h4.944V571h3.288v-12h-3.288v4.536h-4.944V559h-3.288zm14.695 0h3.288v-9.12h4.992V559h-8.28zm15.458.264c3.48 0 6.312-2.736 6.312-6.264 0-3.504-2.832-6.264-6.312-6.264-3.48 0-6.312 2.76-6.312 6.264 0 3.528 2.832 6.264 6.312 6.264zm0-3.072c-1.728 0-3-1.344-3-3.192s1.272-3.192 3-3.192c1.704 0 2.976 1.344 2.976 3.192s-1.272 3.192-2.976 3.192zm8.683 2.808h6.576c3.192 0 4.392-1.872 4.392-3.648 0-1.128-.6-2.136-1.56-2.736.528-.6.792-1.272.792-2.016 0-1.8-1.344-3.6-4.464-3.6h-5.736zm3.288-2.688v-2.376h3.12c.744 0 1.296.408 1.296 1.176 0 .792-.552 1.2-1.296 1.2zm0-4.584v-2.208h2.448c.552 0 1.2.264 1.2 1.104 0 .84-.648 1.104-1.2 1.104zM959.902 571h3.288v-12h-3.288zm-11.568 0h5.544c3.192 0 4.416-2.472 4.416-4.272 0-1.8-1.224-4.152-4.416-4.152h-2.256V559h-3.288zm3.288-5.616h1.872c1.08 0 1.704.432 1.704 1.368 0 .936-.624 1.44-1.704 1.44h-1.872zm20.279 5.88c3.048 0 5.448-1.752 6.144-4.176h-3.432c-.384.84-1.392 1.32-2.544 1.32-2.064 0-3.12-1.224-3.24-2.64h9.36c.192-4.512-2.76-7.032-6.264-7.032-3.648 0-6.312 2.664-6.312 6.24 0 3.648 2.616 6.288 6.288 6.288zm-.072-9.864c1.104 0 2.376.6 2.76 2.208h-5.64c.312-1.344 1.344-2.208 2.88-2.208zm-145.373 38.864c1.656 0 2.904-.84 3.456-1.608V600h3.288v-12h-3.288v1.344c-.552-.768-1.8-1.608-3.456-1.608-3.192 0-5.64 2.88-5.64 6.264 0 3.384 2.448 6.264 5.64 6.264zm.696-3c-1.824 0-3.024-1.368-3.024-3.264 0-1.896 1.2-3.264 3.024-3.264s3.024 1.368 3.024 3.264c0 1.896-1.2 3.264-3.024 3.264zm9.244 2.736h6.577c3.192 0 4.392-1.872 4.392-3.648 0-1.128-.6-2.136-1.56-2.736.528-.6.792-1.272.792-2.016 0-1.8-1.344-3.6-4.464-3.6h-5.737zm3.289-2.688v-2.376h3.12c.744 0 1.296.408 1.296 1.176 0 .792-.552 1.2-1.296 1.2zm0-4.584v-2.208h2.448c.552 0 1.2.264 1.2 1.104 0 .84-.648 1.104-1.2 1.104zm11.95 7.272h3.288v-9.12h3.552V588h-10.152v2.88h3.312zm14.071.264c3.48 0 6.312-2.736 6.312-6.264 0-3.504-2.832-6.264-6.312-6.264-3.48 0-6.312 2.76-6.312 6.264 0 3.528 2.832 6.264 6.312 6.264zm0-3.072c-1.728 0-3-1.344-3-3.192s1.272-3.192 3-3.192c1.704 0 2.976 1.344 2.976 3.192s-1.272 3.192-2.976 3.192zm8.683-9.192v12h3.288v-6.936l3.456 4.344 3.432-4.344V600h3.288v-12h-2.784l-3.96 4.992-3.936-4.992zm21.512 12.264c1.656 0 2.904-.84 3.456-1.608V600h3.288v-12h-3.288v1.344c-.552-.768-1.8-1.608-3.456-1.608-3.192 0-5.64 2.88-5.64 6.264 0 3.384 2.448 6.264 5.64 6.264zm.696-3c-1.824 0-3.024-1.368-3.024-3.264 0-1.896 1.2-3.264 3.024-3.264s3.024 1.368 3.024 3.264c0 1.896-1.2 3.264-3.024 3.264zM908.002 600h3.288v-9.12h3.552V588H904.69v2.88h3.312zm20.423 0h3.288v-12h-3.288zm-11.568 0h5.544c3.192 0 4.416-2.472 4.416-4.272 0-1.8-1.224-4.152-4.416-4.152h-2.256V588h-3.288zm3.288-5.616h1.872c1.08 0 1.704.432 1.704 1.368 0 .936-.624 1.44-1.704 1.44h-1.872z" fill="#000" id="path209"/><path d="M963 781.092V718h-83.431c-2.49 13.144 1.909 39.433 39.433 39.433 19.924 0 43.998 16.188 43.998 23.659z" fill="#fff" id="path211"/><rect x="726" y="688" width="237" height="69" rx="30" fill="#fff" id="rect213"/><path d="M750.656 718.64c.36-1.032 1.224-1.776 2.448-1.776 1.416 0 2.136.816 2.136 1.944 0 1.152-.672 1.968-1.992 1.968h-1.824v2.928h2.016c1.512 0 2.376.816 2.376 2.04 0 1.344-.888 2.28-2.64 2.28-1.536 0-2.712-.744-3.12-2.184h-3.48c.456 3.576 3.408 5.448 6.624 5.448 3.24 0 6-1.944 6-5.28 0-1.728-.744-3.24-2.304-4.104 1.368-1.08 1.704-2.448 1.704-3.696 0-2.736-2.232-4.536-5.424-4.536-2.568 0-5.352 1.344-5.976 4.968zm16.604 12.624c3.48 0 6.312-2.736 6.312-6.264 0-3.504-2.832-6.264-6.312-6.264-3.48 0-6.312 2.76-6.312 6.264 0 3.528 2.832 6.264 6.312 6.264zm0-3.072c-1.728 0-3-1.344-3-3.192s1.272-3.192 3-3.192c1.704 0 2.976 1.344 2.976 3.192s-1.272 3.192-2.976 3.192zm8.683 2.808h3.288v-4.608h4.944V731h3.288v-12h-3.288v4.536h-4.944V719h-3.288zm19.568.264c1.656 0 2.904-.84 3.456-1.608V731h3.288v-12h-3.288v1.344c-.552-.768-1.8-1.608-3.456-1.608-3.192 0-5.64 2.88-5.64 6.264 0 3.384 2.448 6.264 5.64 6.264zm.696-3c-1.824 0-3.024-1.368-3.024-3.264 0-1.896 1.2-3.264 3.024-3.264s3.024 1.368 3.024 3.264c0 1.896-1.2 3.264-3.024 3.264zm20.249 3c3.312 0 5.496-2.088 6.144-4.848h-3.408c-.456 1.08-1.32 1.872-2.736 1.872-1.728 0-3-1.272-3-3.288s1.272-3.288 3-3.288c1.416 0 2.28.792 2.736 1.872h3.408c-.648-2.76-2.832-4.848-6.144-4.848-3.648 0-6.312 2.784-6.312 6.264 0 3.48 2.664 6.264 6.312 6.264zm13.898 0c3.48 0 6.312-2.736 6.312-6.264 0-3.504-2.832-6.264-6.312-6.264-3.48 0-6.312 2.76-6.312 6.264 0 3.528 2.832 6.264 6.312 6.264zm0-3.072c-1.728 0-3-1.344-3-3.192s1.272-3.192 3-3.192c1.704 0 2.976 1.344 2.976 3.192s-1.272 3.192-2.976 3.192zm19.688 3.072c3.312 0 5.496-2.088 6.144-4.848h-3.408c-.456 1.08-1.32 1.872-2.736 1.872-1.728 0-3-1.272-3-3.288s1.272-3.288 3-3.288c1.416 0 2.28.792 2.736 1.872h3.408c-.648-2.76-2.832-4.848-6.144-4.848-3.648 0-6.312 2.784-6.312 6.264 0 3.48 2.664 6.264 6.312 6.264zm10.35-.264h3.288v-9.12h3.552V719H857.08v2.88h3.312zm14.071.264c3.48 0 6.312-2.736 6.312-6.264 0-3.504-2.832-6.264-6.312-6.264-3.48 0-6.312 2.76-6.312 6.264 0 3.528 2.832 6.264 6.312 6.264zm0-3.072c-1.728 0-3-1.344-3-3.192s1.272-3.192 3-3.192c1.704 0 2.976 1.344 2.976 3.192s-1.272 3.192-2.976 3.192zm8.858 3.048c2.016 0 4.032-1.368 4.032-4.56v-4.8h3.696V731h3.288v-12h-10.272v7.272c0 1.656-.528 2.112-1.464 2.112-.264 0-.576-.024-.84-.048v2.784c.408.096.912.12 1.56.12zm19.065.024c1.656 0 2.904-.84 3.456-1.608V731h3.288v-12h-3.288v1.344c-.552-.768-1.8-1.608-3.456-1.608-3.192 0-5.64 2.88-5.64 6.264 0 3.384 2.448 6.264 5.64 6.264zm.696-3c-1.824 0-3.024-1.368-3.024-3.264 0-1.896 1.2-3.264 3.024-3.264s3.024 1.368 3.024 3.264c0 1.896-1.2 3.264-3.024 3.264zm9.244-9.264v12h3.288v-6.936l3.456 4.344 3.432-4.344V731h3.288v-12h-2.784l-3.96 4.992L915.11 719Zm19.593 12 5.376-7.08V731h3.264v-12h-2.928l-5.376 7.08V719h-3.288v12z" fill="#000" id="path215"/><path d="M878 911.092V848h-83.431c-2.49 13.144 1.909 39.433 39.433 39.433 19.924 0 43.998 16.188 43.998 23.659z" fill="#fff" id="path217"/><rect x="769" y="818" width="109" height="69" rx="30" fill="#fff" id="rect219"/><path d="M790.896 861h19.68v-17.04h-3.48v13.728h-4.608V843.96h-3.504v13.728H794.4V843.96h-3.504zm30.763 0h4.224l-5.808-6.096 4.992-5.904h-3.912l-4.056 4.896V849h-3.288v12h3.288v-4.848zm9.563.264c1.656 0 2.904-.84 3.456-1.608V861h3.288v-12h-3.288v1.344c-.552-.768-1.8-1.608-3.456-1.608-3.192 0-5.64 2.88-5.64 6.264 0 3.384 2.448 6.264 5.64 6.264zm.696-3c-1.824 0-3.024-1.368-3.024-3.264 0-1.896 1.2-3.264 3.024-3.264s3.024 1.368 3.024 3.264c0 1.896-1.2 3.264-3.024 3.264zm18.484 7.752v-4.752h.24c4.176 0 6.456-2.952 6.456-6.264 0-3.312-2.28-6.264-6.456-6.264h-.24V843h-3.288v5.736h-.264c-4.176 0-6.456 2.952-6.456 6.264 0 3.312 2.28 6.264 6.456 6.264h.264v4.752zm.24-14.256c1.968 0 3.144 1.512 3.144 3.24 0 1.728-1.152 3.24-3.144 3.24h-.24v-6.48zm-3.528 6.48h-.264c-1.992 0-3.144-1.512-3.144-3.24 0-1.728 1.176-3.24 3.144-3.24h.264z" fill="#000" id="path221"/><path d="M1064 917v63.092h-83.431c-2.49-13.144 1.909-39.432 39.431-39.432 19.93 0 44-16.189 44-23.66z" fill="#fff" id="path223"/><rect x="878" y="939.999" width="186" height="69" rx="30" fill="#fff" id="rect225"/><path d="M899.896 965.959v17.04h3.48v-11.088l5.232 7.176 5.232-7.176v11.088h3.48v-17.04h-3.168l-5.544 7.608-5.544-7.608zm18.934 17.04h3.72l3.504-3.792h1.152v3.792h3.288v-12h-5.304c-2.832 0-4.416 1.752-4.416 4.032 0 1.536.816 2.736 2.184 3.408zm6.552-6.432c-.84 0-1.512-.504-1.512-1.392 0-.936.504-1.512 1.488-1.512h1.848v2.904zm8.28 6.432h3.288v-9.12h4.992v-2.88h-8.28zm18.114 0H956l-5.808-6.096 4.992-5.904h-3.912l-4.056 4.896v-4.896h-3.288v12h3.288v-4.848zm9.563.264c1.656 0 2.904-.84 3.456-1.608v1.344h3.288v-12h-3.288v1.344c-.552-.768-1.8-1.608-3.456-1.608-3.192 0-5.64 2.88-5.64 6.264 0 3.384 2.448 6.264 5.64 6.264zm.696-3c-1.824 0-3.024-1.368-3.024-3.264 0-1.896 1.2-3.264 3.024-3.264s3.024 1.368 3.024 3.264c0 1.896-1.2 3.264-3.024 3.264zm7.396 2.736h3.72l3.504-3.792h1.152v3.792h3.288v-12h-5.304c-2.832 0-4.416 1.752-4.416 4.032 0 1.536.816 2.736 2.184 3.408zm6.552-6.432c-.84 0-1.512-.504-1.512-1.392 0-.936.504-1.512 1.488-1.512h1.848v2.904zm18.278 6.696c3.504 0 5.136-1.968 5.136-3.792 0-1.272-.528-2.184-1.608-2.784.864-.648 1.128-1.56 1.128-2.4 0-1.56-1.344-3.552-4.632-3.552-2.304 0-4.704.984-5.28 3.792h3.288c.264-.744.912-1.224 1.896-1.224 1.08 0 1.584.528 1.584 1.224 0 .768-.552 1.176-1.392 1.176h-1.344v2.256h1.464c1.032 0 1.584.48 1.584 1.248 0 .84-.624 1.344-1.848 1.368-1.08 0-1.872-.48-2.136-1.344h-3.384c.504 2.856 3.096 4.032 5.544 4.032zm13.079 0c3.48 0 6.31-2.736 6.31-6.264 0-3.504-2.83-6.264-6.31-6.264-3.48 0-6.31 2.76-6.31 6.264 0 3.528 2.83 6.264 6.31 6.264zm0-3.072c-1.73 0-3-1.344-3-3.192s1.27-3.192 3-3.192c1.7 0 2.97 1.344 2.97 3.192s-1.27 3.192-2.97 3.192zm8.68 2.808h3.29v-4.608h4.94v4.608h3.29v-12h-3.29v4.536h-4.94v-4.536h-3.29zm19.57.264c1.65 0 2.9-.84 3.45-1.608v1.344h3.29v-12h-3.29v1.344c-.55-.768-1.8-1.608-3.45-1.608-3.19 0-5.64 2.88-5.64 6.264 0 3.384 2.45 6.264 5.64 6.264zm.69-3c-1.82 0-3.02-1.368-3.02-3.264 0-1.896 1.2-3.264 3.02-3.264 1.83 0 3.03 1.368 3.03 3.264 0 1.896-1.2 3.264-3.03 3.264z" fill="#000" id="path227"/><path d="M1159 870v63.092h83.43c2.49-13.144-1.91-39.432-39.43-39.432-19.93 0-44-16.189-44-23.66z" fill="#fff" id="path229"/><rect x="1159" y="892.999" width="237" height="69" rx="30" fill="#fff" id="rect231"/><path d="M1183.66 923.639c.36-1.032 1.22-1.776 2.44-1.776 1.42 0 2.14.816 2.14 1.944 0 1.152-.67 1.968-1.99 1.968h-1.83v2.928h2.02c1.51 0 2.38.816 2.38 2.04 0 1.344-.89 2.28-2.64 2.28-1.54 0-2.72-.744-3.12-2.184h-3.48c.45 3.576 3.4 5.448 6.62 5.448 3.24 0 6-1.944 6-5.28 0-1.728-.74-3.24-2.3-4.104 1.36-1.08 1.7-2.448 1.7-3.696 0-2.736-2.23-4.536-5.42-4.536-2.57 0-5.36 1.344-5.98 4.968zm16.6 12.624c3.48 0 6.31-2.736 6.31-6.264 0-3.504-2.83-6.264-6.31-6.264-3.48 0-6.31 2.76-6.31 6.264 0 3.528 2.83 6.264 6.31 6.264zm0-3.072c-1.73 0-3-1.344-3-3.192s1.27-3.192 3-3.192c1.7 0 2.98 1.344 2.98 3.192s-1.28 3.192-2.98 3.192zm8.68 2.808h3.29v-4.608h4.95v4.608h3.28v-12h-3.28v4.536h-4.95v-4.536h-3.29zm19.57.264c1.66 0 2.9-.84 3.46-1.608v1.344h3.28v-12h-3.28v1.344c-.56-.768-1.8-1.608-3.46-1.608-3.19 0-5.64 2.88-5.64 6.264 0 3.384 2.45 6.264 5.64 6.264zm.7-3c-1.83 0-3.03-1.368-3.03-3.264 0-1.896 1.2-3.264 3.03-3.264 1.82 0 3.02 1.368 3.02 3.264 0 1.896-1.2 3.264-3.02 3.264zm20.25 3c3.31 0 5.49-2.088 6.14-4.848h-3.41c-.45 1.08-1.32 1.872-2.73 1.872-1.73 0-3-1.272-3-3.288s1.27-3.288 3-3.288c1.41 0 2.28.792 2.73 1.872h3.41c-.65-2.76-2.83-4.848-6.14-4.848-3.65 0-6.32 2.784-6.32 6.264 0 3.48 2.67 6.264 6.32 6.264zm13.89 0c3.48 0 6.32-2.736 6.32-6.264 0-3.504-2.84-6.264-6.32-6.264-3.48 0-6.31 2.76-6.31 6.264 0 3.528 2.83 6.264 6.31 6.264zm0-3.072c-1.72 0-3-1.344-3-3.192s1.28-3.192 3-3.192c1.71 0 2.98 1.344 2.98 3.192s-1.27 3.192-2.98 3.192zm19.69 3.072c3.31 0 5.5-2.088 6.15-4.848h-3.41c-.46 1.08-1.32 1.872-2.74 1.872-1.73 0-3-1.272-3-3.288s1.27-3.288 3-3.288c1.42 0 2.28.792 2.74 1.872h3.41c-.65-2.76-2.84-4.848-6.15-4.848-3.65 0-6.31 2.784-6.31 6.264 0 3.48 2.66 6.264 6.31 6.264zm10.35-.264h3.29v-9.12h3.55v-2.88h-10.15v2.88h3.31zm14.07.264c3.48 0 6.32-2.736 6.32-6.264 0-3.504-2.84-6.264-6.32-6.264-3.48 0-6.31 2.76-6.31 6.264 0 3.528 2.83 6.264 6.31 6.264zm0-3.072c-1.72 0-3-1.344-3-3.192s1.28-3.192 3-3.192c1.71 0 2.98 1.344 2.98 3.192s-1.27 3.192-2.98 3.192zm8.86 3.048c2.02 0 4.03-1.368 4.03-4.56v-4.8h3.7v9.12h3.29v-12h-10.28v7.272c0 1.656-.52 2.112-1.46 2.112-.26 0-.58-.024-.84-.048v2.784c.41.096.91.12 1.56.12zm19.07.024c1.65 0 2.9-.84 3.45-1.608v1.344h3.29v-12h-3.29v1.344c-.55-.768-1.8-1.608-3.45-1.608-3.2 0-5.64 2.88-5.64 6.264 0 3.384 2.44 6.264 5.64 6.264zm.69-3c-1.82 0-3.02-1.368-3.02-3.264 0-1.896 1.2-3.264 3.02-3.264 1.83 0 3.03 1.368 3.03 3.264 0 1.896-1.2 3.264-3.03 3.264zm9.25-9.264v12h3.28v-6.936l3.46 4.344 3.43-4.344v6.936h3.29v-12h-2.78l-3.96 4.992-3.94-4.992zm19.59 12 5.37-7.08v7.08h3.27v-12h-2.93l-5.38 7.08v-7.08h-3.28v12z" fill="#000" id="path233"/><path d="M1279 488.092V425h83.43c2.49 13.144-1.91 39.433-39.43 39.433-19.93 0-44 16.188-44 23.659z" fill="#fff" id="path235"/><rect x="1279" y="395" width="134" height="69" rx="30" fill="#fff" id="rect237"/><path d="M1306.1 438h3.1l7.06-17.04h-3.84l-4.76 11.832-4.82-11.832h-3.77zm12.09 0h3.48v-7.176h.84l5.86 7.176h4.2l-6.12-7.56c2.28-.696 3.5-2.136 3.5-4.44 0-2.832-2.06-5.04-5.23-5.04h-6.53zm3.48-10.152v-3.696h2.64c1.32 0 2.19.672 2.19 1.848 0 1.152-.87 1.848-2.19 1.848zM1336.31 438h3.6l1.64-3.888h7.27l1.65 3.888h3.65l-7.37-17.04h-3.09zm8.88-12.456 2.33 5.52h-4.68zm14.51 12.72c1.54 0 2.64-.672 3.29-1.632V438h3.29v-12h-3.29v5.856c0 2.328-1.01 3.408-2.47 3.408-1.44 0-2.04-1.032-2.04-2.856V426h-3.29v6.96c0 3.168 1.63 5.304 4.51 5.304zm15.55-.12c.94 0 1.54-.096 2.09-.264v-2.904c-.38.144-.84.216-1.34.216-1.44 0-2.04-.576-2.04-2.04v-4.272h3.38V426h-3.38v-3.336h-3.29V426h-2.43v2.88h2.43v4.92c0 2.952 2.04 4.344 4.58 4.344zm9.79.12c3.48 0 6.31-2.736 6.31-6.264 0-3.504-2.83-6.264-6.31-6.264-3.48 0-6.31 2.76-6.31 6.264 0 3.528 2.83 6.264 6.31 6.264zm0-3.072c-1.73 0-3-1.344-3-3.192s1.27-3.192 3-3.192c1.71 0 2.98 1.344 2.98 3.192s-1.27 3.192-2.98 3.192z" fill="#000" id="path239"/><path d="M1642 500.092V437h83.43c2.49 13.144-1.91 39.433-39.43 39.433-19.93 0-44 16.188-44 23.659z" fill="#fff" id="path241"/><rect x="1642" y="378" width="117" height="98" rx="30" fill="#fff" id="rect243"/><path d="M1662.02 421h3.6l1.64-3.888h7.27l1.65 3.888h3.65l-7.37-17.04h-3.09zm8.88-12.456 2.33 5.52h-4.68zm13.81 17.472v-6.36c.55.768 1.82 1.608 3.48 1.608 3.19 0 5.64-2.88 5.64-6.264 0-3.384-2.45-6.264-5.64-6.264-1.66 0-2.93.84-3.48 1.608V409h-3.29v17.016zm2.76-7.752c-1.83 0-3.03-1.368-3.03-3.264 0-1.896 1.2-3.264 3.03-3.264 1.82 0 3.02 1.368 3.02 3.264 0 1.896-1.2 3.264-3.02 3.264zm14.28 3c3.05 0 5.45-1.752 6.15-4.176h-3.44c-.38.84-1.39 1.32-2.54 1.32-2.06 0-3.12-1.224-3.24-2.64h9.36c.19-4.512-2.76-7.032-6.26-7.032-3.65 0-6.32 2.664-6.32 6.24 0 3.648 2.62 6.288 6.29 6.288zm-.07-9.864c1.1 0 2.38.6 2.76 2.208h-5.64c.31-1.344 1.34-2.208 2.88-2.208zm8.76 9.6h3.28v-4.608h4.95V421h3.29v-12h-3.29v4.536h-4.95V409h-3.28zm19.56.264c1.66 0 2.91-.84 3.46-1.608V421h3.29v-12h-3.29v1.344c-.55-.768-1.8-1.608-3.46-1.608-3.19 0-5.64 2.88-5.64 6.264 0 3.384 2.45 6.264 5.64 6.264zm.7-3c-1.83 0-3.03-1.368-3.03-3.264 0-1.896 1.2-3.264 3.03-3.264 1.82 0 3.02 1.368 3.02 3.264 0 1.896-1.2 3.264-3.02 3.264zM1665.65 450h3.29v-17.04h-4.49l-2.4 3.24h3.6zm12.77.264c3.72 0 6.34-2.832 6.34-6.744v-4.128c0-3.888-2.62-6.72-6.34-6.72-3.74 0-6.36 2.832-6.36 6.72v4.128c0 3.912 2.62 6.744 6.36 6.744zm0-3.24c-1.82 0-3.07-1.296-3.07-3.504v-4.128c0-2.208 1.25-3.48 3.07-3.48 1.82 0 3.05 1.272 3.05 3.48v4.128c0 2.208-1.23 3.504-3.05 3.504zm15.14 3.24c3.72 0 6.34-2.832 6.34-6.744v-4.128c0-3.888-2.62-6.72-6.34-6.72-3.74 0-6.36 2.832-6.36 6.72v4.128c0 3.912 2.62 6.744 6.36 6.744zm0-3.24c-1.82 0-3.07-1.296-3.07-3.504v-4.128c0-2.208 1.25-3.48 3.07-3.48 1.82 0 3.05 1.272 3.05 3.48v4.128c0 2.208-1.23 3.504-3.05 3.504zm14.6-9.024v12h3.29v-6.936l3.46 4.344 3.43-4.344V450h3.29v-12h-2.79l-3.96 4.992-3.93-4.992zm22.86-.144h-3.87c.27-.456 1.35-1.032 1.73-1.296 1.15-.768 2.09-1.752 2.09-3.672 0-2.184-1.66-3.264-3.38-3.264-2.12 0-3.72 1.488-3.72 3.504h2.35c-.03-.6.45-1.2 1.29-1.2.75 0 1.11.48 1.11 1.056 0 .744-.75 1.464-1.51 1.968-1.54 1.08-3.29 2.04-3.29 4.44v.768h7.2z" fill="#000" id="path245"/><path d="M1516 368.092V305h83.43c2.49 13.144-1.91 39.433-39.43 39.433-19.93 0-44 16.188-44 23.659z" fill="#fff" id="path247"/><rect x="1516" y="247" width="99" height="98" rx="30" fill="#fff" id="rect249"/><path d="M1548.74 290h4.52l-8.48-8.856 7.01-8.184h-4.29l-6.15 7.224v-7.224h-3.45V290h3.45v-7.728zm15.68-12h-3.62l-3.1 7.512-3.31-7.512h-3.6l5.04 11.328-.6 1.392c-.58 1.248-1.27 1.656-2.11 1.656-.55 0-.82-.024-1.18-.048v2.808c.46.072.94.096 1.61.096 2.33 0 3.77-1.152 4.9-3.72zm7.43 12.264c3.55 0 6.28-2.76 6.28-6.288 0-3.12-2.08-5.688-5.66-5.688-1.25 0-2.5.36-3.46 1.296.32-2.376 1.85-3.432 4.54-3.936l3.48-.624v-3.12l-4.2.768c-4.61.84-7.22 3.24-7.22 9.528v.696c0 4.512 2.13 7.368 6.24 7.368zm-.03-3.072c-1.7 0-2.95-1.104-2.95-3.12 0-1.56 1.18-2.928 2.98-2.928 1.77 0 2.97 1.344 2.97 2.928 0 2.016-1.27 3.12-3 3.12zm-23.22 28.568h-7.06c.44-1.08 2.26-2.088 3.32-2.832 2.16-1.584 3.6-3.072 3.6-6 0-3.456-2.62-5.256-5.48-5.256-3.38 0-5.95 2.28-5.95 5.64h3.31c-.02-1.368 1.06-2.4 2.57-2.4 1.47 0 2.26.96 2.26 2.208 0 1.368-1.2 2.472-2.69 3.504-2.5 1.8-5.5 3.432-5.5 7.248V319h11.62zm7.97 3.504c3.56 0 5.96-2.208 5.96-5.616 0-3.456-2.07-5.88-5.31-5.88-.96 0-1.77.216-2.35.576l.65-3.192h5.76v-3.192h-8.31l-1.92 9.672 2.91.888c.38-1.032 1.32-1.776 2.66-1.776 1.54 0 2.62 1.128 2.62 2.64 0 1.464-.96 2.64-2.67 2.64-1.32 0-2.37-.84-2.66-1.968h-3.41c.12 3.048 2.95 5.208 6.07 5.208zM1570.54 307v12h3.29v-6.936l3.45 4.344 3.43-4.344V319h3.29v-12h-2.78l-3.96 4.992-3.94-4.992zm22.85-.144h-3.86c.26-.456 1.34-1.032 1.73-1.296 1.15-.768 2.09-1.752 2.09-3.672 0-2.184-1.66-3.264-3.39-3.264-2.11 0-3.72 1.488-3.72 3.504h2.35c-.02-.6.46-1.2 1.3-1.2.74 0 1.1.48 1.1 1.056 0 .744-.74 1.464-1.51 1.968-1.53 1.08-3.29 2.04-3.29 4.44v.768h7.2z" fill="#000" id="path251"/><path d="M1399 268.092V205h83.43c2.49 13.144-1.91 39.433-39.43 39.433-19.93 0-44 16.188-44 23.659z" fill="#fff" id="path253"/><rect x="1399" y="176" width="138" height="69" rx="30" fill="#fff" id="rect255"/><path d="M1426.1 219h3.1l7.06-17.04h-3.84l-4.76 11.832-4.82-11.832h-3.77zm12.09 0h3.48v-7.176h.84l5.86 7.176h4.2l-6.12-7.56c2.28-.696 3.5-2.136 3.5-4.44 0-2.832-2.06-5.04-5.23-5.04h-6.53zm3.48-10.152v-3.696h2.64c1.32 0 2.19.672 2.19 1.848 0 1.152-.87 1.848-2.19 1.848zm17.27-6.888V219h3.48v-11.088l5.23 7.176 5.23-7.176V219h3.48v-17.04h-3.17l-5.54 7.608-5.55-7.608zm26.13 17.304c3.48 0 6.31-2.736 6.31-6.264 0-3.504-2.83-6.264-6.31-6.264-3.48 0-6.31 2.76-6.31 6.264 0 3.528 2.83 6.264 6.31 6.264zm0-3.072c-1.73 0-3-1.344-3-3.192s1.27-3.192 3-3.192c1.71 0 2.98 1.344 2.98 3.192s-1.27 3.192-2.98 3.192zm14.24 2.952c.93 0 1.53-.096 2.08-.264v-2.904c-.38.144-.84.216-1.34.216-1.44 0-2.04-.576-2.04-2.04v-4.272h3.38V207h-3.38v-3.336h-3.29V207h-2.42v2.88h2.42v4.92c0 2.952 2.04 4.344 4.59 4.344zm9.79.12c3.48 0 6.31-2.736 6.31-6.264 0-3.504-2.83-6.264-6.31-6.264-3.48 0-6.32 2.76-6.32 6.264 0 3.528 2.84 6.264 6.32 6.264zm0-3.072c-1.73 0-3-1.344-3-3.192s1.27-3.192 3-3.192c1.7 0 2.97 1.344 2.97 3.192s-1.27 3.192-2.97 3.192z" fill="#000" id="path257"/><path d="M1304 760v-63h83.43c2.49 13.125-1.91 39.375-39.43 39.375-19.93 0-44 16.164-44 23.625z" fill="#fff" id="path259"/><rect x="1304" y="638" width="99" height="98" rx="30" fill="#fff" id="rect261"/><path d="M1336.74 681h4.52l-8.48-8.856 7.01-8.184h-4.29l-6.15 7.224v-7.224h-3.45V681h3.45v-7.728zm15.68-12h-3.62l-3.1 7.512-3.31-7.512h-3.6l5.04 11.328-.6 1.392c-.58 1.248-1.27 1.656-2.11 1.656-.55 0-.82-.024-1.18-.048v2.808c.46.072.94.096 1.61.096 2.33 0 3.77-1.152 4.9-3.72zm7.43 12.264c3.55 0 6.28-2.76 6.28-6.288 0-3.12-2.08-5.688-5.66-5.688-1.25 0-2.5.36-3.46 1.296.32-2.376 1.85-3.432 4.54-3.936l3.48-.624v-3.12l-4.2.768c-4.61.84-7.22 3.24-7.22 9.528v.696c0 4.512 2.13 7.368 6.24 7.368zm-.03-3.072c-1.7 0-2.95-1.104-2.95-3.12 0-1.56 1.18-2.928 2.98-2.928 1.77 0 2.97 1.344 2.97 2.928 0 2.016-1.27 3.12-3 3.12zm-23.22 28.568h-7.06c.44-1.08 2.26-2.088 3.32-2.832 2.16-1.584 3.6-3.072 3.6-6 0-3.456-2.62-5.256-5.48-5.256-3.38 0-5.95 2.28-5.95 5.64h3.31c-.02-1.368 1.06-2.4 2.57-2.4 1.47 0 2.26.96 2.26 2.208 0 1.368-1.2 2.472-2.69 3.504-2.5 1.8-5.5 3.432-5.5 7.248V710h11.62zm7.97 3.504c3.56 0 5.96-2.208 5.96-5.616 0-3.456-2.07-5.88-5.31-5.88-.96 0-1.77.216-2.35.576l.65-3.192h5.76v-3.192h-8.31l-1.92 9.672 2.91.888c.38-1.032 1.32-1.776 2.66-1.776 1.54 0 2.62 1.128 2.62 2.64 0 1.464-.96 2.64-2.67 2.64-1.32 0-2.37-.84-2.66-1.968h-3.41c.12 3.048 2.95 5.208 6.07 5.208zM1358.54 698v12h3.29v-6.936l3.45 4.344 3.43-4.344V710h3.29v-12h-2.78l-3.96 4.992-3.94-4.992zm22.85-.144h-3.86c.26-.456 1.34-1.032 1.73-1.296 1.15-.768 2.09-1.752 2.09-3.672 0-2.184-1.66-3.264-3.39-3.264-2.11 0-3.72 1.488-3.72 3.504h2.35c-.02-.6.46-1.2 1.3-1.2.74 0 1.1.48 1.1 1.056 0 .744-.74 1.464-1.51 1.968-1.53 1.08-3.29 2.04-3.29 4.44v.768h7.2z" fill="#000" id="path263"/></g></g></svg>