<svg width="50" height="50" fill="none" xmlns="http://www.w3.org/2000/svg"><g clip-path="url('#clip0_1058_4403')" fill="#CE2127"><path d="M1.303 32.045h29.854A1.069 1.069 0 0 0 32.227 31V1.121a1.07 1.07 0 0 0-1.07-1.07H1.303a1.07 1.07 0 0 0-1.07 1.07V31a1.07 1.07 0 0 0 1.07 1.044ZM2.372 2.19h27.716v27.716H2.372V2.19ZM31.285 35.107a1.07 1.07 0 0 0-1.069 1.07v5.73l-5.988-3.96a1.078 1.078 0 0 0-1.514 1.437l2.045 3.422H7.907l2.035-3.25a1.078 1.078 0 0 0-1.48-1.472l-6.09 3.866v-5.774a1.07 1.07 0 1 0-2.139 0v7.7a1.129 1.129 0 0 0 .48.855l7.613 5.09a1.061 1.061 0 0 0 1.51-.35 1.079 1.079 0 0 0 .02-1.062l-2.044-3.422H24.69l-2.002 3.234a1.07 1.07 0 0 0 1.472 1.471l7.699-4.884c.192-.12.34-.301.419-.514.053-.127.082-.264.085-.402v-7.699a1.068 1.068 0 0 0-1.078-1.086ZM49.985 22.703a1.095 1.095 0 0 0-1.326-.188l-3.421 2.053V7.725l3.25 2.035a1.07 1.07 0 0 0 1.472-1.47L45.16.675A1.078 1.078 0 0 0 44.169 0H36.47a1.07 1.07 0 1 0 0 2.139h5.723l-3.995 5.988a1.07 1.07 0 0 0 1.438 1.488l3.421-2.044v16.852l-3.259-1.976a1.078 1.078 0 0 0-1.48 1.47l3.85 6.1h-5.74a1.07 1.07 0 0 0 0 2.139h7.699c.129-.004.256-.03.376-.077.216-.072.403-.213.53-.402l5.03-7.648a1.07 1.07 0 0 0-.077-1.326Z"/></g><defs><clipPath id="clip0_1058_4403"><path fill="#fff" d="M0 0h50v50H0z"/></clipPath></defs></svg>