<svg width="2097" height="1220" viewBox="0 0 2097 1220" fill="none" xmlns="http://www.w3.org/2000/svg">
<path d="M732.657 971.5L746.514 979.5M804.538 1013L814.064 1018.5" stroke="#37AEE2" stroke-width="10" stroke-linecap="round" stroke-linejoin="round"></path>
<path d="M1191.27 329.294L1265.24 286.588L1245.97 275.463M1284.51 253.208L1303.78 264.333L1384.52 217.718" stroke="#37AEE2" stroke-width="10" stroke-linecap="round" stroke-linejoin="round"></path>
<path d="M1126.58 839.899L1213.05 789.976L1292.21 835.678M1018.27 732.855L1108.88 785.172" stroke="#37AEE2" stroke-width="10" stroke-linecap="round" stroke-linejoin="round"></path>
<path d="M1191.27 329.294L1351.15 421.6L950.574 652.871L1049 709.698L930.756 777.967L1028.66 834.493L938.547 886.521L909.904 869.985L732.277 972.538M1387.13 216.214L1878.74 500.049L1167.18 910.871M816.643 1021.25L1013.54 907.566L1093.22 953.569L1167.18 910.871M1167.18 910.871L1087.5 864.868" stroke="black" stroke-width="10" stroke-linecap="round" stroke-linejoin="round"></path>
<rect width="244.203" height="248.957" rx="10" transform="matrix(0.866025 -0.5 0.866025 0.5 1205.27 628.497)" fill="#CE2127"></rect>
<rect width="244.203" height="248.957" rx="10" transform="matrix(0.866025 -0.5 0.866025 0.5 1428.22 499.779)" fill="#CE2127"></rect>
<rect width="125.109" height="127.485" rx="10" transform="matrix(0.866025 -0.5 0.866025 0.5 1404.69 366.5)" fill="#CE2127"></rect>
<rect width="125.109" height="127.485" rx="10" transform="matrix(0.866025 -0.5 0.866025 0.5 1190.78 759)" fill="#CE2127"></rect>
<rect x="0.866025" width="49.5248" height="29.0672" rx="4.5" transform="matrix(0.866025 -0.5 0.866025 0.5 1398.13 482.773)" stroke="black"></rect>
<rect x="0.866025" width="49.5248" height="29.0672" rx="4.5" transform="matrix(0.866025 -0.5 0.866025 0.5 1207.48 592.845)" stroke="black"></rect>
<rect width="58.6514" height="23.4422" rx="5" transform="matrix(1.18298 -0.183082 0.316867 0.683031 1352.08 267.262)" fill="#CE2127"></rect>
<rect width="58.6514" height="23.4422" rx="5" transform="matrix(1.18298 -0.183082 0.316867 0.683031 1397.78 293.649)" fill="#CE2127"></rect>
<rect x="0.866025" width="20.6535" height="48.3102" rx="4.5" transform="matrix(0.866025 -0.5 0.866025 0.5 1237.74 330.024)" stroke="black"></rect>
<rect width="42.104" height="54.121" rx="5" transform="matrix(0.866025 -0.5 0.866025 0.5 1246.44 489.866)" fill="#CE2127"></rect>
<rect width="42.104" height="54.121" rx="5" transform="matrix(0.866025 -0.5 0.866025 0.5 1023.5 618.584)" fill="#CE2127"></rect>
<rect x="0.866025" width="91.6287" height="24.2565" rx="1.5" transform="matrix(0.866025 -0.5 0.866025 0.5 828.036 926.933)" stroke="black"></rect>
<g filter="url('#filter0_d_1712_6993')">
<rect x="0.866025" width="54.3366" height="20.6484" rx="4.5" transform="matrix(0.866025 -0.5 0.866025 0.5 1096.5 576.933)" stroke="black" shape-rendering="crispEdges"></rect>
</g>
<g filter="url('#filter1_d_1712_6993')">
<rect x="0.866025" width="43" height="15" rx="1.5" transform="matrix(0.866025 -0.5 0.866025 0.5 1106.35 576.658)" stroke="black" shape-rendering="crispEdges"></rect>
</g>
<g filter="url('#filter2_d_1712_6993')">
<rect x="0.866025" width="54.3366" height="20.6484" rx="4.5" transform="matrix(0.866025 -0.5 0.866025 0.5 1154.53 543.433)" stroke="black" shape-rendering="crispEdges"></rect>
</g>
<g filter="url('#filter3_d_1712_6993')">
<rect x="0.866025" width="43" height="15" rx="1.5" transform="matrix(0.866025 -0.5 0.866025 0.5 1164.37 543.158)" stroke="black" shape-rendering="crispEdges"></rect>
</g>
<path d="M1305.89 555.938L1299.71 542.638C1299.1 541.323 1301.19 540.12 1303.46 540.473L1326.5 544.036C1328.15 544.292 1329.08 545.258 1328.5 546.129C1326.88 548.545 1324.38 550.81 1321 552.761C1317.62 554.712 1313.7 556.155 1309.51 557.091C1308 557.428 1306.33 556.892 1305.89 555.938Z" stroke="black"></path>
<path d="M1334.44 520.562L1348.82 531.548C1350.24 532.634 1349.09 534.201 1346.75 534.368L1323.08 536.064C1321.38 536.186 1319.89 535.492 1319.87 534.557C1319.8 531.967 1320.64 529.326 1322.5 526.785C1324.36 524.245 1327.06 522.056 1330.33 520.281C1331.51 519.641 1333.41 519.775 1334.44 520.562Z" stroke="black"></path>
<path d="M1174.61 703.895L1168.43 690.594C1167.82 689.28 1169.91 688.077 1172.18 688.429L1195.22 691.993C1196.87 692.249 1197.8 693.215 1197.22 694.086C1195.6 696.502 1193.1 698.767 1189.72 700.718C1186.34 702.669 1182.42 704.112 1178.23 705.048C1176.72 705.385 1175.05 704.849 1174.61 703.895Z" stroke="black"></path>
<path d="M1133 679.876L1156.04 683.439C1158.32 683.792 1160.4 682.589 1159.79 681.274L1153.62 667.973C1153.18 667.02 1151.5 666.484 1149.99 666.821C1145.81 667.757 1141.88 669.2 1138.51 671.151C1135.13 673.102 1132.63 675.367 1131.01 677.783C1130.42 678.654 1131.35 679.62 1133 679.876Z" stroke="black"></path>
<path d="M1143.18 699.726L1160.04 689.986C1161.71 689.024 1164.56 689.464 1165.17 690.779L1171.34 704.08C1171.78 705.033 1170.79 705.981 1169.19 706.124C1164.76 706.522 1160.11 706.406 1155.5 705.692C1150.88 704.978 1146.76 703.738 1143.26 702.114C1142 701.528 1141.97 700.424 1143.18 699.726Z" stroke="black"></path>
<path d="M1157.93 668.39L1164.1 681.691C1164.71 683.006 1167.55 683.446 1169.22 682.484L1186.09 672.745C1187.3 672.046 1187.26 670.942 1186 670.356C1182.51 668.732 1178.38 667.492 1173.77 666.778C1169.15 666.065 1164.51 665.948 1160.07 666.346C1158.47 666.489 1157.49 667.437 1157.93 668.39Z" stroke="black"></path>
<path d="M1132.68 681.764L1155.72 685.326C1158 685.678 1158.76 687.321 1157.09 688.283L1140.22 698.021C1139.02 698.719 1137.1 698.7 1136.09 697.973C1133.27 695.955 1131.13 693.573 1129.89 690.908C1128.65 688.244 1128.45 685.561 1129.14 683.001C1129.39 682.077 1131.03 681.509 1132.68 681.764Z" stroke="black"></path>
<path d="M1188 673.848L1171.13 683.585C1169.46 684.548 1170.23 686.191 1172.5 686.543L1195.54 690.105C1197.19 690.36 1198.83 689.791 1199.08 688.868C1199.77 686.308 1199.57 683.625 1198.33 680.96C1197.1 678.296 1194.95 675.914 1192.14 673.896C1191.12 673.168 1189.21 673.15 1188 673.848Z" stroke="black"></path>
<path d="M1373.66 508.845L1368.48 522.289C1367.97 523.617 1365.16 524.128 1363.42 523.208L1345.85 513.899C1344.59 513.232 1344.54 512.127 1345.76 511.51C1349.13 509.8 1353.16 508.459 1357.72 507.63C1362.27 506.802 1366.91 506.569 1371.37 506.856C1372.97 506.959 1374.03 507.882 1373.66 508.845Z" stroke="black"></path>
<g filter="url('#filter4_d_1712_6993')">
<path d="M1060.45 878.75L1073.44 871.25C1075.59 870.007 1079.08 870.007 1081.23 871.25L1081.35 871.319L1081.47 871.388L1081.59 871.457L1081.71 871.526L1081.83 871.595L1081.95 871.664L1082.07 871.733L1082.19 871.803L1082.31 871.872L1082.43 871.941L1082.55 872.01L1082.67 872.079L1082.79 872.148L1082.91 872.217L1083.03 872.286L1083.15 872.355L1083.27 872.424L1083.39 872.494L1083.51 872.563L1083.63 872.632L1083.75 872.701L1083.87 872.77L1083.99 872.839L1084.11 872.908L1084.22 872.977L1084.34 873.047L1084.46 873.116L1084.58 873.185L1084.7 873.254L1084.82 873.323L1084.94 873.392L1085.06 873.462L1085.18 873.531L1085.3 873.6L1085.42 873.669L1085.54 873.738L1085.66 873.807L1085.78 873.877L1085.9 873.946L1086.02 874.015L1086.14 874.084L1086.26 874.153L1086.38 874.222L1086.5 874.292L1086.62 874.361L1086.74 874.43L1086.86 874.499L1086.98 874.568L1087.1 874.638L1087.22 874.707L1087.34 874.776L1087.46 874.845L1087.58 874.914L1087.7 874.984L1087.82 875.053L1087.94 875.122L1088.06 875.191L1088.18 875.261L1088.3 875.33L1088.42 875.399L1088.54 875.468L1088.66 875.537L1088.78 875.607L1088.9 875.676L1089.02 875.745L1089.14 875.814L1089.26 875.884L1089.38 875.953L1089.5 876.022L1089.62 876.091L1089.74 876.161L1089.86 876.23L1089.98 876.299L1090.1 876.368L1090.22 876.438L1090.34 876.507L1090.46 876.576L1090.58 876.646L1090.7 876.715L1090.82 876.784L1090.94 876.853L1091.06 876.923L1091.18 876.992L1091.3 877.061L1091.42 877.13L1091.54 877.2L1091.66 877.269L1091.78 877.338L1091.9 877.408L1092.02 877.477L1092.14 877.546L1092.26 877.616L1092.38 877.685L1092.5 877.754L1092.62 877.823L1092.74 877.893L1092.86 877.962L1092.98 878.031L1093.1 878.101L1093.22 878.17L1093.34 878.239L1093.46 878.309L1093.58 878.378L1093.7 878.447L1093.82 878.517L1093.94 878.586L1094.06 878.655L1094.18 878.725L1094.3 878.794L1094.42 878.863L1094.54 878.933L1094.66 879.002L1094.78 879.071L1094.9 879.141L1095.02 879.21L1095.14 879.279L1095.26 879.349L1095.38 879.418L1095.5 879.487L1095.62 879.557L1095.74 879.626L1095.86 879.696L1095.98 879.765L1096.1 879.834L1096.22 879.904L1096.34 879.973L1096.46 880.042L1096.58 880.112L1096.7 880.181L1096.82 880.251L1096.94 880.32L1097.06 880.389L1097.18 880.459L1097.3 880.528L1097.42 880.597L1097.54 880.667L1097.66 880.736L1097.78 880.806L1097.9 880.875L1098.02 880.944L1098.14 881.014L1098.26 881.083L1098.38 881.152L1098.5 881.222L1098.62 881.291L1098.75 881.361L1098.87 881.43L1098.99 881.499L1099.11 881.569L1099.23 881.638L1099.35 881.708L1099.47 881.777L1099.59 881.846L1099.71 881.916L1099.83 881.985L1099.95 882.055L1100.07 882.124L1100.19 882.194L1100.31 882.263L1100.43 882.332L1100.55 882.402L1100.67 882.471L1100.79 882.541L1100.91 882.61L1101.03 882.679L1101.15 882.749L1101.27 882.818L1101.39 882.888L1101.51 882.957L1101.63 883.027L1101.75 883.096L1101.87 883.165L1101.99 883.235L1102.11 883.304L1102.23 883.374L1102.35 883.443L1102.47 883.513L1102.59 883.582L1102.71 883.651L1102.83 883.721L1102.95 883.79L1103.07 883.86L1103.19 883.929L1103.31 883.999L1103.43 884.068L1103.55 884.138L1103.67 884.207L1103.8 884.276L1103.92 884.346L1104.04 884.415L1104.16 884.485L1104.28 884.554L1104.4 884.624L1104.52 884.693L1104.64 884.763L1104.76 884.832L1104.88 884.901L1105 884.971L1105.12 885.04L1105.24 885.11L1105.36 885.179L1105.48 885.249L1105.6 885.318L1105.72 885.388L1105.84 885.457L1105.96 885.527L1106.08 885.596L1106.2 885.665L1106.32 885.735L1106.44 885.804L1106.56 885.874L1106.68 885.943L1106.8 886.013L1106.92 886.082L1107.04 886.152L1107.16 886.221L1107.28 886.291L1107.4 886.36L1107.52 886.43L1107.64 886.499L1107.77 886.569L1107.89 886.638L1108.01 886.707L1108.13 886.777L1108.25 886.846L1108.37 886.916L1108.49 886.985L1108.61 887.055L1108.73 887.124L1108.85 887.194L1108.97 887.263L1109.09 887.333L1109.21 887.402L1109.33 887.472L1109.45 887.541L1109.57 887.611L1109.69 887.68L1109.81 887.749L1109.93 887.819L1110.05 887.888L1110.17 887.958L1110.29 888.027L1110.41 888.097L1110.53 888.166L1110.65 888.236L1110.77 888.305L1110.89 888.375L1111.01 888.444L1111.13 888.514L1111.25 888.583L1111.38 888.653L1111.5 888.722L1111.62 888.792L1111.74 888.861L1111.86 888.931L1111.98 889L1112.1 889.069L1112.22 889.139L1112.34 889.208L1112.46 889.278L1112.58 889.347L1112.7 889.417L1112.82 889.486L1112.94 889.556L1113.06 889.625L1113.18 889.695L1113.3 889.764L1113.42 889.834L1113.54 889.903L1113.66 889.973L1113.78 890.042L1113.9 890.112L1114.02 890.181L1114.14 890.251L1114.26 890.32L1114.38 890.389L1114.5 890.459L1114.62 890.528L1114.74 890.598L1114.86 890.667L1114.98 890.737L1115.11 890.806L1115.23 890.876L1115.35 890.945L1115.47 891.015L1115.59 891.084L1115.71 891.154L1115.83 891.223L1115.95 891.293L1116.07 891.362L1116.19 891.431L1116.31 891.501L1116.43 891.57L1116.55 891.64L1116.67 891.709L1116.79 891.779L1116.91 891.848L1117.03 891.918L1117.15 891.987L1117.27 892.057L1117.39 892.126L1117.51 892.196L1117.63 892.265L1117.75 892.335L1117.87 892.404L1117.99 892.473L1118.11 892.543L1118.23 892.612L1118.35 892.682L1118.47 892.751L1118.59 892.821L1118.71 892.89L1118.83 892.96L1118.96 893.029L1119.08 893.099L1119.2 893.168L1119.32 893.237L1119.44 893.307L1119.56 893.376L1119.68 893.446L1119.8 893.515L1119.92 893.585L1120.04 893.654L1120.16 893.724L1120.28 893.793L1120.4 893.862L1120.52 893.932L1120.64 894.001L1120.76 894.071L1120.88 894.14L1121 894.21L1121.12 894.279L1121.24 894.349L1121.36 894.418L1121.48 894.487L1121.6 894.557L1121.72 894.626L1121.84 894.696L1121.96 894.765L1122.08 894.835L1122.2 894.904L1122.32 894.973L1122.44 895.043L1122.56 895.112L1122.68 895.182L1122.8 895.251L1122.92 895.321L1123.04 895.39L1123.16 895.459L1123.28 895.529L1123.41 895.598L1123.53 895.668L1123.65 895.737L1123.77 895.806L1123.89 895.876L1124.01 895.945L1124.13 896.015L1124.25 896.084L1124.37 896.154L1124.49 896.223L1124.61 896.292L1124.73 896.362L1124.85 896.431L1124.97 896.501L1125.09 896.57L1125.21 896.639L1125.33 896.709L1125.45 896.778L1125.57 896.848L1125.69 896.917L1125.81 896.986L1125.93 897.056L1126.05 897.125L1126.17 897.194L1126.29 897.264L1126.41 897.333L1126.53 897.403L1126.65 897.472L1126.77 897.541L1126.89 897.611L1127.01 897.68L1127.13 897.749L1127.25 897.819L1127.37 897.888L1127.49 897.958L1127.61 898.027L1127.73 898.096L1127.85 898.166L1127.97 898.235L1128.09 898.304L1128.21 898.374L1128.33 898.443L1128.45 898.513L1128.57 898.582L1128.69 898.651L1128.81 898.721L1128.93 898.79L1129.05 898.859L1129.17 898.929L1129.29 898.998L1129.41 899.067L1129.53 899.137L1129.65 899.206L1129.77 899.275L1129.89 899.345L1130.01 899.414L1130.13 899.483L1130.25 899.553L1130.37 899.622L1130.49 899.691L1130.61 899.761L1130.73 899.83L1130.85 899.899L1130.97 899.969L1131.09 900.038L1131.21 900.107L1131.33 900.177L1131.46 900.246L1131.58 900.315L1131.7 900.384L1131.82 900.454L1131.94 900.523L1132.06 900.592L1132.18 900.662L1132.3 900.731L1132.42 900.8L1132.54 900.869L1132.66 900.939L1132.78 901.008L1132.9 901.077L1133.02 901.147L1133.14 901.216L1133.26 901.285L1133.38 901.354L1133.5 901.424L1133.62 901.493L1133.74 901.562L1133.86 901.632L1133.98 901.701L1134.1 901.77L1134.22 901.839L1134.34 901.909L1134.45 901.978L1134.57 902.047L1134.69 902.116L1134.81 902.186L1134.93 902.255L1135.05 902.324L1135.17 902.393L1135.29 902.463L1135.41 902.532L1135.53 902.601L1135.65 902.67L1135.77 902.739L1135.89 902.809L1136.01 902.878L1136.13 902.947L1136.25 903.016L1136.37 903.086L1136.49 903.155L1136.61 903.224L1136.73 903.293L1136.85 903.362L1136.97 903.432L1137.09 903.501L1137.21 903.57L1137.33 903.639L1137.45 903.708L1137.57 903.778L1137.69 903.847L1137.81 903.916L1137.93 903.985L1138.05 904.054L1138.17 904.123L1138.29 904.193L1138.41 904.262L1138.53 904.331L1138.65 904.4L1138.77 904.469L1138.89 904.538L1139.01 904.608L1139.13 904.677L1139.25 904.746L1139.37 904.815L1139.49 904.884L1139.61 904.953L1139.73 905.023L1139.85 905.092L1139.97 905.161L1140.09 905.23L1140.21 905.299L1140.33 905.368L1140.45 905.437L1140.57 905.506L1140.69 905.576L1140.81 905.645L1140.93 905.714L1141.05 905.783L1141.17 905.852L1141.28 905.921L1141.4 905.99L1141.52 906.059L1141.64 906.128L1141.76 906.197L1141.88 906.267L1142 906.336L1142.12 906.405L1142.24 906.474L1142.36 906.543L1142.48 906.612L1142.6 906.681L1142.72 906.75C1144.87 907.993 1144.87 910.007 1142.72 911.25L1104.62 933.25C1102.46 934.493 1098.98 934.494 1096.82 933.251L1096.8 933.235L1096.77 933.218L1096.74 933.202L1096.71 933.185L1096.68 933.169L1096.65 933.152L1096.62 933.136L1096.59 933.119L1096.57 933.103L1096.54 933.086L1096.51 933.069L1096.48 933.053L1096.45 933.036L1096.42 933.02L1096.39 933.003L1096.36 932.986L1096.34 932.97L1096.31 932.953L1096.28 932.936L1096.25 932.919L1096.22 932.903L1096.19 932.886L1096.16 932.869L1096.13 932.852L1096.1 932.836L1096.07 932.819L1096.05 932.802L1096.02 932.785L1095.99 932.768L1095.96 932.752L1095.93 932.735L1095.9 932.718L1095.87 932.701L1095.84 932.684L1095.81 932.667L1095.78 932.65L1095.75 932.633L1095.72 932.616L1095.69 932.599L1095.67 932.583L1095.64 932.566L1095.61 932.549L1095.58 932.532L1095.55 932.515L1095.52 932.498L1095.49 932.481L1095.46 932.464L1095.43 932.447L1095.4 932.429L1095.37 932.412L1095.34 932.395L1095.31 932.378L1095.28 932.361L1095.25 932.344L1095.22 932.327L1095.19 932.31L1095.16 932.293L1095.13 932.276L1095.1 932.258L1095.07 932.241L1095.04 932.224L1095.01 932.207L1094.98 932.19L1094.96 932.173L1094.93 932.155L1094.9 932.138L1094.87 932.121L1094.84 932.104L1094.81 932.086L1094.78 932.069L1094.75 932.052L1094.72 932.035L1094.69 932.017L1094.66 932L1094.63 931.983L1094.6 931.966L1094.57 931.948L1094.54 931.931L1094.51 931.914L1094.48 931.896L1094.45 931.879L1094.42 931.862L1094.39 931.844L1094.36 931.827L1094.33 931.81L1094.3 931.792L1094.27 931.775L1094.24 931.757L1094.21 931.74L1094.18 931.723L1094.15 931.705L1094.12 931.688L1094.09 931.67L1094.06 931.653L1094.02 931.636L1093.99 931.618L1093.96 931.601L1093.93 931.583L1093.9 931.566L1093.87 931.548L1093.84 931.531L1093.81 931.513L1093.78 931.496L1093.75 931.478L1093.72 931.461L1093.69 931.443L1093.66 931.426L1093.63 931.408L1093.6 931.391L1093.57 931.373L1093.54 931.356L1093.51 931.338L1093.48 931.321L1093.45 931.303L1093.42 931.286L1093.39 931.268L1093.36 931.25L1093.33 931.233L1093.3 931.215L1093.27 931.198L1093.24 931.18L1093.21 931.163L1093.18 931.145L1093.14 931.127L1093.11 931.11L1093.08 931.092L1093.05 931.075L1093.02 931.057L1092.99 931.039L1092.96 931.022L1092.93 931.004L1092.9 930.987L1092.87 930.969L1092.84 930.951L1092.81 930.934L1092.78 930.916L1092.75 930.898L1092.72 930.881L1092.69 930.863L1092.66 930.845L1092.63 930.828L1092.6 930.81L1092.56 930.793L1092.53 930.775L1092.5 930.757L1092.47 930.74L1092.44 930.722L1092.41 930.704L1092.38 930.686L1092.35 930.669L1092.32 930.651L1092.29 930.633L1092.26 930.616L1092.23 930.598L1092.2 930.58L1092.17 930.563L1092.14 930.545L1092.11 930.527L1092.07 930.51L1092.04 930.492L1092.01 930.474L1091.98 930.457L1091.95 930.439L1091.92 930.421L1091.89 930.403L1091.86 930.386L1091.83 930.368L1091.8 930.35L1091.77 930.333L1091.74 930.315L1091.71 930.297L1091.68 930.28L1091.65 930.262L1091.61 930.244L1091.58 930.226L1091.55 930.209L1091.52 930.191L1091.49 930.173L1091.46 930.156L1091.43 930.138L1091.4 930.12L1091.37 930.102L1091.34 930.085L1091.31 930.067L1091.28 930.049L1091.25 930.032L1091.22 930.014L1091.19 929.996L1091.15 929.979L1091.12 929.961L1091.09 929.943L1091.06 929.925L1091.03 929.908L1091 929.89L1090.97 929.872L1090.94 929.855L1090.91 929.837L1090.88 929.819L1090.85 929.802L1090.82 929.784L1090.79 929.766L1090.76 929.748L1090.73 929.731L1090.7 929.713L1090.66 929.695L1090.63 929.678L1090.6 929.66L1090.57 929.642L1090.54 929.625L1090.51 929.607L1090.48 929.589L1090.45 929.572L1090.42 929.554L1090.39 929.536L1090.36 929.519L1090.33 929.501L1090.3 929.483L1090.27 929.466L1090.24 929.448L1090.21 929.43L1090.18 929.413L1090.14 929.395L1090.11 929.378L1090.08 929.36L1090.05 929.342L1090.02 929.325L1089.99 929.307L1089.96 929.289L1089.93 929.272L1089.9 929.254L1089.87 929.237L1089.84 929.219L1089.81 929.201L1089.78 929.184L1089.75 929.166L1089.72 929.149L1089.69 929.131L1089.66 929.114L1089.63 929.096L1089.6 929.078L1089.57 929.061L1089.54 929.043L1089.5 929.026L1089.47 929.008L1089.44 928.991L1089.41 928.973L1089.38 928.956L1089.35 928.938L1089.32 928.921L1089.29 928.903L1089.26 928.886L1089.23 928.868L1089.2 928.851L1089.17 928.833L1089.14 928.816L1089.11 928.798L1089.08 928.781L1089.05 928.763L1089.02 928.746L1088.99 928.728L1088.96 928.711L1088.93 928.694L1088.9 928.676L1088.87 928.659L1088.84 928.641L1088.81 928.624L1088.78 928.606L1088.75 928.589L1088.72 928.572L1088.69 928.554L1088.66 928.537L1088.63 928.52L1088.6 928.502L1088.57 928.485L1088.54 928.468L1088.51 928.45L1088.48 928.433L1088.45 928.416L1088.42 928.398L1088.39 928.381L1088.36 928.364L1088.33 928.346L1088.3 928.329L1088.27 928.312L1088.24 928.295L1088.21 928.277L1088.18 928.26L1088.15 928.243L1088.12 928.226L1088.09 928.208L1088.06 928.191L1088.03 928.174L1088 928.157L1087.97 928.14L1087.94 928.122L1087.91 928.105L1087.88 928.088L1087.85 928.071L1087.82 928.054L1087.79 928.037L1087.76 928.02L1087.73 928.002L1087.7 927.985L1087.67 927.968L1087.64 927.951L1087.61 927.934L1087.58 927.917L1087.55 927.9L1087.53 927.883L1087.5 927.866L1087.47 927.849L1087.44 927.832L1087.41 927.815L1087.38 927.798L1087.35 927.781L1087.32 927.764L1087.29 927.747L1087.26 927.73L1087.23 927.713L1087.2 927.696L1087.17 927.679L1087.14 927.662L1087.11 927.645L1087.08 927.629L1087.06 927.612L1087.03 927.595L1087 927.578L1086.97 927.561L1086.94 927.544L1086.91 927.528L1086.88 927.511L1086.85 927.494L1086.82 927.477L1086.79 927.46L1086.76 927.444L1086.74 927.427L1086.71 927.41L1086.68 927.394L1086.65 927.377L1086.62 927.36L1086.59 927.344L1086.56 927.327L1086.53 927.31L1086.5 927.294L1086.48 927.277L1086.45 927.26L1086.42 927.244L1086.39 927.227L1086.36 927.211L1086.33 927.194L1086.3 927.178L1086.27 927.161L1086.25 927.144L1086.22 927.128L1086.19 927.112L1086.16 927.095L1086.13 927.079L1086.1 927.062L1086.08 927.046L1086.05 927.029L1086.02 927.013L1085.99 926.997L1085.96 926.98L1085.93 926.964L1085.9 926.947L1085.88 926.931L1085.85 926.915L1085.82 926.899L1085.79 926.882L1085.76 926.866L1085.74 926.85L1085.71 926.833L1085.68 926.817L1085.65 926.801L1085.62 926.785L1085.6 926.769L1085.57 926.753L1085.54 926.736L1085.51 926.72L1085.48 926.704L1085.46 926.688L1085.43 926.672L1085.4 926.656L1085.37 926.64L1085.34 926.624L1085.32 926.608L1085.29 926.592L1085.26 926.576L1085.23 926.56L1085.21 926.544L1085.18 926.528L1085.15 926.512L1085.12 926.496L1085.1 926.48L1085.07 926.464L1085.04 926.449L1085.01 926.433L1084.99 926.417L1084.96 926.401L1084.93 926.385L1084.9 926.37L1084.88 926.354L1084.85 926.338L1084.82 926.322L1084.8 926.307L1084.77 926.291L1084.74 926.275L1084.71 926.26L1084.69 926.244L1084.66 926.228L1084.63 926.213L1084.61 926.197L1084.58 926.182L1084.55 926.166L1084.53 926.151L1084.5 926.135L1084.47 926.12L1084.44 926.104L1084.42 926.089L1084.39 926.073L1084.36 926.058L1084.34 926.043L1084.31 926.027L1084.28 926.012L1084.26 925.997L1084.23 925.981L1084.21 925.966L1084.18 925.951L1084.15 925.936L1084.13 925.92L1084.1 925.905L1084.07 925.89L1084.05 925.875L1084.02 925.86L1083.99 925.845L1083.97 925.829L1083.94 925.814L1083.92 925.799L1083.89 925.784L1083.86 925.769L1083.84 925.754L1083.81 925.739L1083.79 925.724L1083.76 925.709L1083.73 925.694L1083.71 925.68L1083.68 925.665L1083.66 925.65L1083.63 925.635L1083.61 925.62L1083.58 925.605L1083.55 925.591L1083.53 925.576L1083.5 925.561L1083.48 925.546L1083.45 925.532L1083.43 925.517L1083.4 925.503L1083.38 925.488L1083.35 925.473L1083.33 925.459L1083.3 925.444L1083.28 925.43L1083.25 925.415L1083.23 925.401L1083.2 925.386L1083.18 925.372L1083.15 925.357L1083.13 925.343L1083.1 925.329L1083.08 925.314L1083.05 925.3L1083.03 925.286L1083 925.271L1082.98 925.257L1082.95 925.243L1082.93 925.229L1082.9 925.214L1082.88 925.2L1082.85 925.186L1082.83 925.172L1082.81 925.158L1082.78 925.144L1082.76 925.13L1082.73 925.116L1082.71 925.102L1082.68 925.088L1082.66 925.074L1082.64 925.06L1082.61 925.046L1082.59 925.032L1082.56 925.018L1082.54 925.005L1082.52 924.991L1082.49 924.977L1082.47 924.963L1082.44 924.95L1082.42 924.936L1082.4 924.922L1082.37 924.909L1082.35 924.895L1082.33 924.881L1082.3 924.868L1082.28 924.854L1082.26 924.841L1082.23 924.827L1082.21 924.814L1082.19 924.8L1082.16 924.787L1082.14 924.774L1082.12 924.76L1082.09 924.747C1079.94 923.505 1079.95 921.493 1082.1 920.25L1098.55 910.75C1101.18 909.231 1101.18 906.769 1098.55 905.25L1060.45 883.25C1058.3 882.007 1058.3 879.993 1060.45 878.75Z" stroke="black" shape-rendering="crispEdges"></path>
</g>
<g filter="url('#filter5_d_1712_6993')">
<rect x="0.866025" width="17" height="20" rx="1.5" transform="matrix(0.866025 -0.5 0.866025 0.5 1064.46 886.433)" stroke="black" shape-rendering="crispEdges"></rect>
</g>
<g filter="url('#filter6_d_1712_6993')">
<rect x="0.866025" width="17" height="18" rx="1.5" transform="matrix(0.866025 -0.5 0.866025 0.5 1084.38 897.933)" stroke="black" shape-rendering="crispEdges"></rect>
</g>
<g filter="url('#filter7_d_1712_6993')">
<rect x="0.866025" width="17" height="20" rx="1.5" transform="matrix(0.866025 -0.5 0.866025 0.5 1102.57 908.433)" stroke="black" shape-rendering="crispEdges"></rect>
</g>
<g filter="url('#filter8_d_1712_6993')">
<rect x="0.866025" width="20" height="20" rx="1.5" transform="matrix(0.866025 -0.5 0.866025 0.5 1082.65 919.933)" stroke="black" shape-rendering="crispEdges"></rect>
</g>
<rect x="0.866025" width="21.8564" height="35.0807" rx="1.5" transform="matrix(0.866025 -0.5 0.866025 0.5 978.273 757.648)" stroke="black"></rect>
<rect x="-8.9407e-08" y="0.5" width="21.8511" height="35.0891" rx="1.5" transform="matrix(0.866025 0.5 -0.866026 0.5 1221.29 819.394)" stroke="black"></rect>
<rect x="0.866025" width="21.8564" height="35.0807" rx="1.5" transform="matrix(0.866025 -0.5 0.866025 0.5 1011.6 776.891)" stroke="black"></rect>
<rect x="-8.9407e-08" y="0.5" width="21.8511" height="35.0891" rx="1.5" transform="matrix(0.866025 0.5 -0.866026 0.5 1187.95 838.641)" stroke="black"></rect>
<rect x="0.866025" width="9.82673" height="9.8242" rx="1.5" transform="matrix(0.866025 -0.5 0.866025 0.5 967.855 767.271)" stroke="black"></rect>
<rect x="0.866025" width="3.81188" height="9.8242" rx="1.5" transform="matrix(0.866025 -0.5 0.866025 0.5 964.729 769.075)" stroke="black"></rect>
<rect x="-8.9407e-08" y="0.5" width="9.8242" height="9.82673" rx="1.5" transform="matrix(0.866025 0.5 -0.866026 0.5 1204.62 814.584)" stroke="black"></rect>
<rect x="-8.9407e-08" y="0.5" width="3.81075" height="9.82673" rx="1.5" transform="matrix(0.866025 0.5 -0.866026 0.5 1201.5 812.78)" stroke="black"></rect>
<rect x="-0.866025" y="-4.47035e-08" width="9.82673" height="9.8242" rx="1.5" transform="matrix(-0.866026 0.5 -0.866025 -0.5 1247.37 822.582)" stroke="black"></rect>
<rect x="-0.866025" y="-4.47035e-08" width="3.81188" height="9.8242" rx="1.5" transform="matrix(-0.866026 0.5 -0.866025 -0.5 1250.49 820.778)" stroke="black"></rect>
<rect x="-2.98023e-08" y="0.5" width="9.82673" height="9.8242" rx="1.5" transform="matrix(-0.866025 0.5 0.866025 0.5 1013.14 740.623)" stroke="black"></rect>
<rect x="-2.98023e-08" y="0.5" width="3.81188" height="9.8242" rx="1.5" transform="matrix(-0.866025 0.5 0.866025 0.5 1016.27 738.818)" stroke="black"></rect>
<rect x="-0.866025" y="-1.49012e-08" width="9.8242" height="9.82673" rx="1.5" transform="matrix(-0.866025 -0.5 -0.866026 0.5 1248.4 840.36)" stroke="black"></rect>
<rect x="-0.866025" y="-1.49012e-08" width="3.81075" height="9.82673" rx="1.5" transform="matrix(-0.866025 -0.5 -0.866026 0.5 1251.53 842.164)" stroke="black"></rect>
<rect x="0.866025" width="9.82673" height="9.8242" rx="1.5" transform="matrix(0.866025 -0.5 0.866025 0.5 984.52 776.892)" stroke="black"></rect>
<rect x="0.866025" width="3.81188" height="9.8242" rx="1.5" transform="matrix(0.866025 -0.5 0.866025 0.5 981.394 778.697)" stroke="black"></rect>
<rect x="-8.9407e-08" y="0.5" width="9.8242" height="9.82673" rx="1.5" transform="matrix(0.866025 0.5 -0.866026 0.5 1187.95 824.208)" stroke="black"></rect>
<rect x="-8.9407e-08" y="0.5" width="3.81075" height="9.82673" rx="1.5" transform="matrix(0.866025 0.5 -0.866026 0.5 1184.83 822.404)" stroke="black"></rect>
<rect x="-2.98023e-08" y="0.5" width="9.82673" height="9.8242" rx="1.5" transform="matrix(-0.866025 0.5 0.866025 0.5 1029.81 750.244)" stroke="black"></rect>
<rect x="-2.98023e-08" y="0.5" width="3.81188" height="9.8242" rx="1.5" transform="matrix(-0.866025 0.5 0.866025 0.5 1032.94 748.44)" stroke="black"></rect>
<rect x="-0.866025" y="-1.49012e-08" width="9.8242" height="9.82673" rx="1.5" transform="matrix(-0.866025 -0.5 -0.866026 0.5 1231.73 849.984)" stroke="black"></rect>
<rect x="-0.866025" y="-1.49012e-08" width="3.81075" height="9.82673" rx="1.5" transform="matrix(-0.866025 -0.5 -0.866026 0.5 1234.86 851.788)" stroke="black"></rect>
<rect x="0.866025" width="9.82673" height="9.8242" rx="1.5" transform="matrix(0.866025 -0.5 0.866025 0.5 1001.18 786.514)" stroke="black"></rect>
<rect x="0.866025" width="3.81188" height="9.8242" rx="1.5" transform="matrix(0.866025 -0.5 0.866025 0.5 998.059 788.318)" stroke="black"></rect>
<rect x="-8.9407e-08" y="0.5" width="9.8242" height="9.82673" rx="1.5" transform="matrix(0.866025 0.5 -0.866026 0.5 1171.29 833.831)" stroke="black"></rect>
<rect x="-8.9407e-08" y="0.5" width="3.81075" height="9.82673" rx="1.5" transform="matrix(0.866025 0.5 -0.866026 0.5 1168.16 832.027)" stroke="black"></rect>
<rect x="-2.98023e-08" y="0.5" width="9.82673" height="9.8242" rx="1.5" transform="matrix(-0.866025 0.5 0.866025 0.5 1046.47 759.866)" stroke="black"></rect>
<rect x="-2.98023e-08" y="0.5" width="3.81188" height="9.8242" rx="1.5" transform="matrix(-0.866025 0.5 0.866025 0.5 1049.6 758.061)" stroke="black"></rect>
<rect x="-0.866025" y="-1.49012e-08" width="9.8242" height="9.82673" rx="1.5" transform="matrix(-0.866025 -0.5 -0.866026 0.5 1215.07 859.607)" stroke="black"></rect>
<rect x="-0.866025" y="-1.49012e-08" width="3.81075" height="9.82673" rx="1.5" transform="matrix(-0.866025 -0.5 -0.866026 0.5 1218.19 861.411)" stroke="black"></rect>
<rect x="0.866025" width="9.82673" height="9.8242" rx="1.5" transform="matrix(0.866025 -0.5 0.866025 0.5 1017.85 796.135)" stroke="black"></rect>
<rect x="0.866025" width="3.81188" height="9.8242" rx="1.5" transform="matrix(0.866025 -0.5 0.866025 0.5 1014.72 797.94)" stroke="black"></rect>
<rect x="-8.9407e-08" y="0.5" width="9.8242" height="9.82673" rx="1.5" transform="matrix(0.866025 0.5 -0.866026 0.5 1154.62 843.455)" stroke="black"></rect>
<rect x="-8.9407e-08" y="0.5" width="3.81075" height="9.82673" rx="1.5" transform="matrix(0.866025 0.5 -0.866026 0.5 1151.49 841.651)" stroke="black"></rect>
<rect x="-2.98023e-08" y="0.5" width="9.82673" height="9.8242" rx="1.5" transform="matrix(-0.866025 0.5 0.866025 0.5 1063.14 769.487)" stroke="black"></rect>
<rect x="-2.98023e-08" y="0.5" width="3.81188" height="9.8242" rx="1.5" transform="matrix(-0.866025 0.5 0.866025 0.5 1066.27 767.683)" stroke="black"></rect>
<rect x="-0.866025" y="-1.49012e-08" width="9.8242" height="9.82673" rx="1.5" transform="matrix(-0.866025 -0.5 -0.866026 0.5 1198.4 869.231)" stroke="black"></rect>
<rect x="-0.866025" y="-1.49012e-08" width="3.81075" height="9.82673" rx="1.5" transform="matrix(-0.866025 -0.5 -0.866026 0.5 1201.52 871.035)" stroke="black"></rect>
<circle r="15.5" transform="matrix(0.866025 -0.5 0.866025 0.5 808.868 953.5)" stroke="black"></circle>
<rect x="0.866025" width="17" height="24" rx="1.5" transform="matrix(0.866025 -0.5 0.866025 0.5 1050.6 904.433)" stroke="black"></rect>
<path opacity="0.3" d="M1226.29 627.5C1225.34 628.052 1225.34 628.948 1226.29 629.5L1241.88 638.5C1242.84 639.052 1244.39 639.052 1245.34 638.5C1246.3 637.948 1246.3 637.052 1245.34 636.5L1231.49 628.5L1245.34 620.5C1246.3 619.948 1246.3 619.052 1245.34 618.5C1244.39 617.948 1242.84 617.948 1241.88 618.5L1226.29 627.5ZM1604.75 629.5C1605.7 628.948 1605.7 628.052 1604.75 627.5L1589.16 618.5C1588.2 617.948 1586.65 617.948 1585.69 618.5C1584.74 619.052 1584.74 619.948 1585.69 620.5L1599.55 628.5L1585.69 636.5C1584.74 637.052 1584.74 637.948 1585.69 638.5C1586.65 639.052 1588.2 639.052 1589.16 638.5L1604.75 629.5ZM1417.25 519.25C1416.29 518.698 1414.74 518.698 1413.79 519.25L1398.2 528.25C1397.24 528.802 1397.24 529.698 1398.2 530.25C1399.15 530.802 1400.71 530.802 1401.66 530.25L1415.52 522.25L1429.38 530.25C1430.33 530.802 1431.88 530.802 1432.84 530.25C1433.8 529.698 1433.8 528.802 1432.84 528.25L1417.25 519.25ZM1413.79 737.75C1414.74 738.302 1416.29 738.302 1417.25 737.75L1432.84 728.75C1433.8 728.198 1433.8 727.302 1432.84 726.75C1431.88 726.198 1430.33 726.198 1429.38 726.75L1415.52 734.75L1401.66 726.75C1400.71 726.198 1399.15 726.198 1398.2 726.75C1397.24 727.302 1397.24 728.198 1398.2 728.75L1413.79 737.75ZM1228.02 629.914H1603.01L1603.01 627.086H1228.02L1228.02 629.914ZM1413.07 520.25L1413.07 736.75H1417.97L1417.97 520.25H1413.07Z" fill="white"></path>
<path opacity="0.3" d="M1449.73 498.5C1448.77 499.052 1448.77 499.948 1449.73 500.5L1465.32 509.5C1466.27 510.052 1467.82 510.052 1468.78 509.5C1469.74 508.948 1469.74 508.052 1468.78 507.5L1454.92 499.5L1468.78 491.5C1469.74 490.948 1469.74 490.052 1468.78 489.5C1467.82 488.948 1466.27 488.948 1465.32 489.5L1449.73 498.5ZM1828.18 500.5C1829.14 499.948 1829.14 499.052 1828.18 498.5L1812.59 489.5C1811.63 488.948 1810.08 488.948 1809.13 489.5C1808.17 490.052 1808.17 490.948 1809.13 491.5L1822.98 499.5L1809.13 507.5C1808.17 508.052 1808.17 508.948 1809.13 509.5C1810.08 510.052 1811.63 510.052 1812.59 509.5L1828.18 500.5ZM1640.69 390.25C1639.73 389.698 1638.18 389.698 1637.22 390.25L1621.63 399.25C1620.68 399.802 1620.68 400.698 1621.63 401.25C1622.59 401.802 1624.14 401.802 1625.1 401.25L1638.95 393.25L1652.81 401.25C1653.77 401.802 1655.32 401.802 1656.27 401.25C1657.23 400.698 1657.23 399.802 1656.27 399.25L1640.69 390.25ZM1637.22 608.75C1638.18 609.302 1639.73 609.302 1640.69 608.75L1656.27 599.75C1657.23 599.198 1657.23 598.302 1656.27 597.75C1655.32 597.198 1653.77 597.198 1652.81 597.75L1638.95 605.75L1625.1 597.75C1624.14 597.198 1622.59 597.198 1621.63 597.75C1620.68 598.302 1620.68 599.198 1621.63 599.75L1637.22 608.75ZM1451.46 500.914H1826.45L1826.45 498.086H1451.46L1451.46 500.914ZM1636.5 391.25L1636.5 607.75H1641.4L1641.4 391.25H1636.5Z" fill="white"></path>
<path opacity="0.3" d="M1420.53 366.226C1419.57 366.779 1419.57 367.674 1420.53 368.226L1436.12 377.226C1437.07 377.779 1438.62 377.779 1439.58 377.226C1440.54 376.674 1440.54 375.779 1439.58 375.226L1425.72 367.226L1439.58 359.226C1440.54 358.674 1440.54 357.779 1439.58 357.226C1438.62 356.674 1437.07 356.674 1436.12 357.226L1420.53 366.226ZM1607.59 368.226C1608.55 367.674 1608.55 366.779 1607.59 366.226L1592 357.226C1591.04 356.674 1589.49 356.674 1588.54 357.226C1587.58 357.779 1587.58 358.674 1588.54 359.226L1602.39 367.226L1588.54 375.226C1587.58 375.779 1587.58 376.674 1588.54 377.226C1589.49 377.779 1591.04 377.779 1592 377.226L1607.59 368.226ZM1515.79 313.226C1514.83 312.674 1513.28 312.674 1512.33 313.226L1496.74 322.226C1495.78 322.779 1495.78 323.674 1496.74 324.226C1497.7 324.779 1499.25 324.779 1500.2 324.226L1514.06 316.226L1527.92 324.226C1528.87 324.779 1530.42 324.779 1531.38 324.226C1532.34 323.674 1532.34 322.779 1531.38 322.226L1515.79 313.226ZM1512.33 421.226C1513.28 421.779 1514.83 421.779 1515.79 421.226L1531.38 412.226C1532.34 411.674 1532.34 410.779 1531.38 410.226C1530.42 409.674 1528.87 409.674 1527.92 410.226L1514.06 418.226L1500.2 410.226C1499.25 409.674 1497.7 409.674 1496.74 410.226C1495.78 410.779 1495.78 411.674 1496.74 412.226L1512.33 421.226ZM1422.26 368.641H1605.86L1605.86 365.812H1422.26L1422.26 368.641ZM1511.61 314.226L1511.61 420.226H1516.51L1516.51 314.226H1511.61Z" fill="white"></path>
<path opacity="0.3" d="M1207.21 758.995C1206.26 759.547 1206.26 760.443 1207.21 760.995L1222.8 769.995C1223.76 770.547 1225.31 770.547 1226.27 769.995C1227.22 769.443 1227.22 768.547 1226.27 767.995L1212.41 759.995L1226.27 751.995C1227.22 751.443 1227.22 750.547 1226.27 749.995C1225.31 749.443 1223.76 749.443 1222.8 749.995L1207.21 758.995ZM1394.27 760.995C1395.23 760.443 1395.23 759.547 1394.27 758.995L1378.69 749.995C1377.73 749.443 1376.18 749.443 1375.22 749.995C1374.27 750.547 1374.27 751.443 1375.22 751.995L1389.08 759.995L1375.22 767.995C1374.27 768.547 1374.27 769.443 1375.22 769.995C1376.18 770.547 1377.73 770.547 1378.69 769.995L1394.27 760.995ZM1302.48 705.995C1301.52 705.443 1299.97 705.443 1299.01 705.995L1283.42 714.995C1282.47 715.547 1282.47 716.443 1283.42 716.995C1284.38 717.547 1285.93 717.547 1286.89 716.995L1300.74 708.995L1314.6 716.995C1315.56 717.547 1317.11 717.547 1318.06 716.995C1319.02 716.443 1319.02 715.547 1318.06 714.995L1302.48 705.995ZM1299.01 813.995C1299.97 814.547 1301.52 814.547 1302.48 813.995L1318.06 804.995C1319.02 804.443 1319.02 803.547 1318.06 802.995C1317.11 802.443 1315.56 802.443 1314.6 802.995L1300.74 810.995L1286.89 802.995C1285.93 802.443 1284.38 802.443 1283.42 802.995C1282.47 803.547 1282.47 804.443 1283.42 804.995L1299.01 813.995ZM1208.95 761.409H1392.54L1392.54 758.581H1208.95L1208.95 761.409ZM1298.29 706.995L1298.29 812.995H1303.19L1303.19 706.995H1298.29Z" fill="white"></path>
<circle r="8" transform="matrix(0.866025 -0.5 0.866025 0.5 1226.29 513)" stroke="black"></circle>
<rect x="0.866025" width="19" height="19" rx="4.5" transform="matrix(0.866025 -0.5 0.866025 0.5 964.002 653.433)" stroke="black"></rect>
<rect x="0.866025" width="19" height="19" rx="4.5" transform="matrix(0.866025 -0.5 0.866025 0.5 983.055 664.433)" stroke="black"></rect>
<rect x="0.866025" width="19" height="19" rx="4.5" transform="matrix(0.866025 -0.5 0.866025 0.5 1002.11 675.433)" stroke="black"></rect>
<rect x="0.866025" width="19" height="19" rx="4.5" transform="matrix(0.866025 -0.5 0.866025 0.5 1021.16 686.433)" stroke="black"></rect>
<path d="M1418 629.092V566H1501.43C1503.92 579.144 1499.52 605.433 1462 605.433C1442.07 605.433 1418 621.621 1418 629.092Z" fill="white"></path>
<rect x="1418" y="507" width="117" height="98" rx="30" fill="white"></rect>
<path d="M1438.02 550H1441.62L1443.26 546.112H1450.53L1452.18 550H1455.83L1448.46 532.96H1445.37L1438.02 550ZM1446.9 537.544L1449.23 543.064H1444.55L1446.9 537.544ZM1460.71 555.016V548.656C1461.26 549.424 1462.53 550.264 1464.19 550.264C1467.38 550.264 1469.83 547.384 1469.83 544C1469.83 540.616 1467.38 537.736 1464.19 537.736C1462.53 537.736 1461.26 538.576 1460.71 539.344V538H1457.42V555.016H1460.71ZM1463.47 547.264C1461.64 547.264 1460.44 545.896 1460.44 544C1460.44 542.104 1461.64 540.736 1463.47 540.736C1465.29 540.736 1466.49 542.104 1466.49 544C1466.49 545.896 1465.29 547.264 1463.47 547.264ZM1477.75 550.264C1480.8 550.264 1483.2 548.512 1483.9 546.088H1480.46C1480.08 546.928 1479.07 547.408 1477.92 547.408C1475.86 547.408 1474.8 546.184 1474.68 544.768H1484.04C1484.23 540.256 1481.28 537.736 1477.78 537.736C1474.13 537.736 1471.46 540.4 1471.46 543.976C1471.46 547.624 1474.08 550.264 1477.75 550.264ZM1477.68 540.4C1478.78 540.4 1480.06 541 1480.44 542.608H1474.8C1475.11 541.264 1476.14 540.4 1477.68 540.4ZM1486.44 550H1489.72V545.392H1494.67V550H1497.96V538H1494.67V542.536H1489.72V538H1486.44V550ZM1506 550.264C1507.66 550.264 1508.91 549.424 1509.46 548.656V550H1512.75V538H1509.46V539.344C1508.91 538.576 1507.66 537.736 1506 537.736C1502.81 537.736 1500.36 540.616 1500.36 544C1500.36 547.384 1502.81 550.264 1506 550.264ZM1506.7 547.264C1504.87 547.264 1503.67 545.896 1503.67 544C1503.67 542.104 1504.87 540.736 1506.7 540.736C1508.52 540.736 1509.72 542.104 1509.72 544C1509.72 545.896 1508.52 547.264 1506.7 547.264ZM1441.65 579H1444.94V561.96H1440.45L1438.05 565.2H1441.65V579ZM1454.42 579.264C1458.14 579.264 1460.76 576.432 1460.76 572.52V568.392C1460.76 564.504 1458.14 561.672 1454.42 561.672C1450.68 561.672 1448.06 564.504 1448.06 568.392V572.52C1448.06 576.432 1450.68 579.264 1454.42 579.264ZM1454.42 576.024C1452.6 576.024 1451.35 574.728 1451.35 572.52V568.392C1451.35 566.184 1452.6 564.912 1454.42 564.912C1456.24 564.912 1457.47 566.184 1457.47 568.392V572.52C1457.47 574.728 1456.24 576.024 1454.42 576.024ZM1469.56 579.264C1473.28 579.264 1475.9 576.432 1475.9 572.52V568.392C1475.9 564.504 1473.28 561.672 1469.56 561.672C1465.82 561.672 1463.2 564.504 1463.2 568.392V572.52C1463.2 576.432 1465.82 579.264 1469.56 579.264ZM1469.56 576.024C1467.74 576.024 1466.49 574.728 1466.49 572.52V568.392C1466.49 566.184 1467.74 564.912 1469.56 564.912C1471.38 564.912 1472.61 566.184 1472.61 568.392V572.52C1472.61 574.728 1471.38 576.024 1469.56 576.024ZM1484.16 567V579H1487.45V572.064L1490.91 576.408L1494.34 572.064V579H1497.63V567H1494.84L1490.88 571.992L1486.95 567H1484.16ZM1507.02 566.856H1503.15C1503.42 566.4 1504.5 565.824 1504.88 565.56C1506.03 564.792 1506.97 563.808 1506.97 561.888C1506.97 559.704 1505.31 558.624 1503.59 558.624C1501.47 558.624 1499.87 560.112 1499.87 562.128H1502.22C1502.19 561.528 1502.67 560.928 1503.51 560.928C1504.26 560.928 1504.62 561.408 1504.62 561.984C1504.62 562.728 1503.87 563.448 1503.11 563.952C1501.57 565.032 1499.82 565.992 1499.82 568.392V569.16H1507.02V566.856Z" fill="black"></path>
<path d="M1057 617.092V554H1140.43C1142.92 567.144 1138.52 593.433 1101 593.433C1081.07 593.433 1057 609.621 1057 617.092Z" fill="white"></path>
<rect x="1057" y="524" width="134" height="69" rx="30" fill="white"></rect>
<path d="M1084.1 567H1087.2L1094.26 549.96H1090.42L1085.66 561.792L1080.84 549.96H1077.07L1084.1 567ZM1096.19 567H1099.67V559.824H1100.51L1106.37 567H1110.57L1104.45 559.44C1106.73 558.744 1107.95 557.304 1107.95 555C1107.95 552.168 1105.89 549.96 1102.72 549.96H1096.19V567ZM1099.67 556.848V553.152H1102.31C1103.63 553.152 1104.5 553.824 1104.5 555C1104.5 556.152 1103.63 556.848 1102.31 556.848H1099.67ZM1114.31 567H1117.91L1119.55 563.112H1126.82L1128.47 567H1132.12L1124.75 549.96H1121.66L1114.31 567ZM1123.19 554.544L1125.52 560.064H1120.84L1123.19 554.544ZM1137.7 567.264C1139.24 567.264 1140.34 566.592 1140.99 565.632V567H1144.28V555H1140.99V560.856C1140.99 563.184 1139.98 564.264 1138.52 564.264C1137.08 564.264 1136.48 563.232 1136.48 561.408V555H1133.19V561.96C1133.19 565.128 1134.82 567.264 1137.7 567.264ZM1153.25 567.144C1154.19 567.144 1154.79 567.048 1155.34 566.88V563.976C1154.96 564.12 1154.5 564.192 1154 564.192C1152.56 564.192 1151.96 563.616 1151.96 562.152V557.88H1155.34V555H1151.96V551.664H1148.67V555H1146.24V557.88H1148.67V562.8C1148.67 565.752 1150.71 567.144 1153.25 567.144ZM1163.04 567.264C1166.52 567.264 1169.35 564.528 1169.35 561C1169.35 557.496 1166.52 554.736 1163.04 554.736C1159.56 554.736 1156.73 557.496 1156.73 561C1156.73 564.528 1159.56 567.264 1163.04 567.264ZM1163.04 564.192C1161.31 564.192 1160.04 562.848 1160.04 561C1160.04 559.152 1161.31 557.808 1163.04 557.808C1164.75 557.808 1166.02 559.152 1166.02 561C1166.02 562.848 1164.75 564.192 1163.04 564.192Z" fill="black"></path>
<path d="M999 650.092V587H915.569C913.079 600.144 917.478 626.433 955.002 626.433C974.926 626.433 999 642.621 999 650.092Z" fill="white"></path>
<rect x="800" y="528" width="199" height="98" rx="30" fill="white"></rect>
<path d="M821.896 571H829.096C832.12 571 834.376 568.816 834.376 565.984C834.376 564.064 833.368 562.696 831.856 561.952C832.696 561.208 833.2 560.224 833.2 558.904C833.2 556.216 831.016 553.96 828.136 553.96H821.896V571ZM825.376 567.808V563.896H828.856C830.176 563.896 830.992 564.736 830.992 565.864C830.992 566.992 830.176 567.808 828.856 567.808H825.376ZM825.376 560.944V557.128H827.8C829.024 557.128 829.816 558.016 829.816 559.048C829.816 560.104 829.024 560.944 827.8 560.944H825.376ZM842.315 571.264C845.363 571.264 847.763 569.512 848.459 567.088H845.027C844.643 567.928 843.635 568.408 842.483 568.408C840.419 568.408 839.363 567.184 839.243 565.768H848.603C848.795 561.256 845.843 558.736 842.339 558.736C838.691 558.736 836.027 561.4 836.027 564.976C836.027 568.624 838.643 571.264 842.315 571.264ZM842.243 561.4C843.347 561.4 844.619 562 845.003 563.608H839.363C839.675 562.264 840.707 561.4 842.243 561.4ZM850.998 571H854.286V566.392H859.23V571H862.518V559H859.23V563.536H854.286V559H850.998V571ZM864.805 568.12V573.952H867.757V571H876.109V573.952H879.061V568.12H877.117V559H866.797V565.024C866.797 567.352 866.101 568.12 865.117 568.12H864.805ZM870.085 561.88H873.829V568.12H869.485C869.869 567.448 870.085 566.728 870.085 565.216V561.88ZM884.325 571L889.701 563.92V571H892.965V559H890.037L884.661 566.08V559H881.373V571H884.325ZM896.162 571H899.45V566.392H904.394V571H907.682V559H904.394V563.536H899.45V559H896.162V571ZM910.857 571H914.145V561.88H919.137V559H910.857V571ZM926.315 571.264C929.795 571.264 932.627 568.528 932.627 565C932.627 561.496 929.795 558.736 926.315 558.736C922.835 558.736 920.003 561.496 920.003 565C920.003 568.528 922.835 571.264 926.315 571.264ZM926.315 568.192C924.587 568.192 923.315 566.848 923.315 565C923.315 563.152 924.587 561.808 926.315 561.808C928.019 561.808 929.291 563.152 929.291 565C929.291 566.848 928.019 568.192 926.315 568.192ZM934.998 571H941.574C944.766 571 945.966 569.128 945.966 567.352C945.966 566.224 945.366 565.216 944.406 564.616C944.934 564.016 945.198 563.344 945.198 562.6C945.198 560.8 943.854 559 940.734 559H934.998V571ZM938.286 568.312V565.936H941.406C942.15 565.936 942.702 566.344 942.702 567.112C942.702 567.904 942.15 568.312 941.406 568.312H938.286ZM938.286 563.728V561.52H940.734C941.286 561.52 941.934 561.784 941.934 562.624C941.934 563.464 941.286 563.728 940.734 563.728H938.286ZM959.902 571H963.19V559H959.902V571ZM948.334 571H953.878C957.07 571 958.294 568.528 958.294 566.728C958.294 564.928 957.07 562.576 953.878 562.576H951.622V559H948.334V571ZM951.622 565.384H953.494C954.574 565.384 955.198 565.816 955.198 566.752C955.198 567.688 954.574 568.192 953.494 568.192H951.622V565.384ZM971.901 571.264C974.949 571.264 977.349 569.512 978.045 567.088H974.613C974.229 567.928 973.221 568.408 972.069 568.408C970.005 568.408 968.949 567.184 968.829 565.768H978.189C978.381 561.256 975.429 558.736 971.925 558.736C968.277 558.736 965.613 561.4 965.613 564.976C965.613 568.624 968.229 571.264 971.901 571.264ZM971.829 561.4C972.933 561.4 974.205 562 974.589 563.608H968.949C969.261 562.264 970.293 561.4 971.829 561.4ZM826.456 600.264C828.112 600.264 829.36 599.424 829.912 598.656V600H833.2V588H829.912V589.344C829.36 588.576 828.112 587.736 826.456 587.736C823.264 587.736 820.816 590.616 820.816 594C820.816 597.384 823.264 600.264 826.456 600.264ZM827.152 597.264C825.328 597.264 824.128 595.896 824.128 594C824.128 592.104 825.328 590.736 827.152 590.736C828.976 590.736 830.176 592.104 830.176 594C830.176 595.896 828.976 597.264 827.152 597.264ZM836.396 600H842.973C846.165 600 847.365 598.128 847.365 596.352C847.365 595.224 846.765 594.216 845.805 593.616C846.333 593.016 846.597 592.344 846.597 591.6C846.597 589.8 845.253 588 842.133 588H836.396V600ZM839.685 597.312V594.936H842.805C843.549 594.936 844.101 595.344 844.101 596.112C844.101 596.904 843.549 597.312 842.805 597.312H839.685ZM839.685 592.728V590.52H842.133C842.685 590.52 843.333 590.784 843.333 591.624C843.333 592.464 842.685 592.728 842.133 592.728H839.685ZM851.635 600H854.923V590.88H858.475V588H848.323V590.88H851.635V600ZM865.706 600.264C869.186 600.264 872.018 597.528 872.018 594C872.018 590.496 869.186 587.736 865.706 587.736C862.226 587.736 859.394 590.496 859.394 594C859.394 597.528 862.226 600.264 865.706 600.264ZM865.706 597.192C863.978 597.192 862.706 595.848 862.706 594C862.706 592.152 863.978 590.808 865.706 590.808C867.41 590.808 868.682 592.152 868.682 594C868.682 595.848 867.41 597.192 865.706 597.192ZM874.389 588V600H877.677V593.064L881.133 597.408L884.565 593.064V600H887.853V588H885.069L881.109 592.992L877.173 588H874.389ZM895.901 600.264C897.557 600.264 898.805 599.424 899.357 598.656V600H902.645V588H899.357V589.344C898.805 588.576 897.557 587.736 895.901 587.736C892.709 587.736 890.261 590.616 890.261 594C890.261 597.384 892.709 600.264 895.901 600.264ZM896.597 597.264C894.773 597.264 893.573 595.896 893.573 594C893.573 592.104 894.773 590.736 896.597 590.736C898.421 590.736 899.621 592.104 899.621 594C899.621 595.896 898.421 597.264 896.597 597.264ZM908.002 600H911.29V590.88H914.842V588H904.69V590.88H908.002V600ZM928.425 600H931.713V588H928.425V600ZM916.857 600H922.401C925.593 600 926.817 597.528 926.817 595.728C926.817 593.928 925.593 591.576 922.401 591.576H920.145V588H916.857V600ZM920.145 594.384H922.017C923.097 594.384 923.721 594.816 923.721 595.752C923.721 596.688 923.097 597.192 922.017 597.192H920.145V594.384Z" fill="black"></path>
<path d="M963 781.092V718H879.569C877.079 731.144 881.478 757.433 919.002 757.433C938.926 757.433 963 773.621 963 781.092Z" fill="white"></path>
<rect x="726" y="688" width="237" height="69" rx="30" fill="white"></rect>
<path d="M750.656 718.64C751.016 717.608 751.88 716.864 753.104 716.864C754.52 716.864 755.24 717.68 755.24 718.808C755.24 719.96 754.568 720.776 753.248 720.776H751.424V723.704H753.44C754.952 723.704 755.816 724.52 755.816 725.744C755.816 727.088 754.928 728.024 753.176 728.024C751.64 728.024 750.464 727.28 750.056 725.84H746.576C747.032 729.416 749.984 731.288 753.2 731.288C756.44 731.288 759.2 729.344 759.2 726.008C759.2 724.28 758.456 722.768 756.896 721.904C758.264 720.824 758.6 719.456 758.6 718.208C758.6 715.472 756.368 713.672 753.176 713.672C750.608 713.672 747.824 715.016 747.2 718.64H750.656ZM767.26 731.264C770.74 731.264 773.572 728.528 773.572 725C773.572 721.496 770.74 718.736 767.26 718.736C763.78 718.736 760.948 721.496 760.948 725C760.948 728.528 763.78 731.264 767.26 731.264ZM767.26 728.192C765.532 728.192 764.26 726.848 764.26 725C764.26 723.152 765.532 721.808 767.26 721.808C768.964 721.808 770.236 723.152 770.236 725C770.236 726.848 768.964 728.192 767.26 728.192ZM775.943 731H779.231V726.392H784.175V731H787.463V719H784.175V723.536H779.231V719H775.943V731ZM795.511 731.264C797.167 731.264 798.415 730.424 798.967 729.656V731H802.255V719H798.967V720.344C798.415 719.576 797.167 718.736 795.511 718.736C792.319 718.736 789.871 721.616 789.871 725C789.871 728.384 792.319 731.264 795.511 731.264ZM796.207 728.264C794.383 728.264 793.183 726.896 793.183 725C793.183 723.104 794.383 721.736 796.207 721.736C798.031 721.736 799.231 723.104 799.231 725C799.231 726.896 798.031 728.264 796.207 728.264ZM816.456 731.264C819.768 731.264 821.952 729.176 822.6 726.416H819.192C818.736 727.496 817.872 728.288 816.456 728.288C814.728 728.288 813.456 727.016 813.456 725C813.456 722.984 814.728 721.712 816.456 721.712C817.872 721.712 818.736 722.504 819.192 723.584H822.6C821.952 720.824 819.768 718.736 816.456 718.736C812.808 718.736 810.144 721.52 810.144 725C810.144 728.48 812.808 731.264 816.456 731.264ZM830.354 731.264C833.834 731.264 836.666 728.528 836.666 725C836.666 721.496 833.834 718.736 830.354 718.736C826.874 718.736 824.042 721.496 824.042 725C824.042 728.528 826.874 731.264 830.354 731.264ZM830.354 728.192C828.626 728.192 827.354 726.848 827.354 725C827.354 723.152 828.626 721.808 830.354 721.808C832.058 721.808 833.33 723.152 833.33 725C833.33 726.848 832.058 728.192 830.354 728.192ZM850.042 731.264C853.354 731.264 855.538 729.176 856.186 726.416H852.778C852.322 727.496 851.458 728.288 850.042 728.288C848.314 728.288 847.042 727.016 847.042 725C847.042 722.984 848.314 721.712 850.042 721.712C851.458 721.712 852.322 722.504 852.778 723.584H856.186C855.538 720.824 853.354 718.736 850.042 718.736C846.394 718.736 843.73 721.52 843.73 725C843.73 728.48 846.394 731.264 850.042 731.264ZM860.392 731H863.68V721.88H867.232V719H857.08V721.88H860.392V731ZM874.463 731.264C877.943 731.264 880.775 728.528 880.775 725C880.775 721.496 877.943 718.736 874.463 718.736C870.983 718.736 868.151 721.496 868.151 725C868.151 728.528 870.983 731.264 874.463 731.264ZM874.463 728.192C872.735 728.192 871.463 726.848 871.463 725C871.463 723.152 872.735 721.808 874.463 721.808C876.167 721.808 877.439 723.152 877.439 725C877.439 726.848 876.167 728.192 874.463 728.192ZM883.321 731.24C885.337 731.24 887.353 729.872 887.353 726.68V721.88H891.049V731H894.337V719H884.065V726.272C884.065 727.928 883.537 728.384 882.601 728.384C882.337 728.384 882.025 728.36 881.761 728.336V731.12C882.169 731.216 882.673 731.24 883.321 731.24ZM902.386 731.264C904.042 731.264 905.29 730.424 905.842 729.656V731H909.13V719H905.842V720.344C905.29 719.576 904.042 718.736 902.386 718.736C899.194 718.736 896.746 721.616 896.746 725C896.746 728.384 899.194 731.264 902.386 731.264ZM903.082 728.264C901.258 728.264 900.058 726.896 900.058 725C900.058 723.104 901.258 721.736 903.082 721.736C904.906 721.736 906.106 723.104 906.106 725C906.106 726.896 904.906 728.264 903.082 728.264ZM912.326 719V731H915.614V724.064L919.07 728.408L922.502 724.064V731H925.79V719H923.006L919.046 723.992L915.11 719H912.326ZM931.919 731L937.295 723.92V731H940.559V719H937.631L932.255 726.08V719H928.967V731H931.919Z" fill="black"></path>
<path d="M878 911.092V848H794.569C792.079 861.144 796.478 887.433 834.002 887.433C853.926 887.433 878 903.621 878 911.092Z" fill="white"></path>
<rect x="769" y="818" width="109" height="69" rx="30" fill="white"></rect>
<path d="M790.896 861H810.576V843.96H807.096V857.688H802.488V843.96H798.984V857.688H794.4V843.96H790.896V861ZM821.659 861H825.883L820.075 854.904L825.067 849H821.155L817.099 853.896V849H813.811V861H817.099V856.152L821.659 861ZM831.222 861.264C832.878 861.264 834.126 860.424 834.678 859.656V861H837.966V849H834.678V850.344C834.126 849.576 832.878 848.736 831.222 848.736C828.03 848.736 825.582 851.616 825.582 855C825.582 858.384 828.03 861.264 831.222 861.264ZM831.918 858.264C830.094 858.264 828.894 856.896 828.894 855C828.894 853.104 830.094 851.736 831.918 851.736C833.742 851.736 834.942 853.104 834.942 855C834.942 856.896 833.742 858.264 831.918 858.264ZM850.402 866.016V861.264H850.642C854.818 861.264 857.098 858.312 857.098 855C857.098 851.688 854.818 848.736 850.642 848.736H850.402V843H847.114V848.736H846.85C842.674 848.736 840.394 851.688 840.394 855C840.394 858.312 842.674 861.264 846.85 861.264H847.114V866.016H850.402ZM850.642 851.76C852.61 851.76 853.786 853.272 853.786 855C853.786 856.728 852.634 858.24 850.642 858.24H850.402V851.76H850.642ZM847.114 858.24H846.85C844.858 858.24 843.706 856.728 843.706 855C843.706 853.272 844.882 851.76 846.85 851.76H847.114V858.24Z" fill="black"></path>
<path d="M1064 917V980.092H980.569C978.079 966.948 982.478 940.66 1020 940.66C1039.93 940.66 1064 924.471 1064 917Z" fill="white"></path>
<rect x="878" y="939.999" width="186" height="69" rx="30" fill="white"></rect>
<path d="M899.896 965.959V982.999H903.376V971.911L908.608 979.087L913.84 971.911V982.999H917.32V965.959H914.152L908.608 973.567L903.064 965.959H899.896ZM918.83 982.999H922.55L926.054 979.207H927.206V982.999H930.494V970.999H925.19C922.358 970.999 920.774 972.751 920.774 975.031C920.774 976.567 921.59 977.767 922.958 978.439L918.83 982.999ZM925.382 976.567C924.542 976.567 923.87 976.063 923.87 975.175C923.87 974.239 924.374 973.663 925.358 973.663H927.206V976.567H925.382ZM933.662 982.999H936.95V973.879H941.942V970.999H933.662V982.999ZM951.776 982.999H956L950.192 976.903L955.184 970.999H951.272L947.216 975.895V970.999H943.928V982.999H947.216V978.151L951.776 982.999ZM961.339 983.263C962.995 983.263 964.243 982.423 964.795 981.655V982.999H968.083V970.999H964.795V972.343C964.243 971.575 962.995 970.735 961.339 970.735C958.147 970.735 955.699 973.615 955.699 976.999C955.699 980.383 958.147 983.263 961.339 983.263ZM962.035 980.263C960.211 980.263 959.011 978.895 959.011 976.999C959.011 975.103 960.211 973.735 962.035 973.735C963.859 973.735 965.059 975.103 965.059 976.999C965.059 978.895 963.859 980.263 962.035 980.263ZM969.431 982.999H973.151L976.655 979.207H977.807V982.999H981.095V970.999H975.791C972.959 970.999 971.375 972.751 971.375 975.031C971.375 976.567 972.191 977.767 973.559 978.439L969.431 982.999ZM975.983 976.567C975.143 976.567 974.471 976.063 974.471 975.175C974.471 974.239 974.975 973.663 975.959 973.663H977.807V976.567H975.983ZM994.261 983.263C997.765 983.263 999.397 981.295 999.397 979.471C999.397 978.199 998.869 977.287 997.789 976.687C998.653 976.039 998.917 975.127 998.917 974.287C998.917 972.727 997.573 970.735 994.285 970.735C991.981 970.735 989.581 971.719 989.005 974.527H992.293C992.557 973.783 993.205 973.303 994.189 973.303C995.269 973.303 995.773 973.831 995.773 974.527C995.773 975.295 995.221 975.703 994.381 975.703H993.037V977.959H994.501C995.533 977.959 996.085 978.439 996.085 979.207C996.085 980.047 995.461 980.551 994.237 980.575C993.157 980.575 992.365 980.095 992.101 979.231H988.717C989.221 982.087 991.813 983.263 994.261 983.263ZM1007.34 983.263C1010.82 983.263 1013.65 980.527 1013.65 976.999C1013.65 973.495 1010.82 970.735 1007.34 970.735C1003.86 970.735 1001.03 973.495 1001.03 976.999C1001.03 980.527 1003.86 983.263 1007.34 983.263ZM1007.34 980.191C1005.61 980.191 1004.34 978.847 1004.34 976.999C1004.34 975.151 1005.61 973.807 1007.34 973.807C1009.04 973.807 1010.31 975.151 1010.31 976.999C1010.31 978.847 1009.04 980.191 1007.34 980.191ZM1016.02 982.999H1019.31V978.391H1024.25V982.999H1027.54V970.999H1024.25V975.535H1019.31V970.999H1016.02V982.999ZM1035.59 983.263C1037.24 983.263 1038.49 982.423 1039.04 981.655V982.999H1042.33V970.999H1039.04V972.343C1038.49 971.575 1037.24 970.735 1035.59 970.735C1032.4 970.735 1029.95 973.615 1029.95 976.999C1029.95 980.383 1032.4 983.263 1035.59 983.263ZM1036.28 980.263C1034.46 980.263 1033.26 978.895 1033.26 976.999C1033.26 975.103 1034.46 973.735 1036.28 973.735C1038.11 973.735 1039.31 975.103 1039.31 976.999C1039.31 978.895 1038.11 980.263 1036.28 980.263Z" fill="black"></path>
<path d="M1159 870V933.092H1242.43C1244.92 919.948 1240.52 893.66 1203 893.66C1183.07 893.66 1159 877.471 1159 870Z" fill="white"></path>
<rect x="1159" y="892.999" width="237" height="69" rx="30" fill="white"></rect>
<path d="M1183.66 923.639C1184.02 922.607 1184.88 921.863 1186.1 921.863C1187.52 921.863 1188.24 922.679 1188.24 923.807C1188.24 924.959 1187.57 925.775 1186.25 925.775H1184.42V928.703H1186.44C1187.95 928.703 1188.82 929.519 1188.82 930.743C1188.82 932.087 1187.93 933.023 1186.18 933.023C1184.64 933.023 1183.46 932.279 1183.06 930.839H1179.58C1180.03 934.415 1182.98 936.287 1186.2 936.287C1189.44 936.287 1192.2 934.343 1192.2 931.007C1192.2 929.279 1191.46 927.767 1189.9 926.903C1191.26 925.823 1191.6 924.455 1191.6 923.207C1191.6 920.471 1189.37 918.671 1186.18 918.671C1183.61 918.671 1180.82 920.015 1180.2 923.639H1183.66ZM1200.26 936.263C1203.74 936.263 1206.57 933.527 1206.57 929.999C1206.57 926.495 1203.74 923.735 1200.26 923.735C1196.78 923.735 1193.95 926.495 1193.95 929.999C1193.95 933.527 1196.78 936.263 1200.26 936.263ZM1200.26 933.191C1198.53 933.191 1197.26 931.847 1197.26 929.999C1197.26 928.151 1198.53 926.807 1200.26 926.807C1201.96 926.807 1203.24 928.151 1203.24 929.999C1203.24 931.847 1201.96 933.191 1200.26 933.191ZM1208.94 935.999H1212.23V931.391H1217.18V935.999H1220.46V923.999H1217.18V928.535H1212.23V923.999H1208.94V935.999ZM1228.51 936.263C1230.17 936.263 1231.41 935.423 1231.97 934.655V935.999H1235.25V923.999H1231.97V925.343C1231.41 924.575 1230.17 923.735 1228.51 923.735C1225.32 923.735 1222.87 926.615 1222.87 929.999C1222.87 933.383 1225.32 936.263 1228.51 936.263ZM1229.21 933.263C1227.38 933.263 1226.18 931.895 1226.18 929.999C1226.18 928.103 1227.38 926.735 1229.21 926.735C1231.03 926.735 1232.23 928.103 1232.23 929.999C1232.23 931.895 1231.03 933.263 1229.21 933.263ZM1249.46 936.263C1252.77 936.263 1254.95 934.175 1255.6 931.415H1252.19C1251.74 932.495 1250.87 933.287 1249.46 933.287C1247.73 933.287 1246.46 932.015 1246.46 929.999C1246.46 927.983 1247.73 926.711 1249.46 926.711C1250.87 926.711 1251.74 927.503 1252.19 928.583H1255.6C1254.95 925.823 1252.77 923.735 1249.46 923.735C1245.81 923.735 1243.14 926.519 1243.14 929.999C1243.14 933.479 1245.81 936.263 1249.46 936.263ZM1263.35 936.263C1266.83 936.263 1269.67 933.527 1269.67 929.999C1269.67 926.495 1266.83 923.735 1263.35 923.735C1259.87 923.735 1257.04 926.495 1257.04 929.999C1257.04 933.527 1259.87 936.263 1263.35 936.263ZM1263.35 933.191C1261.63 933.191 1260.35 931.847 1260.35 929.999C1260.35 928.151 1261.63 926.807 1263.35 926.807C1265.06 926.807 1266.33 928.151 1266.33 929.999C1266.33 931.847 1265.06 933.191 1263.35 933.191ZM1283.04 936.263C1286.35 936.263 1288.54 934.175 1289.19 931.415H1285.78C1285.32 932.495 1284.46 933.287 1283.04 933.287C1281.31 933.287 1280.04 932.015 1280.04 929.999C1280.04 927.983 1281.31 926.711 1283.04 926.711C1284.46 926.711 1285.32 927.503 1285.78 928.583H1289.19C1288.54 925.823 1286.35 923.735 1283.04 923.735C1279.39 923.735 1276.73 926.519 1276.73 929.999C1276.73 933.479 1279.39 936.263 1283.04 936.263ZM1293.39 935.999H1296.68V926.879H1300.23V923.999H1290.08V926.879H1293.39V935.999ZM1307.46 936.263C1310.94 936.263 1313.78 933.527 1313.78 929.999C1313.78 926.495 1310.94 923.735 1307.46 923.735C1303.98 923.735 1301.15 926.495 1301.15 929.999C1301.15 933.527 1303.98 936.263 1307.46 936.263ZM1307.46 933.191C1305.74 933.191 1304.46 931.847 1304.46 929.999C1304.46 928.151 1305.74 926.807 1307.46 926.807C1309.17 926.807 1310.44 928.151 1310.44 929.999C1310.44 931.847 1309.17 933.191 1307.46 933.191ZM1316.32 936.239C1318.34 936.239 1320.35 934.871 1320.35 931.679V926.879H1324.05V935.999H1327.34V923.999H1317.06V931.271C1317.06 932.927 1316.54 933.383 1315.6 933.383C1315.34 933.383 1315.02 933.359 1314.76 933.335V936.119C1315.17 936.215 1315.67 936.239 1316.32 936.239ZM1335.39 936.263C1337.04 936.263 1338.29 935.423 1338.84 934.655V935.999H1342.13V923.999H1338.84V925.343C1338.29 924.575 1337.04 923.735 1335.39 923.735C1332.19 923.735 1329.75 926.615 1329.75 929.999C1329.75 933.383 1332.19 936.263 1335.39 936.263ZM1336.08 933.263C1334.26 933.263 1333.06 931.895 1333.06 929.999C1333.06 928.103 1334.26 926.735 1336.08 926.735C1337.91 926.735 1339.11 928.103 1339.11 929.999C1339.11 931.895 1337.91 933.263 1336.08 933.263ZM1345.33 923.999V935.999H1348.61V929.063L1352.07 933.407L1355.5 929.063V935.999H1358.79V923.999H1356.01L1352.05 928.991L1348.11 923.999H1345.33ZM1364.92 935.999L1370.29 928.919V935.999H1373.56V923.999H1370.63L1365.25 931.079V923.999H1361.97V935.999H1364.92Z" fill="black"></path>
<path d="M1279 488.092V425H1362.43C1364.92 438.144 1360.52 464.433 1323 464.433C1303.07 464.433 1279 480.621 1279 488.092Z" fill="white"></path>
<rect x="1279" y="395" width="134" height="69" rx="30" fill="white"></rect>
<path d="M1306.1 438H1309.2L1316.26 420.96H1312.42L1307.66 432.792L1302.84 420.96H1299.07L1306.1 438ZM1318.19 438H1321.67V430.824H1322.51L1328.37 438H1332.57L1326.45 430.44C1328.73 429.744 1329.95 428.304 1329.95 426C1329.95 423.168 1327.89 420.96 1324.72 420.96H1318.19V438ZM1321.67 427.848V424.152H1324.31C1325.63 424.152 1326.5 424.824 1326.5 426C1326.5 427.152 1325.63 427.848 1324.31 427.848H1321.67ZM1336.31 438H1339.91L1341.55 434.112H1348.82L1350.47 438H1354.12L1346.75 420.96H1343.66L1336.31 438ZM1345.19 425.544L1347.52 431.064H1342.84L1345.19 425.544ZM1359.7 438.264C1361.24 438.264 1362.34 437.592 1362.99 436.632V438H1366.28V426H1362.99V431.856C1362.99 434.184 1361.98 435.264 1360.52 435.264C1359.08 435.264 1358.48 434.232 1358.48 432.408V426H1355.19V432.96C1355.19 436.128 1356.82 438.264 1359.7 438.264ZM1375.25 438.144C1376.19 438.144 1376.79 438.048 1377.34 437.88V434.976C1376.96 435.12 1376.5 435.192 1376 435.192C1374.56 435.192 1373.96 434.616 1373.96 433.152V428.88H1377.34V426H1373.96V422.664H1370.67V426H1368.24V428.88H1370.67V433.8C1370.67 436.752 1372.71 438.144 1375.25 438.144ZM1385.04 438.264C1388.52 438.264 1391.35 435.528 1391.35 432C1391.35 428.496 1388.52 425.736 1385.04 425.736C1381.56 425.736 1378.73 428.496 1378.73 432C1378.73 435.528 1381.56 438.264 1385.04 438.264ZM1385.04 435.192C1383.31 435.192 1382.04 433.848 1382.04 432C1382.04 430.152 1383.31 428.808 1385.04 428.808C1386.75 428.808 1388.02 430.152 1388.02 432C1388.02 433.848 1386.75 435.192 1385.04 435.192Z" fill="black"></path>
<path d="M1642 500.092V437H1725.43C1727.92 450.144 1723.52 476.433 1686 476.433C1666.07 476.433 1642 492.621 1642 500.092Z" fill="white"></path>
<rect x="1642" y="378" width="117" height="98" rx="30" fill="white"></rect>
<path d="M1662.02 421H1665.62L1667.26 417.112H1674.53L1676.18 421H1679.83L1672.46 403.96H1669.37L1662.02 421ZM1670.9 408.544L1673.23 414.064H1668.55L1670.9 408.544ZM1684.71 426.016V419.656C1685.26 420.424 1686.53 421.264 1688.19 421.264C1691.38 421.264 1693.83 418.384 1693.83 415C1693.83 411.616 1691.38 408.736 1688.19 408.736C1686.53 408.736 1685.26 409.576 1684.71 410.344V409H1681.42V426.016H1684.71ZM1687.47 418.264C1685.64 418.264 1684.44 416.896 1684.44 415C1684.44 413.104 1685.64 411.736 1687.47 411.736C1689.29 411.736 1690.49 413.104 1690.49 415C1690.49 416.896 1689.29 418.264 1687.47 418.264ZM1701.75 421.264C1704.8 421.264 1707.2 419.512 1707.9 417.088H1704.46C1704.08 417.928 1703.07 418.408 1701.92 418.408C1699.86 418.408 1698.8 417.184 1698.68 415.768H1708.04C1708.23 411.256 1705.28 408.736 1701.78 408.736C1698.13 408.736 1695.46 411.4 1695.46 414.976C1695.46 418.624 1698.08 421.264 1701.75 421.264ZM1701.68 411.4C1702.78 411.4 1704.06 412 1704.44 413.608H1698.8C1699.11 412.264 1700.14 411.4 1701.68 411.4ZM1710.44 421H1713.72V416.392H1718.67V421H1721.96V409H1718.67V413.536H1713.72V409H1710.44V421ZM1730 421.264C1731.66 421.264 1732.91 420.424 1733.46 419.656V421H1736.75V409H1733.46V410.344C1732.91 409.576 1731.66 408.736 1730 408.736C1726.81 408.736 1724.36 411.616 1724.36 415C1724.36 418.384 1726.81 421.264 1730 421.264ZM1730.7 418.264C1728.87 418.264 1727.67 416.896 1727.67 415C1727.67 413.104 1728.87 411.736 1730.7 411.736C1732.52 411.736 1733.72 413.104 1733.72 415C1733.72 416.896 1732.52 418.264 1730.7 418.264ZM1665.65 450H1668.94V432.96H1664.45L1662.05 436.2H1665.65V450ZM1678.42 450.264C1682.14 450.264 1684.76 447.432 1684.76 443.52V439.392C1684.76 435.504 1682.14 432.672 1678.42 432.672C1674.68 432.672 1672.06 435.504 1672.06 439.392V443.52C1672.06 447.432 1674.68 450.264 1678.42 450.264ZM1678.42 447.024C1676.6 447.024 1675.35 445.728 1675.35 443.52V439.392C1675.35 437.184 1676.6 435.912 1678.42 435.912C1680.24 435.912 1681.47 437.184 1681.47 439.392V443.52C1681.47 445.728 1680.24 447.024 1678.42 447.024ZM1693.56 450.264C1697.28 450.264 1699.9 447.432 1699.9 443.52V439.392C1699.9 435.504 1697.28 432.672 1693.56 432.672C1689.82 432.672 1687.2 435.504 1687.2 439.392V443.52C1687.2 447.432 1689.82 450.264 1693.56 450.264ZM1693.56 447.024C1691.74 447.024 1690.49 445.728 1690.49 443.52V439.392C1690.49 437.184 1691.74 435.912 1693.56 435.912C1695.38 435.912 1696.61 437.184 1696.61 439.392V443.52C1696.61 445.728 1695.38 447.024 1693.56 447.024ZM1708.16 438V450H1711.45V443.064L1714.91 447.408L1718.34 443.064V450H1721.63V438H1718.84L1714.88 442.992L1710.95 438H1708.16ZM1731.02 437.856H1727.15C1727.42 437.4 1728.5 436.824 1728.88 436.56C1730.03 435.792 1730.97 434.808 1730.97 432.888C1730.97 430.704 1729.31 429.624 1727.59 429.624C1725.47 429.624 1723.87 431.112 1723.87 433.128H1726.22C1726.19 432.528 1726.67 431.928 1727.51 431.928C1728.26 431.928 1728.62 432.408 1728.62 432.984C1728.62 433.728 1727.87 434.448 1727.11 434.952C1725.57 436.032 1723.82 436.992 1723.82 439.392V440.16H1731.02V437.856Z" fill="black"></path>
<path d="M1516 368.092V305H1599.43C1601.92 318.144 1597.52 344.433 1560 344.433C1540.07 344.433 1516 360.621 1516 368.092Z" fill="white"></path>
<rect x="1516" y="247" width="99" height="98" rx="30" fill="white"></rect>
<path d="M1548.74 290H1553.26L1544.78 281.144L1551.79 272.96H1547.5L1541.35 280.184V272.96H1537.9V290H1541.35V282.272L1548.74 290ZM1564.42 278H1560.8L1557.7 285.512L1554.39 278H1550.79L1555.83 289.328L1555.23 290.72C1554.65 291.968 1553.96 292.376 1553.12 292.376C1552.57 292.376 1552.3 292.352 1551.94 292.328V295.136C1552.4 295.208 1552.88 295.232 1553.55 295.232C1555.88 295.232 1557.32 294.08 1558.45 291.512L1564.42 278ZM1571.85 290.264C1575.4 290.264 1578.13 287.504 1578.13 283.976C1578.13 280.856 1576.05 278.288 1572.47 278.288C1571.22 278.288 1569.97 278.648 1569.01 279.584C1569.33 277.208 1570.86 276.152 1573.55 275.648L1577.03 275.024V271.904L1572.83 272.672C1568.22 273.512 1565.61 275.912 1565.61 282.2V282.896C1565.61 287.408 1567.74 290.264 1571.85 290.264ZM1571.82 287.192C1570.12 287.192 1568.87 286.088 1568.87 284.072C1568.87 282.512 1570.05 281.144 1571.85 281.144C1573.62 281.144 1574.82 282.488 1574.82 284.072C1574.82 286.088 1573.55 287.192 1571.82 287.192ZM1548.6 315.76H1541.54C1541.98 314.68 1543.8 313.672 1544.86 312.928C1547.02 311.344 1548.46 309.856 1548.46 306.928C1548.46 303.472 1545.84 301.672 1542.98 301.672C1539.6 301.672 1537.03 303.952 1537.03 307.312H1540.34C1540.32 305.944 1541.4 304.912 1542.91 304.912C1544.38 304.912 1545.17 305.872 1545.17 307.12C1545.17 308.488 1543.97 309.592 1542.48 310.624C1539.98 312.424 1536.98 314.056 1536.98 317.872V319H1548.6V315.76ZM1556.57 319.264C1560.13 319.264 1562.53 317.056 1562.53 313.648C1562.53 310.192 1560.46 307.768 1557.22 307.768C1556.26 307.768 1555.45 307.984 1554.87 308.344L1555.52 305.152H1561.28V301.96H1552.97L1551.05 311.632L1553.96 312.52C1554.34 311.488 1555.28 310.744 1556.62 310.744C1558.16 310.744 1559.24 311.872 1559.24 313.384C1559.24 314.848 1558.28 316.024 1556.57 316.024C1555.25 316.024 1554.2 315.184 1553.91 314.056H1550.5C1550.62 317.104 1553.45 319.264 1556.57 319.264ZM1570.54 307V319H1573.83V312.064L1577.28 316.408L1580.71 312.064V319H1584V307H1581.22L1577.26 311.992L1573.32 307H1570.54ZM1593.39 306.856H1589.53C1589.79 306.4 1590.87 305.824 1591.26 305.56C1592.41 304.792 1593.35 303.808 1593.35 301.888C1593.35 299.704 1591.69 298.624 1589.96 298.624C1587.85 298.624 1586.24 300.112 1586.24 302.128H1588.59C1588.57 301.528 1589.05 300.928 1589.89 300.928C1590.63 300.928 1590.99 301.408 1590.99 301.984C1590.99 302.728 1590.25 303.448 1589.48 303.952C1587.95 305.032 1586.19 305.992 1586.19 308.392V309.16H1593.39V306.856Z" fill="black"></path>
<path d="M1399 268.092V205H1482.43C1484.92 218.144 1480.52 244.433 1443 244.433C1423.07 244.433 1399 260.621 1399 268.092Z" fill="white"></path>
<rect x="1399" y="176" width="138" height="69" rx="30" fill="white"></rect>
<path d="M1426.1 219H1429.2L1436.26 201.96H1432.42L1427.66 213.792L1422.84 201.96H1419.07L1426.1 219ZM1438.19 219H1441.67V211.824H1442.51L1448.37 219H1452.57L1446.45 211.44C1448.73 210.744 1449.95 209.304 1449.95 207C1449.95 204.168 1447.89 201.96 1444.72 201.96H1438.19V219ZM1441.67 208.848V205.152H1444.31C1445.63 205.152 1446.5 205.824 1446.5 207C1446.5 208.152 1445.63 208.848 1444.31 208.848H1441.67ZM1458.94 201.96V219H1462.42V207.912L1467.65 215.088L1472.88 207.912V219H1476.36V201.96H1473.19L1467.65 209.568L1462.1 201.96H1458.94ZM1485.07 219.264C1488.55 219.264 1491.38 216.528 1491.38 213C1491.38 209.496 1488.55 206.736 1485.07 206.736C1481.59 206.736 1478.76 209.496 1478.76 213C1478.76 216.528 1481.59 219.264 1485.07 219.264ZM1485.07 216.192C1483.34 216.192 1482.07 214.848 1482.07 213C1482.07 211.152 1483.34 209.808 1485.07 209.808C1486.78 209.808 1488.05 211.152 1488.05 213C1488.05 214.848 1486.78 216.192 1485.07 216.192ZM1499.31 219.144C1500.24 219.144 1500.84 219.048 1501.39 218.88V215.976C1501.01 216.12 1500.55 216.192 1500.05 216.192C1498.61 216.192 1498.01 215.616 1498.01 214.152V209.88H1501.39V207H1498.01V203.664H1494.72V207H1492.3V209.88H1494.72V214.8C1494.72 217.752 1496.76 219.144 1499.31 219.144ZM1509.1 219.264C1512.58 219.264 1515.41 216.528 1515.41 213C1515.41 209.496 1512.58 206.736 1509.1 206.736C1505.62 206.736 1502.78 209.496 1502.78 213C1502.78 216.528 1505.62 219.264 1509.1 219.264ZM1509.1 216.192C1507.37 216.192 1506.1 214.848 1506.1 213C1506.1 211.152 1507.37 209.808 1509.1 209.808C1510.8 209.808 1512.07 211.152 1512.07 213C1512.07 214.848 1510.8 216.192 1509.1 216.192Z" fill="black"></path>
<path d="M1304 760V697H1387.43C1389.92 710.125 1385.52 736.375 1348 736.375C1328.07 736.375 1304 752.539 1304 760Z" fill="white"></path>
<rect x="1304" y="638" width="99" height="98" rx="30" fill="white"></rect>
<path d="M1336.74 681H1341.26L1332.78 672.144L1339.79 663.96H1335.5L1329.35 671.184V663.96H1325.9V681H1329.35V673.272L1336.74 681ZM1352.42 669H1348.8L1345.7 676.512L1342.39 669H1338.79L1343.83 680.328L1343.23 681.72C1342.65 682.968 1341.96 683.376 1341.12 683.376C1340.57 683.376 1340.3 683.352 1339.94 683.328V686.136C1340.4 686.208 1340.88 686.232 1341.55 686.232C1343.88 686.232 1345.32 685.08 1346.45 682.512L1352.42 669ZM1359.85 681.264C1363.4 681.264 1366.13 678.504 1366.13 674.976C1366.13 671.856 1364.05 669.288 1360.47 669.288C1359.22 669.288 1357.97 669.648 1357.01 670.584C1357.33 668.208 1358.86 667.152 1361.55 666.648L1365.03 666.024V662.904L1360.83 663.672C1356.22 664.512 1353.61 666.912 1353.61 673.2V673.896C1353.61 678.408 1355.74 681.264 1359.85 681.264ZM1359.82 678.192C1358.12 678.192 1356.87 677.088 1356.87 675.072C1356.87 673.512 1358.05 672.144 1359.85 672.144C1361.62 672.144 1362.82 673.488 1362.82 675.072C1362.82 677.088 1361.55 678.192 1359.82 678.192ZM1336.6 706.76H1329.54C1329.98 705.68 1331.8 704.672 1332.86 703.928C1335.02 702.344 1336.46 700.856 1336.46 697.928C1336.46 694.472 1333.84 692.672 1330.98 692.672C1327.6 692.672 1325.03 694.952 1325.03 698.312H1328.34C1328.32 696.944 1329.4 695.912 1330.91 695.912C1332.38 695.912 1333.17 696.872 1333.17 698.12C1333.17 699.488 1331.97 700.592 1330.48 701.624C1327.98 703.424 1324.98 705.056 1324.98 708.872V710H1336.6V706.76ZM1344.57 710.264C1348.13 710.264 1350.53 708.056 1350.53 704.648C1350.53 701.192 1348.46 698.768 1345.22 698.768C1344.26 698.768 1343.45 698.984 1342.87 699.344L1343.52 696.152H1349.28V692.96H1340.97L1339.05 702.632L1341.96 703.52C1342.34 702.488 1343.28 701.744 1344.62 701.744C1346.16 701.744 1347.24 702.872 1347.24 704.384C1347.24 705.848 1346.28 707.024 1344.57 707.024C1343.25 707.024 1342.2 706.184 1341.91 705.056H1338.5C1338.62 708.104 1341.45 710.264 1344.57 710.264ZM1358.54 698V710H1361.83V703.064L1365.28 707.408L1368.71 703.064V710H1372V698H1369.22L1365.26 702.992L1361.32 698H1358.54ZM1381.39 697.856H1377.53C1377.79 697.4 1378.87 696.824 1379.26 696.56C1380.41 695.792 1381.35 694.808 1381.35 692.888C1381.35 690.704 1379.69 689.624 1377.96 689.624C1375.85 689.624 1374.24 691.112 1374.24 693.128H1376.59C1376.57 692.528 1377.05 691.928 1377.89 691.928C1378.63 691.928 1378.99 692.408 1378.99 692.984C1378.99 693.728 1378.25 694.448 1377.48 694.952C1375.95 696.032 1374.19 696.992 1374.19 699.392V700.16H1381.39V697.856Z" fill="black"></path>
<defs>
<filter id="filter0_d_1712_6993" x="1094.92" y="546.296" width="69.5979" height="43.5636" filterUnits="userSpaceOnUse" color-interpolation-filters="sRGB">
<feFlood flood-opacity="0" result="BackgroundImageFix"></feFlood>
<feColorMatrix in="SourceAlpha" type="matrix" values="0 0 0 0 0 0 0 0 0 0 0 0 0 0 0 0 0 0 127 0" result="hardAlpha"></feColorMatrix>
<feOffset></feOffset>
<feGaussianBlur stdDeviation="2"></feGaussianBlur>
<feComposite in2="hardAlpha" operator="out"></feComposite>
<feColorMatrix type="matrix" values="0 0 0 0 0 0 0 0 0 0 0 0 0 0 0 0 0 0 0.25 0"></feColorMatrix>
<feBlend mode="normal" in2="BackgroundImageFix" result="effect1_dropShadow_1712_6993"></feBlend>
<feBlend mode="normal" in="SourceGraphic" in2="effect1_dropShadow_1712_6993" result="shape"></feBlend>
</filter>
<filter id="filter1_d_1712_6993" x="1103.25" y="550.81" width="57.9324" height="36.8284" filterUnits="userSpaceOnUse" color-interpolation-filters="sRGB">
<feFlood flood-opacity="0" result="BackgroundImageFix"></feFlood>
<feColorMatrix in="SourceAlpha" type="matrix" values="0 0 0 0 0 0 0 0 0 0 0 0 0 0 0 0 0 0 127 0" result="hardAlpha"></feColorMatrix>
<feOffset></feOffset>
<feGaussianBlur stdDeviation="2"></feGaussianBlur>
<feComposite in2="hardAlpha" operator="out"></feComposite>
<feColorMatrix type="matrix" values="0 0 0 0 0 0 0 0 0 0 0 0 0 0 0 0 0 0 0.25 0"></feColorMatrix>
<feBlend mode="normal" in2="BackgroundImageFix" result="effect1_dropShadow_1712_6993"></feBlend>
<feBlend mode="normal" in="SourceGraphic" in2="effect1_dropShadow_1712_6993" result="shape"></feBlend>
</filter>
<filter id="filter2_d_1712_6993" x="1152.95" y="512.796" width="69.5979" height="43.5636" filterUnits="userSpaceOnUse" color-interpolation-filters="sRGB">
<feFlood flood-opacity="0" result="BackgroundImageFix"></feFlood>
<feColorMatrix in="SourceAlpha" type="matrix" values="0 0 0 0 0 0 0 0 0 0 0 0 0 0 0 0 0 0 127 0" result="hardAlpha"></feColorMatrix>
<feOffset></feOffset>
<feGaussianBlur stdDeviation="2"></feGaussianBlur>
<feComposite in2="hardAlpha" operator="out"></feComposite>
<feColorMatrix type="matrix" values="0 0 0 0 0 0 0 0 0 0 0 0 0 0 0 0 0 0 0.25 0"></feColorMatrix>
<feBlend mode="normal" in2="BackgroundImageFix" result="effect1_dropShadow_1712_6993"></feBlend>
<feBlend mode="normal" in="SourceGraphic" in2="effect1_dropShadow_1712_6993" result="shape"></feBlend>
</filter>
<filter id="filter3_d_1712_6993" x="1161.27" y="517.31" width="57.9324" height="36.8284" filterUnits="userSpaceOnUse" color-interpolation-filters="sRGB">
<feFlood flood-opacity="0" result="BackgroundImageFix"></feFlood>
<feColorMatrix in="SourceAlpha" type="matrix" values="0 0 0 0 0 0 0 0 0 0 0 0 0 0 0 0 0 0 127 0" result="hardAlpha"></feColorMatrix>
<feOffset></feOffset>
<feGaussianBlur stdDeviation="2"></feGaussianBlur>
<feComposite in2="hardAlpha" operator="out"></feComposite>
<feColorMatrix type="matrix" values="0 0 0 0 0 0 0 0 0 0 0 0 0 0 0 0 0 0 0.25 0"></feColorMatrix>
<feBlend mode="normal" in2="BackgroundImageFix" result="effect1_dropShadow_1712_6993"></feBlend>
<feBlend mode="normal" in="SourceGraphic" in2="effect1_dropShadow_1712_6993" result="shape"></feBlend>
</filter>
<filter id="filter4_d_1712_6993" x="1054.22" y="865.964" width="94.7256" height="72.5717" filterUnits="userSpaceOnUse" color-interpolation-filters="sRGB">
<feFlood flood-opacity="0" result="BackgroundImageFix"></feFlood>
<feColorMatrix in="SourceAlpha" type="matrix" values="0 0 0 0 0 0 0 0 0 0 0 0 0 0 0 0 0 0 127 0" result="hardAlpha"></feColorMatrix>
<feOffset></feOffset>
<feGaussianBlur stdDeviation="2"></feGaussianBlur>
<feComposite in2="hardAlpha" operator="out"></feComposite>
<feColorMatrix type="matrix" values="0 0 0 0 0 0 0 0 0 0 0 0 0 0 0 0 0 0 0.25 0"></feColorMatrix>
<feBlend mode="normal" in2="BackgroundImageFix" result="effect1_dropShadow_1712_6993"></feBlend>
<feBlend mode="normal" in="SourceGraphic" in2="effect1_dropShadow_1712_6993" result="shape"></feBlend>
</filter>
<filter id="filter5_d_1712_6993" x="1061.36" y="873.586" width="39.7458" height="26.3284" filterUnits="userSpaceOnUse" color-interpolation-filters="sRGB">
<feFlood flood-opacity="0" result="BackgroundImageFix"></feFlood>
<feColorMatrix in="SourceAlpha" type="matrix" values="0 0 0 0 0 0 0 0 0 0 0 0 0 0 0 0 0 0 127 0" result="hardAlpha"></feColorMatrix>
<feOffset></feOffset>
<feGaussianBlur stdDeviation="2"></feGaussianBlur>
<feComposite in2="hardAlpha" operator="out"></feComposite>
<feColorMatrix type="matrix" values="0 0 0 0 0 0 0 0 0 0 0 0 0 0 0 0 0 0 0.25 0"></feColorMatrix>
<feBlend mode="normal" in2="BackgroundImageFix" result="effect1_dropShadow_1712_6993"></feBlend>
<feBlend mode="normal" in="SourceGraphic" in2="effect1_dropShadow_1712_6993" result="shape"></feBlend>
</filter>
<filter id="filter6_d_1712_6993" x="1081.28" y="885.086" width="38.0137" height="25.3284" filterUnits="userSpaceOnUse" color-interpolation-filters="sRGB">
<feFlood flood-opacity="0" result="BackgroundImageFix"></feFlood>
<feColorMatrix in="SourceAlpha" type="matrix" values="0 0 0 0 0 0 0 0 0 0 0 0 0 0 0 0 0 0 127 0" result="hardAlpha"></feColorMatrix>
<feOffset></feOffset>
<feGaussianBlur stdDeviation="2"></feGaussianBlur>
<feComposite in2="hardAlpha" operator="out"></feComposite>
<feColorMatrix type="matrix" values="0 0 0 0 0 0 0 0 0 0 0 0 0 0 0 0 0 0 0.25 0"></feColorMatrix>
<feBlend mode="normal" in2="BackgroundImageFix" result="effect1_dropShadow_1712_6993"></feBlend>
<feBlend mode="normal" in="SourceGraphic" in2="effect1_dropShadow_1712_6993" result="shape"></feBlend>
</filter>
<filter id="filter7_d_1712_6993" x="1099.47" y="895.586" width="39.7458" height="26.3284" filterUnits="userSpaceOnUse" color-interpolation-filters="sRGB">
<feFlood flood-opacity="0" result="BackgroundImageFix"></feFlood>
<feColorMatrix in="SourceAlpha" type="matrix" values="0 0 0 0 0 0 0 0 0 0 0 0 0 0 0 0 0 0 127 0" result="hardAlpha"></feColorMatrix>
<feOffset></feOffset>
<feGaussianBlur stdDeviation="2"></feGaussianBlur>
<feComposite in2="hardAlpha" operator="out"></feComposite>
<feColorMatrix type="matrix" values="0 0 0 0 0 0 0 0 0 0 0 0 0 0 0 0 0 0 0.25 0"></feColorMatrix>
<feBlend mode="normal" in2="BackgroundImageFix" result="effect1_dropShadow_1712_6993"></feBlend>
<feBlend mode="normal" in="SourceGraphic" in2="effect1_dropShadow_1712_6993" result="shape"></feBlend>
</filter>
<filter id="filter8_d_1712_6993" x="1079.55" y="905.586" width="42.3438" height="27.8284" filterUnits="userSpaceOnUse" color-interpolation-filters="sRGB">
<feFlood flood-opacity="0" result="BackgroundImageFix"></feFlood>
<feColorMatrix in="SourceAlpha" type="matrix" values="0 0 0 0 0 0 0 0 0 0 0 0 0 0 0 0 0 0 127 0" result="hardAlpha"></feColorMatrix>
<feOffset></feOffset>
<feGaussianBlur stdDeviation="2"></feGaussianBlur>
<feComposite in2="hardAlpha" operator="out"></feComposite>
<feColorMatrix type="matrix" values="0 0 0 0 0 0 0 0 0 0 0 0 0 0 0 0 0 0 0.25 0"></feColorMatrix>
<feBlend mode="normal" in2="BackgroundImageFix" result="effect1_dropShadow_1712_6993"></feBlend>
<feBlend mode="normal" in="SourceGraphic" in2="effect1_dropShadow_1712_6993" result="shape"></feBlend>
</filter>
</defs>
</svg>
