<?xml version="1.0" encoding="UTF-8" standalone="no"?>
<!-- Created with Inkscape (http://www.inkscape.org/) -->

<svg width="1181" height="872" viewBox="0 0 312.47298 230.71678" version="1.1" id="svg5" xml:space="preserve" xmlns="http://www.w3.org/2000/svg" xmlns:svg="http://www.w3.org/2000/svg"><defs id="defs2"><filter id="filter0_d_1712_6993" x="1094.92" y="546.29602" width="69.5979" height="43.563599" filterUnits="userSpaceOnUse" color-interpolation-filters="sRGB"><feFlood flood-opacity="0" result="BackgroundImageFix" id="feFlood265"></feFlood><feColorMatrix in="SourceAlpha" type="matrix" values="0 0 0 0 0 0 0 0 0 0 0 0 0 0 0 0 0 0 127 0" result="hardAlpha" id="feColorMatrix267"></feColorMatrix><feOffset id="feOffset269"></feOffset><feGaussianBlur stdDeviation="2" id="feGaussianBlur271"></feGaussianBlur><feComposite in2="hardAlpha" operator="out" id="feComposite273"></feComposite><feColorMatrix type="matrix" values="0 0 0 0 0 0 0 0 0 0 0 0 0 0 0 0 0 0 0.25 0" id="feColorMatrix275"></feColorMatrix><feBlend mode="normal" in2="BackgroundImageFix" result="effect1_dropShadow_1712_6993" id="feBlend277"></feBlend><feBlend mode="normal" in="SourceGraphic" in2="effect1_dropShadow_1712_6993" result="shape" id="feBlend279"></feBlend></filter><filter id="filter1_d_1712_6993" x="1103.25" y="550.81" width="57.9324" height="36.8284" filterUnits="userSpaceOnUse" color-interpolation-filters="sRGB"><feFlood flood-opacity="0" result="BackgroundImageFix" id="feFlood282"></feFlood><feColorMatrix in="SourceAlpha" type="matrix" values="0 0 0 0 0 0 0 0 0 0 0 0 0 0 0 0 0 0 127 0" result="hardAlpha" id="feColorMatrix284"></feColorMatrix><feOffset id="feOffset286"></feOffset><feGaussianBlur stdDeviation="2" id="feGaussianBlur288"></feGaussianBlur><feComposite in2="hardAlpha" operator="out" id="feComposite290"></feComposite><feColorMatrix type="matrix" values="0 0 0 0 0 0 0 0 0 0 0 0 0 0 0 0 0 0 0.25 0" id="feColorMatrix292"></feColorMatrix><feBlend mode="normal" in2="BackgroundImageFix" result="effect1_dropShadow_1712_6993" id="feBlend294"></feBlend><feBlend mode="normal" in="SourceGraphic" in2="effect1_dropShadow_1712_6993" result="shape" id="feBlend296"></feBlend></filter><filter id="filter2_d_1712_6993" x="1152.95" y="512.79602" width="69.5979" height="43.563599" filterUnits="userSpaceOnUse" color-interpolation-filters="sRGB"><feFlood flood-opacity="0" result="BackgroundImageFix" id="feFlood299"></feFlood><feColorMatrix in="SourceAlpha" type="matrix" values="0 0 0 0 0 0 0 0 0 0 0 0 0 0 0 0 0 0 127 0" result="hardAlpha" id="feColorMatrix301"></feColorMatrix><feOffset id="feOffset303"></feOffset><feGaussianBlur stdDeviation="2" id="feGaussianBlur305"></feGaussianBlur><feComposite in2="hardAlpha" operator="out" id="feComposite307"></feComposite><feColorMatrix type="matrix" values="0 0 0 0 0 0 0 0 0 0 0 0 0 0 0 0 0 0 0.25 0" id="feColorMatrix309"></feColorMatrix><feBlend mode="normal" in2="BackgroundImageFix" result="effect1_dropShadow_1712_6993" id="feBlend311"></feBlend><feBlend mode="normal" in="SourceGraphic" in2="effect1_dropShadow_1712_6993" result="shape" id="feBlend313"></feBlend></filter><filter id="filter3_d_1712_6993" x="1161.27" y="517.31" width="57.9324" height="36.8284" filterUnits="userSpaceOnUse" color-interpolation-filters="sRGB"><feFlood flood-opacity="0" result="BackgroundImageFix" id="feFlood316"></feFlood><feColorMatrix in="SourceAlpha" type="matrix" values="0 0 0 0 0 0 0 0 0 0 0 0 0 0 0 0 0 0 127 0" result="hardAlpha" id="feColorMatrix318"></feColorMatrix><feOffset id="feOffset320"></feOffset><feGaussianBlur stdDeviation="2" id="feGaussianBlur322"></feGaussianBlur><feComposite in2="hardAlpha" operator="out" id="feComposite324"></feComposite><feColorMatrix type="matrix" values="0 0 0 0 0 0 0 0 0 0 0 0 0 0 0 0 0 0 0.25 0" id="feColorMatrix326"></feColorMatrix><feBlend mode="normal" in2="BackgroundImageFix" result="effect1_dropShadow_1712_6993" id="feBlend328"></feBlend><feBlend mode="normal" in="SourceGraphic" in2="effect1_dropShadow_1712_6993" result="shape" id="feBlend330"></feBlend></filter><filter id="filter4_d_1712_6993" x="1054.22" y="865.96399" width="94.725601" height="72.571701" filterUnits="userSpaceOnUse" color-interpolation-filters="sRGB"><feFlood flood-opacity="0" result="BackgroundImageFix" id="feFlood333"></feFlood><feColorMatrix in="SourceAlpha" type="matrix" values="0 0 0 0 0 0 0 0 0 0 0 0 0 0 0 0 0 0 127 0" result="hardAlpha" id="feColorMatrix335"></feColorMatrix><feOffset id="feOffset337"></feOffset><feGaussianBlur stdDeviation="2" id="feGaussianBlur339"></feGaussianBlur><feComposite in2="hardAlpha" operator="out" id="feComposite341"></feComposite><feColorMatrix type="matrix" values="0 0 0 0 0 0 0 0 0 0 0 0 0 0 0 0 0 0 0.25 0" id="feColorMatrix343"></feColorMatrix><feBlend mode="normal" in2="BackgroundImageFix" result="effect1_dropShadow_1712_6993" id="feBlend345"></feBlend><feBlend mode="normal" in="SourceGraphic" in2="effect1_dropShadow_1712_6993" result="shape" id="feBlend347"></feBlend></filter><filter id="filter5_d_1712_6993" x="1061.36" y="873.586" width="39.7458" height="26.3284" filterUnits="userSpaceOnUse" color-interpolation-filters="sRGB"><feFlood flood-opacity="0" result="BackgroundImageFix" id="feFlood350"></feFlood><feColorMatrix in="SourceAlpha" type="matrix" values="0 0 0 0 0 0 0 0 0 0 0 0 0 0 0 0 0 0 127 0" result="hardAlpha" id="feColorMatrix352"></feColorMatrix><feOffset id="feOffset354"></feOffset><feGaussianBlur stdDeviation="2" id="feGaussianBlur356"></feGaussianBlur><feComposite in2="hardAlpha" operator="out" id="feComposite358"></feComposite><feColorMatrix type="matrix" values="0 0 0 0 0 0 0 0 0 0 0 0 0 0 0 0 0 0 0.25 0" id="feColorMatrix360"></feColorMatrix><feBlend mode="normal" in2="BackgroundImageFix" result="effect1_dropShadow_1712_6993" id="feBlend362"></feBlend><feBlend mode="normal" in="SourceGraphic" in2="effect1_dropShadow_1712_6993" result="shape" id="feBlend364"></feBlend></filter><filter id="filter6_d_1712_6993" x="1081.28" y="885.086" width="38.013699" height="25.3284" filterUnits="userSpaceOnUse" color-interpolation-filters="sRGB"><feFlood flood-opacity="0" result="BackgroundImageFix" id="feFlood367"></feFlood><feColorMatrix in="SourceAlpha" type="matrix" values="0 0 0 0 0 0 0 0 0 0 0 0 0 0 0 0 0 0 127 0" result="hardAlpha" id="feColorMatrix369"></feColorMatrix><feOffset id="feOffset371"></feOffset><feGaussianBlur stdDeviation="2" id="feGaussianBlur373"></feGaussianBlur><feComposite in2="hardAlpha" operator="out" id="feComposite375"></feComposite><feColorMatrix type="matrix" values="0 0 0 0 0 0 0 0 0 0 0 0 0 0 0 0 0 0 0.25 0" id="feColorMatrix377"></feColorMatrix><feBlend mode="normal" in2="BackgroundImageFix" result="effect1_dropShadow_1712_6993" id="feBlend379"></feBlend><feBlend mode="normal" in="SourceGraphic" in2="effect1_dropShadow_1712_6993" result="shape" id="feBlend381"></feBlend></filter><filter id="filter7_d_1712_6993" x="1099.47" y="895.586" width="39.7458" height="26.3284" filterUnits="userSpaceOnUse" color-interpolation-filters="sRGB"><feFlood flood-opacity="0" result="BackgroundImageFix" id="feFlood384"></feFlood><feColorMatrix in="SourceAlpha" type="matrix" values="0 0 0 0 0 0 0 0 0 0 0 0 0 0 0 0 0 0 127 0" result="hardAlpha" id="feColorMatrix386"></feColorMatrix><feOffset id="feOffset388"></feOffset><feGaussianBlur stdDeviation="2" id="feGaussianBlur390"></feGaussianBlur><feComposite in2="hardAlpha" operator="out" id="feComposite392"></feComposite><feColorMatrix type="matrix" values="0 0 0 0 0 0 0 0 0 0 0 0 0 0 0 0 0 0 0.25 0" id="feColorMatrix394"></feColorMatrix><feBlend mode="normal" in2="BackgroundImageFix" result="effect1_dropShadow_1712_6993" id="feBlend396"></feBlend><feBlend mode="normal" in="SourceGraphic" in2="effect1_dropShadow_1712_6993" result="shape" id="feBlend398"></feBlend></filter><filter id="filter8_d_1712_6993" x="1079.55" y="905.586" width="42.3438" height="27.8284" filterUnits="userSpaceOnUse" color-interpolation-filters="sRGB"><feFlood flood-opacity="0" result="BackgroundImageFix" id="feFlood401"></feFlood><feColorMatrix in="SourceAlpha" type="matrix" values="0 0 0 0 0 0 0 0 0 0 0 0 0 0 0 0 0 0 127 0" result="hardAlpha" id="feColorMatrix403"></feColorMatrix><feOffset id="feOffset405"></feOffset><feGaussianBlur stdDeviation="2" id="feGaussianBlur407"></feGaussianBlur><feComposite in2="hardAlpha" operator="out" id="feComposite409"></feComposite><feColorMatrix type="matrix" values="0 0 0 0 0 0 0 0 0 0 0 0 0 0 0 0 0 0 0.25 0" id="feColorMatrix411"></feColorMatrix><feBlend mode="normal" in2="BackgroundImageFix" result="effect1_dropShadow_1712_6993" id="feBlend413"></feBlend><feBlend mode="normal" in="SourceGraphic" in2="effect1_dropShadow_1712_6993" result="shape" id="feBlend415"></feBlend></filter></defs><g id="layer1"><g style="fill: none" id="g633" transform="matrix(0.26458333,0,0,0.26458333,-189.27501,-43.884695)"><path d="m 732.657,971.5 13.857,8 m 58.024,33.5 9.526,5.5" stroke="#37aee2" stroke-width="10" stroke-linecap="round" stroke-linejoin="round" id="path9"></path><path d="m 1191.27,329.294 73.97,-42.706 -19.27,-11.125 m 38.54,-22.255 19.27,11.125 80.74,-46.615" stroke="#37aee2" stroke-width="10" stroke-linecap="round" stroke-linejoin="round" id="path11"></path><path d="m 1126.58,839.899 86.47,-49.923 79.16,45.702 m -273.94,-102.823 90.61,52.317" stroke="#37aee2" stroke-width="10" stroke-linecap="round" stroke-linejoin="round" id="path13"></path><path d="m 1191.27,329.294 159.88,92.306 -400.576,231.271 98.426,56.827 -118.244,68.269 97.904,56.526 -90.113,52.028 -28.643,-16.536 -177.627,102.553 m 654.853,-756.324 491.61,283.835 -711.56,410.822 m -350.537,110.379 196.897,-113.684 79.68,46.003 73.96,-42.698 m 0,0 -79.68,-46.003" stroke="#000000" stroke-width="10" stroke-linecap="round" stroke-linejoin="round" id="path15"></path><rect width="244.203" height="248.957" rx="10" transform="matrix(0.866025,-0.5,0.866025,0.5,1205.27,628.497)" fill="#ce2127" id="rect17" x="0" y="0"></rect><rect width="244.203" height="248.957" rx="10" transform="matrix(0.866025,-0.5,0.866025,0.5,1428.22,499.779)" fill="#ce2127" id="rect19" x="0" y="0"></rect><rect width="125.109" height="127.485" rx="10" transform="matrix(0.866025,-0.5,0.866025,0.5,1404.69,366.5)" fill="#ce2127" id="rect21" x="0" y="0"></rect><rect width="125.109" height="127.485" rx="10" transform="matrix(0.866025,-0.5,0.866025,0.5,1190.78,759)" fill="#ce2127" id="rect23" x="0" y="0"></rect><rect x="0.86602497" width="49.524799" height="29.0672" rx="4.5" transform="matrix(0.866025,-0.5,0.866025,0.5,1398.13,482.773)" stroke="#000000" id="rect25" y="0"></rect><rect x="0.86602497" width="49.524799" height="29.0672" rx="4.5" transform="matrix(0.866025,-0.5,0.866025,0.5,1207.48,592.845)" stroke="#000000" id="rect27" y="0"></rect><rect width="58.651402" height="23.4422" rx="5" transform="matrix(1.18298,-0.183082,0.316867,0.683031,1352.08,267.262)" fill="#ce2127" id="rect29" x="0" y="0"></rect><rect width="58.651402" height="23.4422" rx="5" transform="matrix(1.18298,-0.183082,0.316867,0.683031,1397.78,293.649)" fill="#ce2127" id="rect31" x="0" y="0"></rect><rect x="0.86602497" width="20.6535" height="48.3102" rx="4.5" transform="matrix(0.866025,-0.5,0.866025,0.5,1237.74,330.024)" stroke="#000000" id="rect33" y="0"></rect><rect width="42.104" height="54.120998" rx="5" transform="matrix(0.866025,-0.5,0.866025,0.5,1246.44,489.866)" fill="#ce2127" id="rect35" x="0" y="0"></rect><rect width="42.104" height="54.120998" rx="5" transform="matrix(0.866025,-0.5,0.866025,0.5,1023.5,618.584)" fill="#ce2127" id="rect37" x="0" y="0"></rect><rect x="0.86602497" width="91.6287" height="24.2565" rx="1.5" transform="matrix(0.866025,-0.5,0.866025,0.5,828.036,926.933)" stroke="#000000" id="rect39" y="0"></rect><g filter="url('#filter0_d_1712_6993')" id="g43"><rect x="0.86602497" width="54.336601" height="20.648399" rx="4.5" transform="matrix(0.866025,-0.5,0.866025,0.5,1096.5,576.933)" stroke="#000000" shape-rendering="crispEdges" id="rect41" y="0"></rect></g><g filter="url('#filter1_d_1712_6993')" id="g47"><rect x="0.86602497" width="43" height="15" rx="1.5" transform="matrix(0.866025,-0.5,0.866025,0.5,1106.35,576.658)" stroke="#000000" shape-rendering="crispEdges" id="rect45" y="0"></rect></g><g filter="url('#filter2_d_1712_6993')" id="g51"><rect x="0.86602497" width="54.336601" height="20.648399" rx="4.5" transform="matrix(0.866025,-0.5,0.866025,0.5,1154.53,543.433)" stroke="#000000" shape-rendering="crispEdges" id="rect49" y="0"></rect></g><g filter="url('#filter3_d_1712_6993')" id="g55"><rect x="0.86602497" width="43" height="15" rx="1.5" transform="matrix(0.866025,-0.5,0.866025,0.5,1164.37,543.158)" stroke="#000000" shape-rendering="crispEdges" id="rect53" y="0"></rect></g><path d="m 1305.89,555.938 -6.18,-13.3 c -0.61,-1.315 1.48,-2.518 3.75,-2.165 l 23.04,3.563 c 1.65,0.256 2.58,1.222 2,2.093 -1.62,2.416 -4.12,4.681 -7.5,6.632 -3.38,1.951 -7.3,3.394 -11.49,4.33 -1.51,0.337 -3.18,-0.199 -3.62,-1.153 z" stroke="#000000" id="path57"></path><path d="m 1334.44,520.562 14.38,10.986 c 1.42,1.086 0.27,2.653 -2.07,2.82 l -23.67,1.696 c -1.7,0.122 -3.19,-0.572 -3.21,-1.507 -0.07,-2.59 0.77,-5.231 2.63,-7.772 1.86,-2.54 4.56,-4.729 7.83,-6.504 1.18,-0.64 3.08,-0.506 4.11,0.281 z" stroke="#000000" id="path59"></path><path d="m 1174.61,703.895 -6.18,-13.301 c -0.61,-1.314 1.48,-2.517 3.75,-2.165 l 23.04,3.564 c 1.65,0.256 2.58,1.222 2,2.093 -1.62,2.416 -4.12,4.681 -7.5,6.632 -3.38,1.951 -7.3,3.394 -11.49,4.33 -1.51,0.337 -3.18,-0.199 -3.62,-1.153 z" stroke="#000000" id="path61"></path><path d="m 1133,679.876 23.04,3.563 c 2.28,0.353 4.36,-0.85 3.75,-2.165 l -6.17,-13.301 c -0.44,-0.953 -2.12,-1.489 -3.63,-1.152 -4.18,0.936 -8.11,2.379 -11.48,4.33 -3.38,1.951 -5.88,4.216 -7.5,6.632 -0.59,0.871 0.34,1.837 1.99,2.093 z" stroke="#000000" id="path63"></path><path d="m 1143.18,699.726 16.86,-9.74 c 1.67,-0.962 4.52,-0.522 5.13,0.793 l 6.17,13.301 c 0.44,0.953 -0.55,1.901 -2.15,2.044 -4.43,0.398 -9.08,0.282 -13.69,-0.432 -4.62,-0.714 -8.74,-1.954 -12.24,-3.578 -1.26,-0.586 -1.29,-1.69 -0.08,-2.388 z" stroke="#000000" id="path65"></path><path d="m 1157.93,668.39 6.17,13.301 c 0.61,1.315 3.45,1.755 5.12,0.793 l 16.87,-9.739 c 1.21,-0.699 1.17,-1.803 -0.09,-2.389 -3.49,-1.624 -7.62,-2.864 -12.23,-3.578 -4.62,-0.713 -9.26,-0.83 -13.7,-0.432 -1.6,0.143 -2.58,1.091 -2.14,2.044 z" stroke="#000000" id="path67"></path><path d="m 1132.68,681.764 23.04,3.562 c 2.28,0.352 3.04,1.995 1.37,2.957 l -16.87,9.738 c -1.2,0.698 -3.12,0.679 -4.13,-0.048 -2.82,-2.018 -4.96,-4.4 -6.2,-7.065 -1.24,-2.664 -1.44,-5.347 -0.75,-7.907 0.25,-0.924 1.89,-1.492 3.54,-1.237 z" stroke="#000000" id="path69"></path><path d="m 1188,673.848 -16.87,9.737 c -1.67,0.963 -0.9,2.606 1.37,2.958 l 23.04,3.562 c 1.65,0.255 3.29,-0.314 3.54,-1.237 0.69,-2.56 0.49,-5.243 -0.75,-7.908 -1.23,-2.664 -3.38,-5.046 -6.19,-7.064 -1.02,-0.728 -2.93,-0.746 -4.14,-0.048 z" stroke="#000000" id="path71"></path><path d="m 1373.66,508.845 -5.18,13.444 c -0.51,1.328 -3.32,1.839 -5.06,0.919 l -17.57,-9.309 c -1.26,-0.667 -1.31,-1.772 -0.09,-2.389 3.37,-1.71 7.4,-3.051 11.96,-3.88 4.55,-0.828 9.19,-1.061 13.65,-0.774 1.6,0.103 2.66,1.026 2.29,1.989 z" stroke="#000000" id="path73"></path><g filter="url('#filter4_d_1712_6993')" id="g77"><path d="m 1060.45,878.75 12.99,-7.5 c 2.15,-1.243 5.64,-1.243 7.79,0 l 0.12,0.069 0.12,0.069 0.12,0.069 0.12,0.069 0.12,0.069 0.12,0.069 0.12,0.069 0.12,0.07 0.12,0.069 0.12,0.069 0.12,0.069 0.12,0.069 0.12,0.069 0.12,0.069 0.12,0.069 0.12,0.069 0.12,0.069 0.12,0.07 0.12,0.069 0.12,0.069 0.12,0.069 0.12,0.069 0.12,0.069 0.12,0.069 0.11,0.069 0.12,0.07 0.12,0.069 0.12,0.069 0.12,0.069 0.12,0.069 0.12,0.069 0.12,0.07 0.12,0.069 0.12,0.069 0.12,0.069 0.12,0.069 0.12,0.069 0.12,0.07 0.12,0.069 0.12,0.069 0.12,0.069 0.12,0.069 0.12,0.069 0.12,0.07 0.12,0.069 0.12,0.069 0.12,0.069 0.12,0.069 0.12,0.07 0.12,0.069 0.12,0.069 0.12,0.069 0.12,0.069 0.12,0.07 0.12,0.069 0.12,0.069 0.12,0.069 0.12,0.07 0.12,0.069 0.12,0.069 0.12,0.069 0.12,0.069 0.12,0.07 0.12,0.069 0.12,0.069 0.12,0.069 0.12,0.07 0.12,0.069 0.12,0.069 0.12,0.069 0.12,0.07 0.12,0.069 0.12,0.069 0.12,0.069 0.12,0.07 0.12,0.069 0.12,0.069 0.12,0.07 0.12,0.069 0.12,0.069 0.12,0.069 0.12,0.07 0.12,0.069 0.12,0.069 0.12,0.069 0.12,0.07 0.12,0.069 0.12,0.069 0.12,0.07 0.12,0.069 0.12,0.069 0.12,0.07 0.12,0.069 0.12,0.069 0.12,0.069 0.12,0.07 0.12,0.069 0.12,0.069 0.12,0.07 0.12,0.069 0.12,0.069 0.12,0.07 0.12,0.069 0.12,0.069 0.12,0.07 0.12,0.069 0.12,0.069 0.12,0.07 0.12,0.069 0.12,0.069 0.12,0.07 0.12,0.069 0.12,0.069 0.12,0.07 0.12,0.069 0.12,0.069 0.12,0.07 0.12,0.069 0.12,0.069 0.12,0.07 0.12,0.069 0.12,0.07 0.12,0.069 0.12,0.069 0.12,0.07 0.12,0.069 0.12,0.069 0.12,0.07 0.12,0.069 0.12,0.07 0.12,0.069 0.12,0.069 0.12,0.07 0.12,0.069 0.12,0.069 0.12,0.07 0.12,0.069 0.12,0.07 0.12,0.069 0.12,0.069 0.12,0.07 0.12,0.069 0.12,0.069 0.12,0.07 0.12,0.069 0.13,0.07 0.12,0.069 0.12,0.069 0.12,0.07 0.12,0.069 0.12,0.07 0.12,0.069 0.12,0.069 0.12,0.07 0.12,0.069 0.12,0.07 0.12,0.069 0.12,0.07 0.12,0.069 0.12,0.069 0.12,0.07 0.12,0.069 0.12,0.07 0.12,0.069 0.12,0.069 0.12,0.07 0.12,0.069 0.12,0.07 0.12,0.069 0.12,0.07 0.12,0.069 0.12,0.069 0.12,0.07 0.12,0.069 0.12,0.07 0.12,0.069 0.12,0.07 0.12,0.069 0.12,0.069 0.12,0.07 0.12,0.069 0.12,0.07 0.12,0.069 0.12,0.07 0.12,0.069 0.12,0.07 0.12,0.069 0.13,0.069 0.12,0.07 0.12,0.069 0.12,0.07 0.12,0.069 0.12,0.07 0.12,0.069 0.12,0.07 0.12,0.069 0.12,0.069 0.12,0.07 0.12,0.069 0.12,0.07 0.12,0.069 0.12,0.07 0.12,0.069 0.12,0.07 0.12,0.069 0.12,0.07 0.12,0.069 0.12,0.069 0.12,0.07 0.12,0.069 0.12,0.07 0.12,0.069 0.12,0.07 0.12,0.069 0.12,0.07 0.12,0.069 0.12,0.07 0.12,0.069 0.12,0.07 0.12,0.069 0.13,0.07 0.12,0.069 0.12,0.069 0.12,0.07 0.12,0.069 0.12,0.07 0.12,0.069 0.12,0.07 0.12,0.069 0.12,0.07 0.12,0.069 0.12,0.07 0.12,0.069 0.12,0.07 0.12,0.069 0.12,0.07 0.12,0.069 0.12,0.069 0.12,0.07 0.12,0.069 0.12,0.07 0.12,0.069 0.12,0.07 0.12,0.069 0.12,0.07 0.12,0.069 0.12,0.07 0.12,0.069 0.12,0.07 0.12,0.069 0.13,0.07 0.12,0.069 0.12,0.07 0.12,0.069 0.12,0.07 0.12,0.069 0.12,0.069 0.12,0.07 0.12,0.069 0.12,0.07 0.12,0.069 0.12,0.07 0.12,0.069 0.12,0.07 0.12,0.069 0.12,0.07 0.12,0.069 0.12,0.07 0.12,0.069 0.12,0.07 0.12,0.069 0.12,0.07 0.12,0.069 0.12,0.07 0.12,0.069 0.12,0.069 0.12,0.07 0.12,0.069 0.12,0.07 0.12,0.069 0.12,0.07 0.13,0.069 0.12,0.07 0.12,0.069 0.12,0.07 0.12,0.069 0.12,0.07 0.12,0.069 0.12,0.07 0.12,0.069 0.12,0.069 0.12,0.07 0.12,0.069 0.12,0.07 0.12,0.069 0.12,0.07 0.12,0.069 0.12,0.07 0.12,0.069 0.12,0.07 0.12,0.069 0.12,0.07 0.12,0.069 0.12,0.07 0.12,0.069 0.12,0.069 0.12,0.07 0.12,0.069 0.12,0.07 0.12,0.069 0.12,0.07 0.12,0.069 0.12,0.07 0.13,0.069 0.12,0.07 0.12,0.069 0.12,0.069 0.12,0.07 0.12,0.069 0.12,0.07 0.12,0.069 0.12,0.07 0.12,0.069 0.12,0.07 0.12,0.069 0.12,0.069 0.12,0.07 0.12,0.069 0.12,0.07 0.12,0.069 0.12,0.07 0.12,0.069 0.12,0.07 0.12,0.069 0.12,0.069 0.12,0.07 0.12,0.069 0.12,0.07 0.12,0.069 0.12,0.07 0.12,0.069 0.12,0.069 0.12,0.07 0.12,0.069 0.12,0.07 0.12,0.069 0.12,0.07 0.12,0.069 0.12,0.069 0.12,0.07 0.13,0.069 0.12,0.07 0.12,0.069 0.12,0.069 0.12,0.07 0.12,0.069 0.12,0.07 0.12,0.069 0.12,0.07 0.12,0.069 0.12,0.069 0.12,0.07 0.12,0.069 0.12,0.07 0.12,0.069 0.12,0.069 0.12,0.07 0.12,0.069 0.12,0.07 0.12,0.069 0.12,0.069 0.12,0.07 0.12,0.069 0.12,0.069 0.12,0.07 0.12,0.069 0.12,0.07 0.12,0.069 0.12,0.069 0.12,0.07 0.12,0.069 0.12,0.069 0.12,0.07 0.12,0.069 0.12,0.07 0.12,0.069 0.12,0.069 0.12,0.07 0.12,0.069 0.12,0.069 0.12,0.07 0.12,0.069 0.12,0.07 0.12,0.069 0.12,0.069 0.12,0.07 0.12,0.069 0.12,0.069 0.12,0.07 0.12,0.069 0.12,0.069 0.12,0.07 0.12,0.069 0.12,0.069 0.12,0.07 0.12,0.069 0.12,0.069 0.12,0.07 0.12,0.069 0.12,0.069 0.12,0.07 0.12,0.069 0.12,0.069 0.12,0.07 0.12,0.069 0.12,0.069 0.12,0.07 0.13,0.069 0.12,0.069 0.12,0.069 0.12,0.07 0.12,0.069 0.12,0.069 0.12,0.07 0.12,0.069 0.12,0.069 0.12,0.069 0.12,0.07 0.12,0.069 0.12,0.069 0.12,0.07 0.12,0.069 0.12,0.069 0.12,0.069 0.12,0.07 0.12,0.069 0.12,0.069 0.12,0.07 0.12,0.069 0.12,0.069 0.12,0.069 0.12,0.07 0.11,0.069 0.12,0.069 0.12,0.069 0.12,0.07 0.12,0.069 0.12,0.069 0.12,0.069 0.12,0.07 0.12,0.069 0.12,0.069 0.12,0.069 0.12,0.069 0.12,0.07 0.12,0.069 0.12,0.069 0.12,0.069 0.12,0.07 0.12,0.069 0.12,0.069 0.12,0.069 0.12,0.069 0.12,0.07 0.12,0.069 0.12,0.069 0.12,0.069 0.12,0.069 0.12,0.07 0.12,0.069 0.12,0.069 0.12,0.069 0.12,0.069 0.12,0.069 0.12,0.07 0.12,0.069 0.12,0.069 0.12,0.069 0.12,0.069 0.12,0.069 0.12,0.07 0.12,0.069 0.12,0.069 0.12,0.069 0.12,0.069 0.12,0.069 0.12,0.07 0.12,0.069 0.12,0.069 0.12,0.069 0.12,0.069 0.12,0.069 0.12,0.069 0.12,0.069 0.12,0.07 0.12,0.069 0.12,0.069 0.12,0.069 0.12,0.069 0.11,0.069 0.12,0.069 0.12,0.069 0.12,0.069 0.12,0.069 0.12,0.07 0.12,0.069 0.12,0.069 0.12,0.069 0.12,0.069 0.12,0.069 0.12,0.069 0.12,0.069 c 2.15,1.243 2.15,3.257 0,4.5 l -38.1,22 c -2.16,1.243 -5.64,1.244 -7.8,10e-4 l -0.02,-0.016 -0.03,-0.017 -0.03,-0.016 -0.03,-0.017 -0.03,-0.016 -0.03,-0.017 -0.03,-0.016 -0.03,-0.017 -0.02,-0.016 -0.03,-0.017 -0.03,-0.017 -0.03,-0.016 -0.03,-0.017 -0.03,-0.016 -0.03,-0.017 -0.03,-0.017 -0.02,-0.016 -0.03,-0.017 -0.03,-0.017 -0.03,-0.017 -0.03,-0.016 -0.03,-0.017 -0.03,-0.017 -0.03,-0.017 -0.03,-0.016 -0.03,-0.017 -0.02,-0.017 -0.03,-0.017 -0.03,-0.017 -0.03,-0.016 -0.03,-0.017 -0.03,-0.017 -0.03,-0.017 -0.03,-0.017 -0.03,-0.017 -0.03,-0.017 -0.03,-0.017 -0.03,-0.017 -0.03,-0.017 -0.02,-0.016 -0.03,-0.017 -0.03,-0.017 -0.03,-0.017 -0.03,-0.017 -0.03,-0.017 -0.03,-0.017 -0.03,-0.017 -0.03,-0.017 -0.03,-0.018 -0.03,-0.017 -0.03,-0.017 -0.03,-0.017 -0.03,-0.017 -0.03,-0.017 -0.03,-0.017 -0.03,-0.017 -0.03,-0.017 -0.03,-0.017 -0.03,-0.018 -0.03,-0.017 -0.03,-0.017 -0.03,-0.017 -0.03,-0.017 -0.02,-0.017 -0.03,-0.018 -0.03,-0.017 -0.03,-0.017 -0.03,-0.017 -0.03,-0.018 -0.03,-0.017 -0.03,-0.017 -0.03,-0.017 -0.03,-0.018 -0.03,-0.017 -0.03,-0.017 -0.03,-0.017 -0.03,-0.018 -0.03,-0.017 -0.03,-0.017 -0.03,-0.018 -0.03,-0.017 -0.03,-0.017 -0.03,-0.018 -0.03,-0.017 -0.03,-0.017 -0.03,-0.018 -0.03,-0.017 -0.03,-0.018 -0.03,-0.017 -0.03,-0.017 -0.03,-0.018 -0.03,-0.017 -0.03,-0.018 -0.03,-0.017 -0.04,-0.017 -0.03,-0.018 -0.03,-0.017 -0.03,-0.018 -0.03,-0.017 -0.03,-0.018 -0.03,-0.017 -0.03,-0.018 -0.03,-0.017 -0.03,-0.018 -0.03,-0.017 -0.03,-0.018 -0.03,-0.017 -0.03,-0.018 -0.03,-0.017 -0.03,-0.018 -0.03,-0.017 -0.03,-0.018 -0.03,-0.017 -0.03,-0.018 -0.03,-0.017 -0.03,-0.018 -0.03,-0.018 -0.03,-0.017 -0.03,-0.018 -0.03,-0.017 -0.03,-0.018 -0.03,-0.017 -0.03,-0.018 -0.04,-0.018 -0.03,-0.017 -0.03,-0.018 -0.03,-0.017 -0.03,-0.018 -0.03,-0.018 -0.03,-0.017 -0.03,-0.018 -0.03,-0.017 -0.03,-0.018 -0.03,-0.018 -0.03,-0.017 -0.03,-0.018 -0.03,-0.018 -0.03,-0.017 -0.03,-0.018 -0.03,-0.018 -0.03,-0.017 -0.03,-0.018 -0.04,-0.017 -0.03,-0.018 -0.03,-0.018 -0.03,-0.017 -0.03,-0.018 -0.03,-0.018 -0.03,-0.018 -0.03,-0.017 -0.03,-0.018 -0.03,-0.018 -0.03,-0.017 -0.03,-0.018 -0.03,-0.018 -0.03,-0.017 -0.03,-0.018 -0.03,-0.018 -0.04,-0.017 -0.03,-0.018 -0.03,-0.018 -0.03,-0.017 -0.03,-0.018 -0.03,-0.018 -0.03,-0.018 -0.03,-0.017 -0.03,-0.018 -0.03,-0.018 -0.03,-0.017 -0.03,-0.018 -0.03,-0.018 -0.03,-0.017 -0.03,-0.018 -0.04,-0.018 -0.03,-0.018 -0.03,-0.017 -0.03,-0.018 -0.03,-0.018 -0.03,-0.017 -0.03,-0.018 -0.03,-0.018 -0.03,-0.018 -0.03,-0.017 -0.03,-0.018 -0.03,-0.018 -0.03,-0.017 -0.03,-0.018 -0.03,-0.018 -0.04,-0.017 -0.03,-0.018 -0.03,-0.018 -0.03,-0.018 -0.03,-0.017 -0.03,-0.018 -0.03,-0.018 -0.03,-0.017 -0.03,-0.018 -0.03,-0.018 -0.03,-0.017 -0.03,-0.018 -0.03,-0.018 -0.03,-0.018 -0.03,-0.017 -0.03,-0.018 -0.04,-0.018 -0.03,-0.017 -0.03,-0.018 -0.03,-0.018 -0.03,-0.017 -0.03,-0.018 -0.03,-0.018 -0.03,-0.017 -0.03,-0.018 -0.03,-0.018 -0.03,-0.017 -0.03,-0.018 -0.03,-0.018 -0.03,-0.017 -0.03,-0.018 -0.03,-0.018 -0.03,-0.017 -0.04,-0.018 -0.03,-0.017 -0.03,-0.018 -0.03,-0.018 -0.03,-0.017 -0.03,-0.018 -0.03,-0.018 -0.03,-0.017 -0.03,-0.018 -0.03,-0.017 -0.03,-0.018 -0.03,-0.018 -0.03,-0.017 -0.03,-0.018 -0.03,-0.017 -0.03,-0.018 -0.03,-0.017 -0.03,-0.018 -0.03,-0.018 -0.03,-0.017 -0.03,-0.018 -0.04,-0.017 -0.03,-0.018 -0.03,-0.017 -0.03,-0.018 -0.03,-0.017 -0.03,-0.018 -0.03,-0.017 -0.03,-0.018 -0.03,-0.017 -0.03,-0.018 -0.03,-0.017 -0.03,-0.018 -0.03,-0.017 -0.03,-0.018 -0.03,-0.017 -0.03,-0.018 -0.03,-0.017 -0.03,-0.018 -0.03,-0.017 -0.03,-0.017 -0.03,-0.018 -0.03,-0.017 -0.03,-0.018 -0.03,-0.017 -0.03,-0.018 -0.03,-0.017 -0.03,-0.017 -0.03,-0.018 -0.03,-0.017 -0.03,-0.017 -0.03,-0.018 -0.03,-0.017 -0.03,-0.017 -0.03,-0.018 -0.03,-0.017 -0.03,-0.017 -0.03,-0.018 -0.03,-0.017 -0.03,-0.017 -0.03,-0.018 -0.03,-0.017 -0.03,-0.017 -0.03,-0.017 -0.03,-0.018 -0.03,-0.017 -0.03,-0.017 -0.03,-0.017 -0.03,-0.018 -0.03,-0.017 -0.03,-0.017 -0.03,-0.017 -0.03,-0.017 -0.03,-0.018 -0.03,-0.017 -0.03,-0.017 -0.03,-0.017 -0.03,-0.017 -0.03,-0.017 -0.03,-0.017 -0.03,-0.018 -0.03,-0.017 -0.03,-0.017 -0.03,-0.017 -0.03,-0.017 -0.03,-0.017 -0.03,-0.017 -0.02,-0.017 -0.03,-0.017 -0.03,-0.017 -0.03,-0.017 -0.03,-0.017 -0.03,-0.017 -0.03,-0.017 -0.03,-0.017 -0.03,-0.017 -0.03,-0.017 -0.03,-0.017 -0.03,-0.017 -0.03,-0.017 -0.03,-0.017 -0.03,-0.017 -0.03,-0.016 -0.02,-0.017 -0.03,-0.017 -0.03,-0.017 -0.03,-0.017 -0.03,-0.017 -0.03,-0.016 -0.03,-0.017 -0.03,-0.017 -0.03,-0.017 -0.03,-0.017 -0.03,-0.016 -0.02,-0.017 -0.03,-0.017 -0.03,-0.016 -0.03,-0.017 -0.03,-0.017 -0.03,-0.016 -0.03,-0.017 -0.03,-0.017 -0.03,-0.016 -0.02,-0.017 -0.03,-0.017 -0.03,-0.016 -0.03,-0.017 -0.03,-0.016 -0.03,-0.017 -0.03,-0.016 -0.03,-0.017 -0.02,-0.017 -0.03,-0.016 -0.03,-0.016 -0.03,-0.017 -0.03,-0.016 -0.03,-0.017 -0.02,-0.016 -0.03,-0.017 -0.03,-0.016 -0.03,-0.016 -0.03,-0.017 -0.03,-0.016 -0.03,-0.017 -0.02,-0.016 -0.03,-0.016 -0.03,-0.016 -0.03,-0.017 -0.03,-0.016 -0.02,-0.016 -0.03,-0.017 -0.03,-0.016 -0.03,-0.016 -0.03,-0.016 -0.02,-0.016 -0.03,-0.016 -0.03,-0.017 -0.03,-0.016 -0.03,-0.016 -0.02,-0.016 -0.03,-0.016 -0.03,-0.016 -0.03,-0.016 -0.03,-0.016 -0.02,-0.016 -0.03,-0.016 -0.03,-0.016 -0.03,-0.016 -0.02,-0.016 -0.03,-0.016 -0.03,-0.016 -0.03,-0.016 -0.02,-0.016 -0.03,-0.016 -0.03,-0.015 -0.03,-0.016 -0.02,-0.016 -0.03,-0.016 -0.03,-0.016 -0.03,-0.015 -0.02,-0.016 -0.03,-0.016 -0.03,-0.016 -0.02,-0.015 -0.03,-0.016 -0.03,-0.016 -0.03,-0.015 -0.02,-0.016 -0.03,-0.016 -0.03,-0.015 -0.02,-0.016 -0.03,-0.015 -0.03,-0.016 -0.02,-0.015 -0.03,-0.016 -0.03,-0.015 -0.03,-0.016 -0.02,-0.015 -0.03,-0.016 -0.03,-0.015 -0.02,-0.015 -0.03,-0.016 -0.03,-0.015 -0.02,-0.015 -0.03,-0.016 -0.02,-0.015 -0.03,-0.015 -0.03,-0.015 -0.02,-0.016 -0.03,-0.015 -0.03,-0.015 -0.02,-0.015 -0.03,-0.015 -0.03,-0.015 -0.02,-0.016 -0.03,-0.015 -0.02,-0.015 -0.03,-0.015 -0.03,-0.015 -0.02,-0.015 -0.03,-0.015 -0.02,-0.015 -0.03,-0.015 -0.03,-0.015 -0.02,-0.014 -0.03,-0.015 -0.02,-0.015 -0.03,-0.015 -0.02,-0.015 -0.03,-0.015 -0.03,-0.014 -0.02,-0.015 -0.03,-0.015 -0.02,-0.015 -0.03,-0.014 -0.02,-0.015 -0.03,-0.014 -0.02,-0.015 -0.03,-0.015 -0.02,-0.014 -0.03,-0.015 -0.02,-0.014 -0.03,-0.015 -0.02,-0.014 -0.03,-0.015 -0.02,-0.014 -0.03,-0.015 -0.02,-0.014 -0.03,-0.014 -0.02,-0.015 -0.03,-0.014 -0.02,-0.014 -0.03,-0.015 -0.02,-0.014 -0.03,-0.014 -0.02,-0.014 -0.03,-0.015 -0.02,-0.014 -0.03,-0.014 -0.02,-0.014 -0.02,-0.014 -0.03,-0.014 -0.02,-0.014 -0.03,-0.014 -0.02,-0.014 -0.03,-0.014 -0.02,-0.014 -0.02,-0.014 -0.03,-0.014 -0.02,-0.014 -0.03,-0.014 -0.02,-0.013 -0.02,-0.014 -0.03,-0.014 -0.02,-0.014 -0.03,-0.013 -0.02,-0.014 -0.02,-0.014 -0.03,-0.013 -0.02,-0.014 -0.02,-0.014 -0.03,-0.013 -0.02,-0.014 -0.02,-0.013 -0.03,-0.014 -0.02,-0.013 -0.02,-0.014 -0.03,-0.013 -0.02,-0.013 -0.02,-0.014 -0.03,-0.013 c -2.15,-1.242 -2.14,-3.254 0.01,-4.497 l 16.45,-9.5 c 2.63,-1.519 2.63,-3.981 0,-5.5 l -38.1,-22 c -2.15,-1.243 -2.15,-3.257 0,-4.5 z" stroke="#000000" shape-rendering="crispEdges" id="path75"></path></g><g filter="url('#filter5_d_1712_6993')" id="g81"><rect x="0.86602497" width="17" height="20" rx="1.5" transform="matrix(0.866025,-0.5,0.866025,0.5,1064.46,886.433)" stroke="#000000" shape-rendering="crispEdges" id="rect79" y="0"></rect></g><g filter="url('#filter6_d_1712_6993')" id="g85"><rect x="0.86602497" width="17" height="18" rx="1.5" transform="matrix(0.866025,-0.5,0.866025,0.5,1084.38,897.933)" stroke="#000000" shape-rendering="crispEdges" id="rect83" y="0"></rect></g><g filter="url('#filter7_d_1712_6993')" id="g89"><rect x="0.86602497" width="17" height="20" rx="1.5" transform="matrix(0.866025,-0.5,0.866025,0.5,1102.57,908.433)" stroke="#000000" shape-rendering="crispEdges" id="rect87" y="0"></rect></g><g filter="url('#filter8_d_1712_6993')" id="g93"><rect x="0.86602497" width="20" height="20" rx="1.5" transform="matrix(0.866025,-0.5,0.866025,0.5,1082.65,919.933)" stroke="#000000" shape-rendering="crispEdges" id="rect91" y="0"></rect></g><rect x="0.86602497" width="21.8564" height="35.0807" rx="1.5" transform="matrix(0.866025,-0.5,0.866025,0.5,978.273,757.648)" stroke="#000000" id="rect95" y="0"></rect><rect x="-8.9407003e-08" y="0.5" width="21.851101" height="35.0891" rx="1.5" transform="matrix(0.866025,0.5,-0.866026,0.5,1221.29,819.394)" stroke="#000000" id="rect97"></rect><rect x="0.86602497" width="21.8564" height="35.0807" rx="1.5" transform="matrix(0.866025,-0.5,0.866025,0.5,1011.6,776.891)" stroke="#000000" id="rect99" y="0"></rect><rect x="-8.9407003e-08" y="0.5" width="21.851101" height="35.0891" rx="1.5" transform="matrix(0.866025,0.5,-0.866026,0.5,1187.95,838.641)" stroke="#000000" id="rect101"></rect><rect x="0.86602497" width="9.8267298" height="9.8241997" rx="1.5" transform="matrix(0.866025,-0.5,0.866025,0.5,967.855,767.271)" stroke="#000000" id="rect103" y="0"></rect><rect x="0.86602497" width="3.8118801" height="9.8241997" rx="1.5" transform="matrix(0.866025,-0.5,0.866025,0.5,964.729,769.075)" stroke="#000000" id="rect105" y="0"></rect><rect x="-8.9407003e-08" y="0.5" width="9.8241997" height="9.8267298" rx="1.5" transform="matrix(0.866025,0.5,-0.866026,0.5,1204.62,814.584)" stroke="#000000" id="rect107"></rect><rect x="-8.9407003e-08" y="0.5" width="3.81075" height="9.8267298" rx="1.5" transform="matrix(0.866025,0.5,-0.866026,0.5,1201.5,812.78)" stroke="#000000" id="rect109"></rect><rect x="-0.86602497" y="-4.4703501e-08" width="9.8267298" height="9.8241997" rx="1.5" transform="matrix(-0.866026,0.5,-0.866025,-0.5,1247.37,822.582)" stroke="#000000" id="rect111"></rect><rect x="-0.86602497" y="-4.4703501e-08" width="3.8118801" height="9.8241997" rx="1.5" transform="matrix(-0.866026,0.5,-0.866025,-0.5,1250.49,820.778)" stroke="#000000" id="rect113"></rect><rect x="-2.9802299e-08" y="0.5" width="9.8267298" height="9.8241997" rx="1.5" transform="matrix(-0.866025,0.5,0.866025,0.5,1013.14,740.623)" stroke="#000000" id="rect115"></rect><rect x="-2.9802299e-08" y="0.5" width="3.8118801" height="9.8241997" rx="1.5" transform="matrix(-0.866025,0.5,0.866025,0.5,1016.27,738.818)" stroke="#000000" id="rect117"></rect><rect x="-0.86602497" y="-1.49012e-08" width="9.8241997" height="9.8267298" rx="1.5" transform="matrix(-0.866025,-0.5,-0.866026,0.5,1248.4,840.36)" stroke="#000000" id="rect119"></rect><rect x="-0.86602497" y="-1.49012e-08" width="3.81075" height="9.8267298" rx="1.5" transform="matrix(-0.866025,-0.5,-0.866026,0.5,1251.53,842.164)" stroke="#000000" id="rect121"></rect><rect x="0.86602497" width="9.8267298" height="9.8241997" rx="1.5" transform="matrix(0.866025,-0.5,0.866025,0.5,984.52,776.892)" stroke="#000000" id="rect123" y="0"></rect><rect x="0.86602497" width="3.8118801" height="9.8241997" rx="1.5" transform="matrix(0.866025,-0.5,0.866025,0.5,981.394,778.697)" stroke="#000000" id="rect125" y="0"></rect><rect x="-8.9407003e-08" y="0.5" width="9.8241997" height="9.8267298" rx="1.5" transform="matrix(0.866025,0.5,-0.866026,0.5,1187.95,824.208)" stroke="#000000" id="rect127"></rect><rect x="-8.9407003e-08" y="0.5" width="3.81075" height="9.8267298" rx="1.5" transform="matrix(0.866025,0.5,-0.866026,0.5,1184.83,822.404)" stroke="#000000" id="rect129"></rect><rect x="-2.9802299e-08" y="0.5" width="9.8267298" height="9.8241997" rx="1.5" transform="matrix(-0.866025,0.5,0.866025,0.5,1029.81,750.244)" stroke="#000000" id="rect131"></rect><rect x="-2.9802299e-08" y="0.5" width="3.8118801" height="9.8241997" rx="1.5" transform="matrix(-0.866025,0.5,0.866025,0.5,1032.94,748.44)" stroke="#000000" id="rect133"></rect><rect x="-0.86602497" y="-1.49012e-08" width="9.8241997" height="9.8267298" rx="1.5" transform="matrix(-0.866025,-0.5,-0.866026,0.5,1231.73,849.984)" stroke="#000000" id="rect135"></rect><rect x="-0.86602497" y="-1.49012e-08" width="3.81075" height="9.8267298" rx="1.5" transform="matrix(-0.866025,-0.5,-0.866026,0.5,1234.86,851.788)" stroke="#000000" id="rect137"></rect><rect x="0.86602497" width="9.8267298" height="9.8241997" rx="1.5" transform="matrix(0.866025,-0.5,0.866025,0.5,1001.18,786.514)" stroke="#000000" id="rect139" y="0"></rect><rect x="0.86602497" width="3.8118801" height="9.8241997" rx="1.5" transform="matrix(0.866025,-0.5,0.866025,0.5,998.059,788.318)" stroke="#000000" id="rect141" y="0"></rect><rect x="-8.9407003e-08" y="0.5" width="9.8241997" height="9.8267298" rx="1.5" transform="matrix(0.866025,0.5,-0.866026,0.5,1171.29,833.831)" stroke="#000000" id="rect143"></rect><rect x="-8.9407003e-08" y="0.5" width="3.81075" height="9.8267298" rx="1.5" transform="matrix(0.866025,0.5,-0.866026,0.5,1168.16,832.027)" stroke="#000000" id="rect145"></rect><rect x="-2.9802299e-08" y="0.5" width="9.8267298" height="9.8241997" rx="1.5" transform="matrix(-0.866025,0.5,0.866025,0.5,1046.47,759.866)" stroke="#000000" id="rect147"></rect><rect x="-2.9802299e-08" y="0.5" width="3.8118801" height="9.8241997" rx="1.5" transform="matrix(-0.866025,0.5,0.866025,0.5,1049.6,758.061)" stroke="#000000" id="rect149"></rect><rect x="-0.86602497" y="-1.49012e-08" width="9.8241997" height="9.8267298" rx="1.5" transform="matrix(-0.866025,-0.5,-0.866026,0.5,1215.07,859.607)" stroke="#000000" id="rect151"></rect><rect x="-0.86602497" y="-1.49012e-08" width="3.81075" height="9.8267298" rx="1.5" transform="matrix(-0.866025,-0.5,-0.866026,0.5,1218.19,861.411)" stroke="#000000" id="rect153"></rect><rect x="0.86602497" width="9.8267298" height="9.8241997" rx="1.5" transform="matrix(0.866025,-0.5,0.866025,0.5,1017.85,796.135)" stroke="#000000" id="rect155" y="0"></rect><rect x="0.86602497" width="3.8118801" height="9.8241997" rx="1.5" transform="matrix(0.866025,-0.5,0.866025,0.5,1014.72,797.94)" stroke="#000000" id="rect157" y="0"></rect><rect x="-8.9407003e-08" y="0.5" width="9.8241997" height="9.8267298" rx="1.5" transform="matrix(0.866025,0.5,-0.866026,0.5,1154.62,843.455)" stroke="#000000" id="rect159"></rect><rect x="-8.9407003e-08" y="0.5" width="3.81075" height="9.8267298" rx="1.5" transform="matrix(0.866025,0.5,-0.866026,0.5,1151.49,841.651)" stroke="#000000" id="rect161"></rect><rect x="-2.9802299e-08" y="0.5" width="9.8267298" height="9.8241997" rx="1.5" transform="matrix(-0.866025,0.5,0.866025,0.5,1063.14,769.487)" stroke="#000000" id="rect163"></rect><rect x="-2.9802299e-08" y="0.5" width="3.8118801" height="9.8241997" rx="1.5" transform="matrix(-0.866025,0.5,0.866025,0.5,1066.27,767.683)" stroke="#000000" id="rect165"></rect><rect x="-0.86602497" y="-1.49012e-08" width="9.8241997" height="9.8267298" rx="1.5" transform="matrix(-0.866025,-0.5,-0.866026,0.5,1198.4,869.231)" stroke="#000000" id="rect167"></rect><rect x="-0.86602497" y="-1.49012e-08" width="3.81075" height="9.8267298" rx="1.5" transform="matrix(-0.866025,-0.5,-0.866026,0.5,1201.52,871.035)" stroke="#000000" id="rect169"></rect><circle r="15.5" transform="matrix(0.866025,-0.5,0.866025,0.5,808.868,953.5)" stroke="#000000" id="circle171" cx="0" cy="0"></circle><rect x="0.86602497" width="17" height="24" rx="1.5" transform="matrix(0.866025,-0.5,0.866025,0.5,1050.6,904.433)" stroke="#000000" id="rect173" y="0"></rect><path opacity="0.3" d="m 1226.29,627.5 c -0.95,0.552 -0.95,1.448 0,2 l 15.59,9 c 0.96,0.552 2.51,0.552 3.46,0 0.96,-0.552 0.96,-1.448 0,-2 l -13.85,-8 13.85,-8 c 0.96,-0.552 0.96,-1.448 0,-2 -0.95,-0.552 -2.5,-0.552 -3.46,0 z m 378.46,2 c 0.95,-0.552 0.95,-1.448 0,-2 l -15.59,-9 c -0.96,-0.552 -2.51,-0.552 -3.47,0 -0.95,0.552 -0.95,1.448 0,2 l 13.86,8 -13.86,8 c -0.95,0.552 -0.95,1.448 0,2 0.96,0.552 2.51,0.552 3.47,0 z m -187.5,-110.25 c -0.96,-0.552 -2.51,-0.552 -3.46,0 l -15.59,9 c -0.96,0.552 -0.96,1.448 0,2 0.95,0.552 2.51,0.552 3.46,0 l 13.86,-8 13.86,8 c 0.95,0.552 2.5,0.552 3.46,0 0.96,-0.552 0.96,-1.448 0,-2 z m -3.46,218.5 c 0.95,0.552 2.5,0.552 3.46,0 l 15.59,-9 c 0.96,-0.552 0.96,-1.448 0,-2 -0.96,-0.552 -2.51,-0.552 -3.46,0 l -13.86,8 -13.86,-8 c -0.95,-0.552 -2.51,-0.552 -3.46,0 -0.96,0.552 -0.96,1.448 0,2 z M 1228.02,629.914 h 374.99 v -2.828 H 1228.02 Z M 1413.07,520.25 v 216.5 h 4.9 v -216.5 z" fill="#ffffff" id="path175"></path><path opacity="0.3" d="m 1449.73,498.5 c -0.96,0.552 -0.96,1.448 0,2 l 15.59,9 c 0.95,0.552 2.5,0.552 3.46,0 0.96,-0.552 0.96,-1.448 0,-2 l -13.86,-8 13.86,-8 c 0.96,-0.552 0.96,-1.448 0,-2 -0.96,-0.552 -2.51,-0.552 -3.46,0 z m 378.45,2 c 0.96,-0.552 0.96,-1.448 0,-2 l -15.59,-9 c -0.96,-0.552 -2.51,-0.552 -3.46,0 -0.96,0.552 -0.96,1.448 0,2 l 13.85,8 -13.85,8 c -0.96,0.552 -0.96,1.448 0,2 0.95,0.552 2.5,0.552 3.46,0 z M 1640.69,390.25 c -0.96,-0.552 -2.51,-0.552 -3.47,0 l -15.59,9 c -0.95,0.552 -0.95,1.448 0,2 0.96,0.552 2.51,0.552 3.47,0 l 13.85,-8 13.86,8 c 0.96,0.552 2.51,0.552 3.46,0 0.96,-0.552 0.96,-1.448 0,-2 z m -3.47,218.5 c 0.96,0.552 2.51,0.552 3.47,0 l 15.58,-9 c 0.96,-0.552 0.96,-1.448 0,-2 -0.95,-0.552 -2.5,-0.552 -3.46,0 l -13.86,8 -13.85,-8 c -0.96,-0.552 -2.51,-0.552 -3.47,0 -0.95,0.552 -0.95,1.448 0,2 z M 1451.46,500.914 h 374.99 v -2.828 H 1451.46 Z M 1636.5,391.25 v 216.5 h 4.9 v -216.5 z" fill="#ffffff" id="path177"></path><path opacity="0.3" d="m 1420.53,366.226 c -0.96,0.553 -0.96,1.448 0,2 l 15.59,9 c 0.95,0.553 2.5,0.553 3.46,0 0.96,-0.552 0.96,-1.447 0,-2 l -13.86,-8 13.86,-8 c 0.96,-0.552 0.96,-1.447 0,-2 -0.96,-0.552 -2.51,-0.552 -3.46,0 z m 187.06,2 c 0.96,-0.552 0.96,-1.447 0,-2 l -15.59,-9 c -0.96,-0.552 -2.51,-0.552 -3.46,0 -0.96,0.553 -0.96,1.448 0,2 l 13.85,8 -13.85,8 c -0.96,0.553 -0.96,1.448 0,2 0.95,0.553 2.5,0.553 3.46,0 z m -91.8,-55 c -0.96,-0.552 -2.51,-0.552 -3.46,0 l -15.59,9 c -0.96,0.553 -0.96,1.448 0,2 0.96,0.553 2.51,0.553 3.46,0 l 13.86,-8 13.86,8 c 0.95,0.553 2.5,0.553 3.46,0 0.96,-0.552 0.96,-1.447 0,-2 z m -3.46,108 c 0.95,0.553 2.5,0.553 3.46,0 l 15.59,-9 c 0.96,-0.552 0.96,-1.447 0,-2 -0.96,-0.552 -2.51,-0.552 -3.46,0 l -13.86,8 -13.86,-8 c -0.95,-0.552 -2.5,-0.552 -3.46,0 -0.96,0.553 -0.96,1.448 0,2 z m -90.07,-52.585 h 183.6 v -2.829 h -183.6 z m 89.35,-54.415 v 106 h 4.9 v -106 z" fill="#ffffff" id="path179"></path><path opacity="0.3" d="m 1207.21,758.995 c -0.95,0.552 -0.95,1.448 0,2 l 15.59,9 c 0.96,0.552 2.51,0.552 3.47,0 0.95,-0.552 0.95,-1.448 0,-2 l -13.86,-8 13.86,-8 c 0.95,-0.552 0.95,-1.448 0,-2 -0.96,-0.552 -2.51,-0.552 -3.47,0 z m 187.06,2 c 0.96,-0.552 0.96,-1.448 0,-2 l -15.58,-9 c -0.96,-0.552 -2.51,-0.552 -3.47,0 -0.95,0.552 -0.95,1.448 0,2 l 13.86,8 -13.86,8 c -0.95,0.552 -0.95,1.448 0,2 0.96,0.552 2.51,0.552 3.47,0 z m -91.79,-55 c -0.96,-0.552 -2.51,-0.552 -3.47,0 l -15.59,9 c -0.95,0.552 -0.95,1.448 0,2 0.96,0.552 2.51,0.552 3.47,0 l 13.85,-8 13.86,8 c 0.96,0.552 2.51,0.552 3.46,0 0.96,-0.552 0.96,-1.448 0,-2 z m -3.47,108 c 0.96,0.552 2.51,0.552 3.47,0 l 15.58,-9 c 0.96,-0.552 0.96,-1.448 0,-2 -0.95,-0.552 -2.5,-0.552 -3.46,0 l -13.86,8 -13.85,-8 c -0.96,-0.552 -2.51,-0.552 -3.47,0 -0.95,0.552 -0.95,1.448 0,2 z m -90.06,-52.586 h 183.59 v -2.828 h -183.59 z m 89.34,-54.414 v 106 h 4.9 v -106 z" fill="#ffffff" id="path181"></path><circle r="8" transform="matrix(0.866025,-0.5,0.866025,0.5,1226.29,513)" stroke="#000000" id="circle183" cx="0" cy="0"></circle><rect x="0.86602497" width="19" height="19" rx="4.5" transform="matrix(0.866025,-0.5,0.866025,0.5,964.002,653.433)" stroke="#000000" id="rect185" y="0"></rect><rect x="0.86602497" width="19" height="19" rx="4.5" transform="matrix(0.866025,-0.5,0.866025,0.5,983.055,664.433)" stroke="#000000" id="rect187" y="0"></rect><rect x="0.86602497" width="19" height="19" rx="4.5" transform="matrix(0.866025,-0.5,0.866025,0.5,1002.11,675.433)" stroke="#000000" id="rect189" y="0"></rect><rect x="0.86602497" width="19" height="19" rx="4.5" transform="matrix(0.866025,-0.5,0.866025,0.5,1021.16,686.433)" stroke="#000000" id="rect191" y="0"></rect><path d="M 1418,629.092 V 566 h 83.43 c 2.49,13.144 -1.91,39.433 -39.43,39.433 -19.93,0 -44,16.188 -44,23.659 z" fill="#ffffff" id="path193"></path><rect x="1418" y="507" width="117" height="98" rx="30" fill="#ffffff" id="rect195"></rect><path d="m 1438.02,550 h 3.6 l 1.64,-3.888 h 7.27 l 1.65,3.888 h 3.65 l -7.37,-17.04 h -3.09 z m 8.88,-12.456 2.33,5.52 h -4.68 z m 13.81,17.472 v -6.36 c 0.55,0.768 1.82,1.608 3.48,1.608 3.19,0 5.64,-2.88 5.64,-6.264 0,-3.384 -2.45,-6.264 -5.64,-6.264 -1.66,0 -2.93,0.84 -3.48,1.608 V 538 h -3.29 v 17.016 z m 2.76,-7.752 c -1.83,0 -3.03,-1.368 -3.03,-3.264 0,-1.896 1.2,-3.264 3.03,-3.264 1.82,0 3.02,1.368 3.02,3.264 0,1.896 -1.2,3.264 -3.02,3.264 z m 14.28,3 c 3.05,0 5.45,-1.752 6.15,-4.176 h -3.44 c -0.38,0.84 -1.39,1.32 -2.54,1.32 -2.06,0 -3.12,-1.224 -3.24,-2.64 h 9.36 c 0.19,-4.512 -2.76,-7.032 -6.26,-7.032 -3.65,0 -6.32,2.664 -6.32,6.24 0,3.648 2.62,6.288 6.29,6.288 z m -0.07,-9.864 c 1.1,0 2.38,0.6 2.76,2.208 h -5.64 c 0.31,-1.344 1.34,-2.208 2.88,-2.208 z m 8.76,9.6 h 3.28 v -4.608 h 4.95 V 550 h 3.29 v -12 h -3.29 v 4.536 h -4.95 V 538 h -3.28 z m 19.56,0.264 c 1.66,0 2.91,-0.84 3.46,-1.608 V 550 h 3.29 v -12 h -3.29 v 1.344 c -0.55,-0.768 -1.8,-1.608 -3.46,-1.608 -3.19,0 -5.64,2.88 -5.64,6.264 0,3.384 2.45,6.264 5.64,6.264 z m 0.7,-3 c -1.83,0 -3.03,-1.368 -3.03,-3.264 0,-1.896 1.2,-3.264 3.03,-3.264 1.82,0 3.02,1.368 3.02,3.264 0,1.896 -1.2,3.264 -3.02,3.264 z M 1441.65,579 h 3.29 v -17.04 h -4.49 l -2.4,3.24 h 3.6 z m 12.77,0.264 c 3.72,0 6.34,-2.832 6.34,-6.744 v -4.128 c 0,-3.888 -2.62,-6.72 -6.34,-6.72 -3.74,0 -6.36,2.832 -6.36,6.72 v 4.128 c 0,3.912 2.62,6.744 6.36,6.744 z m 0,-3.24 c -1.82,0 -3.07,-1.296 -3.07,-3.504 v -4.128 c 0,-2.208 1.25,-3.48 3.07,-3.48 1.82,0 3.05,1.272 3.05,3.48 v 4.128 c 0,2.208 -1.23,3.504 -3.05,3.504 z m 15.14,3.24 c 3.72,0 6.34,-2.832 6.34,-6.744 v -4.128 c 0,-3.888 -2.62,-6.72 -6.34,-6.72 -3.74,0 -6.36,2.832 -6.36,6.72 v 4.128 c 0,3.912 2.62,6.744 6.36,6.744 z m 0,-3.24 c -1.82,0 -3.07,-1.296 -3.07,-3.504 v -4.128 c 0,-2.208 1.25,-3.48 3.07,-3.48 1.82,0 3.05,1.272 3.05,3.48 v 4.128 c 0,2.208 -1.23,3.504 -3.05,3.504 z m 14.6,-9.024 v 12 h 3.29 v -6.936 l 3.46,4.344 3.43,-4.344 V 579 h 3.29 v -12 h -2.79 l -3.96,4.992 -3.93,-4.992 z m 22.86,-0.144 h -3.87 c 0.27,-0.456 1.35,-1.032 1.73,-1.296 1.15,-0.768 2.09,-1.752 2.09,-3.672 0,-2.184 -1.66,-3.264 -3.38,-3.264 -2.12,0 -3.72,1.488 -3.72,3.504 h 2.35 c -0.03,-0.6 0.45,-1.2 1.29,-1.2 0.75,0 1.11,0.48 1.11,1.056 0,0.744 -0.75,1.464 -1.51,1.968 -1.54,1.08 -3.29,2.04 -3.29,4.44 v 0.768 h 7.2 z" fill="#000000" id="path197"></path><path d="M 1057,617.092 V 554 h 83.43 c 2.49,13.144 -1.91,39.433 -39.43,39.433 -19.93,0 -44,16.188 -44,23.659 z" fill="#ffffff" id="path199"></path><rect x="1057" y="524" width="134" height="69" rx="30" fill="#ffffff" id="rect201"></rect><path d="m 1084.1,567 h 3.1 l 7.06,-17.04 h -3.84 l -4.76,11.832 -4.82,-11.832 h -3.77 z m 12.09,0 h 3.48 v -7.176 h 0.84 l 5.86,7.176 h 4.2 l -6.12,-7.56 c 2.28,-0.696 3.5,-2.136 3.5,-4.44 0,-2.832 -2.06,-5.04 -5.23,-5.04 h -6.53 z m 3.48,-10.152 v -3.696 h 2.64 c 1.32,0 2.19,0.672 2.19,1.848 0,1.152 -0.87,1.848 -2.19,1.848 z M 1114.31,567 h 3.6 l 1.64,-3.888 h 7.27 l 1.65,3.888 h 3.65 l -7.37,-17.04 h -3.09 z m 8.88,-12.456 2.33,5.52 h -4.68 z m 14.51,12.72 c 1.54,0 2.64,-0.672 3.29,-1.632 V 567 h 3.29 v -12 h -3.29 v 5.856 c 0,2.328 -1.01,3.408 -2.47,3.408 -1.44,0 -2.04,-1.032 -2.04,-2.856 V 555 h -3.29 v 6.96 c 0,3.168 1.63,5.304 4.51,5.304 z m 15.55,-0.12 c 0.94,0 1.54,-0.096 2.09,-0.264 v -2.904 c -0.38,0.144 -0.84,0.216 -1.34,0.216 -1.44,0 -2.04,-0.576 -2.04,-2.04 v -4.272 h 3.38 V 555 h -3.38 v -3.336 h -3.29 V 555 h -2.43 v 2.88 h 2.43 v 4.92 c 0,2.952 2.04,4.344 4.58,4.344 z m 9.79,0.12 c 3.48,0 6.31,-2.736 6.31,-6.264 0,-3.504 -2.83,-6.264 -6.31,-6.264 -3.48,0 -6.31,2.76 -6.31,6.264 0,3.528 2.83,6.264 6.31,6.264 z m 0,-3.072 c -1.73,0 -3,-1.344 -3,-3.192 0,-1.848 1.27,-3.192 3,-3.192 1.71,0 2.98,1.344 2.98,3.192 0,1.848 -1.27,3.192 -2.98,3.192 z" fill="#000000" id="path203"></path><path d="M 999,650.092 V 587 h -83.431 c -2.49,13.144 1.909,39.433 39.433,39.433 19.924,0 43.998,16.188 43.998,23.659 z" fill="#ffffff" id="path205"></path><rect x="800" y="528" width="199" height="98" rx="30" fill="#ffffff" id="rect207"></rect><path d="m 821.896,571 h 7.2 c 3.024,0 5.28,-2.184 5.28,-5.016 0,-1.92 -1.008,-3.288 -2.52,-4.032 0.84,-0.744 1.344,-1.728 1.344,-3.048 0,-2.688 -2.184,-4.944 -5.064,-4.944 h -6.24 z m 3.48,-3.192 v -3.912 h 3.48 c 1.32,0 2.136,0.84 2.136,1.968 0,1.128 -0.816,1.944 -2.136,1.944 z m 0,-6.864 v -3.816 h 2.424 c 1.224,0 2.016,0.888 2.016,1.92 0,1.056 -0.792,1.896 -2.016,1.896 z m 16.939,10.32 c 3.048,0 5.448,-1.752 6.144,-4.176 h -3.432 c -0.384,0.84 -1.392,1.32 -2.544,1.32 -2.064,0 -3.12,-1.224 -3.24,-2.64 h 9.36 c 0.192,-4.512 -2.76,-7.032 -6.264,-7.032 -3.648,0 -6.312,2.664 -6.312,6.24 0,3.648 2.616,6.288 6.288,6.288 z m -0.072,-9.864 c 1.104,0 2.376,0.6 2.76,2.208 h -5.64 c 0.312,-1.344 1.344,-2.208 2.88,-2.208 z m 8.755,9.6 h 3.288 v -4.608 h 4.944 V 571 h 3.288 v -12 h -3.288 v 4.536 h -4.944 V 559 h -3.288 z m 13.807,-2.88 v 5.832 h 2.952 V 571 h 8.352 v 2.952 h 2.952 v -5.832 h -1.944 V 559 h -10.32 v 6.024 c 0,2.328 -0.696,3.096 -1.68,3.096 z m 5.28,-6.24 h 3.744 v 6.24 h -4.344 c 0.384,-0.672 0.6,-1.392 0.6,-2.904 z m 14.24,9.12 5.376,-7.08 V 571 h 3.264 v -12 h -2.928 l -5.376,7.08 V 559 h -3.288 v 12 z m 11.837,0 h 3.288 v -4.608 h 4.944 V 571 h 3.288 v -12 h -3.288 v 4.536 H 899.45 V 559 h -3.288 z m 14.695,0 h 3.288 v -9.12 h 4.992 V 559 h -8.28 z m 15.458,0.264 c 3.48,0 6.312,-2.736 6.312,-6.264 0,-3.504 -2.832,-6.264 -6.312,-6.264 -3.48,0 -6.312,2.76 -6.312,6.264 0,3.528 2.832,6.264 6.312,6.264 z m 0,-3.072 c -1.728,0 -3,-1.344 -3,-3.192 0,-1.848 1.272,-3.192 3,-3.192 1.704,0 2.976,1.344 2.976,3.192 0,1.848 -1.272,3.192 -2.976,3.192 z m 8.683,2.808 h 6.576 c 3.192,0 4.392,-1.872 4.392,-3.648 0,-1.128 -0.6,-2.136 -1.56,-2.736 0.528,-0.6 0.792,-1.272 0.792,-2.016 0,-1.8 -1.344,-3.6 -4.464,-3.6 h -5.736 z m 3.288,-2.688 v -2.376 h 3.12 c 0.744,0 1.296,0.408 1.296,1.176 0,0.792 -0.552,1.2 -1.296,1.2 z m 0,-4.584 v -2.208 h 2.448 c 0.552,0 1.2,0.264 1.2,1.104 0,0.84 -0.648,1.104 -1.2,1.104 z M 959.902,571 h 3.288 v -12 h -3.288 z m -11.568,0 h 5.544 c 3.192,0 4.416,-2.472 4.416,-4.272 0,-1.8 -1.224,-4.152 -4.416,-4.152 h -2.256 V 559 h -3.288 z m 3.288,-5.616 h 1.872 c 1.08,0 1.704,0.432 1.704,1.368 0,0.936 -0.624,1.44 -1.704,1.44 h -1.872 z m 20.279,5.88 c 3.048,0 5.448,-1.752 6.144,-4.176 h -3.432 c -0.384,0.84 -1.392,1.32 -2.544,1.32 -2.064,0 -3.12,-1.224 -3.24,-2.64 h 9.36 c 0.192,-4.512 -2.76,-7.032 -6.264,-7.032 -3.648,0 -6.312,2.664 -6.312,6.24 0,3.648 2.616,6.288 6.288,6.288 z m -0.072,-9.864 c 1.104,0 2.376,0.6 2.76,2.208 h -5.64 c 0.312,-1.344 1.344,-2.208 2.88,-2.208 z m -145.373,38.864 c 1.656,0 2.904,-0.84 3.456,-1.608 V 600 h 3.288 v -12 h -3.288 v 1.344 c -0.552,-0.768 -1.8,-1.608 -3.456,-1.608 -3.192,0 -5.64,2.88 -5.64,6.264 0,3.384 2.448,6.264 5.64,6.264 z m 0.696,-3 c -1.824,0 -3.024,-1.368 -3.024,-3.264 0,-1.896 1.2,-3.264 3.024,-3.264 1.824,0 3.024,1.368 3.024,3.264 0,1.896 -1.2,3.264 -3.024,3.264 z m 9.244,2.736 h 6.577 c 3.192,0 4.392,-1.872 4.392,-3.648 0,-1.128 -0.6,-2.136 -1.56,-2.736 0.528,-0.6 0.792,-1.272 0.792,-2.016 0,-1.8 -1.344,-3.6 -4.464,-3.6 h -5.737 z m 3.289,-2.688 v -2.376 h 3.12 c 0.744,0 1.296,0.408 1.296,1.176 0,0.792 -0.552,1.2 -1.296,1.2 z m 0,-4.584 v -2.208 h 2.448 c 0.552,0 1.2,0.264 1.2,1.104 0,0.84 -0.648,1.104 -1.2,1.104 z m 11.95,7.272 h 3.288 v -9.12 h 3.552 V 588 h -10.152 v 2.88 h 3.312 z m 14.071,0.264 c 3.48,0 6.312,-2.736 6.312,-6.264 0,-3.504 -2.832,-6.264 -6.312,-6.264 -3.48,0 -6.312,2.76 -6.312,6.264 0,3.528 2.832,6.264 6.312,6.264 z m 0,-3.072 c -1.728,0 -3,-1.344 -3,-3.192 0,-1.848 1.272,-3.192 3,-3.192 1.704,0 2.976,1.344 2.976,3.192 0,1.848 -1.272,3.192 -2.976,3.192 z M 874.389,588 v 12 h 3.288 v -6.936 l 3.456,4.344 3.432,-4.344 V 600 h 3.288 v -12 h -2.784 l -3.96,4.992 -3.936,-4.992 z m 21.512,12.264 c 1.656,0 2.904,-0.84 3.456,-1.608 V 600 h 3.288 v -12 h -3.288 v 1.344 c -0.552,-0.768 -1.8,-1.608 -3.456,-1.608 -3.192,0 -5.64,2.88 -5.64,6.264 0,3.384 2.448,6.264 5.64,6.264 z m 0.696,-3 c -1.824,0 -3.024,-1.368 -3.024,-3.264 0,-1.896 1.2,-3.264 3.024,-3.264 1.824,0 3.024,1.368 3.024,3.264 0,1.896 -1.2,3.264 -3.024,3.264 z M 908.002,600 h 3.288 v -9.12 h 3.552 V 588 H 904.69 v 2.88 h 3.312 z m 20.423,0 h 3.288 v -12 h -3.288 z m -11.568,0 h 5.544 c 3.192,0 4.416,-2.472 4.416,-4.272 0,-1.8 -1.224,-4.152 -4.416,-4.152 h -2.256 V 588 h -3.288 z m 3.288,-5.616 h 1.872 c 1.08,0 1.704,0.432 1.704,1.368 0,0.936 -0.624,1.44 -1.704,1.44 h -1.872 z" fill="#000000" id="path209"></path><path d="M 963,781.092 V 718 h -83.431 c -2.49,13.144 1.909,39.433 39.433,39.433 19.924,0 43.998,16.188 43.998,23.659 z" fill="#ffffff" id="path211"></path><rect x="726" y="688" width="237" height="69" rx="30" fill="#ffffff" id="rect213"></rect><path d="m 750.656,718.64 c 0.36,-1.032 1.224,-1.776 2.448,-1.776 1.416,0 2.136,0.816 2.136,1.944 0,1.152 -0.672,1.968 -1.992,1.968 h -1.824 v 2.928 h 2.016 c 1.512,0 2.376,0.816 2.376,2.04 0,1.344 -0.888,2.28 -2.64,2.28 -1.536,0 -2.712,-0.744 -3.12,-2.184 h -3.48 c 0.456,3.576 3.408,5.448 6.624,5.448 3.24,0 6,-1.944 6,-5.28 0,-1.728 -0.744,-3.24 -2.304,-4.104 1.368,-1.08 1.704,-2.448 1.704,-3.696 0,-2.736 -2.232,-4.536 -5.424,-4.536 -2.568,0 -5.352,1.344 -5.976,4.968 z m 16.604,12.624 c 3.48,0 6.312,-2.736 6.312,-6.264 0,-3.504 -2.832,-6.264 -6.312,-6.264 -3.48,0 -6.312,2.76 -6.312,6.264 0,3.528 2.832,6.264 6.312,6.264 z m 0,-3.072 c -1.728,0 -3,-1.344 -3,-3.192 0,-1.848 1.272,-3.192 3,-3.192 1.704,0 2.976,1.344 2.976,3.192 0,1.848 -1.272,3.192 -2.976,3.192 z m 8.683,2.808 h 3.288 v -4.608 h 4.944 V 731 h 3.288 v -12 h -3.288 v 4.536 h -4.944 V 719 h -3.288 z m 19.568,0.264 c 1.656,0 2.904,-0.84 3.456,-1.608 V 731 h 3.288 v -12 h -3.288 v 1.344 c -0.552,-0.768 -1.8,-1.608 -3.456,-1.608 -3.192,0 -5.64,2.88 -5.64,6.264 0,3.384 2.448,6.264 5.64,6.264 z m 0.696,-3 c -1.824,0 -3.024,-1.368 -3.024,-3.264 0,-1.896 1.2,-3.264 3.024,-3.264 1.824,0 3.024,1.368 3.024,3.264 0,1.896 -1.2,3.264 -3.024,3.264 z m 20.249,3 c 3.312,0 5.496,-2.088 6.144,-4.848 h -3.408 c -0.456,1.08 -1.32,1.872 -2.736,1.872 -1.728,0 -3,-1.272 -3,-3.288 0,-2.016 1.272,-3.288 3,-3.288 1.416,0 2.28,0.792 2.736,1.872 h 3.408 c -0.648,-2.76 -2.832,-4.848 -6.144,-4.848 -3.648,0 -6.312,2.784 -6.312,6.264 0,3.48 2.664,6.264 6.312,6.264 z m 13.898,0 c 3.48,0 6.312,-2.736 6.312,-6.264 0,-3.504 -2.832,-6.264 -6.312,-6.264 -3.48,0 -6.312,2.76 -6.312,6.264 0,3.528 2.832,6.264 6.312,6.264 z m 0,-3.072 c -1.728,0 -3,-1.344 -3,-3.192 0,-1.848 1.272,-3.192 3,-3.192 1.704,0 2.976,1.344 2.976,3.192 0,1.848 -1.272,3.192 -2.976,3.192 z m 19.688,3.072 c 3.312,0 5.496,-2.088 6.144,-4.848 h -3.408 c -0.456,1.08 -1.32,1.872 -2.736,1.872 -1.728,0 -3,-1.272 -3,-3.288 0,-2.016 1.272,-3.288 3,-3.288 1.416,0 2.28,0.792 2.736,1.872 h 3.408 c -0.648,-2.76 -2.832,-4.848 -6.144,-4.848 -3.648,0 -6.312,2.784 -6.312,6.264 0,3.48 2.664,6.264 6.312,6.264 z M 860.392,731 h 3.288 v -9.12 h 3.552 V 719 H 857.08 v 2.88 h 3.312 z m 14.071,0.264 c 3.48,0 6.312,-2.736 6.312,-6.264 0,-3.504 -2.832,-6.264 -6.312,-6.264 -3.48,0 -6.312,2.76 -6.312,6.264 0,3.528 2.832,6.264 6.312,6.264 z m 0,-3.072 c -1.728,0 -3,-1.344 -3,-3.192 0,-1.848 1.272,-3.192 3,-3.192 1.704,0 2.976,1.344 2.976,3.192 0,1.848 -1.272,3.192 -2.976,3.192 z m 8.858,3.048 c 2.016,0 4.032,-1.368 4.032,-4.56 v -4.8 h 3.696 V 731 h 3.288 v -12 h -10.272 v 7.272 c 0,1.656 -0.528,2.112 -1.464,2.112 -0.264,0 -0.576,-0.024 -0.84,-0.048 v 2.784 c 0.408,0.096 0.912,0.12 1.56,0.12 z m 19.065,0.024 c 1.656,0 2.904,-0.84 3.456,-1.608 V 731 h 3.288 v -12 h -3.288 v 1.344 c -0.552,-0.768 -1.8,-1.608 -3.456,-1.608 -3.192,0 -5.64,2.88 -5.64,6.264 0,3.384 2.448,6.264 5.64,6.264 z m 0.696,-3 c -1.824,0 -3.024,-1.368 -3.024,-3.264 0,-1.896 1.2,-3.264 3.024,-3.264 1.824,0 3.024,1.368 3.024,3.264 0,1.896 -1.2,3.264 -3.024,3.264 z M 912.326,719 v 12 h 3.288 v -6.936 l 3.456,4.344 3.432,-4.344 V 731 h 3.288 v -12 h -2.784 l -3.96,4.992 L 915.11,719 Z m 19.593,12 5.376,-7.08 V 731 h 3.264 v -12 h -2.928 l -5.376,7.08 V 719 h -3.288 v 12 z" fill="#000000" id="path215"></path><path d="M 878,911.092 V 848 h -83.431 c -2.49,13.144 1.909,39.433 39.433,39.433 19.924,0 43.998,16.188 43.998,23.659 z" fill="#ffffff" id="path217"></path><rect x="769" y="818" width="109" height="69" rx="30" fill="#ffffff" id="rect219"></rect><path d="m 790.896,861 h 19.68 v -17.04 h -3.48 v 13.728 h -4.608 V 843.96 h -3.504 v 13.728 H 794.4 V 843.96 h -3.504 z m 30.763,0 h 4.224 l -5.808,-6.096 4.992,-5.904 h -3.912 l -4.056,4.896 V 849 h -3.288 v 12 h 3.288 v -4.848 z m 9.563,0.264 c 1.656,0 2.904,-0.84 3.456,-1.608 V 861 h 3.288 v -12 h -3.288 v 1.344 c -0.552,-0.768 -1.8,-1.608 -3.456,-1.608 -3.192,0 -5.64,2.88 -5.64,6.264 0,3.384 2.448,6.264 5.64,6.264 z m 0.696,-3 c -1.824,0 -3.024,-1.368 -3.024,-3.264 0,-1.896 1.2,-3.264 3.024,-3.264 1.824,0 3.024,1.368 3.024,3.264 0,1.896 -1.2,3.264 -3.024,3.264 z m 18.484,7.752 v -4.752 h 0.24 c 4.176,0 6.456,-2.952 6.456,-6.264 0,-3.312 -2.28,-6.264 -6.456,-6.264 h -0.24 V 843 h -3.288 v 5.736 h -0.264 c -4.176,0 -6.456,2.952 -6.456,6.264 0,3.312 2.28,6.264 6.456,6.264 h 0.264 v 4.752 z m 0.24,-14.256 c 1.968,0 3.144,1.512 3.144,3.24 0,1.728 -1.152,3.24 -3.144,3.24 h -0.24 v -6.48 z m -3.528,6.48 h -0.264 c -1.992,0 -3.144,-1.512 -3.144,-3.24 0,-1.728 1.176,-3.24 3.144,-3.24 h 0.264 z" fill="#000000" id="path221"></path><path d="m 1064,917 v 63.092 h -83.431 c -2.49,-13.144 1.909,-39.432 39.431,-39.432 19.93,0 44,-16.189 44,-23.66 z" fill="#ffffff" id="path223"></path><rect x="878" y="939.99902" width="186" height="69" rx="30" fill="#ffffff" id="rect225"></rect><path d="m 899.896,965.959 v 17.04 h 3.48 v -11.088 l 5.232,7.176 5.232,-7.176 v 11.088 h 3.48 v -17.04 h -3.168 l -5.544,7.608 -5.544,-7.608 z m 18.934,17.04 h 3.72 l 3.504,-3.792 h 1.152 v 3.792 h 3.288 v -12 h -5.304 c -2.832,0 -4.416,1.752 -4.416,4.032 0,1.536 0.816,2.736 2.184,3.408 z m 6.552,-6.432 c -0.84,0 -1.512,-0.504 -1.512,-1.392 0,-0.936 0.504,-1.512 1.488,-1.512 h 1.848 v 2.904 z m 8.28,6.432 h 3.288 v -9.12 h 4.992 v -2.88 h -8.28 z m 18.114,0 H 956 l -5.808,-6.096 4.992,-5.904 h -3.912 l -4.056,4.896 v -4.896 h -3.288 v 12 h 3.288 v -4.848 z m 9.563,0.264 c 1.656,0 2.904,-0.84 3.456,-1.608 v 1.344 h 3.288 v -12 h -3.288 v 1.344 c -0.552,-0.768 -1.8,-1.608 -3.456,-1.608 -3.192,0 -5.64,2.88 -5.64,6.264 0,3.384 2.448,6.264 5.64,6.264 z m 0.696,-3 c -1.824,0 -3.024,-1.368 -3.024,-3.264 0,-1.896 1.2,-3.264 3.024,-3.264 1.824,0 3.024,1.368 3.024,3.264 0,1.896 -1.2,3.264 -3.024,3.264 z m 7.396,2.736 h 3.72 l 3.504,-3.792 h 1.152 v 3.792 h 3.288 v -12 h -5.304 c -2.832,0 -4.416,1.752 -4.416,4.032 0,1.536 0.816,2.736 2.184,3.408 z m 6.552,-6.432 c -0.84,0 -1.512,-0.504 -1.512,-1.392 0,-0.936 0.504,-1.512 1.488,-1.512 h 1.848 v 2.904 z m 18.278,6.696 c 3.504,0 5.136,-1.968 5.136,-3.792 0,-1.272 -0.528,-2.184 -1.608,-2.784 0.864,-0.648 1.128,-1.56 1.128,-2.4 0,-1.56 -1.344,-3.552 -4.632,-3.552 -2.304,0 -4.704,0.984 -5.28,3.792 h 3.288 c 0.264,-0.744 0.912,-1.224 1.896,-1.224 1.08,0 1.584,0.528 1.584,1.224 0,0.768 -0.552,1.176 -1.392,1.176 h -1.344 v 2.256 h 1.464 c 1.032,0 1.584,0.48 1.584,1.248 0,0.84 -0.624,1.344 -1.848,1.368 -1.08,0 -1.872,-0.48 -2.136,-1.344 h -3.384 c 0.504,2.856 3.096,4.032 5.544,4.032 z m 13.079,0 c 3.48,0 6.31,-2.736 6.31,-6.264 0,-3.504 -2.83,-6.264 -6.31,-6.264 -3.48,0 -6.31,2.76 -6.31,6.264 0,3.528 2.83,6.264 6.31,6.264 z m 0,-3.072 c -1.73,0 -3,-1.344 -3,-3.192 0,-1.848 1.27,-3.192 3,-3.192 1.7,0 2.97,1.344 2.97,3.192 0,1.848 -1.27,3.192 -2.97,3.192 z m 8.68,2.808 h 3.29 v -4.608 h 4.94 v 4.608 h 3.29 v -12 h -3.29 v 4.536 h -4.94 v -4.536 h -3.29 z m 19.57,0.264 c 1.65,0 2.9,-0.84 3.45,-1.608 v 1.344 h 3.29 v -12 h -3.29 v 1.344 c -0.55,-0.768 -1.8,-1.608 -3.45,-1.608 -3.19,0 -5.64,2.88 -5.64,6.264 0,3.384 2.45,6.264 5.64,6.264 z m 0.69,-3 c -1.82,0 -3.02,-1.368 -3.02,-3.264 0,-1.896 1.2,-3.264 3.02,-3.264 1.83,0 3.03,1.368 3.03,3.264 0,1.896 -1.2,3.264 -3.03,3.264 z" fill="#000000" id="path227"></path><path d="m 1159,870 v 63.092 h 83.43 c 2.49,-13.144 -1.91,-39.432 -39.43,-39.432 -19.93,0 -44,-16.189 -44,-23.66 z" fill="#ffffff" id="path229"></path><rect x="1159" y="892.99902" width="237" height="69" rx="30" fill="#ffffff" id="rect231"></rect><path d="m 1183.66,923.639 c 0.36,-1.032 1.22,-1.776 2.44,-1.776 1.42,0 2.14,0.816 2.14,1.944 0,1.152 -0.67,1.968 -1.99,1.968 h -1.83 v 2.928 h 2.02 c 1.51,0 2.38,0.816 2.38,2.04 0,1.344 -0.89,2.28 -2.64,2.28 -1.54,0 -2.72,-0.744 -3.12,-2.184 h -3.48 c 0.45,3.576 3.4,5.448 6.62,5.448 3.24,0 6,-1.944 6,-5.28 0,-1.728 -0.74,-3.24 -2.3,-4.104 1.36,-1.08 1.7,-2.448 1.7,-3.696 0,-2.736 -2.23,-4.536 -5.42,-4.536 -2.57,0 -5.36,1.344 -5.98,4.968 z m 16.6,12.624 c 3.48,0 6.31,-2.736 6.31,-6.264 0,-3.504 -2.83,-6.264 -6.31,-6.264 -3.48,0 -6.31,2.76 -6.31,6.264 0,3.528 2.83,6.264 6.31,6.264 z m 0,-3.072 c -1.73,0 -3,-1.344 -3,-3.192 0,-1.848 1.27,-3.192 3,-3.192 1.7,0 2.98,1.344 2.98,3.192 0,1.848 -1.28,3.192 -2.98,3.192 z m 8.68,2.808 h 3.29 v -4.608 h 4.95 v 4.608 h 3.28 v -12 h -3.28 v 4.536 h -4.95 v -4.536 h -3.29 z m 19.57,0.264 c 1.66,0 2.9,-0.84 3.46,-1.608 v 1.344 h 3.28 v -12 h -3.28 v 1.344 c -0.56,-0.768 -1.8,-1.608 -3.46,-1.608 -3.19,0 -5.64,2.88 -5.64,6.264 0,3.384 2.45,6.264 5.64,6.264 z m 0.7,-3 c -1.83,0 -3.03,-1.368 -3.03,-3.264 0,-1.896 1.2,-3.264 3.03,-3.264 1.82,0 3.02,1.368 3.02,3.264 0,1.896 -1.2,3.264 -3.02,3.264 z m 20.25,3 c 3.31,0 5.49,-2.088 6.14,-4.848 h -3.41 c -0.45,1.08 -1.32,1.872 -2.73,1.872 -1.73,0 -3,-1.272 -3,-3.288 0,-2.016 1.27,-3.288 3,-3.288 1.41,0 2.28,0.792 2.73,1.872 h 3.41 c -0.65,-2.76 -2.83,-4.848 -6.14,-4.848 -3.65,0 -6.32,2.784 -6.32,6.264 0,3.48 2.67,6.264 6.32,6.264 z m 13.89,0 c 3.48,0 6.32,-2.736 6.32,-6.264 0,-3.504 -2.84,-6.264 -6.32,-6.264 -3.48,0 -6.31,2.76 -6.31,6.264 0,3.528 2.83,6.264 6.31,6.264 z m 0,-3.072 c -1.72,0 -3,-1.344 -3,-3.192 0,-1.848 1.28,-3.192 3,-3.192 1.71,0 2.98,1.344 2.98,3.192 0,1.848 -1.27,3.192 -2.98,3.192 z m 19.69,3.072 c 3.31,0 5.5,-2.088 6.15,-4.848 h -3.41 c -0.46,1.08 -1.32,1.872 -2.74,1.872 -1.73,0 -3,-1.272 -3,-3.288 0,-2.016 1.27,-3.288 3,-3.288 1.42,0 2.28,0.792 2.74,1.872 h 3.41 c -0.65,-2.76 -2.84,-4.848 -6.15,-4.848 -3.65,0 -6.31,2.784 -6.31,6.264 0,3.48 2.66,6.264 6.31,6.264 z m 10.35,-0.264 h 3.29 v -9.12 h 3.55 v -2.88 h -10.15 v 2.88 h 3.31 z m 14.07,0.264 c 3.48,0 6.32,-2.736 6.32,-6.264 0,-3.504 -2.84,-6.264 -6.32,-6.264 -3.48,0 -6.31,2.76 -6.31,6.264 0,3.528 2.83,6.264 6.31,6.264 z m 0,-3.072 c -1.72,0 -3,-1.344 -3,-3.192 0,-1.848 1.28,-3.192 3,-3.192 1.71,0 2.98,1.344 2.98,3.192 0,1.848 -1.27,3.192 -2.98,3.192 z m 8.86,3.048 c 2.02,0 4.03,-1.368 4.03,-4.56 v -4.8 h 3.7 v 9.12 h 3.29 v -12 h -10.28 v 7.272 c 0,1.656 -0.52,2.112 -1.46,2.112 -0.26,0 -0.58,-0.024 -0.84,-0.048 v 2.784 c 0.41,0.096 0.91,0.12 1.56,0.12 z m 19.07,0.024 c 1.65,0 2.9,-0.84 3.45,-1.608 v 1.344 h 3.29 v -12 h -3.29 v 1.344 c -0.55,-0.768 -1.8,-1.608 -3.45,-1.608 -3.2,0 -5.64,2.88 -5.64,6.264 0,3.384 2.44,6.264 5.64,6.264 z m 0.69,-3 c -1.82,0 -3.02,-1.368 -3.02,-3.264 0,-1.896 1.2,-3.264 3.02,-3.264 1.83,0 3.03,1.368 3.03,3.264 0,1.896 -1.2,3.264 -3.03,3.264 z m 9.25,-9.264 v 12 h 3.28 v -6.936 l 3.46,4.344 3.43,-4.344 v 6.936 h 3.29 v -12 h -2.78 l -3.96,4.992 -3.94,-4.992 z m 19.59,12 5.37,-7.08 v 7.08 h 3.27 v -12 h -2.93 l -5.38,7.08 v -7.08 h -3.28 v 12 z" fill="#000000" id="path233"></path><path d="M 1279,488.092 V 425 h 83.43 c 2.49,13.144 -1.91,39.433 -39.43,39.433 -19.93,0 -44,16.188 -44,23.659 z" fill="#ffffff" id="path235"></path><rect x="1279" y="395" width="134" height="69" rx="30" fill="#ffffff" id="rect237"></rect><path d="m 1306.1,438 h 3.1 l 7.06,-17.04 h -3.84 l -4.76,11.832 -4.82,-11.832 h -3.77 z m 12.09,0 h 3.48 v -7.176 h 0.84 l 5.86,7.176 h 4.2 l -6.12,-7.56 c 2.28,-0.696 3.5,-2.136 3.5,-4.44 0,-2.832 -2.06,-5.04 -5.23,-5.04 h -6.53 z m 3.48,-10.152 v -3.696 h 2.64 c 1.32,0 2.19,0.672 2.19,1.848 0,1.152 -0.87,1.848 -2.19,1.848 z M 1336.31,438 h 3.6 l 1.64,-3.888 h 7.27 l 1.65,3.888 h 3.65 l -7.37,-17.04 h -3.09 z m 8.88,-12.456 2.33,5.52 h -4.68 z m 14.51,12.72 c 1.54,0 2.64,-0.672 3.29,-1.632 V 438 h 3.29 v -12 h -3.29 v 5.856 c 0,2.328 -1.01,3.408 -2.47,3.408 -1.44,0 -2.04,-1.032 -2.04,-2.856 V 426 h -3.29 v 6.96 c 0,3.168 1.63,5.304 4.51,5.304 z m 15.55,-0.12 c 0.94,0 1.54,-0.096 2.09,-0.264 v -2.904 c -0.38,0.144 -0.84,0.216 -1.34,0.216 -1.44,0 -2.04,-0.576 -2.04,-2.04 v -4.272 h 3.38 V 426 h -3.38 v -3.336 h -3.29 V 426 h -2.43 v 2.88 h 2.43 v 4.92 c 0,2.952 2.04,4.344 4.58,4.344 z m 9.79,0.12 c 3.48,0 6.31,-2.736 6.31,-6.264 0,-3.504 -2.83,-6.264 -6.31,-6.264 -3.48,0 -6.31,2.76 -6.31,6.264 0,3.528 2.83,6.264 6.31,6.264 z m 0,-3.072 c -1.73,0 -3,-1.344 -3,-3.192 0,-1.848 1.27,-3.192 3,-3.192 1.71,0 2.98,1.344 2.98,3.192 0,1.848 -1.27,3.192 -2.98,3.192 z" fill="#000000" id="path239"></path><path d="M 1642,500.092 V 437 h 83.43 c 2.49,13.144 -1.91,39.433 -39.43,39.433 -19.93,0 -44,16.188 -44,23.659 z" fill="#ffffff" id="path241"></path><rect x="1642" y="378" width="117" height="98" rx="30" fill="#ffffff" id="rect243"></rect><path d="m 1662.02,421 h 3.6 l 1.64,-3.888 h 7.27 l 1.65,3.888 h 3.65 l -7.37,-17.04 h -3.09 z m 8.88,-12.456 2.33,5.52 h -4.68 z m 13.81,17.472 v -6.36 c 0.55,0.768 1.82,1.608 3.48,1.608 3.19,0 5.64,-2.88 5.64,-6.264 0,-3.384 -2.45,-6.264 -5.64,-6.264 -1.66,0 -2.93,0.84 -3.48,1.608 V 409 h -3.29 v 17.016 z m 2.76,-7.752 c -1.83,0 -3.03,-1.368 -3.03,-3.264 0,-1.896 1.2,-3.264 3.03,-3.264 1.82,0 3.02,1.368 3.02,3.264 0,1.896 -1.2,3.264 -3.02,3.264 z m 14.28,3 c 3.05,0 5.45,-1.752 6.15,-4.176 h -3.44 c -0.38,0.84 -1.39,1.32 -2.54,1.32 -2.06,0 -3.12,-1.224 -3.24,-2.64 h 9.36 c 0.19,-4.512 -2.76,-7.032 -6.26,-7.032 -3.65,0 -6.32,2.664 -6.32,6.24 0,3.648 2.62,6.288 6.29,6.288 z m -0.07,-9.864 c 1.1,0 2.38,0.6 2.76,2.208 h -5.64 c 0.31,-1.344 1.34,-2.208 2.88,-2.208 z m 8.76,9.6 h 3.28 v -4.608 h 4.95 V 421 h 3.29 v -12 h -3.29 v 4.536 h -4.95 V 409 h -3.28 z m 19.56,0.264 c 1.66,0 2.91,-0.84 3.46,-1.608 V 421 h 3.29 v -12 h -3.29 v 1.344 c -0.55,-0.768 -1.8,-1.608 -3.46,-1.608 -3.19,0 -5.64,2.88 -5.64,6.264 0,3.384 2.45,6.264 5.64,6.264 z m 0.7,-3 c -1.83,0 -3.03,-1.368 -3.03,-3.264 0,-1.896 1.2,-3.264 3.03,-3.264 1.82,0 3.02,1.368 3.02,3.264 0,1.896 -1.2,3.264 -3.02,3.264 z M 1665.65,450 h 3.29 v -17.04 h -4.49 l -2.4,3.24 h 3.6 z m 12.77,0.264 c 3.72,0 6.34,-2.832 6.34,-6.744 v -4.128 c 0,-3.888 -2.62,-6.72 -6.34,-6.72 -3.74,0 -6.36,2.832 -6.36,6.72 v 4.128 c 0,3.912 2.62,6.744 6.36,6.744 z m 0,-3.24 c -1.82,0 -3.07,-1.296 -3.07,-3.504 v -4.128 c 0,-2.208 1.25,-3.48 3.07,-3.48 1.82,0 3.05,1.272 3.05,3.48 v 4.128 c 0,2.208 -1.23,3.504 -3.05,3.504 z m 15.14,3.24 c 3.72,0 6.34,-2.832 6.34,-6.744 v -4.128 c 0,-3.888 -2.62,-6.72 -6.34,-6.72 -3.74,0 -6.36,2.832 -6.36,6.72 v 4.128 c 0,3.912 2.62,6.744 6.36,6.744 z m 0,-3.24 c -1.82,0 -3.07,-1.296 -3.07,-3.504 v -4.128 c 0,-2.208 1.25,-3.48 3.07,-3.48 1.82,0 3.05,1.272 3.05,3.48 v 4.128 c 0,2.208 -1.23,3.504 -3.05,3.504 z m 14.6,-9.024 v 12 h 3.29 v -6.936 l 3.46,4.344 3.43,-4.344 V 450 h 3.29 v -12 h -2.79 l -3.96,4.992 -3.93,-4.992 z m 22.86,-0.144 h -3.87 c 0.27,-0.456 1.35,-1.032 1.73,-1.296 1.15,-0.768 2.09,-1.752 2.09,-3.672 0,-2.184 -1.66,-3.264 -3.38,-3.264 -2.12,0 -3.72,1.488 -3.72,3.504 h 2.35 c -0.03,-0.6 0.45,-1.2 1.29,-1.2 0.75,0 1.11,0.48 1.11,1.056 0,0.744 -0.75,1.464 -1.51,1.968 -1.54,1.08 -3.29,2.04 -3.29,4.44 v 0.768 h 7.2 z" fill="#000000" id="path245"></path><path d="M 1516,368.092 V 305 h 83.43 c 2.49,13.144 -1.91,39.433 -39.43,39.433 -19.93,0 -44,16.188 -44,23.659 z" fill="#ffffff" id="path247"></path><rect x="1516" y="247" width="99" height="98" rx="30" fill="#ffffff" id="rect249"></rect><path d="m 1548.74,290 h 4.52 l -8.48,-8.856 7.01,-8.184 h -4.29 l -6.15,7.224 v -7.224 h -3.45 V 290 h 3.45 v -7.728 z m 15.68,-12 h -3.62 l -3.1,7.512 -3.31,-7.512 h -3.6 l 5.04,11.328 -0.6,1.392 c -0.58,1.248 -1.27,1.656 -2.11,1.656 -0.55,0 -0.82,-0.024 -1.18,-0.048 v 2.808 c 0.46,0.072 0.94,0.096 1.61,0.096 2.33,0 3.77,-1.152 4.9,-3.72 z m 7.43,12.264 c 3.55,0 6.28,-2.76 6.28,-6.288 0,-3.12 -2.08,-5.688 -5.66,-5.688 -1.25,0 -2.5,0.36 -3.46,1.296 0.32,-2.376 1.85,-3.432 4.54,-3.936 l 3.48,-0.624 v -3.12 l -4.2,0.768 c -4.61,0.84 -7.22,3.24 -7.22,9.528 v 0.696 c 0,4.512 2.13,7.368 6.24,7.368 z m -0.03,-3.072 c -1.7,0 -2.95,-1.104 -2.95,-3.12 0,-1.56 1.18,-2.928 2.98,-2.928 1.77,0 2.97,1.344 2.97,2.928 0,2.016 -1.27,3.12 -3,3.12 z m -23.22,28.568 h -7.06 c 0.44,-1.08 2.26,-2.088 3.32,-2.832 2.16,-1.584 3.6,-3.072 3.6,-6 0,-3.456 -2.62,-5.256 -5.48,-5.256 -3.38,0 -5.95,2.28 -5.95,5.64 h 3.31 c -0.02,-1.368 1.06,-2.4 2.57,-2.4 1.47,0 2.26,0.96 2.26,2.208 0,1.368 -1.2,2.472 -2.69,3.504 -2.5,1.8 -5.5,3.432 -5.5,7.248 V 319 h 11.62 z m 7.97,3.504 c 3.56,0 5.96,-2.208 5.96,-5.616 0,-3.456 -2.07,-5.88 -5.31,-5.88 -0.96,0 -1.77,0.216 -2.35,0.576 l 0.65,-3.192 h 5.76 v -3.192 h -8.31 l -1.92,9.672 2.91,0.888 c 0.38,-1.032 1.32,-1.776 2.66,-1.776 1.54,0 2.62,1.128 2.62,2.64 0,1.464 -0.96,2.64 -2.67,2.64 -1.32,0 -2.37,-0.84 -2.66,-1.968 h -3.41 c 0.12,3.048 2.95,5.208 6.07,5.208 z M 1570.54,307 v 12 h 3.29 v -6.936 l 3.45,4.344 3.43,-4.344 V 319 h 3.29 v -12 h -2.78 l -3.96,4.992 -3.94,-4.992 z m 22.85,-0.144 h -3.86 c 0.26,-0.456 1.34,-1.032 1.73,-1.296 1.15,-0.768 2.09,-1.752 2.09,-3.672 0,-2.184 -1.66,-3.264 -3.39,-3.264 -2.11,0 -3.72,1.488 -3.72,3.504 h 2.35 c -0.02,-0.6 0.46,-1.2 1.3,-1.2 0.74,0 1.1,0.48 1.1,1.056 0,0.744 -0.74,1.464 -1.51,1.968 -1.53,1.08 -3.29,2.04 -3.29,4.44 v 0.768 h 7.2 z" fill="#000000" id="path251"></path><path d="M 1399,268.092 V 205 h 83.43 c 2.49,13.144 -1.91,39.433 -39.43,39.433 -19.93,0 -44,16.188 -44,23.659 z" fill="#ffffff" id="path253"></path><rect x="1399" y="176" width="138" height="69" rx="30" fill="#ffffff" id="rect255"></rect><path d="m 1426.1,219 h 3.1 l 7.06,-17.04 h -3.84 l -4.76,11.832 -4.82,-11.832 h -3.77 z m 12.09,0 h 3.48 v -7.176 h 0.84 l 5.86,7.176 h 4.2 l -6.12,-7.56 c 2.28,-0.696 3.5,-2.136 3.5,-4.44 0,-2.832 -2.06,-5.04 -5.23,-5.04 h -6.53 z m 3.48,-10.152 v -3.696 h 2.64 c 1.32,0 2.19,0.672 2.19,1.848 0,1.152 -0.87,1.848 -2.19,1.848 z m 17.27,-6.888 V 219 h 3.48 v -11.088 l 5.23,7.176 5.23,-7.176 V 219 h 3.48 v -17.04 h -3.17 l -5.54,7.608 -5.55,-7.608 z m 26.13,17.304 c 3.48,0 6.31,-2.736 6.31,-6.264 0,-3.504 -2.83,-6.264 -6.31,-6.264 -3.48,0 -6.31,2.76 -6.31,6.264 0,3.528 2.83,6.264 6.31,6.264 z m 0,-3.072 c -1.73,0 -3,-1.344 -3,-3.192 0,-1.848 1.27,-3.192 3,-3.192 1.71,0 2.98,1.344 2.98,3.192 0,1.848 -1.27,3.192 -2.98,3.192 z m 14.24,2.952 c 0.93,0 1.53,-0.096 2.08,-0.264 v -2.904 c -0.38,0.144 -0.84,0.216 -1.34,0.216 -1.44,0 -2.04,-0.576 -2.04,-2.04 v -4.272 h 3.38 V 207 h -3.38 v -3.336 h -3.29 V 207 h -2.42 v 2.88 h 2.42 v 4.92 c 0,2.952 2.04,4.344 4.59,4.344 z m 9.79,0.12 c 3.48,0 6.31,-2.736 6.31,-6.264 0,-3.504 -2.83,-6.264 -6.31,-6.264 -3.48,0 -6.32,2.76 -6.32,6.264 0,3.528 2.84,6.264 6.32,6.264 z m 0,-3.072 c -1.73,0 -3,-1.344 -3,-3.192 0,-1.848 1.27,-3.192 3,-3.192 1.7,0 2.97,1.344 2.97,3.192 0,1.848 -1.27,3.192 -2.97,3.192 z" fill="#000000" id="path257"></path><path d="m 1304,760 v -63 h 83.43 c 2.49,13.125 -1.91,39.375 -39.43,39.375 -19.93,0 -44,16.164 -44,23.625 z" fill="#ffffff" id="path259"></path><rect x="1304" y="638" width="99" height="98" rx="30" fill="#ffffff" id="rect261"></rect><path d="m 1336.74,681 h 4.52 l -8.48,-8.856 7.01,-8.184 h -4.29 l -6.15,7.224 v -7.224 h -3.45 V 681 h 3.45 v -7.728 z m 15.68,-12 h -3.62 l -3.1,7.512 -3.31,-7.512 h -3.6 l 5.04,11.328 -0.6,1.392 c -0.58,1.248 -1.27,1.656 -2.11,1.656 -0.55,0 -0.82,-0.024 -1.18,-0.048 v 2.808 c 0.46,0.072 0.94,0.096 1.61,0.096 2.33,0 3.77,-1.152 4.9,-3.72 z m 7.43,12.264 c 3.55,0 6.28,-2.76 6.28,-6.288 0,-3.12 -2.08,-5.688 -5.66,-5.688 -1.25,0 -2.5,0.36 -3.46,1.296 0.32,-2.376 1.85,-3.432 4.54,-3.936 l 3.48,-0.624 v -3.12 l -4.2,0.768 c -4.61,0.84 -7.22,3.24 -7.22,9.528 v 0.696 c 0,4.512 2.13,7.368 6.24,7.368 z m -0.03,-3.072 c -1.7,0 -2.95,-1.104 -2.95,-3.12 0,-1.56 1.18,-2.928 2.98,-2.928 1.77,0 2.97,1.344 2.97,2.928 0,2.016 -1.27,3.12 -3,3.12 z m -23.22,28.568 h -7.06 c 0.44,-1.08 2.26,-2.088 3.32,-2.832 2.16,-1.584 3.6,-3.072 3.6,-6 0,-3.456 -2.62,-5.256 -5.48,-5.256 -3.38,0 -5.95,2.28 -5.95,5.64 h 3.31 c -0.02,-1.368 1.06,-2.4 2.57,-2.4 1.47,0 2.26,0.96 2.26,2.208 0,1.368 -1.2,2.472 -2.69,3.504 -2.5,1.8 -5.5,3.432 -5.5,7.248 V 710 h 11.62 z m 7.97,3.504 c 3.56,0 5.96,-2.208 5.96,-5.616 0,-3.456 -2.07,-5.88 -5.31,-5.88 -0.96,0 -1.77,0.216 -2.35,0.576 l 0.65,-3.192 h 5.76 v -3.192 h -8.31 l -1.92,9.672 2.91,0.888 c 0.38,-1.032 1.32,-1.776 2.66,-1.776 1.54,0 2.62,1.128 2.62,2.64 0,1.464 -0.96,2.64 -2.67,2.64 -1.32,0 -2.37,-0.84 -2.66,-1.968 h -3.41 c 0.12,3.048 2.95,5.208 6.07,5.208 z M 1358.54,698 v 12 h 3.29 v -6.936 l 3.45,4.344 3.43,-4.344 V 710 h 3.29 v -12 h -2.78 l -3.96,4.992 -3.94,-4.992 z m 22.85,-0.144 h -3.86 c 0.26,-0.456 1.34,-1.032 1.73,-1.296 1.15,-0.768 2.09,-1.752 2.09,-3.672 0,-2.184 -1.66,-3.264 -3.39,-3.264 -2.11,0 -3.72,1.488 -3.72,3.504 h 2.35 c -0.02,-0.6 0.46,-1.2 1.3,-1.2 0.74,0 1.1,0.48 1.1,1.056 0,0.744 -0.74,1.464 -1.51,1.968 -1.53,1.08 -3.29,2.04 -3.29,4.44 v 0.768 h 7.2 z" fill="#000000" id="path263"></path></g></g></svg>
