<svg width="349" height="253" fill="none" xmlns="http://www.w3.org/2000/svg"><g clip-path="url('#clip0_1058_4434')"><path fill-rule="evenodd" clip-rule="evenodd" d="M19.115 231.555c.68-.392 1.783-.392 2.463 0l3.94 2.275c.68.393.68 1.029 0 1.422s-1.783.393-2.463 0l-3.94-2.275c-.68-.393-.68-1.029 0-1.422Zm20.44 11.802c.68-.393 1.783-.393 2.463 0l2.71 1.564c.68.392.68 1.029 0 1.421-.68.393-1.784.393-2.464 0l-2.709-1.564c-.68-.392-.68-1.029 0-1.421ZM165.085 33.623c.68-.393 1.783-.393 2.463 0l5.479 3.163c.68.393.68 1.03 0 1.422l-21.034 12.144c-.68.393-1.783.393-2.463 0-.68-.392-.68-1.029 0-1.421l19.803-11.434-4.248-2.452c-.68-.393-.68-1.03 0-1.422Zm10.962-6.329c.68-.393 1.782-.393 2.462 0l4.248 2.453 21.729-12.545c.68-.393 1.783-.393 2.463 0 .68.392.68 1.029 0 1.422l-22.96 13.256c-.68.392-1.783.392-2.463 0l-5.479-3.164c-.68-.393-.68-1.03 0-1.422ZM100.334 163.691c.68-.392 1.782-.392 2.462 0l25.769 14.878c.68.392.68 1.029 0 1.422-.68.392-1.783.392-2.463 0l-25.768-14.878c-.68-.392-.68-1.029 0-1.422Zm30.801 31.863c-.68-.393-.68-1.03 0-1.422l24.589-14.197c.68-.393 1.783-.393 2.463 0l22.51 12.996c.68.393.68 1.03 0 1.422-.68.393-1.782.393-2.462 0l-21.279-12.285-23.358 13.486c-.681.392-1.783.392-2.463 0Z" fill="#37AEE2"/><path fill-rule="evenodd" clip-rule="evenodd" d="M149.53 48.93c.68-.392 1.783-.392 2.463 0l45.465 26.25c.68.392.68 1.029 0 1.421l-112.68 65.056 26.758 15.449c.68.393.68 1.029 0 1.422l-32.394 18.703 26.611 15.363c.68.393.68 1.029 0 1.422l-25.627 14.795c-.68.393-1.782.393-2.462 0l-6.914-3.991-49.28 28.452c-.68.393-1.783.393-2.463 0-.68-.393-.68-1.029 0-1.422l50.512-29.163c.68-.393 1.782-.393 2.462 0l6.914 3.992 23.164-13.374-26.61-15.363c-.68-.393-.68-1.03 0-1.422l32.393-18.703-26.758-15.449c-.68-.393-.68-1.029 0-1.422l112.68-65.055-44.234-25.539c-.68-.392-.68-1.029 0-1.422Zm55.697-32.156c.68-.393 1.782-.393 2.462 0L347.49 97.488c.68.393.68 1.03 0 1.422L124.112 227.878c-.68.392-1.783.392-2.463 0l-21.427-12.371-54.761 31.616c-.68.393-1.783.393-2.463 0-.68-.392-.68-1.029 0-1.422l55.993-32.327c.68-.393 1.782-.393 2.462 0l21.427 12.371 18.568-10.72-21.427-12.371c-.68-.393-.68-1.029 0-1.422s1.783-.393 2.463 0l21.427 12.371L343.796 98.199 205.227 18.196c-.68-.393-.68-1.03 0-1.422Z" fill="#000"/><path d="M157.206 136.148c-1.36-.786-1.36-2.059 0-2.844l55.215-31.878c1.36-.786 3.565-.786 4.925 0l56.386 32.554c1.36.785 1.36 2.058 0 2.844l-55.215 31.878c-1.36.785-3.565.785-4.925 0l-56.386-32.554ZM220.605 99.544c-1.36-.785-1.36-2.058 0-2.843l55.215-31.879c1.36-.785 3.565-.785 4.925 0l56.386 32.554c1.36.786 1.36 2.059 0 2.844l-55.215 31.878c-1.36.786-3.565.786-4.925 0l-56.386-32.554ZM213.916 61.644c-1.36-.786-1.36-2.059 0-2.844l25.885-14.945c1.361-.785 3.566-.785 4.926 0l26.47 15.283c1.361.785 1.361 2.058 0 2.843l-25.885 14.945c-1.36.786-3.565.786-4.925 0l-26.471-15.282ZM153.087 173.259c-1.36-.785-1.36-2.058 0-2.844l25.885-14.945c1.361-.785 3.566-.785 4.926 0l26.47 15.283c1.361.785 1.361 2.059 0 2.844l-25.885 14.945c-1.36.785-3.565.785-4.925 0l-26.471-15.283Z" fill="#CE2127"/><path fill-rule="evenodd" clip-rule="evenodd" d="m221.011 86.833-9.98 5.762c-.544.314-.544.823 0 1.137l4.942 2.853c.544.314 1.426.314 1.97 0l9.98-5.762c.544-.314.544-.823 0-1.137l-4.942-2.853c-.544-.314-1.426-.314-1.97 0Zm-10.227 5.62c-.68.392-.68 1.029 0 1.421l4.942 2.854c.68.392 1.783.392 2.463 0l9.98-5.762c.68-.393.68-1.03 0-1.422l-4.942-2.854c-.68-.392-1.782-.392-2.463 0l-9.98 5.762ZM166.795 118.134l-9.98 5.762c-.544.314-.544.823 0 1.137l4.942 2.853c.544.314 1.426.314 1.97 0l9.981-5.762c.544-.314.544-.823 0-1.137l-4.942-2.853c-.544-.315-1.427-.315-1.971 0Zm-10.226 5.619c-.68.393-.68 1.03 0 1.422l4.942 2.854c.68.392 1.783.392 2.463 0l9.98-5.762c.68-.393.68-1.03 0-1.422l-4.942-2.854c-.68-.392-1.783-.392-2.463 0l-9.98 5.762Z" fill="#000"/><path d="M196.942 32.973c-.248-.537.303-1.088 1.232-1.232l16.367-2.533c.928-.143 1.883.175 2.132.711l1.211 2.611c.249.536-.302 1.088-1.231 1.232l-16.367 2.532c-.929.144-1.883-.174-2.132-.71l-1.212-2.611ZM209.939 40.476c-.249-.536.303-1.087 1.232-1.231l16.366-2.533c.929-.144 1.884.174 2.133.71l1.211 2.612c.249.536-.303 1.087-1.232 1.231l-16.366 2.533c-.929.144-1.884-.174-2.133-.71l-1.211-2.612Z" fill="#CE2127"/><path fill-rule="evenodd" clip-rule="evenodd" d="m168.291 47.5-2.87 1.657c-.544.314-.544.824 0 1.138l9.681 5.59c.544.313 1.426.313 1.97 0l2.87-1.658c.544-.314.544-.823 0-1.137l-9.681-5.59c-.544-.314-1.426-.314-1.97 0Zm-3.116 1.515c-.68.393-.68 1.03 0 1.422l9.681 5.59c.68.392 1.782.392 2.462 0l2.87-1.658c.68-.392.68-1.029 0-1.422l-9.681-5.589c-.68-.392-1.782-.392-2.462 0l-2.87 1.657Z" fill="#000"/><path d="M167.683 96.014c-.68-.392-.68-1.029 0-1.421l7.906-4.565c.68-.393 1.783-.393 2.463 0l10.866 6.273c.68.393.68 1.03 0 1.422l-7.907 4.565c-.68.392-1.782.392-2.462 0l-10.866-6.274ZM104.284 132.618c-.68-.392-.68-1.029 0-1.422l7.906-4.564c.68-.393 1.783-.393 2.463 0l10.865 6.273c.68.393.68 1.029 0 1.422l-7.906 4.565c-.68.392-1.783.392-2.463 0l-10.865-6.274Z" fill="#CE2127"/><path fill-rule="evenodd" clip-rule="evenodd" d="m70.002 206.725-21.827 12.602c-.136.079-.136.206 0 .284l5.235 3.023a.548.548 0 0 0 .492 0l21.827-12.602c.136-.078.136-.206 0-.284l-5.235-3.023a.548.548 0 0 0-.492 0Zm-22.073 12.46c-.272.157-.272.412 0 .569l5.234 3.022c.273.157.714.157.986 0l21.826-12.602c.272-.157.272-.411 0-.568l-5.234-3.023c-.273-.157-.714-.157-.986 0L47.93 219.185Z" fill="#000"/><g filter="url('#filter0_d_1058_4434')"><path fill-rule="evenodd" clip-rule="evenodd" d="m136.423 112.925-11.165 6.446c-.544.314-.544.823 0 1.137l2.869 1.657c.544.314 1.426.314 1.97 0l11.165-6.447c.544-.314.544-.823 0-1.137l-2.869-1.656c-.544-.314-1.426-.314-1.97 0Zm-11.411 6.304c-.68.392-.68 1.029 0 1.422l2.869 1.656c.68.392 1.782.392 2.462 0l11.165-6.446c.68-.393.68-1.03 0-1.422l-2.868-1.656c-.68-.393-1.783-.393-2.463 0l-11.165 6.446Z" fill="#000"/></g><g filter="url('#filter1_d_1058_4434')"><path fill-rule="evenodd" clip-rule="evenodd" d="m137.17 114.032-9.851 5.687c-.136.079-.136.206 0 .285l2.956 1.706a.546.546 0 0 0 .492 0l9.851-5.688c.136-.078.136-.206 0-.284l-2.955-1.706a.542.542 0 0 0-.493 0Zm-10.097 5.545c-.272.157-.272.412 0 .569l2.955 1.706c.272.157.713.157.985 0l9.851-5.687c.272-.158.272-.412 0-.569l-2.955-1.706c-.272-.158-.713-.158-.985 0l-9.851 5.687Z" fill="#000"/></g><g filter="url('#filter2_d_1058_4434')"><path fill-rule="evenodd" clip-rule="evenodd" d="m152.924 103.398-11.166 6.447c-.544.314-.544.823 0 1.137l2.869 1.656c.544.314 1.426.314 1.97 0l11.165-6.446c.544-.314.544-.823 0-1.137l-2.868-1.657c-.544-.314-1.426-.314-1.97 0Zm-11.412 6.304c-.68.393-.68 1.03 0 1.422l2.869 1.656c.68.393 1.782.393 2.463 0l11.165-6.446c.68-.392.68-1.029 0-1.422l-2.869-1.656c-.68-.392-1.783-.392-2.463 0l-11.165 6.446Z" fill="#000"/></g><g filter="url('#filter3_d_1058_4434')"><path fill-rule="evenodd" clip-rule="evenodd" d="m153.671 104.505-9.851 5.688c-.136.078-.136.206 0 .284l2.955 1.706a.54.54 0 0 0 .492 0l9.851-5.687c.136-.079.136-.206 0-.284l-2.955-1.707a.546.546 0 0 0-.492 0Zm-10.098 5.546c-.272.157-.272.411 0 .568l2.956 1.707c.272.157.713.157.985 0l9.851-5.688c.272-.157.272-.412 0-.569l-2.956-1.706c-.272-.157-.713-.157-.985 0l-9.851 5.688Z" fill="#000"/></g><path fill-rule="evenodd" clip-rule="evenodd" d="m181.769 110.284 1.755 3.783c.103.22.479.331.8.26 1.168-.262 2.263-.664 3.206-1.209.944-.545 1.641-1.177 2.094-1.851.124-.185-.068-.403-.451-.462l-6.551-1.013c-.518-.08-.992.193-.853.492Zm1.419 3.835c.149.321.724.515 1.262.395 1.212-.271 2.348-.689 3.327-1.254.978-.565 1.702-1.221 2.171-1.921.209-.31-.127-.642-.684-.728l-6.552-1.014c-.777-.12-1.488.291-1.279.739l1.755 3.783ZM195.424 107.217l-4.088-3.124c-.239-.182-.66-.203-.911-.067-.912.495-1.665 1.106-2.185 1.815-.519.71-.754 1.447-.735 2.17.006.198.325.358.718.33l6.731-.482c.533-.038.794-.395.47-.642Zm-3.81-3.245c-.348-.266-1.007-.321-1.427-.093-.947.515-1.728 1.148-2.267 1.884-.539.736-.783 1.501-.763 2.251.009.333.537.568 1.109.527l6.731-.483c.798-.057 1.19-.591.705-.962l-4.088-3.124ZM144.436 152.359l1.755 3.782c.103.221.48.332.8.26 1.168-.261 2.263-.664 3.207-1.209.943-.544 1.64-1.176 2.093-1.851.124-.185-.068-.402-.45-.462l-6.552-1.013c-.518-.08-.992.194-.853.493Zm1.419 3.834c.149.322.724.516 1.262.395 1.212-.271 2.349-.689 3.327-1.253.978-.565 1.702-1.221 2.172-1.921.208-.311-.128-.643-.685-.729l-6.552-1.013c-.776-.12-1.487.29-1.279.739l1.755 3.782ZM140.789 150.253l-6.551-1.013c-.383-.06-.575-.277-.451-.462.453-.674 1.15-1.307 2.094-1.851.943-.545 2.038-.948 3.206-1.209.32-.072.697.039.8.26l1.755 3.783c.139.299-.335.572-.853.492Zm-6.642-.819c-.557-.086-.893-.418-.685-.729.47-.7 1.194-1.356 2.172-1.92.979-.565 2.115-.983 3.327-1.254.538-.121 1.113.073 1.262.395l1.755 3.782c.208.449-.502.859-1.279.739l-6.552-1.013ZM142.005 152.283l-4.796 2.769c-.28.162-.258.406.01.53.975.454 2.127.8 3.415.999 1.289.199 2.586.232 3.823.121.34-.031.57-.236.468-.456l-1.754-3.783c-.139-.299-.787-.399-1.166-.18Zm-5.042 2.627c-.408.236-.412.62.037.829 1.013.47 2.208.829 3.544 1.036 1.336.207 2.682.241 3.967.125.57-.051.899-.385.75-.706l-1.754-3.783c-.208-.449-1.179-.599-1.748-.27l-4.796 2.769ZM143.204 149.827l-1.755-3.783c-.102-.22.128-.425.468-.456a15.877 15.877 0 0 1 3.823.121c1.289.199 2.44.546 3.415.999.268.124.29.368.01.53l-4.796 2.769c-.379.219-1.027.119-1.165-.18Zm-2.091-3.731c-.149-.321.181-.655.751-.706a16.448 16.448 0 0 1 3.966.125c1.336.207 2.531.566 3.544 1.036.449.209.445.593.038.829l-4.797 2.769c-.568.329-1.54.179-1.748-.27l-1.754-3.783ZM140.608 150.984l-6.551-1.013c-.383-.059-.737.074-.79.27-.193.714-.136 1.463.209 2.207.345.744.944 1.409 1.73 1.972.215.155.637.167.917.006l4.797-2.77c.38-.218.206-.592-.312-.672Zm-6.461-1.207c-.557-.087-1.136.104-1.224.433-.2.742-.141 1.519.216 2.29.358.772.98 1.461 1.795 2.046.362.259 1.028.257 1.435.022l4.797-2.769c.569-.329.309-.89-.468-1.01l-6.551-1.012ZM145.158 150.463l4.797-2.77c.28-.161.702-.148.918.006.785.563 1.384 1.228 1.729 1.972.345.744.402 1.493.209 2.207-.052.196-.407.329-.789.27l-6.552-1.013c-.518-.08-.691-.453-.312-.672Zm4.551-2.912c.407-.235 1.073-.237 1.435.022.815.585 1.437 1.275 1.795 2.046.358.771.416 1.549.216 2.29-.088.329-.667.52-1.224.434l-6.551-1.013c-.777-.12-1.037-.681-.468-1.01l4.797-2.769ZM200.986 104.502l1.472-3.823c.086-.223-.159-.422-.501-.444a15.779 15.779 0 0 0-3.811.216c-1.272.231-2.397.606-3.338 1.083-.258.131-.262.375.03.53l4.997 2.647c.395.209 1.034.093 1.151-.209Zm1.812-3.78c.125-.325-.23-.65-.803-.687a16.338 16.338 0 0 0-3.953.224c-1.32.24-2.487.629-3.464 1.124-.433.22-.401.604.024.829l4.997 2.647c.593.314 1.552.14 1.727-.314l1.472-3.823Z" fill="#000"/><g filter="url('#filter4_d_1058_4434')"><path fill-rule="evenodd" clip-rule="evenodd" d="m117.377 203.829-3.694 2.133c-.544.314-.544.823 0 1.137l10.836 6.256c.816.471.816 1.235 0 1.707l-4.679 2.701c-.544.314-.545.823-.002 1.137l4.189 2.418c.544.314 1.426.314 1.97 0l10.836-6.256c.544-.315.544-.824 0-1.138l-17.486-10.095c-.544-.314-1.426-.314-1.97 0Zm-.246-.142c.68-.393 1.783-.393 2.463 0l17.485 10.095c.68.393.68 1.029 0 1.422l-10.836 6.256c-.68.393-1.782.393-2.462 0l-4.189-2.418c-.68-.393-.678-1.028.002-1.421l4.679-2.702c.68-.392.68-1.029 0-1.421l-10.836-6.257c-.68-.392-.68-1.029 0-1.421l3.694-2.133Z" fill="#000"/></g><g filter="url('#filter5_d_1058_4434')"><path fill-rule="evenodd" clip-rule="evenodd" d="m118.855 205.82-3.448 1.99c-.136.079-.136.206 0 .285l4.187 2.417a.546.546 0 0 0 .492 0l3.448-1.991c.136-.078.136-.206 0-.284l-4.186-2.417a.542.542 0 0 0-.493 0Zm-3.694 1.848c-.272.157-.272.412 0 .569l4.187 2.417c.272.157.713.157.985 0l3.448-1.991c.272-.157.272-.411 0-.568l-4.187-2.418c-.272-.157-.713-.157-.985 0l-3.448 1.991Z" fill="#000"/></g><g filter="url('#filter6_d_1058_4434')"><path fill-rule="evenodd" clip-rule="evenodd" d="m124.519 209.09-3.448 1.99c-.136.079-.136.206 0 .285l3.694 2.133a.549.549 0 0 0 .493 0l3.448-1.991c.136-.079.136-.206 0-.284l-3.694-2.133a.542.542 0 0 0-.493 0Zm-3.694 1.848c-.272.157-.272.412 0 .569l3.694 2.133c.272.157.713.157.985 0l3.448-1.991c.272-.157.272-.411 0-.569l-3.694-2.132c-.272-.157-.713-.157-.985 0l-3.448 1.99Z" fill="#000"/></g><g filter="url('#filter7_d_1058_4434')"><path fill-rule="evenodd" clip-rule="evenodd" d="m129.691 212.076-3.448 1.99c-.136.079-.136.206 0 .285l4.187 2.417a.546.546 0 0 0 .492 0l3.448-1.991c.136-.078.136-.206 0-.284l-4.186-2.417a.542.542 0 0 0-.493 0Zm-3.694 1.848c-.272.157-.272.412 0 .569l4.187 2.417c.272.157.713.157.985 0l3.447-1.991c.272-.157.272-.411 0-.568l-4.186-2.417c-.272-.158-.713-.158-.985 0l-3.448 1.99Z" fill="#000"/></g><g filter="url('#filter8_d_1058_4434')"><path fill-rule="evenodd" clip-rule="evenodd" d="m124.766 214.919-4.187 2.418c-.136.078-.136.205 0 .284l4.187 2.417a.54.54 0 0 0 .492 0l4.187-2.417c.136-.079.136-.206 0-.284l-4.187-2.418a.546.546 0 0 0-.492 0Zm-4.433 2.275c-.272.157-.272.412 0 .569l4.186 2.417c.272.157.713.157.985 0l4.187-2.417c.272-.157.272-.412 0-.569l-4.187-2.417c-.272-.157-.713-.157-.985 0l-4.186 2.417Z" fill="#000"/></g><path fill-rule="evenodd" clip-rule="evenodd" d="m95.542 168.506-4.644 2.681c-.136.079-.136.206 0 .285l7.9 4.561a.541.541 0 0 0 .493 0l4.644-2.681c.136-.078.136-.206 0-.284l-7.9-4.562a.548.548 0 0 0-.493 0Zm-4.89 2.539c-.272.157-.272.412 0 .569l7.9 4.561c.272.157.713.157.985 0l4.644-2.681c.272-.157.272-.411 0-.568l-7.9-4.562c-.272-.157-.713-.157-.986 0l-4.643 2.681ZM164.064 192.047l-4.642-2.68a.542.542 0 0 0-.493 0l-7.902 4.563c-.136.078-.136.205 0 .284l4.642 2.68a.542.542 0 0 0 .493 0l7.902-4.562c.136-.079.136-.206 0-.285Zm-4.396-2.822c-.272-.157-.713-.157-.985 0l-7.903 4.562c-.272.157-.272.412 0 .569l4.643 2.68c.272.158.713.158.985 0l7.903-4.562c.272-.157.272-.412 0-.569l-4.643-2.68ZM105.02 173.978l-4.644 2.682c-.136.078-.136.205 0 .284l7.901 4.561a.54.54 0 0 0 .492 0l4.644-2.681c.136-.078.136-.206 0-.284l-7.901-4.562a.546.546 0 0 0-.492 0Zm-4.89 2.539c-.272.157-.272.412 0 .569l7.9 4.562c.272.157.713.157.985 0l4.644-2.682c.272-.157.272-.411 0-.568l-7.9-4.562c-.272-.157-.713-.157-.985 0l-4.644 2.681ZM154.584 197.521l-4.642-2.681a.549.549 0 0 0-.493 0l-7.903 4.563c-.136.078-.136.206 0 .284l4.643 2.681a.546.546 0 0 0 .492 0l7.903-4.563c.136-.078.136-.206 0-.284Zm-4.396-2.823c-.272-.157-.713-.157-.985 0l-7.903 4.563c-.272.157-.272.411 0 .569l4.643 2.68c.272.157.713.157.985 0l7.902-4.563c.272-.157.272-.411 0-.568l-4.642-2.681Z" fill="#000"/><rect x=".866" width="2.079" height="2.078" rx="1.039" transform="matrix(.86603 -.5 .86603 .5 87.312 174.499)" stroke="#000"/><rect x=".593" width=".684" height="2.394" rx=".342" transform="matrix(.86603 -.5 .86603 .5 86.387 174.875)" stroke="#000" stroke-width=".684"/><rect y=".5" width="2.078" height="2.079" rx="1.039" transform="matrix(.86603 .5 -.86603 .5 154.869 187.823)" stroke="#000"/><rect y=".342" width=".684" height="2.395" rx=".342" transform="matrix(.86603 .5 -.86603 .5 153.844 187.231)" stroke="#000" stroke-width=".684"/><rect x="-.866" width="2.079" height="2.078" rx="1.039" transform="matrix(-.86603 .5 -.86603 -.5 165.557 190.228)" stroke="#000"/><rect x="-.593" width=".684" height="2.394" rx=".342" transform="matrix(-.86603 .5 -.86603 -.5 166.957 189.578)" stroke="#000" stroke-width=".684"/><rect y=".5" width="2.079" height="2.078" rx="1.039" transform="matrix(-.86603 .5 .86603 .5 99.799 166.79)" stroke="#000"/><rect y=".342" width=".684" height="2.394" rx=".342" transform="matrix(-.86603 .5 .86603 .5 100.824 166.198)" stroke="#000" stroke-width=".684"/><rect x="-.866" width="2.078" height="2.079" rx="1.039" transform="matrix(-.86603 -.5 -.86603 .5 165.852 194.664)" stroke="#000"/><rect x="-.592" width=".684" height="2.395" rx=".342" transform="matrix(-.86603 -.5 -.86603 .5 167.252 195.314)" stroke="#000" stroke-width=".684"/><rect x=".866" width="2.079" height="2.078" rx="1.039" transform="matrix(.86603 -.5 .86603 .5 92.051 177.235)" stroke="#000"/><rect x=".593" width=".684" height="2.394" rx=".342" transform="matrix(.86603 -.5 .86603 .5 91.126 177.611)" stroke="#000" stroke-width=".684"/><rect y=".5" width="2.078" height="2.079" rx="1.039" transform="matrix(.86603 .5 -.86603 .5 150.129 190.559)" stroke="#000"/><rect y=".342" width=".684" height="2.395" rx=".342" transform="matrix(.86603 .5 -.86603 .5 149.104 189.967)" stroke="#000" stroke-width=".684"/><rect y=".5" width="2.079" height="2.078" rx="1.039" transform="matrix(-.86603 .5 .86603 .5 104.538 169.526)" stroke="#000"/><rect y=".342" width=".684" height="2.394" rx=".342" transform="matrix(-.86603 .5 .86603 .5 105.563 168.934)" stroke="#000" stroke-width=".684"/><rect x="-.866" width="2.078" height="2.079" rx="1.039" transform="matrix(-.86603 -.5 -.86603 .5 161.112 197.4)" stroke="#000"/><rect x="-.592" width=".684" height="2.395" rx=".342" transform="matrix(-.86603 -.5 -.86603 .5 162.512 198.05)" stroke="#000" stroke-width=".684"/><rect x=".866" width="2.079" height="2.078" rx="1.039" transform="matrix(.86603 -.5 .86603 .5 96.79 179.971)" stroke="#000"/><rect x=".593" width=".684" height="2.394" rx=".342" transform="matrix(.86603 -.5 .86603 .5 95.865 180.348)" stroke="#000" stroke-width=".684"/><rect y=".5" width="2.078" height="2.079" rx="1.039" transform="matrix(.86603 .5 -.86603 .5 145.389 193.296)" stroke="#000"/><rect y=".342" width=".684" height="2.395" rx=".342" transform="matrix(.86603 .5 -.86603 .5 144.364 192.704)" stroke="#000" stroke-width=".684"/><rect y=".5" width="2.079" height="2.078" rx="1.039" transform="matrix(-.86603 .5 .86603 .5 109.277 172.262)" stroke="#000"/><rect y=".342" width=".684" height="2.394" rx=".342" transform="matrix(-.86603 .5 .86603 .5 110.302 171.67)" stroke="#000" stroke-width=".684"/><rect x="-.866" width="2.078" height="2.079" rx="1.039" transform="matrix(-.86603 -.5 -.86603 .5 156.372 200.137)" stroke="#000"/><rect x="-.592" width=".684" height="2.395" rx=".342" transform="matrix(-.86603 -.5 -.86603 .5 157.772 200.787)" stroke="#000" stroke-width=".684"/><rect x=".866" width="2.079" height="2.078" rx="1.039" transform="matrix(.86603 -.5 .86603 .5 101.529 182.707)" stroke="#000"/><rect x=".593" width=".684" height="2.394" rx=".342" transform="matrix(.86603 -.5 .86603 .5 100.604 183.084)" stroke="#000" stroke-width=".684"/><rect y=".5" width="2.078" height="2.079" rx="1.039" transform="matrix(.86603 .5 -.86603 .5 140.649 196.033)" stroke="#000"/><rect y=".342" width=".684" height="2.395" rx=".342" transform="matrix(.86603 .5 -.86603 .5 139.624 195.441)" stroke="#000" stroke-width=".684"/><rect y=".5" width="2.079" height="2.078" rx="1.039" transform="matrix(-.86603 .5 .86603 .5 114.016 174.998)" stroke="#000"/><rect y=".342" width=".684" height="2.394" rx=".342" transform="matrix(-.86603 .5 .86603 .5 115.041 174.406)" stroke="#000" stroke-width=".684"/><rect x="-.866" width="2.078" height="2.079" rx="1.039" transform="matrix(-.86603 -.5 -.86603 .5 151.632 202.874)" stroke="#000"/><rect x="-.592" width=".684" height="2.395" rx=".342" transform="matrix(-.86603 -.5 -.86603 .5 153.031 203.524)" stroke="#000" stroke-width=".684"/><path fill-rule="evenodd" clip-rule="evenodd" d="M45.712 229.28c2.04-1.178 2.04-3.087 0-4.265-2.04-1.178-5.348-1.178-7.388 0s-2.04 3.087 0 4.265c2.04 1.178 5.348 1.178 7.388 0Zm.246.142c2.177-1.256 2.177-3.293 0-4.55-2.176-1.256-5.704-1.256-7.88 0-2.176 1.257-2.176 3.294 0 4.55 2.176 1.257 5.704 1.257 7.88 0ZM114.915 210.938l-3.448 1.991c-.136.078-.136.206 0 .284l5.172 2.986a.54.54 0 0 0 .492 0l3.448-1.99c.136-.079.136-.206 0-.285l-5.172-2.986a.546.546 0 0 0-.492 0Zm-3.694 1.849c-.272.157-.272.411 0 .568l5.171 2.986c.272.157.713.157.985 0l3.448-1.99c.272-.157.272-.412 0-.569l-5.172-2.986c-.272-.157-.713-.157-.985 0l-3.447 1.991Z" fill="#000"/><path opacity=".3" fill-rule="evenodd" clip-rule="evenodd" d="m165.154 137.571-4.433-2.56c-.272-.157-.272-.412 0-.569l4.433-2.559c.272-.157.713-.157.985 0s.272.412 0 .569l-3.244 1.873h50.94v-29.41l-3.244 1.872c-.272.157-.713.157-.985 0s-.272-.411 0-.568l4.433-2.56c.272-.157.713-.157.985 0l4.433 2.56c.272.157.272.411 0 .568-.272.157-.713.157-.985 0l-3.244-1.872v29.41h50.94l-3.244-1.873c-.272-.157-.272-.412 0-.569.272-.157.713-.157.985 0l4.433 2.559c.272.157.272.412 0 .569l-4.433 2.56c-.272.157-.713.157-.985 0-.272-.158-.272-.412 0-.569l3.244-1.873h-50.94v29.41l3.244-1.873c.272-.157.713-.157.985 0s.272.412 0 .569l-4.433 2.559c-.272.157-.713.157-.985 0l-4.433-2.559c-.272-.157-.272-.412 0-.569.272-.157.713-.157.985 0l3.244 1.873v-29.41h-50.94l3.244 1.873c.272.157.272.411 0 .569-.272.157-.713.157-.985 0ZM228.693 100.887l-4.433-2.56c-.272-.156-.272-.411 0-.568l4.433-2.56c.272-.156.713-.156.985 0 .272.158.272.412 0 .57l-3.244 1.872h50.94v-29.41l-3.244 1.873c-.272.157-.713.157-.985 0s-.272-.412 0-.569l4.433-2.56c.272-.156.713-.156.985 0l4.433 2.56c.272.157.272.412 0 .569-.272.157-.714.157-.986 0l-3.243-1.873v29.41h50.939l-3.243-1.873c-.272-.157-.272-.411 0-.569.272-.157.713-.157.985 0l4.433 2.56c.272.157.272.412 0 .569l-4.433 2.559c-.272.157-.713.157-.985 0s-.272-.412 0-.569l3.243-1.873h-50.939v29.41l3.243-1.872c.272-.157.714-.157.986 0s.272.411 0 .568l-4.433 2.56c-.272.157-.713.157-.985 0l-4.433-2.56c-.272-.157-.272-.411 0-.568.272-.157.713-.157.985 0l3.244 1.872v-29.41h-50.94l3.244 1.873c.272.157.272.412 0 .569-.272.157-.713.157-.985 0ZM220.389 63.272l-4.433-2.56c-.272-.156-.272-.411 0-.568l4.433-2.56c.272-.156.713-.156.985 0 .272.158.272.412 0 .57l-3.243 1.872h23.726V46.328l-3.244 1.872c-.272.157-.713.157-.985 0s-.272-.411 0-.568l4.433-2.56c.272-.157.713-.157.985 0l4.433 2.56c.272.157.272.411 0 .568-.272.157-.713.157-.985 0l-3.244-1.872v13.698h23.727l-3.244-1.873c-.272-.157-.272-.411 0-.568.272-.157.713-.157.985 0l4.433 2.559c.272.157.272.412 0 .569l-4.433 2.559c-.272.157-.713.157-.985 0s-.272-.412 0-.569l3.244-1.873H243.25v13.7l3.244-1.874c.272-.157.713-.157.985 0s.272.412 0 .569l-4.433 2.56c-.272.156-.713.156-.985 0l-4.433-2.56c-.272-.157-.272-.412 0-.569.272-.157.713-.157.985 0l3.244 1.873V60.831h-23.726l3.243 1.872c.272.157.272.412 0 .569-.272.157-.713.157-.985 0ZM159.729 174.964l-4.433-2.56c-.272-.157-.272-.411 0-.568l4.433-2.56c.272-.157.713-.157.985 0s.272.412 0 .569l-3.244 1.873h23.727v-13.699l-3.244 1.873c-.272.157-.713.157-.985 0s-.272-.412 0-.569l4.433-2.559c.272-.157.713-.157.985 0l4.433 2.559c.272.157.272.412 0 .569-.272.157-.713.157-.985 0l-3.244-1.873v13.699h23.727l-3.244-1.873c-.272-.157-.272-.412 0-.569.272-.157.713-.157.985 0l4.433 2.56c.272.157.272.411 0 .568l-4.433 2.56c-.272.157-.713.157-.985 0s-.272-.412 0-.569l3.244-1.873H182.59v13.699l3.244-1.873c.272-.157.713-.157.985 0s.272.412 0 .569l-4.433 2.559c-.272.157-.713.157-.985 0l-4.433-2.559c-.272-.157-.272-.412 0-.569.272-.157.713-.157.985 0l3.244 1.873v-13.699H157.47l3.244 1.873c.272.157.272.412 0 .569-.272.157-.713.157-.985 0Z" fill="#fff"/><path fill-rule="evenodd" clip-rule="evenodd" d="M162.568 102.948c1.02-.588 1.02-1.543 0-2.132-1.02-.589-2.674-.589-3.694 0s-1.02 1.544 0 2.132c1.02.589 2.674.589 3.694 0Zm.247.143c1.156-.668 1.156-1.75 0-2.417-1.156-.668-3.031-.668-4.187 0-1.156.667-1.156 1.749 0 2.417 1.156.667 3.031.667 4.187 0ZM90.041 139.703l-2.462 1.422c-.545.314-.545.824 0 1.138l2.462 1.422c.544.314 1.426.314 1.97 0l2.463-1.422c.544-.314.544-.824 0-1.138l-2.463-1.422c-.544-.314-1.426-.314-1.97 0Zm-2.709 1.28c-.68.393-.68 1.029 0 1.422l2.463 1.422c.68.393 1.783.393 2.463 0l2.462-1.422c.68-.393.68-1.029 0-1.422l-2.462-1.422c-.68-.392-1.783-.392-2.463 0l-2.463 1.422ZM95.46 142.831l-2.464 1.422c-.544.314-.544.824 0 1.138l2.463 1.422c.544.314 1.426.314 1.97 0l2.463-1.422c.544-.314.544-.824 0-1.138l-2.463-1.422c-.544-.314-1.426-.314-1.97 0Zm-2.71 1.28c-.68.393-.68 1.029 0 1.422l2.463 1.422c.68.392 1.783.392 2.463 0l2.462-1.422c.68-.393.68-1.029 0-1.422l-2.462-1.422c-.68-.392-1.783-.392-2.463 0l-2.463 1.422ZM100.877 145.96l-2.463 1.421c-.544.315-.544.824 0 1.138l2.463 1.422c.544.314 1.426.314 1.97 0l2.463-1.422c.544-.314.544-.823 0-1.138l-2.463-1.421c-.544-.315-1.426-.315-1.97 0Zm-2.709 1.279c-.68.393-.68 1.029 0 1.422l2.463 1.422c.68.393 1.783.393 2.463 0l2.462-1.422c.68-.393.68-1.029 0-1.422l-2.462-1.422c-.68-.392-1.783-.392-2.463 0l-2.463 1.422ZM106.295 149.088l-2.463 1.421c-.544.314-.544.824 0 1.138l2.463 1.422c.544.314 1.426.314 1.97 0l2.463-1.422c.544-.314.544-.824 0-1.138l-2.463-1.421c-.544-.315-1.426-.315-1.97 0Zm-2.709 1.279c-.68.393-.68 1.029 0 1.422l2.463 1.422c.68.393 1.782.393 2.463 0l2.462-1.422c.68-.393.68-1.029 0-1.422l-2.462-1.422c-.681-.392-1.783-.392-2.463 0l-2.463 1.422Z" fill="#000"/><path d="M211 30.533V8h29.797c.889 4.694-.682 14.083-14.083 14.083-7.116 0-15.714 5.782-15.714 8.45Z" fill="#fff"/><rect x="211" width="69" height="22" rx="10" fill="#fff"/><path d="M224.552 15h1.548l3.528-8.52h-1.92l-2.376 5.916-2.412-5.916h-1.884l3.516 8.52Zm6.044 0h1.74v-3.588h.42L235.684 15h2.1l-3.06-3.78c1.14-.348 1.752-1.068 1.752-2.22 0-1.416-1.032-2.52-2.616-2.52h-3.264V15Zm1.74-5.076V8.076h1.32c.66 0 1.092.336 1.092.924 0 .576-.432.924-1.092.924h-1.32Zm8.632-3.444V15h1.74V9.456l2.616 3.588 2.616-3.588V15h1.74V6.48h-1.584l-2.772 3.804-2.772-3.804h-1.584Zm13.068 8.652c1.74 0 3.156-1.368 3.156-3.132 0-1.752-1.416-3.132-3.156-3.132-1.74 0-3.156 1.38-3.156 3.132 0 1.764 1.416 3.132 3.156 3.132Zm0-1.536c-.864 0-1.5-.672-1.5-1.596s.636-1.596 1.5-1.596c.852 0 1.488.672 1.488 1.596s-.636 1.596-1.488 1.596Zm7.117 1.476c.468 0 .768-.048 1.044-.132v-1.452c-.192.072-.42.108-.672.108-.72 0-1.02-.288-1.02-1.02V10.44h1.692V9h-1.692V7.332h-1.644V9h-1.212v1.44h1.212v2.46c0 1.476 1.02 2.172 2.292 2.172Zm4.895.06c1.74 0 3.156-1.368 3.156-3.132 0-1.752-1.416-3.132-3.156-3.132-1.74 0-3.156 1.38-3.156 3.132 0 1.764 1.416 3.132 3.156 3.132Zm0-1.536c-.864 0-1.5-.672-1.5-1.596s.636-1.596 1.5-1.596c.852 0 1.488.672 1.488 1.596s-.636 1.596-1.488 1.596Z" fill="#000"/><path d="M243 65.533V43h29.797c.889 4.694-.682 14.083-14.083 14.083-7.116 0-15.714 5.782-15.714 8.45Z" fill="#fff"/><rect x="243" y="35" width="74" height="22" rx="10" fill="#fff"/><path d="M259.372 50h2.256l-4.236-4.428 3.504-4.092h-2.148l-3.072 3.612V41.48h-1.728V50h1.728v-3.864L259.372 50Zm7.839-6h-1.812l-1.548 3.756L262.195 44h-1.8l2.52 5.664-.3.696c-.288.624-.636.828-1.056.828-.276 0-.408-.012-.588-.024v1.404c.228.036.468.048.804.048 1.164 0 1.884-.576 2.448-1.86L267.211 44Zm3.712 6.132c1.776 0 3.144-1.38 3.144-3.144 0-1.56-1.044-2.844-2.832-2.844-.624 0-1.248.18-1.728.648.156-1.188.924-1.716 2.268-1.968l1.74-.312v-1.56l-2.1.384c-2.304.42-3.612 1.62-3.612 4.764v.348c0 2.256 1.068 3.684 3.12 3.684Zm-.012-1.536c-.852 0-1.476-.552-1.476-1.56 0-.78.588-1.464 1.488-1.464.888 0 1.488.672 1.488 1.464 0 1.008-.636 1.56-1.5 1.56Zm12.612-.216h-3.528c.216-.54 1.128-1.044 1.656-1.416 1.08-.792 1.8-1.536 1.8-3 0-1.728-1.308-2.628-2.736-2.628-1.692 0-2.976 1.14-2.976 2.82h1.656c-.012-.684.528-1.2 1.284-1.2.732 0 1.128.48 1.128 1.104 0 .684-.6 1.236-1.344 1.752-1.248.9-2.748 1.716-2.748 3.624V50h5.808v-1.62Zm3.987 1.752c1.776 0 2.976-1.104 2.976-2.808 0-1.728-1.032-2.94-2.652-2.94-.48 0-.888.108-1.176.288l.324-1.596h2.88V41.48h-4.152l-.96 4.836 1.452.444c.192-.516.66-.888 1.332-.888.768 0 1.308.564 1.308 1.32 0 .732-.48 1.32-1.332 1.32-.66 0-1.188-.42-1.332-.984h-1.704c.06 1.524 1.476 2.604 3.036 2.604ZM294.491 44v6h1.644v-3.468l1.728 2.172 1.716-2.172V50h1.644v-6h-1.392l-1.98 2.496L295.883 44h-1.392Zm11.429-.072h-1.932c.132-.228.672-.516.864-.648.576-.384 1.044-.876 1.044-1.836 0-1.092-.828-1.632-1.692-1.632-1.056 0-1.86.744-1.86 1.752h1.176c-.012-.3.228-.6.648-.6.372 0 .552.24.552.528 0 .372-.372.732-.756.984-.768.54-1.644 1.02-1.644 2.22v.384h3.6v-1.152Z" fill="#000"/><path d="M279 119.533V97h29.797c.889 4.694-.682 14.083-14.083 14.083-7.116 0-15.714 5.782-15.714 8.45Z" fill="#fff"/><rect x="279" y="77" width="59" height="34" rx="10" fill="#fff"/><path d="M289.012 92h1.8l.816-1.944h3.636l.828 1.944h1.824l-3.684-8.52h-1.548L289.012 92Zm4.44-6.228 1.164 2.76h-2.34l1.176-2.76Zm6.902 8.736v-3.18c.276.384.912.804 1.74.804 1.596 0 2.82-1.44 2.82-3.132 0-1.692-1.224-3.132-2.82-3.132-.828 0-1.464.42-1.74.804V86h-1.644v8.508h1.644Zm1.38-3.876c-.912 0-1.512-.684-1.512-1.632 0-.948.6-1.632 1.512-1.632s1.512.684 1.512 1.632c0 .948-.6 1.632-1.512 1.632Zm7.142 1.5c1.524 0 2.724-.876 3.072-2.088h-1.716c-.192.42-.696.66-1.272.66-1.032 0-1.56-.612-1.62-1.32h4.68c.096-2.256-1.38-3.516-3.132-3.516-1.824 0-3.156 1.332-3.156 3.12 0 1.824 1.308 3.144 3.144 3.144Zm-.036-4.932c.552 0 1.188.3 1.38 1.104h-2.82c.156-.672.672-1.104 1.44-1.104Zm4.378 4.8h1.644v-2.304h2.472V92h1.644v-6h-1.644v2.268h-2.472V86h-1.644v6Zm9.783.132c.828 0 1.452-.42 1.728-.804V92h1.644v-6h-1.644v.672c-.276-.384-.9-.804-1.728-.804-1.596 0-2.82 1.44-2.82 3.132 0 1.692 1.224 3.132 2.82 3.132Zm.348-1.5c-.912 0-1.512-.684-1.512-1.632 0-.948.6-1.632 1.512-1.632s1.512.684 1.512 1.632c0 .948-.6 1.632-1.512 1.632ZM290.824 104h1.644v-8.52h-2.244l-1.2 1.62h1.8v6.9Zm6.386.132c1.86 0 3.168-1.416 3.168-3.372v-2.064c0-1.944-1.308-3.36-3.168-3.36-1.872 0-3.18 1.416-3.18 3.36v2.064c0 1.956 1.308 3.372 3.18 3.372Zm0-1.62c-.912 0-1.536-.648-1.536-1.752v-2.064c0-1.104.624-1.74 1.536-1.74s1.524.636 1.524 1.74v2.064c0 1.104-.612 1.752-1.524 1.752Zm7.57 1.62c1.86 0 3.168-1.416 3.168-3.372v-2.064c0-1.944-1.308-3.36-3.168-3.36-1.872 0-3.18 1.416-3.18 3.36v2.064c0 1.956 1.308 3.372 3.18 3.372Zm0-1.62c-.912 0-1.536-.648-1.536-1.752v-2.064c0-1.104.624-1.74 1.536-1.74s1.524.636 1.524 1.74v2.064c0 1.104-.612 1.752-1.524 1.752ZM312.081 98v6h1.644v-3.468l1.728 2.172 1.716-2.172V104h1.644v-6h-1.392l-1.98 2.496L313.473 98h-1.392Zm11.428-.072h-1.932c.132-.228.672-.516.864-.648.576-.384 1.044-.876 1.044-1.836 0-1.092-.828-1.632-1.692-1.632-1.056 0-1.86.744-1.86 1.752h1.176c-.012-.3.228-.6.648-.6.372 0 .552.24.552.528 0 .372-.372.732-.756.984-.768.54-1.644 1.02-1.644 2.22v.384h3.6v-1.152Z" fill="#000"/><path d="M145 204v22.533h29.797c.889-4.694-.682-14.083-14.083-14.083-7.116 0-15.714-5.782-15.714-8.45Z" fill="#fff"/><rect x="145" y="212.439" width="119" height="22" rx="10" fill="#fff"/><path d="M157.328 221.259c.18-.516.612-.888 1.224-.888.708 0 1.068.408 1.068.972 0 .576-.336.984-.996.984h-.912v1.464h1.008c.756 0 1.188.408 1.188 1.02 0 .672-.444 1.14-1.32 1.14-.768 0-1.356-.372-1.56-1.092h-1.74c.228 1.788 1.704 2.724 3.312 2.724 1.62 0 3-.972 3-2.64 0-.864-.372-1.62-1.152-2.052.684-.54.852-1.224.852-1.848 0-1.368-1.116-2.268-2.712-2.268-1.284 0-2.676.672-2.988 2.484h1.728Zm8.302 6.312c1.74 0 3.156-1.368 3.156-3.132 0-1.752-1.416-3.132-3.156-3.132-1.74 0-3.156 1.38-3.156 3.132 0 1.764 1.416 3.132 3.156 3.132Zm0-1.536c-.864 0-1.5-.672-1.5-1.596s.636-1.596 1.5-1.596c.852 0 1.488.672 1.488 1.596s-.636 1.596-1.488 1.596Zm4.342 1.404h1.644v-2.304h2.472v2.304h1.644v-6h-1.644v2.268h-2.472v-2.268h-1.644v6Zm9.783.132c.828 0 1.452-.42 1.728-.804v.672h1.644v-6h-1.644v.672c-.276-.384-.9-.804-1.728-.804-1.596 0-2.82 1.44-2.82 3.132 0 1.692 1.224 3.132 2.82 3.132Zm.348-1.5c-.912 0-1.512-.684-1.512-1.632 0-.948.6-1.632 1.512-1.632s1.512.684 1.512 1.632c0 .948-.6 1.632-1.512 1.632Zm10.125 1.5c1.656 0 2.748-1.044 3.072-2.424h-1.704c-.228.54-.66.936-1.368.936-.864 0-1.5-.636-1.5-1.644s.636-1.644 1.5-1.644c.708 0 1.14.396 1.368.936h1.704c-.324-1.38-1.416-2.424-3.072-2.424-1.824 0-3.156 1.392-3.156 3.132 0 1.74 1.332 3.132 3.156 3.132Zm6.949 0c1.74 0 3.156-1.368 3.156-3.132 0-1.752-1.416-3.132-3.156-3.132-1.74 0-3.156 1.38-3.156 3.132 0 1.764 1.416 3.132 3.156 3.132Zm0-1.536c-.864 0-1.5-.672-1.5-1.596s.636-1.596 1.5-1.596c.852 0 1.488.672 1.488 1.596s-.636 1.596-1.488 1.596Zm9.844 1.536c1.656 0 2.748-1.044 3.072-2.424h-1.704c-.228.54-.66.936-1.368.936-.864 0-1.5-.636-1.5-1.644s.636-1.644 1.5-1.644c.708 0 1.14.396 1.368.936h1.704c-.324-1.38-1.416-2.424-3.072-2.424-1.824 0-3.156 1.392-3.156 3.132 0 1.74 1.332 3.132 3.156 3.132Zm5.175-.132h1.644v-4.56h1.776v-1.44h-5.076v1.44h1.656v4.56Zm7.036.132c1.74 0 3.156-1.368 3.156-3.132 0-1.752-1.416-3.132-3.156-3.132-1.74 0-3.156 1.38-3.156 3.132 0 1.764 1.416 3.132 3.156 3.132Zm0-1.536c-.864 0-1.5-.672-1.5-1.596s.636-1.596 1.5-1.596c.852 0 1.488.672 1.488 1.596s-.636 1.596-1.488 1.596Zm4.428 1.524c1.008 0 2.016-.684 2.016-2.28v-2.4h1.848v4.56h1.644v-6h-5.136v3.636c0 .828-.264 1.056-.732 1.056-.132 0-.288-.012-.42-.024v1.392c.204.048.456.06.78.06Zm9.533.012c.828 0 1.452-.42 1.728-.804v.672h1.644v-6h-1.644v.672c-.276-.384-.9-.804-1.728-.804-1.596 0-2.82 1.44-2.82 3.132 0 1.692 1.224 3.132 2.82 3.132Zm.348-1.5c-.912 0-1.512-.684-1.512-1.632 0-.948.6-1.632 1.512-1.632s1.512.684 1.512 1.632c0 .948-.6 1.632-1.512 1.632Zm4.622-4.632v6h1.644v-3.468l1.728 2.172 1.716-2.172v3.468h1.644v-6h-1.392l-1.98 2.496-1.968-2.496h-1.392Zm9.796 6 2.688-3.54v3.54h1.632v-6h-1.464l-2.688 3.54v-3.54h-1.644v6h1.476Z" fill="#000"/><path d="M94 184.533V162H64.203c-.89 4.694.682 14.083 14.083 14.083 7.116 0 15.714 5.782 15.714 8.45Z" fill="#fff"/><rect x="7" y="142" width="87" height="34" rx="10" fill="#fff"/><path d="M57.394 150.82c.18-.516.612-.888 1.224-.888.708 0 1.068.408 1.068.972 0 .576-.336.984-.996.984h-.912v1.464h1.008c.756 0 1.188.408 1.188 1.02 0 .672-.444 1.14-1.32 1.14-.768 0-1.356-.372-1.56-1.092h-1.74c.228 1.788 1.704 2.724 3.312 2.724 1.62 0 3-.972 3-2.64 0-.864-.372-1.62-1.152-2.052.684-.54.852-1.224.852-1.848 0-1.368-1.116-2.268-2.712-2.268-1.284 0-2.676.672-2.988 2.484h1.728Zm8.303 6.312c1.74 0 3.156-1.368 3.156-3.132 0-1.752-1.416-3.132-3.156-3.132-1.74 0-3.157 1.38-3.157 3.132 0 1.764 1.416 3.132 3.157 3.132Zm0-1.536c-.865 0-1.5-.672-1.5-1.596s.635-1.596 1.5-1.596c.852 0 1.487.672 1.487 1.596s-.635 1.596-1.487 1.596ZM70.037 157h1.644v-2.304h2.472V157h1.644v-6h-1.644v2.268h-2.472V151h-1.644v6Zm9.784.132c.828 0 1.452-.42 1.728-.804V157h1.644v-6H81.55v.672c-.276-.384-.9-.804-1.728-.804-1.596 0-2.82 1.44-2.82 3.132 0 1.692 1.224 3.132 2.82 3.132Zm.348-1.5c-.912 0-1.512-.684-1.512-1.632 0-.948.6-1.632 1.512-1.632s1.512.684 1.512 1.632c0 .948-.6 1.632-1.512 1.632Zm-59.028 13.5c1.656 0 2.748-1.044 3.072-2.424H22.51c-.228.54-.66.936-1.368.936-.864 0-1.5-.636-1.5-1.644s.636-1.644 1.5-1.644c.708 0 1.14.396 1.368.936h1.704c-.324-1.38-1.416-2.424-3.072-2.424-1.824 0-3.156 1.392-3.156 3.132 0 1.74 1.332 3.132 3.156 3.132Zm6.95 0c1.74 0 3.155-1.368 3.155-3.132 0-1.752-1.416-3.132-3.156-3.132-1.74 0-3.156 1.38-3.156 3.132 0 1.764 1.416 3.132 3.156 3.132Zm0-1.536c-.865 0-1.5-.672-1.5-1.596s.635-1.596 1.5-1.596c.851 0 1.487.672 1.487 1.596s-.636 1.596-1.488 1.596Zm9.843 1.536c1.656 0 2.748-1.044 3.072-2.424h-1.704c-.228.54-.66.936-1.368.936-.864 0-1.5-.636-1.5-1.644s.636-1.644 1.5-1.644c.708 0 1.14.396 1.368.936h1.704c-.324-1.38-1.416-2.424-3.072-2.424-1.824 0-3.156 1.392-3.156 3.132 0 1.74 1.332 3.132 3.156 3.132ZM43.11 169h1.644v-4.56h1.776V163h-5.076v1.44h1.656V169Zm7.036.132c1.74 0 3.156-1.368 3.156-3.132 0-1.752-1.416-3.132-3.156-3.132-1.74 0-3.156 1.38-3.156 3.132 0 1.764 1.416 3.132 3.156 3.132Zm0-1.536c-.864 0-1.5-.672-1.5-1.596s.636-1.596 1.5-1.596c.852 0 1.488.672 1.488 1.596s-.636 1.596-1.488 1.596Zm4.428 1.524c1.008 0 2.016-.684 2.016-2.28v-2.4h1.848V169h1.644v-6h-5.136v3.636c0 .828-.264 1.056-.732 1.056-.132 0-.288-.012-.42-.024v1.392c.204.048.456.06.78.06Zm9.533.012c.828 0 1.452-.42 1.728-.804V169h1.644v-6h-1.644v.672c-.276-.384-.9-.804-1.728-.804-1.596 0-2.82 1.44-2.82 3.132 0 1.692 1.224 3.132 2.82 3.132Zm.348-1.5c-.912 0-1.512-.684-1.512-1.632 0-.948.6-1.632 1.512-1.632s1.512.684 1.512 1.632c0 .948-.6 1.632-1.512 1.632ZM69.077 163v6h1.644v-3.468l1.728 2.172 1.716-2.172V169h1.644v-6h-1.392l-1.98 2.496L70.47 163h-1.392Zm9.797 6 2.688-3.54V169h1.632v-6h-1.465l-2.688 3.54V163h-1.644v6h1.477Z" fill="#000"/><path d="M60 216.533V194H30.203c-.89 4.694.682 14.083 14.083 14.083 7.116 0 15.714 5.782 15.714 8.45Z" fill="#fff"/><rect x="5" y="186" width="55" height="22" rx="10" fill="#fff"/><path d="M15.948 201h9.84v-8.52h-1.74v6.864h-2.304v-6.864h-1.752v6.864H17.7v-6.864h-1.752V201Zm15.381 0h2.112l-2.904-3.048L33.033 195h-1.956l-2.028 2.448V195h-1.644v6h1.644v-2.424L31.33 201Zm4.782.132c.828 0 1.452-.42 1.728-.804V201h1.644v-6h-1.644v.672c-.276-.384-.9-.804-1.728-.804-1.596 0-2.82 1.44-2.82 3.132 0 1.692 1.224 3.132 2.82 3.132Zm.348-1.5c-.912 0-1.512-.684-1.512-1.632 0-.948.6-1.632 1.512-1.632s1.512.684 1.512 1.632c0 .948-.6 1.632-1.512 1.632Zm9.242 3.876v-2.376h.12c2.088 0 3.228-1.476 3.228-3.132 0-1.656-1.14-3.132-3.228-3.132h-.12V192h-1.644v2.868h-.132c-2.088 0-3.228 1.476-3.228 3.132 0 1.656 1.14 3.132 3.228 3.132h.132v2.376h1.644Zm.12-7.128c.984 0 1.572.756 1.572 1.62 0 .864-.576 1.62-1.572 1.62h-.12v-3.24h.12Zm-1.764 3.24h-.132c-.996 0-1.572-.756-1.572-1.62 0-.864.588-1.62 1.572-1.62h.132v3.24Z" fill="#000"/><path d="M125 222.511v22.533H95.203c-.89-4.694.682-14.083 14.083-14.083 7.116 0 15.714-5.781 15.714-8.45Z" fill="#fff"/><rect x="32" y="230.95" width="93" height="22" rx="10" fill="#fff"/><path d="M42.948 237.43v8.52h1.74v-5.544l2.616 3.588 2.616-3.588v5.544h1.74v-8.52h-1.584l-2.772 3.804-2.772-3.804h-1.584Zm9.467 8.52h1.86l1.752-1.896h.576v1.896h1.644v-6h-2.652c-1.416 0-2.208.876-2.208 2.016 0 .768.408 1.368 1.092 1.704l-2.064 2.28Zm3.276-3.216c-.42 0-.756-.252-.756-.696 0-.468.252-.756.744-.756h.924v1.452h-.912Zm4.14 3.216h1.644v-4.56h2.496v-1.44h-4.14v6Zm9.057 0H71l-2.904-3.048 2.496-2.952h-1.956l-2.028 2.448v-2.448h-1.644v6h1.644v-2.424l2.28 2.424Zm4.781.132c.828 0 1.452-.42 1.728-.804v.672h1.644v-6h-1.644v.672c-.276-.384-.9-.804-1.728-.804-1.596 0-2.82 1.44-2.82 3.132 0 1.692 1.224 3.132 2.82 3.132Zm.348-1.5c-.912 0-1.512-.684-1.512-1.632 0-.948.6-1.632 1.512-1.632s1.512.684 1.512 1.632c0 .948-.6 1.632-1.512 1.632Zm3.699 1.368h1.86l1.752-1.896h.576v1.896h1.644v-6h-2.652c-1.416 0-2.208.876-2.208 2.016 0 .768.408 1.368 1.092 1.704l-2.064 2.28Zm3.276-3.216c-.42 0-.756-.252-.756-.696 0-.468.252-.756.744-.756h.924v1.452h-.912Zm9.138 3.348c1.752 0 2.568-.984 2.568-1.896 0-.636-.264-1.092-.804-1.392.432-.324.564-.78.564-1.2 0-.78-.672-1.776-2.316-1.776-1.152 0-2.352.492-2.64 1.896h1.644c.132-.372.456-.612.948-.612.54 0 .792.264.792.612 0 .384-.276.588-.696.588h-.672v1.128h.732c.516 0 .792.24.792.624 0 .42-.312.672-.924.684-.54 0-.936-.24-1.068-.672h-1.692c.252 1.428 1.548 2.016 2.772 2.016Zm6.54 0c1.74 0 3.155-1.368 3.155-3.132 0-1.752-1.416-3.132-3.156-3.132-1.74 0-3.156 1.38-3.156 3.132 0 1.764 1.416 3.132 3.156 3.132Zm0-1.536c-.865 0-1.5-.672-1.5-1.596s.635-1.596 1.5-1.596c.851 0 1.487.672 1.487 1.596s-.636 1.596-1.488 1.596Zm4.341 1.404h1.644v-2.304h2.472v2.304h1.644v-6h-1.644v2.268h-2.472v-2.268h-1.644v6Zm9.783.132c.828 0 1.452-.42 1.728-.804v.672h1.644v-6h-1.644v.672c-.276-.384-.9-.804-1.728-.804-1.596 0-2.82 1.44-2.82 3.132 0 1.692 1.224 3.132 2.82 3.132Zm.348-1.5c-.912 0-1.512-.684-1.512-1.632 0-.948.6-1.632 1.512-1.632s1.512.684 1.512 1.632c0 .948-.6 1.632-1.512 1.632Z" fill="#000"/><path d="M215 130.511v22.533h29.797c.889-4.694-.682-14.083-14.083-14.083-7.116 0-15.714-5.781-15.714-8.45Z" fill="#fff"/><rect x="215" y="139" width="96" height="22" rx="10" fill="#fff"/><path d="M225.012 154h1.8l.816-1.944h3.636l.828 1.944h1.824l-3.684-8.52h-1.548l-3.672 8.52Zm4.44-6.228 1.164 2.76h-2.34l1.176-2.76Zm6.902 8.736v-3.18c.276.384.912.804 1.74.804 1.596 0 2.82-1.44 2.82-3.132 0-1.692-1.224-3.132-2.82-3.132-.828 0-1.464.42-1.74.804V148h-1.644v8.508h1.644Zm1.38-3.876c-.912 0-1.512-.684-1.512-1.632 0-.948.6-1.632 1.512-1.632s1.512.684 1.512 1.632c0 .948-.6 1.632-1.512 1.632Zm7.142 1.5c1.524 0 2.724-.876 3.072-2.088h-1.716c-.192.42-.696.66-1.272.66-1.032 0-1.56-.612-1.62-1.32h4.68c.096-2.256-1.38-3.516-3.132-3.516-1.824 0-3.156 1.332-3.156 3.12 0 1.824 1.308 3.144 3.144 3.144Zm-.036-4.932c.552 0 1.188.3 1.38 1.104h-2.82c.156-.672.672-1.104 1.44-1.104Zm4.378 4.8h1.644v-2.304h2.472V154h1.644v-6h-1.644v2.268h-2.472V148h-1.644v6Zm9.783.132c.828 0 1.452-.42 1.728-.804V154h1.644v-6h-1.644v.672c-.276-.384-.9-.804-1.728-.804-1.596 0-2.82 1.44-2.82 3.132 0 1.692 1.224 3.132 2.82 3.132Zm.348-1.5c-.912 0-1.512-.684-1.512-1.632 0-.948.6-1.632 1.512-1.632s1.512.684 1.512 1.632c0 .948-.6 1.632-1.512 1.632Zm8.385 1.368h1.644v-8.52h-2.244l-1.2 1.62h1.8v6.9Zm6.386.132c1.86 0 3.168-1.416 3.168-3.372v-2.064c0-1.944-1.308-3.36-3.168-3.36-1.872 0-3.18 1.416-3.18 3.36v2.064c0 1.956 1.308 3.372 3.18 3.372Zm0-1.62c-.912 0-1.536-.648-1.536-1.752v-2.064c0-1.104.624-1.74 1.536-1.74s1.524.636 1.524 1.74v2.064c0 1.104-.612 1.752-1.524 1.752Zm7.57 1.62c1.86 0 3.168-1.416 3.168-3.372v-2.064c0-1.944-1.308-3.36-3.168-3.36-1.872 0-3.18 1.416-3.18 3.36v2.064c0 1.956 1.308 3.372 3.18 3.372Zm0-1.62c-.912 0-1.536-.648-1.536-1.752v-2.064c0-1.104.624-1.74 1.536-1.74s1.524.636 1.524 1.74v2.064c0 1.104-.612 1.752-1.524 1.752Zm7.301-4.512v6h1.644v-3.468l1.728 2.172 1.716-2.172V154h1.644v-6h-1.392l-1.98 2.496-1.968-2.496h-1.392Zm11.429-.072h-1.932c.132-.228.672-.516.864-.648.576-.384 1.044-.876 1.044-1.836 0-1.092-.828-1.632-1.692-1.632-1.056 0-1.86.744-1.86 1.752h1.176c-.012-.3.228-.6.648-.6.372 0 .552.24.552.528 0 .372-.372.732-.756.984-.768.54-1.644 1.02-1.644 2.22v.384h3.6v-1.152Z" fill="#000"/><path d="M112 130.533V108h29.797c.889 4.694-.682 14.083-14.083 14.083-7.116 0-15.714 5.782-15.714 8.45Z" fill="#fff"/><rect x="112" y="100" width="67" height="22" rx="10" fill="#fff"/><path d="M125.552 115h1.548l3.528-8.52h-1.92l-2.376 5.916-2.412-5.916h-1.884l3.516 8.52Zm6.044 0h1.74v-3.588h.42l2.928 3.588h2.1l-3.06-3.78c1.14-.348 1.752-1.068 1.752-2.22 0-1.416-1.032-2.52-2.616-2.52h-3.264V115Zm1.74-5.076v-1.848h1.32c.66 0 1.092.336 1.092.924 0 .576-.432.924-1.092.924h-1.32Zm7.321 5.076h1.8l.816-1.944h3.636l.828 1.944h1.824l-3.684-8.52h-1.548l-3.672 8.52Zm4.44-6.228 1.164 2.76h-2.34l1.176-2.76Zm7.254 6.36c.768 0 1.32-.336 1.644-.816V115h1.644v-6h-1.644v2.928c0 1.164-.504 1.704-1.236 1.704-.72 0-1.02-.516-1.02-1.428V109h-1.644v3.48c0 1.584.816 2.652 2.256 2.652Zm7.775-.06c.468 0 .768-.048 1.044-.132v-1.452c-.192.072-.42.108-.672.108-.72 0-1.02-.288-1.02-1.02v-2.136h1.692V109h-1.692v-1.668h-1.644V109h-1.212v1.44h1.212v2.46c0 1.476 1.02 2.172 2.292 2.172Zm4.895.06c1.74 0 3.156-1.368 3.156-3.132 0-1.752-1.416-3.132-3.156-3.132-1.74 0-3.156 1.38-3.156 3.132 0 1.764 1.416 3.132 3.156 3.132Zm0-1.536c-.864 0-1.5-.672-1.5-1.596s.636-1.596 1.5-1.596c.852 0 1.488.672 1.488 1.596s-.636 1.596-1.488 1.596Z" fill="#000"/><path d="M100 142.533V120H70.203c-.89 4.694.682 14.083 14.083 14.083 7.116 0 15.714 5.782 15.714 8.45Z" fill="#fff"/><rect y="100" width="100" height="34" rx="10" fill="#fff"/><path d="M11.448 115h3.6c1.512 0 2.64-1.092 2.64-2.508 0-.96-.504-1.644-1.26-2.016.42-.372.672-.864.672-1.524 0-1.344-1.092-2.472-2.532-2.472h-3.12V115Zm1.74-1.596v-1.956h1.74c.66 0 1.068.42 1.068.984 0 .564-.408.972-1.068.972h-1.74Zm0-3.432v-1.908H14.4c.612 0 1.008.444 1.008.96 0 .528-.396.948-1.008.948h-1.212Zm8.47 5.16c1.523 0 2.723-.876 3.072-2.088h-1.716c-.192.42-.697.66-1.273.66-1.032 0-1.56-.612-1.62-1.32h4.68c.097-2.256-1.38-3.516-3.131-3.516-1.825 0-3.157 1.332-3.157 3.12 0 1.824 1.308 3.144 3.144 3.144Zm-.037-4.932c.553 0 1.189.3 1.38 1.104h-2.82c.156-.672.672-1.104 1.44-1.104ZM26 115h1.644v-2.304h2.472V115h1.644v-6h-1.644v2.268h-2.472V109h-1.644v6Zm6.904-1.44v2.916h1.476V115h4.176v1.476h1.476v-2.916h-.972V109h-5.16v3.012c0 1.164-.348 1.548-.84 1.548h-.156Zm2.64-3.12h1.872v3.12h-2.172c.192-.336.3-.696.3-1.452v-1.668Zm7.12 4.56 2.688-3.54V115h1.632v-6h-1.464l-2.688 3.54V109h-1.645v6h1.477Zm5.918 0h1.644v-2.304h2.472V115h1.644v-6h-1.644v2.268h-2.472V109h-1.644v6Zm7.348 0h1.644v-4.56h2.496V109h-4.14v6Zm7.728.132c1.74 0 3.157-1.368 3.157-3.132 0-1.752-1.416-3.132-3.156-3.132-1.74 0-3.157 1.38-3.157 3.132 0 1.764 1.416 3.132 3.157 3.132Zm0-1.536c-.863 0-1.5-.672-1.5-1.596s.637-1.596 1.5-1.596c.853 0 1.489.672 1.489 1.596s-.636 1.596-1.489 1.596ZM68 115h3.288c1.596 0 2.196-.936 2.196-1.824 0-.564-.3-1.068-.78-1.368.264-.3.396-.636.396-1.008 0-.9-.672-1.8-2.232-1.8h-2.868v6Zm1.644-1.344v-1.188h1.56c.372 0 .648.204.648.588 0 .396-.276.6-.648.6h-1.56Zm0-2.292v-1.104h1.224c.276 0 .6.132.6.552 0 .42-.324.552-.6.552h-1.224ZM80.451 115h1.644v-6h-1.644v6Zm-5.784 0h2.772c1.596 0 2.208-1.236 2.208-2.136 0-.9-.612-2.076-2.208-2.076h-1.128V109h-1.644v6Zm1.644-2.808h.936c.54 0 .852.216.852.684 0 .468-.312.72-.852.72h-.936v-1.404Zm10.14 2.94c1.523 0 2.723-.876 3.071-2.088h-1.716c-.192.42-.696.66-1.272.66-1.032 0-1.56-.612-1.62-1.32h4.68c.096-2.256-1.38-3.516-3.132-3.516-1.824 0-3.156 1.332-3.156 3.12 0 1.824 1.308 3.144 3.144 3.144Zm-.037-4.932c.552 0 1.188.3 1.38 1.104h-2.82c.156-.672.672-1.104 1.44-1.104Zm-49.846 16.932c.828 0 1.452-.42 1.728-.804V127h1.644v-6h-1.644v.672c-.276-.384-.9-.804-1.728-.804-1.596 0-2.82 1.44-2.82 3.132 0 1.692 1.224 3.132 2.82 3.132Zm.348-1.5c-.912 0-1.512-.684-1.512-1.632 0-.948.6-1.632 1.512-1.632s1.512.684 1.512 1.632c0 .948-.6 1.632-1.512 1.632ZM41.538 127h3.288c1.596 0 2.196-.936 2.196-1.824 0-.564-.3-1.068-.78-1.368.264-.3.396-.636.396-1.008 0-.9-.672-1.8-2.232-1.8h-2.868v6Zm1.644-1.344v-1.188h1.56c.372 0 .648.204.648.588 0 .396-.276.6-.648.6h-1.56Zm0-2.292v-1.104h1.224c.276 0 .6.132.6.552 0 .42-.324.552-.6.552h-1.224ZM49.157 127h1.644v-4.56h1.776V121h-5.076v1.44h1.656V127Zm7.036.132c1.74 0 3.156-1.368 3.156-3.132 0-1.752-1.416-3.132-3.156-3.132-1.74 0-3.156 1.38-3.156 3.132 0 1.764 1.416 3.132 3.156 3.132Zm0-1.536c-.864 0-1.5-.672-1.5-1.596s.636-1.596 1.5-1.596c.852 0 1.488.672 1.488 1.596s-.636 1.596-1.488 1.596ZM60.534 121v6h1.644v-3.468l1.728 2.172 1.716-2.172V127h1.644v-6h-1.392l-1.98 2.496L61.926 121h-1.392Zm10.756 6.132c.828 0 1.453-.42 1.728-.804V127h1.644v-6h-1.644v.672c-.275-.384-.9-.804-1.728-.804-1.596 0-2.82 1.44-2.82 3.132 0 1.692 1.225 3.132 2.82 3.132Zm.348-1.5c-.912 0-1.512-.684-1.512-1.632 0-.948.6-1.632 1.512-1.632s1.512.684 1.512 1.632c0 .948-.6 1.632-1.512 1.632ZM77.341 127h1.644v-4.56h1.776V121h-5.076v1.44h1.656V127Zm10.212 0h1.644v-6h-1.644v6Zm-5.784 0h2.772c1.596 0 2.208-1.236 2.208-2.136 0-.9-.612-2.076-2.208-2.076h-1.128V121h-1.644v6Zm1.644-2.808h.936c.54 0 .852.216.852.684 0 .468-.312.72-.852.72h-.936v-1.404Z" fill="#000"/><path d="M178 90.533V68h-29.797c-.889 4.694.682 14.083 14.083 14.083 7.116 0 15.714 5.782 15.714 8.45Z" fill="#fff"/><rect x="111" y="60" width="67" height="22" rx="10" fill="#fff"/><path d="M124.552 75h1.548l3.528-8.52h-1.92l-2.376 5.916-2.412-5.916h-1.884l3.516 8.52Zm6.044 0h1.74v-3.588h.42L135.684 75h2.1l-3.06-3.78c1.14-.348 1.752-1.068 1.752-2.22 0-1.416-1.032-2.52-2.616-2.52h-3.264V75Zm1.74-5.076v-1.848h1.32c.66 0 1.092.336 1.092.924 0 .576-.432.924-1.092.924h-1.32ZM139.657 75h1.8l.816-1.944h3.636l.828 1.944h1.824l-3.684-8.52h-1.548L139.657 75Zm4.44-6.228 1.164 2.76h-2.34l1.176-2.76Zm7.254 6.36c.768 0 1.32-.336 1.644-.816V75h1.644v-6h-1.644v2.928c0 1.164-.504 1.704-1.236 1.704-.72 0-1.02-.516-1.02-1.428V69h-1.644v3.48c0 1.584.816 2.652 2.256 2.652Zm7.775-.06c.468 0 .768-.048 1.044-.132v-1.452c-.192.072-.42.108-.672.108-.72 0-1.02-.288-1.02-1.02V70.44h1.692V69h-1.692v-1.668h-1.644V69h-1.212v1.44h1.212v2.46c0 1.476 1.02 2.172 2.292 2.172Zm4.895.06c1.74 0 3.156-1.368 3.156-3.132 0-1.752-1.416-3.132-3.156-3.132-1.74 0-3.156 1.38-3.156 3.132 0 1.764 1.416 3.132 3.156 3.132Zm0-1.536c-.864 0-1.5-.672-1.5-1.596s.636-1.596 1.5-1.596c.852 0 1.488.672 1.488 1.596s-.636 1.596-1.488 1.596Z" fill="#000"/><path d="M183 168.5V191h29.797c.889-4.688-.682-14.062-14.083-14.062-7.116 0-15.714-5.774-15.714-8.438Z" fill="#fff"/><rect x="183" y="177" width="74" height="22" rx="10" fill="#fff"/><path d="M199.372 192h2.256l-4.236-4.428 3.504-4.092h-2.148l-3.072 3.612v-3.612h-1.728V192h1.728v-3.864l3.696 3.864Zm7.839-6h-1.812l-1.548 3.756-1.656-3.756h-1.8l2.52 5.664-.3.696c-.288.624-.636.828-1.056.828-.276 0-.408-.012-.588-.024v1.404c.228.036.468.048.804.048 1.164 0 1.884-.576 2.448-1.86l2.988-6.756Zm3.712 6.132c1.776 0 3.144-1.38 3.144-3.144 0-1.56-1.044-2.844-2.832-2.844-.624 0-1.248.18-1.728.648.156-1.188.924-1.716 2.268-1.968l1.74-.312v-1.56l-2.1.384c-2.304.42-3.612 1.62-3.612 4.764v.348c0 2.256 1.068 3.684 3.12 3.684Zm-.012-1.536c-.852 0-1.476-.552-1.476-1.56 0-.78.588-1.464 1.488-1.464.888 0 1.488.672 1.488 1.464 0 1.008-.636 1.56-1.5 1.56Zm12.612-.216h-3.528c.216-.54 1.128-1.044 1.656-1.416 1.08-.792 1.8-1.536 1.8-3 0-1.728-1.308-2.628-2.736-2.628-1.692 0-2.976 1.14-2.976 2.82h1.656c-.012-.684.528-1.2 1.284-1.2.732 0 1.128.48 1.128 1.104 0 .684-.6 1.236-1.344 1.752-1.248.9-2.748 1.716-2.748 3.624V192h5.808v-1.62Zm3.987 1.752c1.776 0 2.976-1.104 2.976-2.808 0-1.728-1.032-2.94-2.652-2.94-.48 0-.888.108-1.176.288l.324-1.596h2.88v-1.596h-4.152l-.96 4.836 1.452.444c.192-.516.66-.888 1.332-.888.768 0 1.308.564 1.308 1.32 0 .732-.48 1.32-1.332 1.32-.66 0-1.188-.42-1.332-.984h-1.704c.06 1.524 1.476 2.604 3.036 2.604Zm6.981-6.132v6h1.644v-3.468l1.728 2.172 1.716-2.172V192h1.644v-6h-1.392l-1.98 2.496-1.968-2.496h-1.392Zm11.429-.072h-1.932c.132-.228.672-.516.864-.648.576-.384 1.044-.876 1.044-1.836 0-1.092-.828-1.632-1.692-1.632-1.056 0-1.86.744-1.86 1.752h1.176c-.012-.3.228-.6.648-.6.372 0 .552.24.552.528 0 .372-.372.732-.756.984-.768.54-1.644 1.02-1.644 2.22v.384h3.6v-1.152Z" fill="#000"/></g><defs><filter id="filter0_d_1058_4434" x="120.502" y="108.488" width="25.517" height="18.113" filterUnits="userSpaceOnUse" color-interpolation-filters="sRGB"><feFlood flood-opacity="0" result="BackgroundImageFix"/><feColorMatrix in="SourceAlpha" values="0 0 0 0 0 0 0 0 0 0 0 0 0 0 0 0 0 0 127 0" result="hardAlpha"/><feOffset/><feGaussianBlur stdDeviation="2"/><feComposite in2="hardAlpha" operator="out"/><feColorMatrix values="0 0 0 0 0 0 0 0 0 0 0 0 0 0 0 0 0 0 0.25 0"/><feBlend in2="BackgroundImageFix" result="effect1_dropShadow_1058_4434"/><feBlend in="SourceGraphic" in2="effect1_dropShadow_1058_4434" result="shape"/></filter><filter id="filter1_d_1058_4434" x="122.869" y="109.772" width="22.199" height="16.198" filterUnits="userSpaceOnUse" color-interpolation-filters="sRGB"><feFlood flood-opacity="0" result="BackgroundImageFix"/><feColorMatrix in="SourceAlpha" values="0 0 0 0 0 0 0 0 0 0 0 0 0 0 0 0 0 0 127 0" result="hardAlpha"/><feOffset/><feGaussianBlur stdDeviation="2"/><feComposite in2="hardAlpha" operator="out"/><feColorMatrix values="0 0 0 0 0 0 0 0 0 0 0 0 0 0 0 0 0 0 0.25 0"/><feBlend in2="BackgroundImageFix" result="effect1_dropShadow_1058_4434"/><feBlend in="SourceGraphic" in2="effect1_dropShadow_1058_4434" result="shape"/></filter><filter id="filter2_d_1058_4434" x="137.002" y="98.962" width="25.517" height="18.113" filterUnits="userSpaceOnUse" color-interpolation-filters="sRGB"><feFlood flood-opacity="0" result="BackgroundImageFix"/><feColorMatrix in="SourceAlpha" values="0 0 0 0 0 0 0 0 0 0 0 0 0 0 0 0 0 0 127 0" result="hardAlpha"/><feOffset/><feGaussianBlur stdDeviation="2"/><feComposite in2="hardAlpha" operator="out"/><feColorMatrix values="0 0 0 0 0 0 0 0 0 0 0 0 0 0 0 0 0 0 0.25 0"/><feBlend in2="BackgroundImageFix" result="effect1_dropShadow_1058_4434"/><feBlend in="SourceGraphic" in2="effect1_dropShadow_1058_4434" result="shape"/></filter><filter id="filter3_d_1058_4434" x="139.369" y="100.245" width="22.199" height="16.198" filterUnits="userSpaceOnUse" color-interpolation-filters="sRGB"><feFlood flood-opacity="0" result="BackgroundImageFix"/><feColorMatrix in="SourceAlpha" values="0 0 0 0 0 0 0 0 0 0 0 0 0 0 0 0 0 0 127 0" result="hardAlpha"/><feOffset/><feGaussianBlur stdDeviation="2"/><feComposite in2="hardAlpha" operator="out"/><feColorMatrix values="0 0 0 0 0 0 0 0 0 0 0 0 0 0 0 0 0 0 0.25 0"/><feBlend in2="BackgroundImageFix" result="effect1_dropShadow_1058_4434"/><feBlend in="SourceGraphic" in2="effect1_dropShadow_1058_4434" result="shape"/></filter><filter id="filter4_d_1058_4434" x="108.927" y="199.392" width="32.662" height="26.362" filterUnits="userSpaceOnUse" color-interpolation-filters="sRGB"><feFlood flood-opacity="0" result="BackgroundImageFix"/><feColorMatrix in="SourceAlpha" values="0 0 0 0 0 0 0 0 0 0 0 0 0 0 0 0 0 0 127 0" result="hardAlpha"/><feOffset/><feGaussianBlur stdDeviation="2"/><feComposite in2="hardAlpha" operator="out"/><feColorMatrix values="0 0 0 0 0 0 0 0 0 0 0 0 0 0 0 0 0 0 0.25 0"/><feBlend in2="BackgroundImageFix" result="effect1_dropShadow_1058_4434"/><feBlend in="SourceGraphic" in2="effect1_dropShadow_1058_4434" result="shape"/></filter><filter id="filter5_d_1058_4434" x="110.957" y="201.56" width="17.028" height="13.212" filterUnits="userSpaceOnUse" color-interpolation-filters="sRGB"><feFlood flood-opacity="0" result="BackgroundImageFix"/><feColorMatrix in="SourceAlpha" values="0 0 0 0 0 0 0 0 0 0 0 0 0 0 0 0 0 0 127 0" result="hardAlpha"/><feOffset/><feGaussianBlur stdDeviation="2"/><feComposite in2="hardAlpha" operator="out"/><feColorMatrix values="0 0 0 0 0 0 0 0 0 0 0 0 0 0 0 0 0 0 0.25 0"/><feBlend in2="BackgroundImageFix" result="effect1_dropShadow_1058_4434"/><feBlend in="SourceGraphic" in2="effect1_dropShadow_1058_4434" result="shape"/></filter><filter id="filter6_d_1058_4434" x="116.621" y="204.83" width="16.535" height="12.928" filterUnits="userSpaceOnUse" color-interpolation-filters="sRGB"><feFlood flood-opacity="0" result="BackgroundImageFix"/><feColorMatrix in="SourceAlpha" values="0 0 0 0 0 0 0 0 0 0 0 0 0 0 0 0 0 0 127 0" result="hardAlpha"/><feOffset/><feGaussianBlur stdDeviation="2"/><feComposite in2="hardAlpha" operator="out"/><feColorMatrix values="0 0 0 0 0 0 0 0 0 0 0 0 0 0 0 0 0 0 0.25 0"/><feBlend in2="BackgroundImageFix" result="effect1_dropShadow_1058_4434"/><feBlend in="SourceGraphic" in2="effect1_dropShadow_1058_4434" result="shape"/></filter><filter id="filter7_d_1058_4434" x="121.793" y="207.816" width="17.028" height="13.212" filterUnits="userSpaceOnUse" color-interpolation-filters="sRGB"><feFlood flood-opacity="0" result="BackgroundImageFix"/><feColorMatrix in="SourceAlpha" values="0 0 0 0 0 0 0 0 0 0 0 0 0 0 0 0 0 0 127 0" result="hardAlpha"/><feOffset/><feGaussianBlur stdDeviation="2"/><feComposite in2="hardAlpha" operator="out"/><feColorMatrix values="0 0 0 0 0 0 0 0 0 0 0 0 0 0 0 0 0 0 0.25 0"/><feBlend in2="BackgroundImageFix" result="effect1_dropShadow_1058_4434"/><feBlend in="SourceGraphic" in2="effect1_dropShadow_1058_4434" result="shape"/></filter><filter id="filter8_d_1058_4434" x="116.129" y="210.659" width="17.766" height="13.639" filterUnits="userSpaceOnUse" color-interpolation-filters="sRGB"><feFlood flood-opacity="0" result="BackgroundImageFix"/><feColorMatrix in="SourceAlpha" values="0 0 0 0 0 0 0 0 0 0 0 0 0 0 0 0 0 0 127 0" result="hardAlpha"/><feOffset/><feGaussianBlur stdDeviation="2"/><feComposite in2="hardAlpha" operator="out"/><feColorMatrix values="0 0 0 0 0 0 0 0 0 0 0 0 0 0 0 0 0 0 0.25 0"/><feBlend in2="BackgroundImageFix" result="effect1_dropShadow_1058_4434"/><feBlend in="SourceGraphic" in2="effect1_dropShadow_1058_4434" result="shape"/></filter><clipPath id="clip0_1058_4434"><path fill="#fff" d="M0 0h349v253H0z"/></clipPath></defs></svg>