<svg width="60" height="60" fill="none" xmlns="http://www.w3.org/2000/svg"><path d="M17.5 23.125a1.25 1.25 0 0 0 0-2.5h-1.875V18.75a1.25 1.25 0 0 0-2.5 0v1.875H11.25a1.25 1.25 0 0 0 0 2.5h1.875V25a1.25 1.25 0 0 0 2.5 0v-1.875H17.5ZM45.625 20a1.25 1.25 0 1 0 0-2.5 1.25 1.25 0 0 0 0 2.5ZM45.625 26.25a1.25 1.25 0 1 0 0-2.5 1.25 1.25 0 0 0 0 2.5ZM48.75 23.125a1.25 1.25 0 1 0 0-2.5 1.25 1.25 0 0 0 0 2.5ZM42.5 23.125a1.25 1.25 0 1 0 0-2.5 1.25 1.25 0 0 0 0 2.5ZM20.625 27.5a4.375 4.375 0 1 0 0 8.75 4.375 4.375 0 0 0 0-8.75Zm0 6.25a1.875 1.875 0 1 1 0-3.75 1.875 1.875 0 0 1 0 3.75ZM39.375 27.5a4.375 4.375 0 1 0 0 8.75 4.375 4.375 0 0 0 0-8.75Zm0 6.25a1.876 1.876 0 1 1 0-3.751 1.876 1.876 0 0 1 0 3.751ZM27.5 23.75h-1.25a1.25 1.25 0 0 0 0 2.5h1.25a1.25 1.25 0 0 0 0-2.5ZM33.75 23.75H32.5a1.25 1.25 0 0 0 0 2.5h1.25a1.25 1.25 0 0 0 0-2.5Z" fill="#CE2127"/><path d="M55.602 18.429A11.365 11.365 0 0 0 41.68 10.39a12.894 12.894 0 0 0-6.054 4.144 1.272 1.272 0 0 1-1.016.466h-9.213a1.277 1.277 0 0 1-1.016-.466 12.894 12.894 0 0 0-6.056-4.144 11.367 11.367 0 0 0-13.927 8.039C-.715 37.51.391 47.75 7.78 49.729c4.584 1.23 8.75-1.625 12.414-8.492a9.279 9.279 0 0 0 6.796-2.487h6.02a9.279 9.279 0 0 0 6.365 2.5c.141 0 .284 0 .431-.013 3.109 5.83 6.588 8.77 10.375 8.77a7.847 7.847 0 0 0 2.04-.278c7.388-1.979 8.494-12.218 3.382-31.3Zm-4.03 28.886c-3.45.924-6.788-1.759-9.932-7.97a1.25 1.25 0 0 0-1.29-.672 7.01 7.01 0 0 1-.975.077 6.81 6.81 0 0 1-4.953-2.116 1.25 1.25 0 0 0-.902-.384h-7.04a1.253 1.253 0 0 0-.902.384 6.812 6.812 0 0 1-4.953 2.116 7.01 7.01 0 0 1-.975-.078 1.25 1.25 0 0 0-1.29.673c-3.144 6.211-6.486 8.895-9.932 7.97-5.604-1.5-6.163-11.267-1.617-28.239a8.882 8.882 0 0 1 8.553-6.576c.78 0 1.556.104 2.31.306a10.396 10.396 0 0 1 4.72 3.25 3.787 3.787 0 0 0 3 1.444h9.212a3.785 3.785 0 0 0 3-1.446 10.4 10.4 0 0 1 4.72-3.25 8.875 8.875 0 0 1 10.863 6.271c4.546 16.973 3.987 26.738-1.617 28.24Z" fill="#CE2127"/></svg>