<svg width="60" height="60" fill="none" xmlns="http://www.w3.org/2000/svg"><path d="M48.428 48.366a26.06 26.06 0 0 0 0-36.732v-.062h-.062a26.06 26.06 0 0 0-36.732 0h-.062v.062a26.06 26.06 0 0 0 0 36.732v.062h.062a26.06 26.06 0 0 0 36.732 0h.062v-.062Zm-4.43-6.08a1.241 1.241 0 0 0-1.75 1.749l3.462 3.462a23.478 23.478 0 0 1-14.506 6.08v-4.963a1.242 1.242 0 0 0-2.482 0v4.964a23.479 23.479 0 0 1-14.507-6.08l3.462-3.463a1.241 1.241 0 0 0-1.75-1.75l-3.462 3.463A23.479 23.479 0 0 1 6.447 31.24h4.901a1.24 1.24 0 1 0 0-2.482H6.447a23.479 23.479 0 0 1 6.018-14.507l3.463 3.463a1.24 1.24 0 0 0 1.75 0 1.24 1.24 0 0 0 0-1.75l-3.463-3.463a23.48 23.48 0 0 1 14.507-6.018v4.902a1.241 1.241 0 0 0 2.482 0V6.484a23.48 23.48 0 0 1 14.506 6.018l-3.462 3.463a1.241 1.241 0 0 0 0 1.75 1.24 1.24 0 0 0 1.75 0l3.462-3.463a23.479 23.479 0 0 1 6.08 14.507h-4.963a1.241 1.241 0 0 0 0 2.482h4.964a23.478 23.478 0 0 1-6.08 14.507l-3.463-3.463Z" fill="#CE2127"/><path d="M31.204 29.492v-8.178a1.24 1.24 0 1 0-2.482 0V30a1.243 1.243 0 0 0 .36.88l8.687 8.687a1.244 1.244 0 0 0 1.358.272c.151-.063.288-.155.404-.272a1.243 1.243 0 0 0 0-1.762l-8.327-8.314Z" fill="#CE2127"/></svg>