<svg width="60" height="60" fill="none" xmlns="http://www.w3.org/2000/svg"><g clip-path="url('#clip0_912_5718')" fill="#CE2127"><path d="M57.5 22.5h-4.56l-2.127-3.703a6.22 6.22 0 0 0-2.745-2.536l-8.732-4.137a9.04 9.04 0 0 0-5.492-.733l-22.732 4.066A3.754 3.754 0 0 0 7.5 12.7H3.75A3.754 3.754 0 0 0 0 16.449v16.294a3.754 3.754 0 0 0 3.75 3.75H7.5a3.753 3.753 0 0 0 3.714-3.257l5.727 2.644c.184.084.373.148.56.223V46.25a2.502 2.502 0 0 0 2.5 2.5h37.5a2.502 2.502 0 0 0 2.5-2.5V25a2.503 2.503 0 0 0-2.5-2.5ZM8.75 32.743a1.252 1.252 0 0 1-1.25 1.25H3.75a1.252 1.252 0 0 1-1.25-1.25V16.449a1.251 1.251 0 0 1 1.25-1.25H7.5a1.251 1.251 0 0 1 1.25 1.25v16.294Zm2.5-2.243V17.974l23.035-4.122a6.559 6.559 0 0 1 3.98.532L47 18.521a3.732 3.732 0 0 1 1.646 1.521l1.412 2.458H24.774a1.25 1.25 0 0 0-1.055 1.92l1.44 2.267a6.27 6.27 0 0 0 4.156 2.797l9.884 1.797a1.6 1.6 0 0 1-.286 3.173H21.837a9.141 9.141 0 0 1-3.85-.844L11.25 30.5Zm30.939-.089a6.248 6.248 0 1 1-9.545 6.543h6.268a4.083 4.083 0 0 0 3.276-6.543ZM57.5 46.25H20v-9.457c.607.102 1.222.155 1.837.16h.663v2.82a1.25 1.25 0 0 0 1.25 1.25 1.478 1.478 0 0 1 1.477 1.477 1.25 1.25 0 0 0 1.25 1.25h2.273a1.25 1.25 0 1 0 0-2.5h-1.224A3.995 3.995 0 0 0 25 38.724v-1.77h5.112c.647 4.188 4.286 7.421 8.638 7.421a8.75 8.75 0 1 0-3.715-16.674 1.234 1.234 0 0 0-.32.224l-4.953-.9a3.758 3.758 0 0 1-2.494-1.679l-.22-.346H57.5v21.25Z"/><path d="M51.024 27.5H48.75a1.25 1.25 0 1 0 0 2.5h1.224a3.993 3.993 0 0 0 2.526 2.526v6.199a3.995 3.995 0 0 0-2.526 2.525H48.75a1.25 1.25 0 1 0 0 2.5h2.274a1.25 1.25 0 0 0 1.25-1.25 1.478 1.478 0 0 1 1.476-1.477 1.25 1.25 0 0 0 1.25-1.25v-8.296a1.25 1.25 0 0 0-1.25-1.25 1.478 1.478 0 0 1-1.477-1.477 1.25 1.25 0 0 0-1.25-1.25Z"/></g><defs><clipPath id="clip0_912_5718"><path fill="#fff" d="M0 0h60v60H0z"/></clipPath></defs></svg>