<svg width="2262" height="2291" viewBox="0 0 2262 2291" fill="none" xmlns="http://www.w3.org/2000/svg">
<circle cx="1131" cy="1151" r="1131" fill="#CE2127"></circle>
<path opacity="0.15" fill-rule="evenodd" clip-rule="evenodd" d="M1256.87 153.174L1169.8 203.875L1084.31 150.403L1172.88 0L1256.87 153.174ZM1166.54 413.946C1157.9 429.548 1148.76 446.152 1139.18 463.68C1068.99 592.071 975.209 769.691 880.735 966.819C786.147 1164.19 691.535 1379.71 619.181 1584.14C546.177 1790.41 498.656 1977.7 492.835 2121L293 2112.38C300.128 1936.88 356.191 1725.67 431.28 1513.51C507.019 1299.51 605.009 1076.68 701.405 875.542C797.914 674.167 893.504 493.134 964.927 362.498C1000.66 297.139 1030.4 244.296 1051.25 207.714C1061.68 189.42 1069.89 175.187 1075.52 165.48C1078.33 160.627 1080.5 156.905 1081.98 154.373C1082.72 153.107 1083.29 152.138 1083.68 151.474C1083.87 151.142 1084.02 150.886 1084.13 150.707L1084.29 150.436C1084.3 150.417 1084.31 150.403 1169.8 203.875C1256.87 153.174 1256.88 153.188 1256.89 153.207L1257.46 154.253C1257.82 154.919 1258.35 155.891 1259.04 157.16C1260.42 159.698 1262.44 163.425 1265.06 168.285C1270.31 178.003 1277.94 192.249 1287.63 210.555C1307.01 247.163 1334.62 300.036 1367.72 365.427C1433.87 496.125 1522.15 677.247 1610.52 878.728C1698.8 1079.97 1787.8 1302.96 1854.91 1517.16C1921.46 1729.54 1969 1941.03 1969 2116.69H1768.99C1768.99 1973.55 1729.13 1786.53 1664.58 1580.49C1600.59 1376.26 1514.8 1160.9 1428.27 963.632C1341.85 766.611 1255.33 589.08 1190.38 460.75C1182.06 444.314 1174.1 428.691 1166.54 413.946Z" fill="#EEEEEE"></path>
<path opacity="0.15" fill-rule="evenodd" clip-rule="evenodd" d="M1005.1 2142.19L1092.16 2093L1177.65 2144.88L1089.08 2290.82L1005.1 2142.19ZM1095.42 1889.17C1104.05 1874.03 1113.19 1857.92 1122.78 1840.91C1192.97 1716.33 1286.74 1543.99 1381.21 1352.72C1475.79 1161.21 1570.4 952.093 1642.75 753.734C1715.75 553.592 1763.27 371.866 1769.09 232.818L1968.91 241.182C1961.79 411.468 1905.73 616.408 1830.64 822.266C1754.9 1029.91 1656.92 1246.12 1560.53 1441.28C1464.02 1636.68 1368.44 1812.33 1297.02 1939.09C1261.29 2002.51 1231.55 2053.78 1210.7 2089.28C1200.27 2107.03 1192.06 2120.84 1186.44 2130.25C1183.62 2134.96 1181.45 2138.57 1179.97 2141.03C1179.23 2142.26 1178.66 2143.2 1178.27 2143.84C1178.08 2144.17 1177.93 2144.41 1177.82 2144.59L1177.66 2144.85C1177.65 2144.87 1177.65 2144.88 1092.16 2093C1005.1 2142.19 1005.09 2142.18 1005.08 2142.16L1004.51 2141.15C1004.14 2140.5 1003.61 2139.56 1002.92 2138.33C1001.54 2135.86 999.519 2132.25 996.899 2127.53C991.658 2118.1 984.021 2104.28 974.331 2086.52C954.952 2051 927.344 1999.69 894.25 1936.25C828.105 1809.43 739.83 1633.69 651.457 1438.19C563.191 1242.93 474.187 1026.56 407.081 818.727C340.542 612.651 293 407.445 293 237H493C493 375.888 532.853 557.349 597.406 757.273C661.392 955.442 747.178 1164.4 833.701 1355.81C920.118 1546.98 1006.63 1719.24 1071.58 1843.75C1079.9 1859.7 1087.86 1874.86 1095.42 1889.17Z" fill="#EEEEEE"></path>
</svg>
