<svg width="2262" height="2291" fill="none" xmlns="http://www.w3.org/2000/svg"><circle cx="1131" cy="1151" r="1131" fill="#CE2127"/><path opacity=".15" fill-rule="evenodd" clip-rule="evenodd" d="m1256.87 153.174-87.07 50.701-85.49-53.472L1172.88 0l83.99 153.174Zm-90.33 260.772c-8.64 15.602-17.78 32.206-27.36 49.734-70.19 128.391-163.971 306.011-258.445 503.139-94.588 197.371-189.2 412.891-261.554 617.321-73.004 206.27-120.525 393.56-126.346 536.86L293 2112.38c7.128-175.5 63.191-386.71 138.28-598.87 75.739-214 173.729-436.83 270.125-637.968 96.509-201.375 192.099-382.408 263.522-513.044 35.733-65.359 65.473-118.202 86.323-154.784a6623.357 6623.357 0 0 1 24.27-42.234c2.81-4.853 4.98-8.575 6.46-11.107.74-1.266 1.31-2.235 1.7-2.899.19-.332.34-.588.45-.767l.16-.271c.01-.019.02-.033 85.51 53.439 87.07-50.701 87.08-50.687 87.09-50.668l.57 1.046c.36.666.89 1.638 1.58 2.907 1.38 2.538 3.4 6.265 6.02 11.125 5.25 9.718 12.88 23.964 22.57 42.27 19.38 36.608 46.99 89.481 80.09 154.872 66.15 130.698 154.43 311.82 242.8 513.301 88.28 201.242 177.28 424.232 244.39 638.432 66.55 212.38 114.09 423.87 114.09 599.53h-200.01c0-143.14-39.86-330.16-104.41-536.2-63.99-204.23-149.78-419.59-236.31-616.858-86.42-197.021-172.94-374.552-237.89-502.882-8.32-16.436-16.28-32.059-23.84-46.804Z" fill="#EEE"/><path opacity=".15" fill-rule="evenodd" clip-rule="evenodd" d="m1005.1 2142.19 87.06-49.19 85.49 51.88-88.57 145.94-83.98-148.63Zm90.32-253.02c8.63-15.14 17.77-31.25 27.36-48.26 70.19-124.58 163.96-296.92 258.43-488.19 94.58-191.51 189.19-400.627 261.54-598.986 73-200.142 120.52-381.868 126.34-520.916l199.82 8.364c-7.12 170.286-63.18 375.226-138.27 581.084-75.74 207.644-173.72 423.854-270.11 619.014-96.51 195.4-192.09 371.05-263.51 497.81-35.73 63.42-65.47 114.69-86.32 150.19a6679.915 6679.915 0 0 1-24.26 40.97c-2.82 4.71-4.99 8.32-6.47 10.78-.74 1.23-1.31 2.17-1.7 2.81-.19.33-.34.57-.45.75l-.16.26c-.01.02-.01.03-85.5-51.85-87.06 49.19-87.07 49.18-87.08 49.16l-.57-1.01c-.37-.65-.9-1.59-1.59-2.82-1.38-2.47-3.401-6.08-6.021-10.8a6032.232 6032.232 0 0 1-22.568-41.01c-19.379-35.52-46.987-86.83-80.081-150.27-66.145-126.82-154.42-302.56-242.793-498.06-88.266-195.26-177.27-411.63-244.376-619.463C340.542 612.651 293 407.445 293 237h200c0 138.888 39.853 320.349 104.406 520.273 63.986 198.169 149.772 407.127 236.295 598.537 86.417 191.17 172.929 363.43 237.879 487.94 8.32 15.95 16.28 31.11 23.84 45.42Z" fill="#EEE"/></svg>