<svg width="31" height="30" fill="none" xmlns="http://www.w3.org/2000/svg"><g clip-path="url('#clip0_1735_1587')" fill="#CE2127"><path d="M1.115 19.227h17.913a.642.642 0 0 0 .641-.626V.673a.641.641 0 0 0-.642-.642H1.116a.642.642 0 0 0-.642.642V18.6a.641.641 0 0 0 .642.626Zm.641-17.913h16.63v16.63H1.756V1.314ZM19.105 21.064a.642.642 0 0 0-.642.642v3.439l-3.593-2.377a.647.647 0 0 0-.908.863l1.226 2.053H5.078l1.22-1.95a.647.647 0 0 0-.887-.883l-3.655 2.32v-3.465a.642.642 0 1 0-1.283 0v4.62a.677.677 0 0 0 .288.513l4.568 3.053a.636.636 0 0 0 .906-.21.647.647 0 0 0 .012-.636l-1.226-2.053h10.126l-1.2 1.94a.642.642 0 0 0 .882.883l4.62-2.931a.616.616 0 0 0 .25-.308.66.66 0 0 0 .052-.241v-4.62a.64.64 0 0 0-.646-.652ZM30.325 13.622a.658.658 0 0 0-.796-.113l-2.053 1.232V4.635l1.95 1.221a.642.642 0 0 0 .883-.883L27.43.405A.647.647 0 0 0 26.835 0h-4.619a.642.642 0 1 0 0 1.283h3.434l-2.397 3.593a.64.64 0 0 0 .862.893l2.053-1.227v10.112l-1.955-1.186a.647.647 0 0 0-.888.883l2.31 3.66h-3.445a.641.641 0 1 0 0 1.282h4.62a.68.68 0 0 0 .226-.046.62.62 0 0 0 .318-.241l3.018-4.588a.642.642 0 0 0-.046-.796Z"/></g><defs><clipPath id="clip0_1735_1587"><path fill="#fff" transform="translate(.333)" d="M0 0h30v30H0z"/></clipPath></defs></svg>