<svg width="31" height="30" fill="none" xmlns="http://www.w3.org/2000/svg"><path d="M22.168 12.347A5.397 5.397 0 0 0 24.667 7.8c0-2.978-2.423-5.4-5.4-5.4a5.33 5.33 0 0 0-1.519.223A5.983 5.983 0 0 0 13.267.6c-3.309 0-6 2.691-6 6a5.998 5.998 0 0 0 2.628 4.959c-3.55.73-6.228 3.878-6.228 7.64v10.2h19.2V27h4.8v-7.2c0-3.5-2.318-6.468-5.5-7.452ZM18.5 3.672A4.205 4.205 0 0 1 23.467 7.8c0 2.315-1.884 4.2-4.2 4.2-.824 0-1.617-.24-2.296-.687.01-.007.016-.015.025-.022.515-.41.96-.903 1.317-1.459.014-.021.027-.044.04-.066a5.872 5.872 0 0 0 .538-1.096l.043-.116a5.93 5.93 0 0 0 .15-.507c.01-.044.023-.088.033-.133.038-.169.067-.341.09-.516.007-.047.017-.092.021-.139a5.97 5.97 0 0 0 .039-.66c0-.237-.018-.47-.045-.7-.008-.073-.022-.145-.033-.217a5.972 5.972 0 0 0-.321-1.217c-.018-.045-.031-.091-.05-.136a5.933 5.933 0 0 0-.318-.657ZM8.467 6.6c0-2.647 2.153-4.8 4.8-4.8 1.486 0 2.816.679 3.697 1.742l.038.05c.03.036.056.075.084.111.305.402.538.84.702 1.3l.035.095c.07.214.124.434.165.657l.022.144c.033.23.057.464.057.7 0 .197-.015.392-.04.584-.005.046-.013.09-.02.135a4.742 4.742 0 0 1-.095.47l-.025.099a4.82 4.82 0 0 1-.794 1.6l-.032.043c-.245.317-.53.604-.85.853-.017.013-.035.025-.052.039a4.813 4.813 0 0 1-.478.32c-.02.011-.038.023-.057.035l-.093.054a4.782 4.782 0 0 1-2.264.569 4.806 4.806 0 0 1-4.8-4.8Zm13.2 21.6h-16.8v-9c0-3.64 2.96-6.6 6.6-6.6h3.6c.897 0 1.752.18 2.533.507l.115.051c.067.03.13.063.196.095.178.085.35.178.519.278.076.045.153.09.228.138a6.227 6.227 0 0 1 .47.338 6.584 6.584 0 0 1 .72.656c.081.086.162.172.238.262a6.667 6.667 0 0 1 .344.442c.053.074.106.147.156.222a6.706 6.706 0 0 1 .378.663 6.414 6.414 0 0 1 .235.521c.037.094.072.19.105.286.028.08.058.16.083.242.05.167.094.337.13.509.015.066.026.134.038.2.025.134.046.268.062.404a7.213 7.213 0 0 1 .05.786v9Zm4.8-2.4h-3.6v-6.6c0-.285-.018-.566-.048-.843-.007-.067-.02-.132-.03-.198a7.738 7.738 0 0 0-.107-.631c-.016-.07-.036-.137-.053-.206a7.951 7.951 0 0 0-.171-.597c-.023-.068-.05-.134-.074-.201a7.743 7.743 0 0 0-.328-.765 7.815 7.815 0 0 0-.743-1.212c-.045-.06-.088-.122-.134-.18a7.992 7.992 0 0 0-.412-.476c-.042-.045-.08-.092-.124-.136a7.87 7.87 0 0 0-.596-.554 6.609 6.609 0 0 1 6.42 6.599v6Z" fill="#CE2127"/></svg>