<svg width="26" height="26" fill="none" xmlns="http://www.w3.org/2000/svg"><path d="M22.214 22.183a13.03 13.03 0 0 0 0-18.366v-.031h-.031a13.03 13.03 0 0 0-18.366 0h-.031v.03a13.03 13.03 0 0 0 0 18.367v.031h.031a13.03 13.03 0 0 0 18.366 0h.031v-.031ZM20 19.143a.62.62 0 0 0-.875.874l1.731 1.732a11.74 11.74 0 0 1-7.253 3.04v-2.482a.62.62 0 0 0-1.241 0v2.482a11.74 11.74 0 0 1-7.253-3.04l1.73-1.732a.62.62 0 0 0-.874-.874l-1.731 1.73a11.74 11.74 0 0 1-3.01-7.253h2.451a.62.62 0 1 0 0-1.24h-2.45a11.74 11.74 0 0 1 3.009-7.254l1.73 1.731A.62.62 0 0 0 7.02 6.42a.62.62 0 0 0-.18-.438l-1.731-1.73a11.74 11.74 0 0 1 7.253-3.01v2.45a.62.62 0 0 0 1.24 0v-2.45a11.74 11.74 0 0 1 7.254 3.01l-1.73 1.73a.62.62 0 0 0 0 .875.62.62 0 0 0 .874 0l1.731-1.73a11.74 11.74 0 0 1 3.04 7.253h-2.482a.62.62 0 0 0 0 1.24h2.482a11.74 11.74 0 0 1-3.04 7.254L20 19.143Z" fill="#CE2127"/><path d="M13.602 12.745V8.657a.62.62 0 1 0-1.241 0V13a.623.623 0 0 0 .18.44l4.343 4.344a.622.622 0 0 0 1.065-.44.621.621 0 0 0-.184-.441l-4.163-4.157Z" fill="#CE2127"/></svg>