<svg width="30" height="30" fill="none" xmlns="http://www.w3.org/2000/svg"><path d="M29.991 0H.01A.009.009 0 0 0 0 .009V29.99c0 .005.004.009.009.009H29.99a.009.009 0 0 0 .009-.009V.01A.009.009 0 0 0 29.991 0Z" fill="#25D366"/><path fill-rule="evenodd" clip-rule="evenodd" d="M15.09 7.587A7.306 7.306 0 0 0 8.685 18.8l.171.27-.615 2.855 2.811-.79.28.153A7.306 7.306 0 1 0 15.09 7.587Zm-5.882.468a8.866 8.866 0 1 1 1.66 14.753l-4.696 1.32 1.027-4.77A8.866 8.866 0 0 1 9.21 8.055Z" fill="#fff"/><path d="M18.047 15.996c-.176-.117-.352-.176-.528.059l-.703.937c-.175.117-.293.176-.527.059-.879-.47-2.11-.996-3.164-2.754-.059-.235.059-.352.176-.469l.527-.82c.117-.117.059-.235 0-.352l-.703-1.7c-.176-.468-.352-.41-.527-.41h-.47c-.116 0-.35.06-.585.294-1.29 1.289-.762 3.105.176 4.277.175.234 1.347 2.344 3.867 3.457 1.875.82 2.285.703 2.812.586.645-.058 1.29-.586 1.582-1.113.059-.176.352-.938.118-1.055" fill="#fff"/></svg>