<svg width="30" height="30" fill="none" xmlns="http://www.w3.org/2000/svg"><path d="M29.991 0H.01A.009.009 0 0 0 0 .009V29.99c0 .005.004.009.009.009H29.99a.009.009 0 0 0 .009-.009V.01A.009.009 0 0 0 29.991 0Z" fill="#37AEE2"/><path d="M11.66 23.672c-.644 0-.586-.235-.762-.82l-1.875-6.153L23.38 8.262" fill="#C8DAEA"/><path d="M11.66 23.672c.41 0 .645-.235.938-.469l2.636-2.52-3.28-1.992" fill="#A9C9DD"/><path d="m11.953 18.691 7.91 5.801c.82.527 1.524.235 1.758-.82l3.223-15.117c.293-1.29-.527-1.875-1.406-1.465L4.629 14.355c-1.23.47-1.23 1.23-.234 1.524l4.863 1.523 11.133-7.09c.527-.292.996-.175.644.235" fill="#F6FBFE"/></svg>