<svg width="30" height="30" fill="none" xmlns="http://www.w3.org/2000/svg"><path d="M29.991 0H.01A.009.009 0 0 0 0 .009V29.99c0 .005.004.009.009.009H29.99a.009.009 0 0 0 .009-.009V.01A.009.009 0 0 0 29.991 0Z" fill="#ED1D24"/><path d="M25.02 9.902c-.235-.879-.997-1.582-1.875-1.816-1.993-.528-14.004-.586-16.29 0-.878.234-1.64.937-1.874 1.816-.528 2.227-.586 7.91 0 10.196.234.878.996 1.582 1.875 1.816 2.109.586 14.12.586 16.289 0 .878-.235 1.64-.938 1.875-1.817.527-2.109.527-8.027 0-10.195Z" fill="#fff"/><path d="M12.89 11.895v6.21L18.34 15" fill="#ED1D24"/></svg>