<svg width="30" height="30" fill="none" xmlns="http://www.w3.org/2000/svg"><path d="M29.991 0H.01A.009.009 0 0 0 0 .009V29.99c0 .005.004.009.009.009H29.99a.009.009 0 0 0 .009-.009V.01A.009.009 0 0 0 29.991 0Z" fill="#010101"/><path fill-rule="evenodd" clip-rule="evenodd" d="M18.838 27.6c.912 0 1.652-.734 1.652-1.64 0-.905-.74-1.64-1.652-1.64h-.25c.913 0 1.653.735 1.653 1.64 0 .906-.74 1.64-1.652 1.64h.249Z" fill="#EE1D51"/><path fill-rule="evenodd" clip-rule="evenodd" d="M18.566 24.32h-.249c-.913 0-1.653.735-1.653 1.64 0 .906.74 1.64 1.653 1.64h.25a1.646 1.646 0 0 1-1.654-1.64c0-.905.74-1.64 1.653-1.64Z" fill="#66C8CF"/><path d="M18.577 26.757a.8.8 0 0 0 .804-.797.8.8 0 0 0-.804-.797.8.8 0 0 0-.804.797.8.8 0 0 0 .804.797Z" fill="#010101"/><path fill-rule="evenodd" clip-rule="evenodd" d="M6 23.58v.831h.973v3.167h.974v-3.145h.793l.271-.853H6Zm7.97 0v.831h.973v3.167h.974v-3.145h.792l.272-.853H13.97Zm-4.777.472c0-.26.212-.472.475-.472.262 0 .475.211.475.472 0 .26-.212.471-.475.471a.473.473 0 0 1-.475-.471Zm0 .808h.95v2.718h-.95V24.86Zm1.358-1.28v3.998h.95v-1.033l.295-.27.928 1.325h1.02l-1.337-1.931 1.2-1.168h-1.154l-.951.943V23.58h-.951Zm10.256 0v3.998h.951v-1.033l.295-.27.928 1.325H24l-1.336-1.931 1.2-1.168h-1.155l-.95.943V23.58h-.952Z" fill="#fff"/><path fill-rule="evenodd" clip-rule="evenodd" d="M19.34 9.742a7.988 7.988 0 0 0 4.66 1.49V7.89c-.33 0-.657-.034-.979-.102v2.63a7.99 7.99 0 0 1-4.66-1.49v6.82a6.179 6.179 0 0 1-6.18 6.178 6.154 6.154 0 0 1-3.441-1.045 6.163 6.163 0 0 0 4.42 1.859 6.18 6.18 0 0 0 6.18-6.178v-6.82Zm1.207-3.372a4.658 4.658 0 0 1-1.207-2.727v-.43h-.927a4.68 4.68 0 0 0 2.134 3.157ZM10.9 18.263a2.827 2.827 0 0 1 3.108-4.404v-3.417a6.236 6.236 0 0 0-.978-.056v2.66a2.826 2.826 0 0 0-2.13 5.218Z" fill="#EE1D52"/><path fill-rule="evenodd" clip-rule="evenodd" d="M18.361 8.928a7.99 7.99 0 0 0 4.66 1.49v-2.63a4.677 4.677 0 0 1-2.474-1.418 4.679 4.679 0 0 1-2.134-3.157h-2.436v13.35a2.827 2.827 0 0 1-5.078 1.7 2.825 2.825 0 0 1 2.13-5.217v-2.66A6.179 6.179 0 0 0 8.74 20.881a6.154 6.154 0 0 0 3.44 1.045 6.18 6.18 0 0 0 6.181-6.177v-6.82Z" fill="#fff"/><path fill-rule="evenodd" clip-rule="evenodd" d="M23.021 7.788v-.711a4.661 4.661 0 0 1-2.474-.707 4.674 4.674 0 0 0 2.474 1.418Zm-4.608-4.575a4.764 4.764 0 0 1-.052-.383V2.4h-3.363v13.349a2.827 2.827 0 0 1-4.1 2.514 2.827 2.827 0 0 0 5.078-1.701V3.213h2.437Zm-5.384 7.173V9.63A6.18 6.18 0 0 0 8.74 20.88a6.179 6.179 0 0 1 4.289-10.495Z" fill="#69C9D0"/><path fill-rule="evenodd" clip-rule="evenodd" d="M18.588 27.6c.913 0 1.653-.734 1.653-1.64 0-.905-.74-1.64-1.652-1.64h-.023c-.913 0-1.653.735-1.653 1.64 0 .906.74 1.64 1.653 1.64h.023Zm-.815-1.64a.8.8 0 0 1 .805-.797.8.8 0 0 1 .803.797.8.8 0 0 1-.803.798.8.8 0 0 1-.805-.798Z" fill="#fff"/></svg>