<svg width="237" height="200" fill="none" xmlns="http://www.w3.org/2000/svg"><path d="m217.324 112.684-109.928 87.36c-2.184 1.82-2.912 5.46-.728 7.644 1.092 1.456 2.548 2.184 4.368 2.184 1.092 0 2.548-.364 3.276-1.092l109.928-87.36c2.184-1.82 2.912-5.46.728-7.644-1.82-2.548-5.096-2.912-7.644-1.092ZM136.88 151.632c1.456 0 2.912 0 4.368-.364 14.924-2.184 25.48-16.38 22.932-31.668-1.092-7.28-5.096-13.832-10.92-18.2-5.824-4.368-13.104-6.188-20.384-5.096-7.28 1.092-13.832 5.096-18.2 10.92-4.368 5.824-6.188 13.104-5.096 20.384 2.184 14.196 14.196 24.024 27.3 24.024Zm-2.548-44.044c.728 0 1.82-.364 2.548-.364 8.008 0 15.288 5.824 16.38 14.196 1.456 9.1-4.732 17.472-13.832 18.928-9.1 1.456-17.472-4.732-18.928-13.832-1.456-9.1 5.096-17.472 13.832-18.928ZM195.12 169.832c-15.288 0-27.664 12.376-27.664 27.664 0 15.288 12.376 27.664 27.664 27.664 15.288 0 27.664-12.376 27.664-27.664-.364-15.288-12.74-27.664-27.664-27.664Zm0 44.044c-9.1 0-16.744-7.644-16.744-16.744s7.644-16.744 16.744-16.744 16.744 7.644 16.744 16.744c-.364 9.464-7.644 16.744-16.744 16.744Z" fill="#CE2127"/><path d="M331.256 157.092c0-.364.364-1.092.364-1.456 0-15.652-16.38-23.66-30.576-30.576-10.192-5.096-21.112-10.556-24.024-17.108-2.912-6.916 1.092-18.2 5.096-28.756 5.46-14.924 10.92-30.212.728-40.404-10.192-10.192-24.752-6.552-39.312-3.276-10.192 2.184-20.748 4.732-27.664 1.82s-12.74-12.012-18.2-20.748C189.66 4.212 180.924-9.984 165.636-9.984c-15.288 0-24.024 14.196-31.668 26.936-5.46 9.1-10.92 18.2-17.836 21.112-6.916 2.912-17.836.364-28.028-2.184-14.56-3.64-29.484-7.28-39.312 2.548-10.192 10.192-5.096 25.48-.364 40.404 3.64 10.92 6.916 21.84 4.004 29.12-2.912 6.916-13.104 12.012-22.932 17.108C15.668 132.34.016 140.348.016 155.636c0 .364 0 1.092.364 1.456 0 .364-.364 1.092-.364 1.456 0 15.288 15.652 23.66 29.484 30.576 9.828 5.096 20.02 10.192 22.932 17.108 2.912 6.916-.728 18.2-4.004 29.12-4.732 14.924-9.828 30.212.364 40.404 10.192 10.192 25.116 6.188 39.312 2.548 10.192-2.548 21.112-5.096 28.028-2.184s12.376 12.012 17.836 21.112c7.644 12.74 16.38 26.936 31.668 26.936s24.388-14.196 32.032-26.572c5.46-8.736 11.284-17.836 18.2-20.748 7.28-2.912 17.472-.728 27.664 1.82 14.196 3.276 29.12 6.916 39.312-3.276 10.192-10.192 4.732-25.48-.728-40.404-4.004-10.92-8.008-21.84-5.096-28.756 2.912-6.916 13.468-12.012 24.024-17.108 14.196-7.28 30.576-15.288 30.576-30.576 0-.728-.364-1.092-.364-1.456Zm-35.308 22.204c-12.012 6.188-24.752 12.376-29.12 22.932-4.732 10.92.364 24.024 4.732 36.764 4.368 12.012 8.736 23.66 3.276 28.756-5.824 5.824-17.108 3.276-29.12.364s-24.024-5.46-34.58-1.092c-10.192 4.368-16.744 14.56-22.932 24.752-6.916 10.92-13.468 21.476-22.932 21.476-9.1 0-15.652-10.556-22.568-21.84-6.188-10.556-12.74-21.112-22.932-25.48-10.556-4.368-22.932-1.456-34.944 1.82-12.012 2.912-23.296 5.824-29.12.364-5.46-5.46-1.82-17.108 2.184-29.12 4.004-12.74 8.372-25.844 3.64-36.4-4.368-10.556-16.38-16.744-28.028-22.568-12.012-6.188-23.296-12.012-23.296-21.112 0-.364 0-1.092-.364-1.456 0-.364.364-1.092.364-1.456 0-8.736 11.284-14.56 23.296-21.112 11.648-5.824 23.66-12.012 28.028-22.568 4.368-10.92.364-24.024-3.64-36.4-4.004-12.376-7.644-24.024-2.184-29.12 5.824-5.824 17.108-2.912 29.12.364 12.012 2.912 24.388 6.188 34.944 1.82 10.192-4.368 16.744-14.924 22.932-25.48 6.916-11.284 13.104-21.84 22.568-21.84 9.464 0 16.016 10.556 22.932 21.476 6.552 10.192 13.104 20.384 22.932 24.752 10.556 4.368 22.568 1.456 34.58-1.092 12.012-2.912 23.296-5.46 29.12.364 5.46 5.096 1.092 16.744-3.276 28.756-4.732 12.74-9.464 25.844-4.732 36.764 4.368 10.556 17.108 16.744 29.12 22.932 12.74 6.188 24.388 12.376 24.388 21.112 0 .364 0 1.092.364 1.456 0 .364-.364 1.092-.364 1.456.364 7.28-11.648 13.468-24.388 19.656Z" fill="#CE2127"/></svg>