<svg width="141" height="130" fill="none" xmlns="http://www.w3.org/2000/svg"><path d="m136.789 77.249-69.158 54.96c-1.374 1.145-1.832 3.435-.458 4.809.687.916 1.603 1.374 2.748 1.374.687 0 1.603-.229 2.06-.687l69.159-54.96c1.374-1.145 1.832-3.435.458-4.809-1.145-1.603-3.206-1.832-4.809-.687ZM86.18 101.752c.916 0 1.832 0 2.748-.229 9.389-1.374 16.03-10.305 14.427-19.923-.687-4.58-3.206-8.702-6.87-11.45-3.664-2.748-8.244-3.893-12.824-3.206-4.58.687-8.702 3.206-11.45 6.87-2.748 3.664-3.893 8.244-3.206 12.824 1.374 8.931 8.93 15.114 17.175 15.114Zm-1.603-27.709c.458 0 1.145-.229 1.603-.229 5.038 0 9.618 3.664 10.305 8.931.916 5.725-2.977 10.992-8.702 11.908-5.725.916-10.992-2.977-11.908-8.702-.916-5.725 3.206-10.992 8.702-11.908ZM122.82 113.202c-9.618 0-17.404 7.786-17.404 17.404s7.786 17.404 17.404 17.404 17.404-7.786 17.404-17.404c-.229-9.618-8.015-17.404-17.404-17.404Zm0 27.709c-5.725 0-10.534-4.809-10.534-10.534 0-5.725 4.809-10.534 10.534-10.534 5.725 0 10.534 4.809 10.534 10.534-.229 5.954-4.809 10.534-10.534 10.534Z" fill="#CE2127"/><path d="M208.466 105.187c0-.229.229-.687.229-.916 0-9.847-10.305-14.885-19.236-19.236-6.412-3.206-13.282-6.641-15.114-10.763-1.832-4.351.687-11.45 3.206-18.091 3.435-9.389 6.87-19.007.458-25.419-6.412-6.412-15.572-4.122-24.732-2.061-6.412 1.374-13.053 2.977-17.404 1.145-4.351-1.832-8.015-7.557-11.45-13.053C119.385 9.007 113.889.076 104.271.076S89.157 9.007 84.348 17.022c-3.435 5.725-6.87 11.45-11.221 13.282-4.351 1.832-11.221.229-17.633-1.374-9.16-2.29-18.55-4.58-24.732 1.603-6.412 6.412-3.206 16.03-.23 25.419 2.29 6.87 4.352 13.74 2.52 18.32-1.832 4.351-8.244 7.557-14.427 10.763-8.702 4.58-18.55 9.618-18.55 19.236 0 .229 0 .687.23.916 0 .229-.23.687-.23.916 0 9.618 9.848 14.885 18.55 19.236 6.183 3.206 12.595 6.412 14.427 10.763 1.832 4.351-.458 11.45-2.52 18.32-2.976 9.389-6.182 19.007.23 25.419 6.412 6.412 15.8 3.893 24.732 1.603 6.412-1.603 13.282-3.206 17.633-1.374 4.35 1.832 7.786 7.557 11.22 13.282 4.81 8.015 10.306 16.946 19.924 16.946s15.343-8.931 20.152-16.717c3.435-5.496 7.099-11.221 11.45-13.053 4.58-1.832 10.992-.458 17.404 1.145 8.931 2.061 18.32 4.351 24.732-2.061 6.412-6.412 2.977-16.03-.458-25.419-2.519-6.87-5.038-13.74-3.206-18.091 1.832-4.351 8.473-7.557 15.114-10.763 8.931-4.58 19.236-9.618 19.236-19.236 0-.458-.229-.687-.229-.916Zm-22.213 13.969c-7.557 3.893-15.572 7.786-18.32 14.427-2.977 6.87.229 15.114 2.977 23.129 2.748 7.557 5.496 14.885 2.061 18.091-3.664 3.664-10.763 2.061-18.32.229-7.557-1.832-15.114-3.435-21.755-.687-6.412 2.748-10.534 9.16-14.427 15.572-4.351 6.87-8.473 13.511-14.427 13.511-5.725 0-9.847-6.641-14.198-13.74-3.893-6.641-8.015-13.282-14.427-16.03-6.641-2.748-14.427-.916-21.984 1.145-7.557 1.832-14.656 3.664-18.32.229-3.435-3.435-1.145-10.763 1.374-18.32 2.519-8.015 5.267-16.259 2.29-22.9-2.748-6.641-10.305-10.534-17.633-14.198-7.557-3.893-14.656-7.557-14.656-13.282 0-.229 0-.687-.23-.916 0-.229.23-.687.23-.916 0-5.496 7.099-9.16 14.656-13.282 7.328-3.664 14.885-7.557 17.633-14.198 2.748-6.87.229-15.114-2.29-22.9-2.52-7.786-4.81-15.114-1.374-18.32 3.664-3.664 10.763-1.832 18.32.229 7.557 1.832 15.343 3.893 21.984 1.145 6.412-2.748 10.534-9.389 14.427-16.03 4.35-7.099 8.244-13.74 14.198-13.74 5.954 0 10.076 6.641 14.427 13.511 4.122 6.412 8.244 12.824 14.427 15.572 6.641 2.748 14.198.916 21.755-.687 7.557-1.832 14.656-3.435 18.32.229 3.435 3.206.687 10.534-2.061 18.091-2.977 8.015-5.954 16.259-2.977 23.129 2.748 6.641 10.763 10.534 18.32 14.427 8.015 3.893 15.343 7.786 15.343 13.282 0 .229 0 .687.229.916 0 .229-.229.687-.229.916.229 4.58-7.328 8.473-15.343 12.366Z" fill="#CE2127"/></svg>