<svg width="60" height="60" viewBox="0 0 60 60" fill="none" xmlns="http://www.w3.org/2000/svg">
<path d="M17.5 23.125C17.8315 23.125 18.1495 22.9932 18.3839 22.7589C18.6182 22.5245 18.75 22.2065 18.75 21.875C18.75 21.5435 18.6182 21.2255 18.3839 20.9911C18.1495 20.7568 17.8315 20.625 17.5 20.625H15.625V18.75C15.625 18.4185 15.4932 18.1005 15.2589 17.8661C15.0245 17.6318 14.7065 17.5 14.375 17.5C14.0435 17.5 13.7255 17.6318 13.4911 17.8661C13.2568 18.1005 13.125 18.4185 13.125 18.75V20.625H11.25C10.9185 20.625 10.6005 20.7568 10.3661 20.9911C10.1317 21.2255 10 21.5435 10 21.875C10 22.2065 10.1317 22.5245 10.3661 22.7589C10.6005 22.9932 10.9185 23.125 11.25 23.125H13.125V25C13.125 25.3315 13.2568 25.6495 13.4911 25.8839C13.7255 26.1182 14.0435 26.25 14.375 26.25C14.7065 26.25 15.0245 26.1182 15.2589 25.8839C15.4932 25.6495 15.625 25.3315 15.625 25V23.125H17.5Z" fill="#CE2127"/>
<path d="M45.625 20C46.3154 20 46.875 19.4404 46.875 18.75C46.875 18.0596 46.3154 17.5 45.625 17.5C44.9346 17.5 44.375 18.0596 44.375 18.75C44.375 19.4404 44.9346 20 45.625 20Z" fill="#CE2127"/>
<path d="M45.625 26.25C46.3154 26.25 46.875 25.6904 46.875 25C46.875 24.3096 46.3154 23.75 45.625 23.75C44.9346 23.75 44.375 24.3096 44.375 25C44.375 25.6904 44.9346 26.25 45.625 26.25Z" fill="#CE2127"/>
<path d="M48.75 23.125C49.4404 23.125 50 22.5654 50 21.875C50 21.1846 49.4404 20.625 48.75 20.625C48.0596 20.625 47.5 21.1846 47.5 21.875C47.5 22.5654 48.0596 23.125 48.75 23.125Z" fill="#CE2127"/>
<path d="M42.5 23.125C43.1904 23.125 43.75 22.5654 43.75 21.875C43.75 21.1846 43.1904 20.625 42.5 20.625C41.8096 20.625 41.25 21.1846 41.25 21.875C41.25 22.5654 41.8096 23.125 42.5 23.125Z" fill="#CE2127"/>
<path d="M20.625 27.5C19.7598 27.5 18.9139 27.7566 18.1944 28.2374C17.4749 28.718 16.9141 29.4014 16.583 30.2008C16.2519 31.0001 16.1653 31.8799 16.3341 32.7285C16.5029 33.5771 16.9195 34.3567 17.5314 34.9686C18.1433 35.5805 18.9229 35.9971 19.7715 36.1659C20.6201 36.3347 21.4999 36.2481 22.2993 35.917C23.0986 35.5859 23.782 35.0251 24.2626 34.3056C24.7434 33.5861 25 32.7403 25 31.875C25 30.7146 24.5391 29.6019 23.7186 28.7814C22.8981 27.9609 21.7854 27.5 20.625 27.5ZM20.625 33.75C20.2541 33.75 19.8916 33.64 19.5833 33.434C19.275 33.228 19.0346 32.9351 18.8928 32.5925C18.7509 32.2499 18.7136 31.8729 18.786 31.5092C18.8584 31.1455 19.037 30.8114 19.2991 30.5491C19.5614 30.287 19.8955 30.1084 20.2593 30.036C20.6229 29.9636 20.9999 30.0009 21.3425 30.1428C21.6851 30.2846 21.978 30.525 22.184 30.8332C22.39 31.1416 22.5 31.5041 22.5 31.875C22.5 32.3723 22.3025 32.8492 21.9509 33.2009C21.5993 33.5525 21.1223 33.75 20.625 33.75Z" fill="#CE2127"/>
<path d="M39.375 27.5C38.5097 27.5 37.6639 27.7566 36.9444 28.2374C36.2249 28.718 35.6641 29.4014 35.333 30.2008C35.0019 31.0001 34.9152 31.8799 35.0841 32.7285C35.2529 33.5771 35.6695 34.3567 36.2814 34.9686C36.8932 35.5805 37.6729 35.9971 38.5215 36.1659C39.3701 36.3347 40.2499 36.2481 41.0492 35.917C41.8486 35.5859 42.532 35.0251 43.0126 34.3056C43.4934 33.5861 43.75 32.7403 43.75 31.875C43.75 30.7146 43.289 29.6019 42.4686 28.7814C41.6481 27.9609 40.5354 27.5 39.375 27.5ZM39.375 33.75C39.0041 33.75 38.6416 33.64 38.3332 33.434C38.025 33.228 37.7846 32.9351 37.6427 32.5925C37.5007 32.2499 37.4636 31.8729 37.536 31.5092C37.6084 31.1455 37.787 30.8114 38.0491 30.5491C38.3114 30.287 38.6455 30.1084 39.0092 30.036C39.3729 29.9636 39.7499 30.0009 40.0925 30.1428C40.4351 30.2846 40.728 30.525 40.934 30.8332C41.14 31.1416 41.25 31.5041 41.25 31.875C41.25 32.3723 41.0525 32.8492 40.7009 33.2009C40.3492 33.5525 39.8722 33.75 39.375 33.75Z" fill="#CE2127"/>
<path d="M27.5 23.75H26.25C25.9185 23.75 25.6005 23.8818 25.3661 24.1161C25.1318 24.3505 25 24.6685 25 25C25 25.3315 25.1318 25.6495 25.3661 25.8839C25.6005 26.1182 25.9185 26.25 26.25 26.25H27.5C27.8315 26.25 28.1495 26.1182 28.3839 25.8839C28.6182 25.6495 28.75 25.3315 28.75 25C28.75 24.6685 28.6182 24.3505 28.3839 24.1161C28.1495 23.8818 27.8315 23.75 27.5 23.75Z" fill="#CE2127"/>
<path d="M33.75 23.75H32.5C32.1685 23.75 31.8505 23.8818 31.6161 24.1161C31.3818 24.3505 31.25 24.6685 31.25 25C31.25 25.3315 31.3818 25.6495 31.6161 25.8839C31.8505 26.1182 32.1685 26.25 32.5 26.25H33.75C34.0815 26.25 34.3995 26.1182 34.6339 25.8839C34.8682 25.6495 35 25.3315 35 25C35 24.6685 34.8682 24.3505 34.6339 24.1161C34.3995 23.8818 34.0815 23.75 33.75 23.75Z" fill="#CE2127"/>
<path d="M55.6025 18.4288C55.2164 16.9865 54.5499 15.6345 53.6411 14.4499C52.7323 13.2653 51.599 12.2714 50.306 11.5248C49.013 10.7783 47.5855 10.2939 46.1053 10.0992C44.625 9.90445 43.1209 10.0033 41.6787 10.39C39.3021 11.156 37.1991 12.5955 35.625 14.5338C35.5023 14.6838 35.347 14.8037 35.1709 14.8845C34.9948 14.9653 34.8025 15.0048 34.6087 15H25.3962C25.2026 15.0045 25.0104 14.9649 24.8344 14.8842C24.6583 14.8033 24.5029 14.6835 24.38 14.5338C22.8053 12.5952 20.7013 11.1555 18.3238 10.39C16.8815 10.0029 15.3771 9.90379 13.8965 10.0983C12.416 10.2929 10.9882 10.7772 9.69493 11.5238C8.40164 12.2703 7.26811 13.2644 6.35916 14.4492C5.4502 15.634 4.78361 16.9863 4.3975 18.4288C-0.715001 37.5113 0.391251 47.75 7.78 49.7288C12.3638 50.9588 16.53 48.1038 20.1938 41.2375C20.3413 41.2463 20.4838 41.25 20.625 41.25C22.9876 41.2574 25.264 40.3633 26.99 38.75H33.01C34.736 40.3633 37.0124 41.2574 39.375 41.25C39.5163 41.25 39.6587 41.25 39.8063 41.2375C42.915 47.0675 46.3938 50.0063 50.1813 50.0063C50.8705 50.0038 51.5564 49.9105 52.2213 49.7288C59.6087 47.75 60.715 37.5113 55.6025 18.4288ZM51.5725 47.315C48.1213 48.2388 44.7838 45.5563 41.64 39.345C41.522 39.1123 41.3343 38.9224 41.1029 38.8018C40.8716 38.6812 40.6082 38.636 40.35 38.6725C40.0272 38.721 39.7014 38.7469 39.375 38.75C38.449 38.7525 37.5322 38.5662 36.6806 38.2023C35.8291 37.8384 35.0608 37.3046 34.4225 36.6338C34.3058 36.5123 34.1655 36.4157 34.0105 36.3497C33.8554 36.2838 33.6885 36.2499 33.52 36.25H26.48C26.3115 36.2499 26.1446 36.2838 25.9895 36.3497C25.8345 36.4157 25.6943 36.5123 25.5775 36.6338C24.9393 37.3046 24.1709 37.8384 23.3194 38.2023C22.4678 38.5662 21.551 38.7525 20.625 38.75C20.2986 38.7469 19.9728 38.721 19.65 38.6725C19.3918 38.636 19.1284 38.6812 18.8971 38.8018C18.6658 38.9224 18.478 39.1123 18.36 39.345C15.2163 45.5563 11.8738 48.24 8.4275 47.315C2.82375 45.815 2.265 36.0475 6.81125 19.0763C7.31746 17.1934 8.42911 15.5294 9.97473 14.341C11.5203 13.1525 13.414 12.5057 15.3638 12.5C16.1439 12.5005 16.9205 12.6035 17.6738 12.8063C19.5205 13.426 21.156 14.5522 22.3938 16.0563C22.7508 16.5097 23.2066 16.8754 23.7265 17.1257C24.2465 17.3758 24.8168 17.5039 25.3938 17.5H34.6063C35.1835 17.5037 35.7539 17.3753 36.2739 17.1247C36.7939 16.8739 37.2496 16.5077 37.6063 16.0538C38.8442 14.5499 40.4796 13.4238 42.3263 12.8038C44.5983 12.1966 47.0184 12.516 49.0551 13.6918C51.0918 14.8677 52.5785 16.8038 53.1888 19.075C57.735 36.0475 57.1763 45.8125 51.5725 47.315Z" fill="#CE2127"/>
</svg>
