<svg width="60" height="60" viewBox="0 0 60 60" fill="none" xmlns="http://www.w3.org/2000/svg">
<g clip-path="url(#clip0_912_5718)">
<path d="M57.5002 22.4999H52.9399L50.8126 18.7968C50.1794 17.6903 49.2214 16.8051 48.0684 16.2611L39.3355 12.1244C37.627 11.3112 35.7063 11.0547 33.8442 11.391L11.1125 15.4574C10.8949 14.6659 10.4238 13.9675 9.77133 13.4692C9.11887 12.971 8.32106 12.7004 7.50012 12.6989H3.75012C2.75589 12.7 1.8027 13.0955 1.09967 13.7985C0.396645 14.5015 0.00120773 15.4547 0.00012207 16.4489L0.00012207 32.7428C0.00120773 33.737 0.396645 34.6902 1.09967 35.3933C1.8027 36.0963 2.75589 36.4917 3.75012 36.4928H7.50012C8.40844 36.4913 9.2854 36.1605 9.96832 35.5616C10.6512 34.9627 11.0938 34.1364 11.2138 33.2361L16.941 35.88C17.1245 35.9645 17.3139 36.0276 17.5001 36.1027V46.2503C17.5008 46.9131 17.7645 47.5485 18.2332 48.0171C18.7019 48.4858 19.3374 48.7493 20.0002 48.7499H57.5002C58.163 48.7493 58.7985 48.4857 59.2672 48.017C59.7359 47.5483 59.9995 46.9128 60.0001 46.25V24.9999C59.9994 24.3371 59.7358 23.7016 59.2671 23.2329C58.7984 22.7643 58.163 22.5006 57.5002 22.4999ZM8.75016 32.7428C8.74973 33.0742 8.61789 33.3919 8.38355 33.6262C8.14922 33.8606 7.83152 33.9924 7.50012 33.9929H3.75012C3.41872 33.9924 3.10102 33.8606 2.86669 33.6262C2.63236 33.3919 2.50052 33.0742 2.50008 32.7428V16.4489C2.50052 16.1176 2.63236 15.7999 2.8667 15.5656C3.10105 15.3313 3.41875 15.1995 3.75012 15.1991H7.50012C7.83154 15.1995 8.14927 15.3313 8.38362 15.5657C8.61797 15.8 8.74979 16.1178 8.75016 16.4492V32.7428ZM11.2501 30.4997V17.9737L34.2848 13.8524C35.6347 13.6091 37.0269 13.7951 38.2656 14.3843L46.9991 18.5211C47.6905 18.8476 48.265 19.3787 48.6447 20.0424L50.0569 22.4999H24.7736C24.5496 22.4999 24.3298 22.5601 24.1371 22.6741C23.9444 22.7881 23.7858 22.9518 23.678 23.1481C23.5702 23.3444 23.5171 23.566 23.5243 23.7898C23.5315 24.0137 23.5987 24.2314 23.7189 24.4204L25.1586 26.6867C25.6219 27.4137 26.2301 28.0374 26.9453 28.5188C27.6605 29.0001 28.4673 29.3288 29.3153 29.4843L39.1988 31.2811C39.5915 31.3527 39.9433 31.5685 40.185 31.8863C40.4267 32.204 40.5408 32.6006 40.5049 32.9982C40.469 33.3958 40.2857 33.7656 39.9911 34.0349C39.6964 34.3043 39.3117 34.4537 38.9125 34.4538H21.8373C20.5081 34.4558 19.1944 34.1678 17.9878 33.61L11.2501 30.4997ZM42.1886 30.4114C43.0438 30.9753 43.7472 31.7409 44.2369 32.6406C44.7266 33.5404 44.9876 34.5468 44.9968 35.5712C45.006 36.5956 44.7631 37.6065 44.2897 38.5149C43.8162 39.4233 43.1266 40.2014 42.2816 40.7806C41.4367 41.3598 40.4623 41.7223 39.4442 41.8362C38.4261 41.9502 37.3957 41.812 36.4436 41.434C35.4915 41.0559 34.647 40.4496 33.9844 39.6683C33.3218 38.887 32.8615 37.9548 32.644 36.9537H38.9123C39.6729 36.9566 40.4192 36.747 41.0671 36.3485C41.715 35.9501 42.2387 35.3786 42.5793 34.6985C42.9198 34.0184 43.0637 33.2567 42.9946 32.4993C42.9256 31.7418 42.6464 31.0187 42.1884 30.4114H42.1886ZM57.5002 46.25H20.0002V36.7929C20.6074 36.8947 21.2217 36.9484 21.8373 36.9536H22.5001V39.7734C22.5001 40.1049 22.6318 40.4228 22.8663 40.6573C23.1007 40.8917 23.4186 41.0234 23.7502 41.0234C24.1416 41.024 24.5168 41.1798 24.7935 41.4566C25.0703 41.7334 25.2261 42.1086 25.2267 42.5C25.2267 42.8315 25.3584 43.1494 25.5929 43.3839C25.8273 43.6183 26.1452 43.75 26.4768 43.75H28.7502C28.9154 43.7516 29.0792 43.7205 29.2323 43.6584C29.3853 43.5963 29.5246 43.5044 29.6419 43.3882C29.7593 43.272 29.8524 43.1336 29.916 42.9812C29.9796 42.8287 30.0123 42.6652 30.0123 42.5C30.0123 42.3348 29.9796 42.1713 29.916 42.0189C29.8524 41.8664 29.7593 41.7281 29.6419 41.6118C29.5246 41.4956 29.3853 41.4038 29.2323 41.3417C29.0792 41.2796 28.9154 41.2484 28.7502 41.25H27.5257C27.3296 40.662 26.9993 40.1276 26.5609 39.6892C26.1225 39.2509 25.5882 38.9206 25.0001 38.7244V36.9537H30.1122C30.7591 41.1422 34.3978 44.375 38.75 44.375C40.0603 44.3743 41.3538 44.0793 42.5348 43.5119C43.7159 42.9444 44.7544 42.119 45.5738 41.0965C46.3931 40.0739 46.9724 38.8804 47.2688 37.6041C47.5651 36.3277 47.5711 35.0011 47.2861 33.7222C47.0012 32.4432 46.4327 31.2446 45.6225 30.2148C44.8124 29.185 43.7813 28.3502 42.6053 27.7722C41.4294 27.1942 40.1387 26.8877 38.8284 26.8753C37.5182 26.8629 36.2219 27.1449 35.0352 27.7005C34.917 27.7578 34.8088 27.8335 34.7145 27.9249L29.7623 27.0245C29.2535 26.9314 28.7693 26.7343 28.3401 26.4454C27.9109 26.1566 27.5459 25.7824 27.2679 25.3461L27.0482 25H57.5002V46.25Z" fill="#CE2127"/>
<path d="M51.0236 27.5001H48.7501C48.585 27.4985 48.4211 27.5296 48.268 27.5917C48.115 27.6538 47.9758 27.7456 47.8584 27.8619C47.741 27.9781 47.6479 28.1164 47.5843 28.2689C47.5207 28.4213 47.488 28.5849 47.488 28.75C47.488 28.9152 47.5207 29.0788 47.5843 29.2312C47.6479 29.3837 47.741 29.522 47.8584 29.6382C47.9758 29.7544 48.115 29.8463 48.268 29.9084C48.4211 29.9705 48.585 30.0016 48.7501 30H49.9745C50.1706 30.5881 50.5009 31.1225 50.9393 31.5608C51.3777 31.9992 51.912 32.3295 52.5001 32.5256V38.7249C51.9121 38.921 51.3778 39.2512 50.9394 39.6895C50.501 40.1277 50.1707 40.662 49.9745 41.25H48.7501C48.585 41.2484 48.4211 41.2796 48.268 41.3417C48.115 41.4038 47.9758 41.4956 47.8584 41.6118C47.741 41.7281 47.6479 41.8664 47.5843 42.0188C47.5207 42.1713 47.488 42.3348 47.488 42.5C47.488 42.6652 47.5207 42.8287 47.5843 42.9812C47.6479 43.1336 47.741 43.2719 47.8584 43.3882C47.9758 43.5044 48.115 43.5962 48.268 43.6583C48.4211 43.7204 48.585 43.7516 48.7501 43.75H51.0236C51.3551 43.75 51.673 43.6183 51.9075 43.3839C52.1419 43.1494 52.2736 42.8315 52.2736 42.4999C52.2742 42.1085 52.43 41.7333 52.7068 41.4566C52.9836 41.1798 53.3587 41.024 53.7502 41.0234C54.0816 41.0233 54.3996 40.8917 54.634 40.6573C54.8684 40.4229 55.0001 40.1049 55.0001 39.7735V31.4766C55.0001 31.1451 54.8684 30.8271 54.634 30.5927C54.3995 30.3582 54.0816 30.2265 53.75 30.2265C53.3586 30.226 52.9834 30.0702 52.7066 29.7934C52.4298 29.5166 52.2741 29.1414 52.2735 28.75C52.2734 28.4185 52.1418 28.1006 51.9074 27.8662C51.673 27.6318 51.355 27.5001 51.0236 27.5001Z" fill="#CE2127"/>
</g>
<defs>
<clipPath id="clip0_912_5718">
<rect width="60" height="60" fill="white"/>
</clipPath>
</defs>
</svg>
