<svg width="60" height="60" viewBox="0 0 60 60" fill="none" xmlns="http://www.w3.org/2000/svg">
<path d="M48.4281 48.3659C53.278 43.4838 56 36.8816 56 29.9999C56 23.1183 53.278 16.516 48.4281 11.6338V11.5718H48.3661C43.4839 6.7219 36.8817 4 30 4C23.1183 4 16.5161 6.7219 11.6339 11.5718H11.5719V11.6338C6.72202 16.516 4 23.1183 4 29.9999C4 36.8816 6.72202 43.4838 11.5719 48.3659V48.428H11.6339C16.5161 53.278 23.1183 55.9999 30 55.9999C36.8817 55.9999 43.4839 53.278 48.3661 48.428H48.4281V48.3659ZM43.9979 42.2853C43.7605 42.082 43.4551 41.9758 43.1428 41.9878C42.8306 41.9999 42.5342 42.1294 42.3132 42.3504C42.0922 42.5714 41.9628 42.8677 41.9507 43.18C41.9387 43.4923 42.0449 43.7976 42.2482 44.035L45.7104 47.4973C41.7178 51.1319 36.5947 53.2793 31.2037 53.5779V48.6141C31.2037 48.285 31.0729 47.9694 30.8403 47.7366C30.6076 47.504 30.2919 47.3732 29.9628 47.3732C29.6337 47.3732 29.318 47.504 29.0853 47.7366C28.8526 47.9694 28.7218 48.285 28.7218 48.6141V53.5779C23.3309 53.2793 18.2078 51.1319 14.2151 47.4973L17.6774 44.035C17.8806 43.7976 17.9869 43.4923 17.9748 43.18C17.9628 42.8677 17.8334 42.5714 17.6123 42.3504C17.3913 42.1294 17.095 41.9999 16.7828 41.9878C16.4704 41.9758 16.165 42.082 15.9276 42.2853L12.4654 45.7475C8.85335 41.7462 6.72823 36.6239 6.44678 31.2408H11.3485C11.6776 31.2408 11.9933 31.1102 12.226 30.8774C12.4587 30.6447 12.5895 30.329 12.5895 29.9999C12.5895 29.6708 12.4587 29.3552 12.226 29.1224C11.9933 28.8897 11.6776 28.7589 11.3485 28.7589H6.44678C6.72823 23.3758 8.85335 18.2535 12.4654 14.2522L15.9276 17.7145C16.1602 17.9457 16.4746 18.0753 16.8025 18.0753C17.1304 18.0753 17.4448 17.9457 17.6774 17.7145C17.9086 17.482 18.0382 17.1675 18.0382 16.8396C18.0382 16.5118 17.9086 16.1973 17.6774 15.9647L14.2151 12.5025C18.2164 8.89058 23.3387 6.76533 28.7218 6.48388V11.3856C28.7218 11.7147 28.8526 12.0304 29.0853 12.2631C29.318 12.4959 29.6337 12.6266 29.9628 12.6266C30.2919 12.6266 30.6076 12.4959 30.8403 12.2631C31.0729 12.0304 31.2037 11.7147 31.2037 11.3856V6.48388C36.5868 6.76533 41.7091 8.89058 45.7104 12.5025L42.2482 15.9647C42.0171 16.1973 41.8873 16.5118 41.8873 16.8396C41.8873 17.1675 42.0171 17.482 42.2482 17.7145C42.4807 17.9457 42.7952 18.0753 43.123 18.0753C43.4509 18.0753 43.7654 17.9457 43.9979 17.7145L47.4602 14.2522C51.0948 18.2449 53.2422 23.3681 53.5408 28.7589H48.577C48.2479 28.7589 47.9322 28.8897 47.6995 29.1224C47.4669 29.3552 47.3361 29.6708 47.3361 29.9999C47.3361 30.329 47.4669 30.6447 47.6995 30.8774C47.9322 31.1102 48.2479 31.2408 48.577 31.2408H53.5408C53.2422 36.6318 51.0948 41.755 47.4602 45.7475L43.9979 42.2853Z" fill="#CE2127"/>
<path d="M31.204 29.4918V21.3139C31.204 20.9848 31.0733 20.6692 30.8405 20.4365C30.6078 20.2038 30.2921 20.073 29.963 20.073C29.6339 20.073 29.3182 20.2038 29.0856 20.4365C28.8529 20.6692 28.7221 20.9848 28.7221 21.3139V30.0006C28.7212 30.1639 28.7525 30.3258 28.8142 30.477C28.876 30.6281 28.9669 30.7658 29.082 30.8817L37.7686 39.5683C37.884 39.6846 38.0213 39.7769 38.1724 39.84C38.3237 39.903 38.4859 39.9354 38.6497 39.9354C38.8135 39.9354 38.9757 39.903 39.127 39.84C39.2782 39.7769 39.4155 39.6846 39.5308 39.5683C39.647 39.4529 39.7394 39.3157 39.8024 39.1645C39.8655 39.0132 39.8978 38.851 39.8978 38.6872C39.8978 38.5234 39.8655 38.3612 39.8024 38.21C39.7394 38.0588 39.647 37.9216 39.5308 37.8062L31.204 29.4918Z" fill="#CE2127"/>
</svg>
