<svg width="349" height="253" viewBox="0 0 349 253" fill="none" xmlns="http://www.w3.org/2000/svg">
<g clip-path="url(#clip0_1058_4434)">
<path fill-rule="evenodd" clip-rule="evenodd" d="M19.1149 231.555C19.795 231.163 20.8976 231.163 21.5776 231.555L25.518 233.83C26.198 234.223 26.198 234.859 25.518 235.252C24.8379 235.645 23.7353 235.645 23.0553 235.252L19.1149 232.977C18.4348 232.584 18.4348 231.948 19.1149 231.555ZM39.5555 243.357C40.2356 242.964 41.3382 242.964 42.0182 243.357L44.7272 244.921C45.4073 245.313 45.4073 245.95 44.7272 246.342C44.0471 246.735 42.9445 246.735 42.2645 246.342L39.5555 244.778C38.8754 244.386 38.8754 243.749 39.5555 243.357Z" fill="#37AEE2"/>
<path fill-rule="evenodd" clip-rule="evenodd" d="M165.085 33.6228C165.765 33.2302 166.868 33.2302 167.548 33.6228L173.027 36.7864C173.707 37.179 173.707 37.8156 173.027 38.2082L151.993 50.3524C151.313 50.7451 150.21 50.7451 149.53 50.3524C148.85 49.9598 148.85 49.3232 149.53 48.9306L169.333 37.4973L165.085 35.0447C164.405 34.652 164.405 34.0154 165.085 33.6228ZM176.047 27.2942C176.727 26.9015 177.829 26.9015 178.509 27.2942L182.757 29.7468L204.486 17.2018C205.166 16.8091 206.269 16.8091 206.949 17.2018C207.629 17.5944 207.629 18.231 206.949 18.6236L183.989 31.8796C183.309 32.2722 182.206 32.2722 181.526 31.8796L176.047 28.716C175.367 28.3234 175.367 27.6868 176.047 27.2942Z" fill="#37AEE2"/>
<path fill-rule="evenodd" clip-rule="evenodd" d="M100.334 163.691C101.014 163.299 102.116 163.299 102.796 163.691L128.565 178.569C129.245 178.961 129.245 179.598 128.565 179.991C127.885 180.383 126.782 180.383 126.102 179.991L100.334 165.113C99.6537 164.721 99.6537 164.084 100.334 163.691ZM131.135 195.554C130.455 195.161 130.455 194.524 131.135 194.132L155.724 179.935C156.404 179.542 157.507 179.542 158.187 179.935L180.697 192.931C181.377 193.324 181.377 193.961 180.697 194.353C180.017 194.746 178.915 194.746 178.235 194.353L156.956 182.068L133.598 195.554C132.917 195.946 131.815 195.946 131.135 195.554Z" fill="#37AEE2"/>
<path fill-rule="evenodd" clip-rule="evenodd" d="M149.53 48.9304C150.21 48.5378 151.313 48.5378 151.993 48.9304L197.458 75.1796C198.138 75.5722 198.138 76.2088 197.458 76.6015L84.7779 141.657L111.536 157.106C112.216 157.499 112.216 158.135 111.536 158.528L79.1425 177.231L105.753 192.594C106.433 192.987 106.433 193.623 105.753 194.016L80.1265 208.811C79.4464 209.204 78.3438 209.204 77.6638 208.811L70.75 204.82L21.4693 233.272C20.7893 233.665 19.6867 233.665 19.0066 233.272C18.3265 232.879 18.3265 232.243 19.0066 231.85L69.5186 202.687C70.1987 202.294 71.3013 202.294 71.9813 202.687L78.8951 206.679L102.059 193.305L75.4484 177.942C74.7683 177.549 74.7683 176.912 75.4484 176.52L107.842 157.817L81.0838 142.368C80.4038 141.975 80.4038 141.339 81.0838 140.946L193.764 75.8905L149.53 50.3522C148.85 49.9596 148.85 49.323 149.53 48.9304ZM205.227 16.774C205.907 16.3813 207.009 16.3814 207.689 16.774L347.49 97.4882C348.17 97.8808 348.17 98.5174 347.49 98.91L124.112 227.878C123.432 228.27 122.329 228.27 121.649 227.878L100.222 215.507L45.4606 247.123C44.7806 247.516 43.6779 247.516 42.9979 247.123C42.3178 246.731 42.3178 246.094 42.9979 245.701L98.9907 213.374C99.6707 212.981 100.773 212.981 101.453 213.374L122.88 225.745L141.448 215.025L120.021 202.654C119.341 202.261 119.341 201.625 120.021 201.232C120.701 200.839 121.804 200.839 122.484 201.232L143.911 213.603L343.796 98.1991L205.227 18.1958C204.547 17.8032 204.547 17.1666 205.227 16.774Z" fill="black"/>
<path d="M157.206 136.148C155.846 135.362 155.846 134.089 157.206 133.304L212.421 101.426C213.781 100.64 215.986 100.64 217.346 101.426L273.732 133.98C275.092 134.765 275.092 136.038 273.732 136.824L218.517 168.702C217.157 169.487 214.952 169.487 213.592 168.702L157.206 136.148Z" fill="#CE2127"/>
<path d="M220.605 99.5442C219.245 98.7589 219.245 97.4857 220.605 96.7005L275.82 64.8221C277.18 64.0368 279.385 64.0368 280.745 64.8221L337.131 97.3764C338.491 98.1616 338.491 99.4348 337.131 100.22L281.916 132.098C280.556 132.884 278.351 132.884 276.991 132.098L220.605 99.5442Z" fill="#CE2127"/>
<path d="M213.916 61.6437C212.556 60.8584 212.556 59.5852 213.916 58.7999L239.801 43.855C241.162 43.0697 243.367 43.0697 244.727 43.855L271.197 59.1378C272.558 59.9231 272.558 61.1962 271.197 61.9815L245.312 76.9264C243.952 77.7117 241.747 77.7117 240.387 76.9264L213.916 61.6437Z" fill="#CE2127"/>
<path d="M153.087 173.259C151.727 172.474 151.727 171.201 153.087 170.415L178.972 155.47C180.333 154.685 182.538 154.685 183.898 155.47L210.368 170.753C211.729 171.538 211.729 172.812 210.368 173.597L184.483 188.542C183.123 189.327 180.918 189.327 179.558 188.542L153.087 173.259Z" fill="#CE2127"/>
<path fill-rule="evenodd" clip-rule="evenodd" d="M221.011 86.8326L211.031 92.5946C210.487 92.9087 210.487 93.418 211.031 93.7321L215.973 96.5853C216.517 96.8994 217.399 96.8994 217.943 96.5853L227.923 90.8233C228.467 90.5092 228.467 89.9999 227.923 89.6858L222.981 86.8326C222.437 86.5185 221.555 86.5185 221.011 86.8326ZM210.784 92.4524C210.104 92.845 210.104 93.4816 210.784 93.8743L215.726 96.7275C216.406 97.1202 217.509 97.1202 218.189 96.7275L228.169 90.9655C228.849 90.5729 228.849 89.9363 228.169 89.5436L223.227 86.6904C222.547 86.2977 221.445 86.2977 220.764 86.6904L210.784 92.4524Z" fill="black"/>
<path fill-rule="evenodd" clip-rule="evenodd" d="M166.795 118.134L156.815 123.896C156.271 124.21 156.271 124.719 156.815 125.033L161.757 127.886C162.301 128.2 163.183 128.2 163.727 127.886L173.708 122.124C174.252 121.81 174.252 121.301 173.708 120.987L168.766 118.134C168.222 117.819 167.339 117.819 166.795 118.134ZM156.569 123.753C155.889 124.146 155.889 124.783 156.569 125.175L161.511 128.029C162.191 128.421 163.294 128.421 163.974 128.029L173.954 122.267C174.634 121.874 174.634 121.237 173.954 120.845L169.012 117.991C168.332 117.599 167.229 117.599 166.549 117.991L156.569 123.753Z" fill="black"/>
<path d="M196.942 32.9728C196.694 32.4364 197.245 31.885 198.174 31.7413L214.541 29.2083C215.469 29.0646 216.424 29.3828 216.673 29.9192L217.884 32.5301C218.133 33.0665 217.582 33.6178 216.653 33.7616L200.286 36.2945C199.357 36.4383 198.403 36.1201 198.154 35.5837L196.942 32.9728Z" fill="#CE2127"/>
<path d="M209.939 40.4763C209.69 39.9399 210.242 39.3886 211.171 39.2448L227.537 36.7119C228.466 36.5681 229.421 36.8864 229.67 37.4227L230.881 40.0337C231.13 40.57 230.578 41.1214 229.649 41.2651L213.283 43.7981C212.354 43.9419 211.399 43.6236 211.15 43.0872L209.939 40.4763Z" fill="#CE2127"/>
<path fill-rule="evenodd" clip-rule="evenodd" d="M168.291 47.5004L165.421 49.1573C164.877 49.4714 164.877 49.9807 165.421 50.2948L175.102 55.8842C175.646 56.1983 176.528 56.1983 177.072 55.8842L179.942 54.2272C180.486 53.9131 180.486 53.4038 179.942 53.0897L170.261 47.5004C169.717 47.1863 168.835 47.1863 168.291 47.5004ZM165.175 49.0151C164.495 49.4078 164.495 50.0444 165.175 50.437L174.856 56.0263C175.536 56.419 176.638 56.419 177.318 56.0263L180.188 54.3694C180.868 53.9768 180.868 53.3402 180.188 52.9475L170.507 47.3582C169.827 46.9656 168.725 46.9656 168.045 47.3582L165.175 49.0151Z" fill="black"/>
<path d="M167.683 96.0144C167.003 95.6218 167.003 94.9852 167.683 94.5925L175.589 90.0278C176.269 89.6352 177.372 89.6352 178.052 90.0278L188.918 96.3012C189.598 96.6938 189.598 97.3304 188.918 97.723L181.011 102.288C180.331 102.68 179.229 102.68 178.549 102.288L167.683 96.0144Z" fill="#CE2127"/>
<path d="M104.284 132.618C103.604 132.226 103.604 131.589 104.284 131.196L112.19 126.632C112.87 126.239 113.973 126.239 114.653 126.632L125.518 132.905C126.198 133.298 126.198 133.934 125.518 134.327L117.612 138.892C116.932 139.284 115.829 139.284 115.149 138.892L104.284 132.618Z" fill="#CE2127"/>
<path fill-rule="evenodd" clip-rule="evenodd" d="M70.0016 206.725L48.1749 219.327C48.0388 219.406 48.0388 219.533 48.1749 219.611L53.4097 222.634C53.5457 222.712 53.7663 222.712 53.9023 222.634L75.7291 210.032C75.8651 209.954 75.8651 209.826 75.7291 209.748L70.4942 206.725C70.3582 206.647 70.1376 206.647 70.0016 206.725ZM47.9286 219.185C47.6566 219.342 47.6566 219.597 47.9286 219.754L53.1635 222.776C53.4355 222.933 53.8765 222.933 54.1485 222.776L75.9753 210.174C76.2474 210.017 76.2474 209.763 75.9753 209.606L70.7405 206.583C70.4684 206.426 70.0274 206.426 69.7554 206.583L47.9286 219.185Z" fill="black"/>
<g filter="url(#filter0_d_1058_4434)">
<path fill-rule="evenodd" clip-rule="evenodd" d="M136.423 112.925L125.258 119.371C124.714 119.685 124.714 120.194 125.258 120.508L128.127 122.165C128.671 122.479 129.553 122.479 130.097 122.165L141.262 115.718C141.806 115.404 141.806 114.895 141.262 114.581L138.393 112.925C137.849 112.611 136.967 112.611 136.423 112.925ZM125.012 119.229C124.332 119.621 124.332 120.258 125.012 120.651L127.881 122.307C128.561 122.699 129.663 122.699 130.343 122.307L141.508 115.861C142.188 115.468 142.188 114.831 141.508 114.439L138.64 112.783C137.96 112.39 136.857 112.39 136.177 112.783L125.012 119.229Z" fill="black"/>
</g>
<g filter="url(#filter1_d_1058_4434)">
<path fill-rule="evenodd" clip-rule="evenodd" d="M137.17 114.032L127.319 119.719C127.183 119.798 127.183 119.925 127.319 120.004L130.275 121.71C130.411 121.788 130.631 121.788 130.767 121.71L140.618 116.022C140.754 115.944 140.754 115.816 140.618 115.738L137.663 114.032C137.527 113.953 137.306 113.953 137.17 114.032ZM127.073 119.577C126.801 119.734 126.801 119.989 127.073 120.146L130.028 121.852C130.3 122.009 130.741 122.009 131.013 121.852L140.864 116.165C141.136 116.007 141.136 115.753 140.864 115.596L137.909 113.89C137.637 113.732 137.196 113.732 136.924 113.89L127.073 119.577Z" fill="black"/>
</g>
<g filter="url(#filter2_d_1058_4434)">
<path fill-rule="evenodd" clip-rule="evenodd" d="M152.924 103.398L141.758 109.845C141.214 110.159 141.214 110.668 141.758 110.982L144.627 112.638C145.171 112.952 146.053 112.952 146.597 112.638L157.762 106.192C158.306 105.878 158.306 105.369 157.762 105.055L154.894 103.398C154.35 103.084 153.468 103.084 152.924 103.398ZM141.512 109.702C140.832 110.095 140.832 110.732 141.512 111.124L144.381 112.78C145.061 113.173 146.163 113.173 146.844 112.78L158.009 106.334C158.689 105.942 158.689 105.305 158.009 104.912L155.14 103.256C154.46 102.864 153.357 102.864 152.677 103.256L141.512 109.702Z" fill="black"/>
</g>
<g filter="url(#filter3_d_1058_4434)">
<path fill-rule="evenodd" clip-rule="evenodd" d="M153.671 104.505L143.82 110.193C143.684 110.271 143.684 110.399 143.82 110.477L146.775 112.183C146.911 112.262 147.131 112.262 147.267 112.183L157.118 106.496C157.254 106.417 157.254 106.29 157.118 106.212L154.163 104.505C154.027 104.427 153.807 104.427 153.671 104.505ZM143.573 110.051C143.301 110.208 143.301 110.462 143.573 110.619L146.529 112.326C146.801 112.483 147.242 112.483 147.514 112.326L157.365 106.638C157.637 106.481 157.637 106.226 157.365 106.069L154.409 104.363C154.137 104.206 153.696 104.206 153.424 104.363L143.573 110.051Z" fill="black"/>
</g>
<path fill-rule="evenodd" clip-rule="evenodd" d="M181.769 110.284L183.524 114.067C183.627 114.287 184.003 114.398 184.324 114.327C185.492 114.065 186.587 113.663 187.53 113.118C188.474 112.573 189.171 111.941 189.624 111.267C189.748 111.082 189.556 110.864 189.173 110.805L182.622 109.792C182.104 109.712 181.63 109.985 181.769 110.284ZM183.188 114.119C183.337 114.44 183.912 114.634 184.45 114.514C185.662 114.243 186.798 113.825 187.777 113.26C188.755 112.695 189.479 112.039 189.948 111.339C190.157 111.029 189.821 110.697 189.264 110.611L182.712 109.597C181.935 109.477 181.224 109.888 181.433 110.336L183.188 114.119Z" fill="black"/>
<path fill-rule="evenodd" clip-rule="evenodd" d="M195.424 107.217L191.336 104.093C191.097 103.911 190.676 103.89 190.425 104.026C189.513 104.521 188.76 105.132 188.24 105.841C187.721 106.551 187.486 107.288 187.505 108.011C187.511 108.209 187.83 108.369 188.223 108.341L194.954 107.859C195.487 107.821 195.748 107.464 195.424 107.217ZM191.614 103.972C191.266 103.706 190.607 103.651 190.187 103.879C189.24 104.394 188.459 105.027 187.92 105.763C187.381 106.499 187.137 107.264 187.157 108.014C187.166 108.347 187.694 108.582 188.266 108.541L194.997 108.058C195.795 108.001 196.187 107.467 195.702 107.096L191.614 103.972Z" fill="black"/>
<path fill-rule="evenodd" clip-rule="evenodd" d="M144.436 152.359L146.191 156.141C146.294 156.362 146.671 156.473 146.991 156.401C148.159 156.14 149.254 155.737 150.198 155.192C151.141 154.648 151.838 154.016 152.291 153.341C152.415 153.156 152.223 152.939 151.841 152.879L145.289 151.866C144.771 151.786 144.297 152.06 144.436 152.359ZM145.855 156.193C146.004 156.515 146.579 156.709 147.117 156.588C148.329 156.317 149.466 155.899 150.444 155.335C151.422 154.77 152.146 154.114 152.616 153.414C152.824 153.103 152.488 152.771 151.931 152.685L145.379 151.672C144.603 151.552 143.892 151.962 144.1 152.411L145.855 156.193Z" fill="black"/>
<path fill-rule="evenodd" clip-rule="evenodd" d="M140.789 150.253L134.238 149.24C133.855 149.18 133.663 148.963 133.787 148.778C134.24 148.104 134.937 147.471 135.881 146.927C136.824 146.382 137.919 145.979 139.087 145.718C139.407 145.646 139.784 145.757 139.887 145.978L141.642 149.761C141.781 150.06 141.307 150.333 140.789 150.253ZM134.147 149.434C133.59 149.348 133.254 149.016 133.462 148.705C133.932 148.005 134.656 147.349 135.634 146.785C136.613 146.22 137.749 145.802 138.961 145.531C139.499 145.41 140.074 145.604 140.223 145.926L141.978 149.708C142.186 150.157 141.476 150.567 140.699 150.447L134.147 149.434Z" fill="black"/>
<path fill-rule="evenodd" clip-rule="evenodd" d="M142.005 152.283L137.209 155.052C136.929 155.214 136.951 155.458 137.219 155.582C138.194 156.036 139.346 156.382 140.634 156.581C141.923 156.78 143.22 156.813 144.457 156.702C144.797 156.671 145.027 156.466 144.925 156.246L143.171 152.463C143.032 152.164 142.384 152.064 142.005 152.283ZM136.963 154.91C136.555 155.146 136.551 155.53 137 155.739C138.013 156.209 139.208 156.568 140.544 156.775C141.88 156.982 143.226 157.016 144.511 156.9C145.081 156.849 145.41 156.515 145.261 156.194L143.507 152.411C143.299 151.962 142.328 151.812 141.759 152.141L136.963 154.91Z" fill="black"/>
<path fill-rule="evenodd" clip-rule="evenodd" d="M143.204 149.827L141.449 146.044C141.347 145.824 141.577 145.619 141.917 145.588C143.154 145.477 144.452 145.51 145.74 145.709C147.029 145.908 148.18 146.255 149.155 146.708C149.423 146.832 149.445 147.076 149.165 147.238L144.369 150.007C143.99 150.226 143.342 150.126 143.204 149.827ZM141.113 146.096C140.964 145.775 141.294 145.441 141.864 145.39C143.148 145.275 144.494 145.308 145.83 145.515C147.166 145.722 148.361 146.081 149.374 146.551C149.823 146.76 149.819 147.144 149.412 147.38L144.615 150.149C144.047 150.478 143.075 150.328 142.867 149.879L141.113 146.096Z" fill="black"/>
<path fill-rule="evenodd" clip-rule="evenodd" d="M140.608 150.984L134.057 149.971C133.674 149.912 133.32 150.045 133.267 150.241C133.074 150.955 133.131 151.704 133.476 152.448C133.821 153.192 134.42 153.857 135.206 154.42C135.421 154.575 135.843 154.587 136.123 154.426L140.92 151.656C141.3 151.438 141.126 151.064 140.608 150.984ZM134.147 149.777C133.59 149.69 133.011 149.881 132.923 150.21C132.723 150.952 132.782 151.729 133.139 152.5C133.497 153.272 134.119 153.961 134.934 154.546C135.296 154.805 135.962 154.803 136.369 154.568L141.166 151.799C141.735 151.47 141.475 150.909 140.698 150.789L134.147 149.777Z" fill="black"/>
<path fill-rule="evenodd" clip-rule="evenodd" d="M145.158 150.463L149.955 147.693C150.235 147.532 150.657 147.545 150.873 147.699C151.658 148.262 152.257 148.927 152.602 149.671C152.947 150.415 153.004 151.164 152.811 151.878C152.759 152.074 152.404 152.207 152.022 152.148L145.47 151.135C144.952 151.055 144.779 150.682 145.158 150.463ZM149.709 147.551C150.116 147.316 150.782 147.314 151.144 147.573C151.959 148.158 152.581 148.848 152.939 149.619C153.297 150.39 153.355 151.168 153.155 151.909C153.067 152.238 152.488 152.429 151.931 152.343L145.38 151.33C144.603 151.21 144.343 150.649 144.912 150.32L149.709 147.551Z" fill="black"/>
<path fill-rule="evenodd" clip-rule="evenodd" d="M200.986 104.502L202.458 100.679C202.544 100.456 202.299 100.257 201.957 100.235C200.712 100.155 199.419 100.22 198.146 100.451C196.874 100.682 195.749 101.057 194.808 101.534C194.55 101.665 194.546 101.909 194.838 102.064L199.835 104.711C200.23 104.92 200.869 104.804 200.986 104.502ZM202.798 100.722C202.923 100.397 202.568 100.072 201.995 100.035C200.704 99.9519 199.361 100.019 198.042 100.259C196.722 100.499 195.555 100.888 194.578 101.383C194.145 101.603 194.177 101.987 194.602 102.212L199.599 104.859C200.192 105.173 201.151 104.999 201.326 104.545L202.798 100.722Z" fill="black"/>
<g filter="url(#filter4_d_1058_4434)">
<path fill-rule="evenodd" clip-rule="evenodd" d="M117.377 203.829L113.683 205.962C113.139 206.276 113.139 206.785 113.683 207.099L124.519 213.355C125.335 213.826 125.335 214.59 124.519 215.062L119.84 217.763C119.296 218.077 119.295 218.586 119.838 218.9L124.027 221.318C124.571 221.632 125.453 221.632 125.997 221.318L136.833 215.062C137.377 214.747 137.377 214.238 136.833 213.924L119.347 203.829C118.803 203.515 117.921 203.515 117.377 203.829ZM117.131 203.687C117.811 203.294 118.914 203.294 119.594 203.687L137.079 213.782C137.759 214.175 137.759 214.811 137.079 215.204L126.243 221.46C125.563 221.853 124.461 221.853 123.781 221.46L119.592 219.042C118.912 218.649 118.914 218.014 119.594 217.621L124.273 214.919C124.953 214.527 124.953 213.89 124.273 213.498L113.437 207.241C112.757 206.849 112.757 206.212 113.437 205.82L117.131 203.687Z" fill="black"/>
</g>
<g filter="url(#filter5_d_1058_4434)">
<path fill-rule="evenodd" clip-rule="evenodd" d="M118.855 205.82L115.407 207.81C115.271 207.889 115.271 208.016 115.407 208.095L119.594 210.512C119.73 210.59 119.95 210.59 120.086 210.512L123.534 208.521C123.67 208.443 123.67 208.315 123.534 208.237L119.348 205.82C119.212 205.741 118.991 205.741 118.855 205.82ZM115.161 207.668C114.889 207.825 114.889 208.08 115.161 208.237L119.348 210.654C119.62 210.811 120.061 210.811 120.333 210.654L123.781 208.663C124.053 208.506 124.053 208.252 123.781 208.095L119.594 205.677C119.322 205.52 118.881 205.52 118.609 205.677L115.161 207.668Z" fill="black"/>
</g>
<g filter="url(#filter6_d_1058_4434)">
<path fill-rule="evenodd" clip-rule="evenodd" d="M124.519 209.09L121.071 211.08C120.935 211.159 120.935 211.286 121.071 211.365L124.765 213.498C124.901 213.576 125.122 213.576 125.258 213.498L128.706 211.507C128.842 211.428 128.842 211.301 128.706 211.223L125.012 209.09C124.876 209.011 124.655 209.011 124.519 209.09ZM120.825 210.938C120.553 211.095 120.553 211.35 120.825 211.507L124.519 213.64C124.791 213.797 125.232 213.797 125.504 213.64L128.952 211.649C129.224 211.492 129.224 211.238 128.952 211.08L125.258 208.948C124.986 208.791 124.545 208.791 124.273 208.948L120.825 210.938Z" fill="black"/>
</g>
<g filter="url(#filter7_d_1058_4434)">
<path fill-rule="evenodd" clip-rule="evenodd" d="M129.691 212.076L126.243 214.066C126.107 214.145 126.107 214.272 126.243 214.351L130.43 216.768C130.566 216.846 130.786 216.846 130.922 216.768L134.37 214.777C134.506 214.699 134.506 214.571 134.37 214.493L130.184 212.076C130.048 211.997 129.827 211.997 129.691 212.076ZM125.997 213.924C125.725 214.081 125.725 214.336 125.997 214.493L130.184 216.91C130.456 217.067 130.897 217.067 131.169 216.91L134.616 214.919C134.888 214.762 134.888 214.508 134.616 214.351L130.43 211.934C130.158 211.776 129.717 211.776 129.445 211.934L125.997 213.924Z" fill="black"/>
</g>
<g filter="url(#filter8_d_1058_4434)">
<path fill-rule="evenodd" clip-rule="evenodd" d="M124.766 214.919L120.579 217.337C120.443 217.415 120.443 217.542 120.579 217.621L124.766 220.038C124.902 220.117 125.122 220.117 125.258 220.038L129.445 217.621C129.581 217.542 129.581 217.415 129.445 217.337L125.258 214.919C125.122 214.841 124.902 214.841 124.766 214.919ZM120.333 217.194C120.061 217.351 120.061 217.606 120.333 217.763L124.519 220.18C124.791 220.337 125.232 220.337 125.504 220.18L129.691 217.763C129.963 217.606 129.963 217.351 129.691 217.194L125.504 214.777C125.232 214.62 124.791 214.62 124.519 214.777L120.333 217.194Z" fill="black"/>
</g>
<path fill-rule="evenodd" clip-rule="evenodd" d="M95.5418 168.506L90.898 171.187C90.762 171.266 90.762 171.393 90.898 171.472L98.7986 176.033C98.9346 176.112 99.1551 176.112 99.2911 176.033L103.935 173.352C104.071 173.274 104.071 173.146 103.935 173.068L96.0344 168.506C95.8983 168.428 95.6778 168.428 95.5418 168.506ZM90.6517 171.045C90.3797 171.202 90.3797 171.457 90.6517 171.614L98.5523 176.175C98.8243 176.332 99.2654 176.332 99.5374 176.175L104.181 173.494C104.453 173.337 104.453 173.083 104.181 172.926L96.2806 168.364C96.0086 168.207 95.5676 168.207 95.2955 168.364L90.6517 171.045Z" fill="black"/>
<path fill-rule="evenodd" clip-rule="evenodd" d="M164.064 192.047L159.422 189.367C159.286 189.288 159.065 189.288 158.929 189.367L151.027 193.93C150.891 194.008 150.891 194.135 151.027 194.214L155.669 196.894C155.805 196.973 156.026 196.973 156.162 196.894L164.064 192.332C164.2 192.253 164.2 192.126 164.064 192.047ZM159.668 189.225C159.396 189.068 158.955 189.068 158.683 189.225L150.78 193.787C150.508 193.944 150.508 194.199 150.78 194.356L155.423 197.036C155.695 197.194 156.136 197.194 156.408 197.036L164.311 192.474C164.583 192.317 164.583 192.062 164.311 191.905L159.668 189.225Z" fill="black"/>
<path fill-rule="evenodd" clip-rule="evenodd" d="M105.02 173.978L100.376 176.66C100.24 176.738 100.24 176.865 100.376 176.944L108.277 181.505C108.413 181.584 108.633 181.584 108.769 181.505L113.413 178.824C113.549 178.746 113.549 178.618 113.413 178.54L105.512 173.978C105.376 173.9 105.156 173.9 105.02 173.978ZM100.13 176.517C99.8577 176.674 99.8577 176.929 100.13 177.086L108.03 181.648C108.302 181.805 108.743 181.805 109.015 181.648L113.659 178.966C113.931 178.809 113.931 178.555 113.659 178.398L105.759 173.836C105.487 173.679 105.046 173.679 104.774 173.836L100.13 176.517Z" fill="black"/>
<path fill-rule="evenodd" clip-rule="evenodd" d="M154.584 197.521L149.942 194.84C149.806 194.762 149.585 194.762 149.449 194.84L141.546 199.403C141.41 199.481 141.41 199.609 141.546 199.687L146.189 202.368C146.325 202.446 146.545 202.446 146.681 202.368L154.584 197.805C154.72 197.727 154.72 197.599 154.584 197.521ZM150.188 194.698C149.916 194.541 149.475 194.541 149.203 194.698L141.3 199.261C141.028 199.418 141.028 199.672 141.3 199.83L145.943 202.51C146.215 202.667 146.656 202.667 146.928 202.51L154.83 197.947C155.102 197.79 155.102 197.536 154.83 197.379L150.188 194.698Z" fill="black"/>
<rect x="0.866025" width="2.0788" height="2.07808" rx="1.03904" transform="matrix(0.866025 -0.5 0.866025 0.5 87.3123 174.499)" stroke="black"/>
<rect x="0.592516" width="0.684179" height="2.3939" rx="0.342089" transform="matrix(0.866025 -0.5 0.866025 0.5 86.3868 174.875)" stroke="black" stroke-width="0.684179"/>
<rect x="-8.9407e-08" y="0.5" width="2.07808" height="2.0788" rx="1.03904" transform="matrix(0.866025 0.5 -0.866026 0.5 154.869 187.823)" stroke="black"/>
<rect x="-6.1156e-08" y="0.342009" width="0.684018" height="2.39479" rx="0.342009" transform="matrix(0.866025 0.5 -0.866026 0.5 153.844 187.231)" stroke="black" stroke-width="0.684018"/>
<rect x="-0.866025" y="-4.47035e-08" width="2.0788" height="2.07808" rx="1.03904" transform="matrix(-0.866026 0.5 -0.866025 -0.5 165.557 190.228)" stroke="black"/>
<rect x="-0.592516" y="-3.05852e-08" width="0.684179" height="2.3939" rx="0.342089" transform="matrix(-0.866026 0.5 -0.866025 -0.5 166.957 189.578)" stroke="black" stroke-width="0.684179"/>
<rect x="-2.98023e-08" y="0.5" width="2.0788" height="2.07808" rx="1.03904" transform="matrix(-0.866025 0.5 0.866025 0.5 99.7987 166.79)" stroke="black"/>
<rect x="-2.03901e-08" y="0.342089" width="0.684179" height="2.3939" rx="0.342089" transform="matrix(-0.866025 0.5 0.866025 0.5 100.824 166.198)" stroke="black" stroke-width="0.684179"/>
<rect x="-0.866025" y="-1.49012e-08" width="2.07808" height="2.0788" rx="1.03904" transform="matrix(-0.866025 -0.5 -0.866026 0.5 165.852 194.664)" stroke="black"/>
<rect x="-0.592377" y="-1.01927e-08" width="0.684018" height="2.39479" rx="0.342009" transform="matrix(-0.866025 -0.5 -0.866026 0.5 167.252 195.314)" stroke="black" stroke-width="0.684018"/>
<rect x="0.866025" width="2.0788" height="2.07808" rx="1.03904" transform="matrix(0.866025 -0.5 0.866025 0.5 92.0513 177.235)" stroke="black"/>
<rect x="0.592516" width="0.684179" height="2.3939" rx="0.342089" transform="matrix(0.866025 -0.5 0.866025 0.5 91.1258 177.611)" stroke="black" stroke-width="0.684179"/>
<rect x="-8.9407e-08" y="0.5" width="2.07808" height="2.0788" rx="1.03904" transform="matrix(0.866025 0.5 -0.866026 0.5 150.129 190.559)" stroke="black"/>
<rect x="-6.1156e-08" y="0.342009" width="0.684018" height="2.39479" rx="0.342009" transform="matrix(0.866025 0.5 -0.866026 0.5 149.104 189.967)" stroke="black" stroke-width="0.684018"/>
<rect x="-2.98023e-08" y="0.5" width="2.0788" height="2.07808" rx="1.03904" transform="matrix(-0.866025 0.5 0.866025 0.5 104.538 169.526)" stroke="black"/>
<rect x="-2.03901e-08" y="0.342089" width="0.684179" height="2.3939" rx="0.342089" transform="matrix(-0.866025 0.5 0.866025 0.5 105.563 168.934)" stroke="black" stroke-width="0.684179"/>
<rect x="-0.866025" y="-1.49012e-08" width="2.07808" height="2.0788" rx="1.03904" transform="matrix(-0.866025 -0.5 -0.866026 0.5 161.112 197.4)" stroke="black"/>
<rect x="-0.592377" y="-1.01927e-08" width="0.684018" height="2.39479" rx="0.342009" transform="matrix(-0.866025 -0.5 -0.866026 0.5 162.512 198.05)" stroke="black" stroke-width="0.684018"/>
<rect x="0.866025" width="2.0788" height="2.07808" rx="1.03904" transform="matrix(0.866025 -0.5 0.866025 0.5 96.7903 179.971)" stroke="black"/>
<rect x="0.592516" width="0.684179" height="2.3939" rx="0.342089" transform="matrix(0.866025 -0.5 0.866025 0.5 95.8648 180.348)" stroke="black" stroke-width="0.684179"/>
<rect x="-8.9407e-08" y="0.5" width="2.07808" height="2.0788" rx="1.03904" transform="matrix(0.866025 0.5 -0.866026 0.5 145.389 193.296)" stroke="black"/>
<rect x="-6.1156e-08" y="0.342009" width="0.684018" height="2.39479" rx="0.342009" transform="matrix(0.866025 0.5 -0.866026 0.5 144.364 192.704)" stroke="black" stroke-width="0.684018"/>
<rect x="-2.98023e-08" y="0.5" width="2.0788" height="2.07808" rx="1.03904" transform="matrix(-0.866025 0.5 0.866025 0.5 109.277 172.262)" stroke="black"/>
<rect x="-2.03901e-08" y="0.342089" width="0.684179" height="2.3939" rx="0.342089" transform="matrix(-0.866025 0.5 0.866025 0.5 110.302 171.67)" stroke="black" stroke-width="0.684179"/>
<rect x="-0.866025" y="-1.49012e-08" width="2.07808" height="2.0788" rx="1.03904" transform="matrix(-0.866025 -0.5 -0.866026 0.5 156.372 200.137)" stroke="black"/>
<rect x="-0.592377" y="-1.01927e-08" width="0.684018" height="2.39479" rx="0.342009" transform="matrix(-0.866025 -0.5 -0.866026 0.5 157.772 200.787)" stroke="black" stroke-width="0.684018"/>
<rect x="0.866025" width="2.0788" height="2.07808" rx="1.03904" transform="matrix(0.866025 -0.5 0.866025 0.5 101.529 182.707)" stroke="black"/>
<rect x="0.592516" width="0.684179" height="2.3939" rx="0.342089" transform="matrix(0.866025 -0.5 0.866025 0.5 100.604 183.084)" stroke="black" stroke-width="0.684179"/>
<rect x="-8.9407e-08" y="0.5" width="2.07808" height="2.0788" rx="1.03904" transform="matrix(0.866025 0.5 -0.866026 0.5 140.649 196.033)" stroke="black"/>
<rect x="-6.1156e-08" y="0.342009" width="0.684018" height="2.39479" rx="0.342009" transform="matrix(0.866025 0.5 -0.866026 0.5 139.624 195.441)" stroke="black" stroke-width="0.684018"/>
<rect x="-2.98023e-08" y="0.5" width="2.0788" height="2.07808" rx="1.03904" transform="matrix(-0.866025 0.5 0.866025 0.5 114.016 174.998)" stroke="black"/>
<rect x="-2.03901e-08" y="0.342089" width="0.684179" height="2.3939" rx="0.342089" transform="matrix(-0.866025 0.5 0.866025 0.5 115.041 174.406)" stroke="black" stroke-width="0.684179"/>
<rect x="-0.866025" y="-1.49012e-08" width="2.07808" height="2.0788" rx="1.03904" transform="matrix(-0.866025 -0.5 -0.866026 0.5 151.632 202.874)" stroke="black"/>
<rect x="-0.592377" y="-1.01927e-08" width="0.684018" height="2.39479" rx="0.342009" transform="matrix(-0.866025 -0.5 -0.866026 0.5 153.031 203.524)" stroke="black" stroke-width="0.684018"/>
<path fill-rule="evenodd" clip-rule="evenodd" d="M45.7122 229.28C47.7524 228.102 47.7524 226.193 45.7122 225.015C43.6721 223.837 40.3643 223.837 38.3241 225.015C36.2839 226.193 36.2839 228.102 38.3241 229.28C40.3643 230.458 43.6721 230.458 45.7122 229.28ZM45.9585 229.422C48.1347 228.166 48.1347 226.129 45.9585 224.872C43.7823 223.616 40.254 223.616 38.0778 224.872C35.9016 226.129 35.9016 228.166 38.0778 229.422C40.254 230.679 43.7823 230.679 45.9585 229.422Z" fill="black"/>
<path fill-rule="evenodd" clip-rule="evenodd" d="M114.915 210.938L111.467 212.929C111.331 213.007 111.331 213.135 111.467 213.213L116.639 216.199C116.775 216.278 116.995 216.278 117.131 216.199L120.579 214.209C120.715 214.13 120.715 214.003 120.579 213.924L115.407 210.938C115.271 210.86 115.051 210.86 114.915 210.938ZM111.221 212.787C110.949 212.944 110.949 213.198 111.221 213.355L116.392 216.341C116.664 216.498 117.105 216.498 117.377 216.341L120.825 214.351C121.097 214.194 121.097 213.939 120.825 213.782L115.653 210.796C115.381 210.639 114.94 210.639 114.668 210.796L111.221 212.787Z" fill="black"/>
<path opacity="0.3" fill-rule="evenodd" clip-rule="evenodd" d="M165.154 137.571L160.721 135.011C160.449 134.854 160.449 134.599 160.721 134.442L165.154 131.883C165.426 131.726 165.867 131.726 166.139 131.883C166.411 132.04 166.411 132.295 166.139 132.452L162.895 134.325L213.835 134.325L213.835 104.915L210.591 106.787C210.319 106.944 209.878 106.944 209.606 106.787C209.334 106.63 209.334 106.376 209.606 106.219L214.039 103.659C214.311 103.502 214.752 103.502 215.024 103.659L219.457 106.219C219.729 106.376 219.729 106.63 219.457 106.787C219.185 106.944 218.744 106.944 218.472 106.787L215.228 104.915L215.228 134.325H266.168L262.924 132.452C262.652 132.295 262.652 132.04 262.924 131.883C263.196 131.726 263.637 131.726 263.909 131.883L268.342 134.442C268.614 134.599 268.614 134.854 268.342 135.011L263.909 137.571C263.637 137.728 263.196 137.728 262.924 137.571C262.652 137.413 262.652 137.159 262.924 137.002L266.168 135.129H215.228L215.228 164.539L218.472 162.666C218.744 162.509 219.185 162.509 219.457 162.666C219.729 162.823 219.729 163.078 219.457 163.235L215.024 165.794C214.752 165.951 214.311 165.951 214.039 165.794L209.606 163.235C209.334 163.078 209.334 162.823 209.606 162.666C209.878 162.509 210.319 162.509 210.591 162.666L213.835 164.539L213.835 135.129L162.895 135.129L166.139 137.002C166.411 137.159 166.411 137.413 166.139 137.571C165.867 137.728 165.426 137.728 165.154 137.571Z" fill="white"/>
<path opacity="0.3" fill-rule="evenodd" clip-rule="evenodd" d="M228.693 100.887L224.26 98.3276C223.988 98.1705 223.988 97.9159 224.26 97.7588L228.693 95.1995C228.965 95.0425 229.406 95.0425 229.678 95.1995C229.95 95.3566 229.95 95.6112 229.678 95.7682L226.434 97.6411L277.374 97.641L277.374 68.231L274.13 70.1038C273.858 70.2609 273.417 70.2609 273.145 70.1038C272.873 69.9468 272.873 69.6921 273.145 69.5351L277.578 66.9757C277.85 66.8187 278.291 66.8187 278.563 66.9757L282.996 69.5351C283.268 69.6921 283.268 69.9468 282.996 70.1038C282.724 70.2609 282.282 70.2609 282.01 70.1038L278.767 68.231L278.767 97.6411H329.706L326.463 95.7682C326.191 95.6112 326.191 95.3566 326.463 95.1995C326.735 95.0424 327.176 95.0424 327.448 95.1995L331.881 97.7588C332.153 97.9159 332.153 98.1705 331.881 98.3276L327.448 100.887C327.176 101.044 326.735 101.044 326.463 100.887C326.191 100.73 326.191 100.475 326.463 100.318L329.706 98.4454H278.767L278.767 127.855L282.01 125.983C282.282 125.826 282.724 125.826 282.996 125.983C283.268 126.14 283.268 126.394 282.996 126.551L278.563 129.111C278.291 129.268 277.85 129.268 277.578 129.111L273.145 126.551C272.873 126.394 272.873 126.14 273.145 125.983C273.417 125.826 273.858 125.826 274.13 125.983L277.374 127.855L277.374 98.4454L226.434 98.4454L229.678 100.318C229.95 100.475 229.95 100.73 229.678 100.887C229.406 101.044 228.965 101.044 228.693 100.887Z" fill="white"/>
<path opacity="0.3" fill-rule="evenodd" clip-rule="evenodd" d="M220.389 63.272L215.956 60.7127C215.684 60.5557 215.684 60.301 215.956 60.144L220.389 57.5846C220.661 57.4276 221.102 57.4276 221.374 57.5846C221.646 57.7417 221.646 57.9963 221.374 58.1534L218.131 60.0262L241.857 60.0262L241.857 46.3276L238.613 48.2004C238.341 48.3575 237.9 48.3575 237.628 48.2004C237.356 48.0434 237.356 47.7887 237.628 47.6317L242.061 45.0723C242.333 44.9153 242.774 44.9153 243.046 45.0723L247.479 47.6317C247.751 47.7887 247.751 48.0434 247.479 48.2004C247.207 48.3575 246.766 48.3575 246.494 48.2004L243.25 46.3276L243.25 60.0262L266.977 60.0262L263.733 58.1534C263.461 57.9963 263.461 57.7417 263.733 57.5846C264.005 57.4276 264.446 57.4276 264.718 57.5846L269.151 60.144C269.423 60.301 269.423 60.5557 269.151 60.7127L264.718 63.272C264.446 63.4291 264.005 63.4291 263.733 63.272C263.461 63.115 263.461 62.8604 263.733 62.7033L266.977 60.8305L243.25 60.8305L243.25 74.5291L246.494 72.6563C246.766 72.4992 247.207 72.4992 247.479 72.6563C247.751 72.8133 247.751 73.068 247.479 73.225L243.046 75.7844C242.774 75.9414 242.333 75.9414 242.061 75.7844L237.628 73.225C237.356 73.068 237.356 72.8133 237.628 72.6563C237.9 72.4992 238.341 72.4992 238.613 72.6563L241.857 74.5291L241.857 60.8305L218.131 60.8305L221.374 62.7033C221.646 62.8604 221.646 63.115 221.374 63.272C221.102 63.4291 220.661 63.4291 220.389 63.272Z" fill="white"/>
<path opacity="0.3" fill-rule="evenodd" clip-rule="evenodd" d="M159.729 174.964L155.296 172.404C155.024 172.247 155.024 171.993 155.296 171.836L159.729 169.276C160.001 169.119 160.442 169.119 160.714 169.276C160.986 169.433 160.986 169.688 160.714 169.845L157.47 171.718L181.197 171.718L181.197 158.019L177.953 159.892C177.681 160.049 177.24 160.049 176.968 159.892C176.696 159.735 176.696 159.48 176.968 159.323L181.401 156.764C181.673 156.607 182.114 156.607 182.386 156.764L186.819 159.323C187.091 159.48 187.091 159.735 186.819 159.892C186.547 160.049 186.106 160.049 185.834 159.892L182.59 158.019L182.59 171.718L206.317 171.718L203.073 169.845C202.801 169.688 202.801 169.433 203.073 169.276C203.345 169.119 203.786 169.119 204.058 169.276L208.491 171.836C208.763 171.993 208.763 172.247 208.491 172.404L204.058 174.964C203.786 175.121 203.345 175.121 203.073 174.964C202.801 174.807 202.801 174.552 203.073 174.395L206.317 172.522L182.59 172.522L182.59 186.221L185.834 184.348C186.106 184.191 186.547 184.191 186.819 184.348C187.091 184.505 187.091 184.76 186.819 184.917L182.386 187.476C182.114 187.633 181.673 187.633 181.401 187.476L176.968 184.917C176.696 184.76 176.696 184.505 176.968 184.348C177.24 184.191 177.681 184.191 177.953 184.348L181.197 186.221L181.197 172.522L157.47 172.522L160.714 174.395C160.986 174.552 160.986 174.807 160.714 174.964C160.442 175.121 160.001 175.121 159.729 174.964Z" fill="white"/>
<path fill-rule="evenodd" clip-rule="evenodd" d="M162.568 102.948C163.588 102.36 163.588 101.405 162.568 100.816C161.548 100.227 159.894 100.227 158.874 100.816C157.854 101.405 157.854 102.36 158.874 102.948C159.894 103.537 161.548 103.537 162.568 102.948ZM162.815 103.091C163.971 102.423 163.971 101.341 162.815 100.674C161.659 100.006 159.784 100.006 158.628 100.674C157.472 101.341 157.472 102.423 158.628 103.091C159.784 103.758 161.659 103.758 162.815 103.091Z" fill="black"/>
<path fill-rule="evenodd" clip-rule="evenodd" d="M90.0412 139.703L87.5785 141.125C87.0344 141.439 87.0344 141.949 87.5785 142.263L90.0412 143.685C90.5852 143.999 91.4673 143.999 92.0114 143.685L94.4741 142.263C95.0181 141.949 95.0181 141.439 94.4741 141.125L92.0114 139.703C91.4673 139.389 90.5852 139.389 90.0412 139.703ZM87.3322 140.983C86.6521 141.376 86.6521 142.012 87.3322 142.405L89.7949 143.827C90.475 144.22 91.5776 144.22 92.2576 143.827L94.7204 142.405C95.4004 142.012 95.4004 141.376 94.7204 140.983L92.2576 139.561C91.5776 139.169 90.475 139.169 89.7949 139.561L87.3322 140.983Z" fill="black"/>
<path fill-rule="evenodd" clip-rule="evenodd" d="M95.4592 142.831L92.9964 144.253C92.4524 144.567 92.4524 145.077 92.9964 145.391L95.4592 146.813C96.0032 147.127 96.8853 147.127 97.4293 146.813L99.8921 145.391C100.436 145.077 100.436 144.567 99.8921 144.253L97.4293 142.831C96.8853 142.517 96.0032 142.517 95.4592 142.831ZM92.7502 144.111C92.0701 144.504 92.0701 145.14 92.7502 145.533L95.2129 146.955C95.8929 147.347 96.9955 147.347 97.6756 146.955L100.138 145.533C100.818 145.14 100.818 144.504 100.138 144.111L97.6756 142.689C96.9955 142.297 95.8929 142.297 95.2129 142.689L92.7502 144.111Z" fill="black"/>
<path fill-rule="evenodd" clip-rule="evenodd" d="M100.877 145.96L98.4144 147.381C97.8704 147.696 97.8704 148.205 98.4144 148.519L100.877 149.941C101.421 150.255 102.303 150.255 102.847 149.941L105.31 148.519C105.854 148.205 105.854 147.696 105.31 147.381L102.847 145.96C102.303 145.645 101.421 145.645 100.877 145.96ZM98.1681 147.239C97.4881 147.632 97.4881 148.268 98.1681 148.661L100.631 150.083C101.311 150.476 102.414 150.476 103.094 150.083L105.556 148.661C106.236 148.268 106.236 147.632 105.556 147.239L103.094 145.817C102.414 145.425 101.311 145.425 100.631 145.817L98.1681 147.239Z" fill="black"/>
<path fill-rule="evenodd" clip-rule="evenodd" d="M106.295 149.088L103.832 150.509C103.288 150.823 103.288 151.333 103.832 151.647L106.295 153.069C106.839 153.383 107.721 153.383 108.265 153.069L110.728 151.647C111.272 151.333 111.272 150.823 110.728 150.509L108.265 149.088C107.721 148.773 106.839 148.773 106.295 149.088ZM103.586 150.367C102.906 150.76 102.906 151.396 103.586 151.789L106.049 153.211C106.729 153.604 107.831 153.604 108.512 153.211L110.974 151.789C111.654 151.396 111.654 150.76 110.974 150.367L108.512 148.945C107.831 148.553 106.729 148.553 106.049 148.945L103.586 150.367Z" fill="black"/>
<path d="M211 30.5329L211 8H240.797C241.686 12.6944 240.115 22.0831 226.714 22.0831C219.598 22.0831 211 27.8645 211 30.5329Z" fill="white"/>
<rect x="211" width="69" height="22" rx="10" fill="white"/>
<path d="M224.552 15H226.1L229.628 6.48H227.708L225.332 12.396L222.92 6.48H221.036L224.552 15ZM230.596 15H232.336L232.336 11.412H232.756L235.684 15H237.784L234.724 11.22C235.864 10.872 236.476 10.152 236.476 9C236.476 7.584 235.444 6.48 233.86 6.48H230.596L230.596 15ZM232.336 9.924L232.336 8.076H233.656C234.316 8.076 234.748 8.412 234.748 9C234.748 9.576 234.316 9.924 233.656 9.924H232.336ZM240.968 6.48L240.968 15H242.708L242.708 9.456L245.324 13.044L247.94 9.456L247.94 15H249.68L249.68 6.48H248.096L245.324 10.284L242.552 6.48H240.968ZM254.036 15.132C255.776 15.132 257.192 13.764 257.192 12C257.192 10.248 255.776 8.868 254.036 8.868C252.296 8.868 250.88 10.248 250.88 12C250.88 13.764 252.296 15.132 254.036 15.132ZM254.036 13.596C253.172 13.596 252.536 12.924 252.536 12C252.536 11.076 253.172 10.404 254.036 10.404C254.888 10.404 255.524 11.076 255.524 12C255.524 12.924 254.888 13.596 254.036 13.596ZM261.153 15.072C261.621 15.072 261.921 15.024 262.197 14.94L262.197 13.488C262.005 13.56 261.777 13.596 261.525 13.596C260.805 13.596 260.505 13.308 260.505 12.576L260.505 10.44H262.197L262.197 9H260.505L260.505 7.332H258.861L258.861 9H257.649L257.649 10.44H258.861L258.861 12.9C258.861 14.376 259.881 15.072 261.153 15.072ZM266.048 15.132C267.788 15.132 269.204 13.764 269.204 12C269.204 10.248 267.788 8.868 266.048 8.868C264.308 8.868 262.892 10.248 262.892 12C262.892 13.764 264.308 15.132 266.048 15.132ZM266.048 13.596C265.184 13.596 264.548 12.924 264.548 12C264.548 11.076 265.184 10.404 266.048 10.404C266.9 10.404 267.536 11.076 267.536 12C267.536 12.924 266.9 13.596 266.048 13.596Z" fill="black"/>
<path d="M243 65.5329L243 43H272.797C273.686 47.6944 272.115 57.0831 258.714 57.0831C251.598 57.0831 243 62.8645 243 65.5329Z" fill="white"/>
<rect x="243" y="35" width="74" height="22" rx="10" fill="white"/>
<path d="M259.372 50H261.628L257.392 45.572L260.896 41.48H258.748L255.676 45.092L255.676 41.48H253.948L253.948 50H255.676L255.676 46.136L259.372 50ZM267.211 44H265.399L263.851 47.756L262.195 44H260.395L262.915 49.664L262.615 50.36C262.327 50.984 261.979 51.188 261.559 51.188C261.283 51.188 261.151 51.176 260.971 51.164L260.971 52.568C261.199 52.604 261.439 52.616 261.775 52.616C262.939 52.616 263.659 52.04 264.223 50.756L267.211 44ZM270.923 50.132C272.699 50.132 274.067 48.752 274.067 46.988C274.067 45.428 273.023 44.144 271.235 44.144C270.611 44.144 269.987 44.324 269.507 44.792C269.663 43.604 270.431 43.076 271.775 42.824L273.515 42.512L273.515 40.952L271.415 41.336C269.111 41.756 267.803 42.956 267.803 46.1L267.803 46.448C267.803 48.704 268.871 50.132 270.923 50.132ZM270.911 48.596C270.059 48.596 269.435 48.044 269.435 47.036C269.435 46.256 270.023 45.572 270.923 45.572C271.811 45.572 272.411 46.244 272.411 47.036C272.411 48.044 271.775 48.596 270.911 48.596ZM283.523 48.38H279.995C280.211 47.84 281.123 47.336 281.651 46.964C282.731 46.172 283.451 45.428 283.451 43.964C283.451 42.236 282.143 41.336 280.715 41.336C279.023 41.336 277.739 42.476 277.739 44.156H279.395C279.383 43.472 279.923 42.956 280.679 42.956C281.411 42.956 281.807 43.436 281.807 44.06C281.807 44.744 281.207 45.296 280.463 45.812C279.215 46.712 277.715 47.528 277.715 49.436L277.715 50H283.523L283.523 48.38ZM287.51 50.132C289.286 50.132 290.486 49.028 290.486 47.324C290.486 45.596 289.454 44.384 287.834 44.384C287.354 44.384 286.946 44.492 286.658 44.672L286.982 43.076H289.862L289.862 41.48H285.71L284.75 46.316L286.202 46.76C286.394 46.244 286.862 45.872 287.534 45.872C288.302 45.872 288.842 46.436 288.842 47.192C288.842 47.924 288.362 48.512 287.51 48.512C286.85 48.512 286.322 48.092 286.178 47.528H284.474C284.534 49.052 285.95 50.132 287.51 50.132ZM294.491 44L294.491 50H296.135L296.135 46.532L297.863 48.704L299.579 46.532L299.579 50H301.223L301.223 44H299.831L297.851 46.496L295.883 44H294.491ZM305.92 43.928H303.988C304.12 43.7 304.66 43.412 304.852 43.28C305.428 42.896 305.896 42.404 305.896 41.444C305.896 40.352 305.068 39.812 304.204 39.812C303.148 39.812 302.344 40.556 302.344 41.564H303.52C303.508 41.264 303.748 40.964 304.168 40.964C304.54 40.964 304.72 41.204 304.72 41.492C304.72 41.864 304.348 42.224 303.964 42.476C303.196 43.016 302.32 43.496 302.32 44.696L302.32 45.08H305.92L305.92 43.928Z" fill="black"/>
<path d="M279 119.533L279 97H308.797C309.686 101.694 308.115 111.083 294.714 111.083C287.598 111.083 279 116.865 279 119.533Z" fill="white"/>
<rect x="279" y="77" width="59" height="34" rx="10" fill="white"/>
<path d="M289.012 92H290.812L291.628 90.056H295.264L296.092 92H297.916L294.232 83.48H292.684L289.012 92ZM293.452 85.772L294.616 88.532H292.276L293.452 85.772ZM300.354 94.508L300.354 91.328C300.63 91.712 301.266 92.132 302.094 92.132C303.69 92.132 304.914 90.692 304.914 89C304.914 87.308 303.69 85.868 302.094 85.868C301.266 85.868 300.63 86.288 300.354 86.672L300.354 86H298.71L298.71 94.508H300.354ZM301.734 90.632C300.822 90.632 300.222 89.948 300.222 89C300.222 88.052 300.822 87.368 301.734 87.368C302.646 87.368 303.246 88.052 303.246 89C303.246 89.948 302.646 90.632 301.734 90.632ZM308.876 92.132C310.4 92.132 311.6 91.256 311.948 90.044H310.232C310.04 90.464 309.536 90.704 308.96 90.704C307.928 90.704 307.4 90.092 307.34 89.384H312.02C312.116 87.128 310.64 85.868 308.888 85.868C307.064 85.868 305.732 87.2 305.732 88.988C305.732 90.812 307.04 92.132 308.876 92.132ZM308.84 87.2C309.392 87.2 310.028 87.5 310.22 88.304H307.4C307.556 87.632 308.072 87.2 308.84 87.2ZM313.218 92H314.862L314.862 89.696H317.334L317.334 92H318.978L318.978 86H317.334L317.334 88.268H314.862L314.862 86H313.218L313.218 92ZM323.001 92.132C323.829 92.132 324.453 91.712 324.729 91.328L324.729 92H326.373L326.373 86H324.729L324.729 86.672C324.453 86.288 323.829 85.868 323.001 85.868C321.405 85.868 320.181 87.308 320.181 89C320.181 90.692 321.405 92.132 323.001 92.132ZM323.349 90.632C322.437 90.632 321.837 89.948 321.837 89C321.837 88.052 322.437 87.368 323.349 87.368C324.261 87.368 324.861 88.052 324.861 89C324.861 89.948 324.261 90.632 323.349 90.632ZM290.824 104H292.468L292.468 95.48H290.224L289.024 97.1H290.824L290.824 104ZM297.21 104.132C299.07 104.132 300.378 102.716 300.378 100.76L300.378 98.696C300.378 96.752 299.07 95.336 297.21 95.336C295.338 95.336 294.03 96.752 294.03 98.696L294.03 100.76C294.03 102.716 295.338 104.132 297.21 104.132ZM297.21 102.512C296.298 102.512 295.674 101.864 295.674 100.76L295.674 98.696C295.674 97.592 296.298 96.956 297.21 96.956C298.122 96.956 298.734 97.592 298.734 98.696L298.734 100.76C298.734 101.864 298.122 102.512 297.21 102.512ZM304.78 104.132C306.64 104.132 307.948 102.716 307.948 100.76L307.948 98.696C307.948 96.752 306.64 95.336 304.78 95.336C302.908 95.336 301.6 96.752 301.6 98.696L301.6 100.76C301.6 102.716 302.908 104.132 304.78 104.132ZM304.78 102.512C303.868 102.512 303.244 101.864 303.244 100.76L303.244 98.696C303.244 97.592 303.868 96.956 304.78 96.956C305.692 96.956 306.304 97.592 306.304 98.696L306.304 100.76C306.304 101.864 305.692 102.512 304.78 102.512ZM312.081 98L312.081 104H313.725L313.725 100.532L315.453 102.704L317.169 100.532L317.169 104H318.813L318.813 98H317.421L315.441 100.496L313.473 98H312.081ZM323.509 97.928H321.577C321.709 97.7 322.249 97.412 322.441 97.28C323.017 96.896 323.485 96.404 323.485 95.444C323.485 94.352 322.657 93.812 321.793 93.812C320.737 93.812 319.933 94.556 319.933 95.564H321.109C321.097 95.264 321.337 94.964 321.757 94.964C322.129 94.964 322.309 95.204 322.309 95.492C322.309 95.864 321.937 96.224 321.553 96.476C320.785 97.016 319.909 97.496 319.909 98.696L319.909 99.08H323.509L323.509 97.928Z" fill="black"/>
<path d="M145 204L145 226.533H174.797C175.686 221.839 174.115 212.45 160.714 212.45C153.598 212.45 145 206.668 145 204Z" fill="white"/>
<rect x="145" y="212.439" width="119" height="22" rx="10" fill="white"/>
<path d="M157.328 221.259C157.508 220.743 157.94 220.371 158.552 220.371C159.26 220.371 159.62 220.779 159.62 221.343C159.62 221.919 159.284 222.327 158.624 222.327H157.712L157.712 223.791H158.72C159.476 223.791 159.908 224.199 159.908 224.811C159.908 225.483 159.464 225.951 158.588 225.951C157.82 225.951 157.232 225.579 157.028 224.859H155.288C155.516 226.647 156.992 227.583 158.6 227.583C160.22 227.583 161.6 226.611 161.6 224.943C161.6 224.079 161.228 223.323 160.448 222.891C161.132 222.351 161.3 221.667 161.3 221.043C161.3 219.675 160.184 218.775 158.588 218.775C157.304 218.775 155.912 219.447 155.6 221.259H157.328ZM165.63 227.571C167.37 227.571 168.786 226.203 168.786 224.439C168.786 222.687 167.37 221.307 165.63 221.307C163.89 221.307 162.474 222.687 162.474 224.439C162.474 226.203 163.89 227.571 165.63 227.571ZM165.63 226.035C164.766 226.035 164.13 225.363 164.13 224.439C164.13 223.515 164.766 222.843 165.63 222.843C166.482 222.843 167.118 223.515 167.118 224.439C167.118 225.363 166.482 226.035 165.63 226.035ZM169.972 227.439H171.616L171.616 225.135H174.088L174.088 227.439H175.732L175.732 221.439H174.088L174.088 223.707H171.616L171.616 221.439H169.972L169.972 227.439ZM179.755 227.571C180.583 227.571 181.207 227.151 181.483 226.767L181.483 227.439H183.127L183.127 221.439H181.483L181.483 222.111C181.207 221.727 180.583 221.307 179.755 221.307C178.159 221.307 176.935 222.747 176.935 224.439C176.935 226.131 178.159 227.571 179.755 227.571ZM180.103 226.071C179.191 226.071 178.591 225.387 178.591 224.439C178.591 223.491 179.191 222.807 180.103 222.807C181.015 222.807 181.615 223.491 181.615 224.439C181.615 225.387 181.015 226.071 180.103 226.071ZM190.228 227.571C191.884 227.571 192.976 226.527 193.3 225.147H191.596C191.368 225.687 190.936 226.083 190.228 226.083C189.364 226.083 188.728 225.447 188.728 224.439C188.728 223.431 189.364 222.795 190.228 222.795C190.936 222.795 191.368 223.191 191.596 223.731H193.3C192.976 222.351 191.884 221.307 190.228 221.307C188.404 221.307 187.072 222.699 187.072 224.439C187.072 226.179 188.404 227.571 190.228 227.571ZM197.177 227.571C198.917 227.571 200.333 226.203 200.333 224.439C200.333 222.687 198.917 221.307 197.177 221.307C195.437 221.307 194.021 222.687 194.021 224.439C194.021 226.203 195.437 227.571 197.177 227.571ZM197.177 226.035C196.313 226.035 195.677 225.363 195.677 224.439C195.677 223.515 196.313 222.843 197.177 222.843C198.029 222.843 198.665 223.515 198.665 224.439C198.665 225.363 198.029 226.035 197.177 226.035ZM207.021 227.571C208.677 227.571 209.769 226.527 210.093 225.147H208.389C208.161 225.687 207.729 226.083 207.021 226.083C206.157 226.083 205.521 225.447 205.521 224.439C205.521 223.431 206.157 222.795 207.021 222.795C207.729 222.795 208.161 223.191 208.389 223.731H210.093C209.769 222.351 208.677 221.307 207.021 221.307C205.197 221.307 203.865 222.699 203.865 224.439C203.865 226.179 205.197 227.571 207.021 227.571ZM212.196 227.439H213.84L213.84 222.879H215.616L215.616 221.439H210.54L210.54 222.879H212.196L212.196 227.439ZM219.232 227.571C220.972 227.571 222.388 226.203 222.388 224.439C222.388 222.687 220.972 221.307 219.232 221.307C217.492 221.307 216.076 222.687 216.076 224.439C216.076 226.203 217.492 227.571 219.232 227.571ZM219.232 226.035C218.368 226.035 217.732 225.363 217.732 224.439C217.732 223.515 218.368 222.843 219.232 222.843C220.084 222.843 220.72 223.515 220.72 224.439C220.72 225.363 220.084 226.035 219.232 226.035ZM223.66 227.559C224.668 227.559 225.676 226.875 225.676 225.279L225.676 222.879H227.524L227.524 227.439H229.168L229.168 221.439H224.032L224.032 225.075C224.032 225.903 223.768 226.131 223.3 226.131C223.168 226.131 223.012 226.119 222.88 226.107L222.88 227.499C223.084 227.547 223.336 227.559 223.66 227.559ZM233.193 227.571C234.021 227.571 234.645 227.151 234.921 226.767L234.921 227.439H236.565L236.565 221.439H234.921L234.921 222.111C234.645 221.727 234.021 221.307 233.193 221.307C231.597 221.307 230.373 222.747 230.373 224.439C230.373 226.131 231.597 227.571 233.193 227.571ZM233.541 226.071C232.629 226.071 232.029 225.387 232.029 224.439C232.029 223.491 232.629 222.807 233.541 222.807C234.453 222.807 235.053 223.491 235.053 224.439C235.053 225.387 234.453 226.071 233.541 226.071ZM238.163 221.439L238.163 227.439H239.807L239.807 223.971L241.535 226.143L243.251 223.971L243.251 227.439H244.895L244.895 221.439H243.503L241.523 223.935L239.555 221.439H238.163ZM247.959 227.439L250.647 223.899L250.647 227.439H252.279L252.279 221.439H250.815L248.127 224.979L248.127 221.439H246.483L246.483 227.439H247.959Z" fill="black"/>
<path d="M94 184.533L94 162H64.2032C63.3138 166.694 64.8851 176.083 78.2863 176.083C85.402 176.083 94 181.865 94 184.533Z" fill="white"/>
<rect x="7" y="142" width="87" height="34" rx="10" fill="white"/>
<path d="M57.3944 150.82C57.5744 150.304 58.0064 149.932 58.6184 149.932C59.3264 149.932 59.6864 150.34 59.6864 150.904C59.6864 151.48 59.3504 151.888 58.6904 151.888H57.7784L57.7784 153.352H58.7864C59.5424 153.352 59.9744 153.76 59.9744 154.372C59.9744 155.044 59.5304 155.512 58.6544 155.512C57.8864 155.512 57.2984 155.14 57.0944 154.42H55.3544C55.5824 156.208 57.0584 157.144 58.6664 157.144C60.2864 157.144 61.6664 156.172 61.6664 154.504C61.6664 153.64 61.2944 152.884 60.5144 152.452C61.1984 151.912 61.3664 151.228 61.3664 150.604C61.3664 149.236 60.2504 148.336 58.6544 148.336C57.3704 148.336 55.9784 149.008 55.6664 150.82H57.3944ZM65.6965 157.132C67.4365 157.132 68.8525 155.764 68.8525 154C68.8525 152.248 67.4365 150.868 65.6965 150.868C63.9565 150.868 62.5405 152.248 62.5405 154C62.5405 155.764 63.9565 157.132 65.6965 157.132ZM65.6965 155.596C64.8325 155.596 64.1965 154.924 64.1965 154C64.1965 153.076 64.8325 152.404 65.6965 152.404C66.5485 152.404 67.1845 153.076 67.1845 154C67.1845 154.924 66.5485 155.596 65.6965 155.596ZM70.0381 157H71.6821L71.6821 154.696H74.1541L74.1541 157H75.7981L75.7981 151H74.1541L74.1541 153.268H71.6821L71.6821 151H70.0381L70.0381 157ZM79.8218 157.132C80.6498 157.132 81.2738 156.712 81.5498 156.328L81.5498 157H83.1938L83.1938 151H81.5498L81.5498 151.672C81.2738 151.288 80.6498 150.868 79.8218 150.868C78.2258 150.868 77.0017 152.308 77.0017 154C77.0017 155.692 78.2258 157.132 79.8218 157.132ZM80.1698 155.632C79.2578 155.632 78.6578 154.948 78.6578 154C78.6578 153.052 79.2578 152.368 80.1698 152.368C81.0818 152.368 81.6818 153.052 81.6818 154C81.6818 154.948 81.0818 155.632 80.1698 155.632ZM21.1421 169.132C22.7981 169.132 23.8901 168.088 24.2141 166.708H22.5101C22.2821 167.248 21.8501 167.644 21.1421 167.644C20.2781 167.644 19.6421 167.008 19.6421 166C19.6421 164.992 20.2781 164.356 21.1421 164.356C21.8501 164.356 22.2821 164.752 22.5101 165.292H24.2141C23.8901 163.912 22.7981 162.868 21.1421 162.868C19.3181 162.868 17.9861 164.26 17.9861 166C17.9861 167.74 19.3181 169.132 21.1421 169.132ZM28.0911 169.132C29.8311 169.132 31.2471 167.764 31.2471 166C31.2471 164.248 29.8311 162.868 28.0911 162.868C26.3511 162.868 24.9351 164.248 24.9351 166C24.9351 167.764 26.3511 169.132 28.0911 169.132ZM28.0911 167.596C27.2271 167.596 26.5911 166.924 26.5911 166C26.5911 165.076 27.2271 164.404 28.0911 164.404C28.9431 164.404 29.5791 165.076 29.5791 166C29.5791 166.924 28.9431 167.596 28.0911 167.596ZM37.9351 169.132C39.5911 169.132 40.6831 168.088 41.0071 166.708H39.3031C39.0751 167.248 38.6431 167.644 37.9351 167.644C37.0711 167.644 36.4351 167.008 36.4351 166C36.4351 164.992 37.0711 164.356 37.9351 164.356C38.6431 164.356 39.0751 164.752 39.3031 165.292H41.0071C40.6831 163.912 39.5911 162.868 37.9351 162.868C36.1111 162.868 34.7791 164.26 34.7791 166C34.7791 167.74 36.1111 169.132 37.9351 169.132ZM43.1103 169H44.7543L44.7543 164.44H46.5303L46.5303 163H41.4543L41.4543 164.44H43.1103L43.1103 169ZM50.1457 169.132C51.8857 169.132 53.3018 167.764 53.3018 166C53.3018 164.248 51.8858 162.868 50.1457 162.868C48.4057 162.868 46.9897 164.248 46.9897 166C46.9897 167.764 48.4057 169.132 50.1457 169.132ZM50.1457 167.596C49.2817 167.596 48.6457 166.924 48.6457 166C48.6457 165.076 49.2817 164.404 50.1457 164.404C50.9978 164.404 51.6338 165.076 51.6338 166C51.6338 166.924 50.9977 167.596 50.1457 167.596ZM54.5744 169.12C55.5824 169.12 56.5904 168.436 56.5904 166.84L56.5904 164.44H58.4384L58.4384 169H60.0824L60.0824 163H54.9464L54.9464 166.636C54.9464 167.464 54.6824 167.692 54.2144 167.692C54.0824 167.692 53.9264 167.68 53.7944 167.668L53.7944 169.06C53.9984 169.108 54.2504 169.12 54.5744 169.12ZM64.1069 169.132C64.9349 169.132 65.5589 168.712 65.8349 168.328L65.8349 169H67.4789L67.4789 163H65.8349L65.8349 163.672C65.5589 163.288 64.9349 162.868 64.1069 162.868C62.5109 162.868 61.2869 164.308 61.2869 166C61.2869 167.692 62.5109 169.132 64.1069 169.132ZM64.4549 167.632C63.5429 167.632 62.9429 166.948 62.9429 166C62.9429 165.052 63.5429 164.368 64.4549 164.368C65.3669 164.368 65.9669 165.052 65.9669 166C65.9669 166.948 65.3669 167.632 64.4549 167.632ZM69.0772 163L69.0772 169H70.7212L70.7212 165.532L72.4492 167.704L74.1652 165.532L74.1652 169H75.8092L75.8092 163H74.4172L72.4372 165.496L70.4692 163H69.0772ZM78.8735 169L81.5615 165.46L81.5615 169H83.1935L83.1935 163H81.7295L79.0415 166.54L79.0415 163H77.3975L77.3975 169H78.8735Z" fill="black"/>
<path d="M60 216.533L60 194H30.2032C29.3138 198.694 30.8851 208.083 44.2863 208.083C51.402 208.083 60 213.865 60 216.533Z" fill="white"/>
<rect x="5" y="186" width="55" height="22" rx="10" fill="white"/>
<path d="M15.948 201H25.788L25.788 192.48H24.048L24.048 199.344H21.744L21.744 192.48H19.992L19.992 199.344H17.7L17.7 192.48H15.948L15.948 201ZM31.3293 201H33.4413L30.5373 197.952L33.0333 195H31.0773L29.0493 197.448L29.0493 195H27.4053L27.4053 201H29.0493L29.0493 198.576L31.3293 201ZM36.1108 201.132C36.9388 201.132 37.5628 200.712 37.8388 200.328L37.8388 201H39.4828L39.4828 195H37.8388L37.8388 195.672C37.5628 195.288 36.9388 194.868 36.1108 194.868C34.5148 194.868 33.2908 196.308 33.2908 198C33.2908 199.692 34.5148 201.132 36.1108 201.132ZM36.4588 199.632C35.5468 199.632 34.9468 198.948 34.9468 198C34.9468 197.052 35.5468 196.368 36.4588 196.368C37.3708 196.368 37.9708 197.052 37.9708 198C37.9708 198.948 37.3708 199.632 36.4588 199.632ZM45.7011 203.508L45.7011 201.132H45.8211C47.9091 201.132 49.0491 199.656 49.0491 198C49.0491 196.344 47.9091 194.868 45.8211 194.868H45.7011L45.7011 192H44.0571L44.0571 194.868H43.9251C41.8371 194.868 40.6971 196.344 40.6971 198C40.6971 199.656 41.8371 201.132 43.9251 201.132H44.0571L44.0571 203.508H45.7011ZM45.8211 196.38C46.8051 196.38 47.3931 197.136 47.3931 198C47.3931 198.864 46.8171 199.62 45.8211 199.62H45.7011L45.7011 196.38H45.8211ZM44.0571 199.62H43.9251C42.9291 199.62 42.3531 198.864 42.3531 198C42.3531 197.136 42.9411 196.38 43.9251 196.38H44.0571L44.0571 199.62Z" fill="black"/>
<path d="M125 222.511L125 245.044H95.2032C94.3138 240.35 95.8851 230.961 109.286 230.961C116.402 230.961 125 225.18 125 222.511Z" fill="white"/>
<rect x="32" y="230.95" width="93" height="22" rx="10" fill="white"/>
<path d="M42.948 237.43L42.948 245.95H44.688L44.688 240.406L47.304 243.994L49.92 240.406L49.92 245.95H51.66L51.66 237.43H50.076L47.304 241.234L44.532 237.43H42.948ZM52.4149 245.95H54.2749L56.0269 244.054H56.6029L56.6029 245.95H58.2469L58.2469 239.95H55.5949C54.1789 239.95 53.3869 240.826 53.3869 241.966C53.3869 242.734 53.7949 243.334 54.4789 243.67L52.4149 245.95ZM55.6909 242.734C55.2709 242.734 54.9349 242.482 54.9349 242.038C54.9349 241.57 55.1869 241.282 55.6789 241.282H56.6029L56.6029 242.734H55.6909ZM59.8311 245.95H61.4751L61.4751 241.39H63.9711L63.9711 239.95H59.8311L59.8311 245.95ZM68.8879 245.95H70.9999L68.0959 242.902L70.5919 239.95H68.6359L66.6079 242.398L66.6079 239.95H64.9639L64.9639 245.95H66.6079L66.6079 243.526L68.8879 245.95ZM73.6694 246.082C74.4974 246.082 75.1214 245.662 75.3974 245.278L75.3974 245.95H77.0414L77.0414 239.95H75.3974L75.3974 240.622C75.1214 240.238 74.4974 239.818 73.6694 239.818C72.0734 239.818 70.8494 241.258 70.8494 242.95C70.8494 244.642 72.0734 246.082 73.6694 246.082ZM74.0174 244.582C73.1054 244.582 72.5054 243.898 72.5054 242.95C72.5054 242.002 73.1054 241.318 74.0174 241.318C74.9294 241.318 75.5294 242.002 75.5294 242.95C75.5294 243.898 74.9294 244.582 74.0174 244.582ZM77.7157 245.95H79.5757L81.3277 244.054H81.9037L81.9037 245.95H83.5477L83.5477 239.95H80.8957C79.4797 239.95 78.6877 240.826 78.6877 241.966C78.6877 242.734 79.0957 243.334 79.7797 243.67L77.7157 245.95ZM80.9917 242.734C80.5717 242.734 80.2357 242.482 80.2357 242.038C80.2357 241.57 80.4877 241.282 80.9797 241.282H81.9037L81.9037 242.734H80.9917ZM90.1303 246.082C91.8823 246.082 92.6983 245.098 92.6983 244.186C92.6983 243.55 92.4343 243.094 91.8943 242.794C92.3263 242.47 92.4583 242.014 92.4583 241.594C92.4583 240.814 91.7863 239.818 90.1423 239.818C88.9903 239.818 87.7903 240.31 87.5023 241.714H89.1463C89.2783 241.342 89.6023 241.102 90.0943 241.102C90.6343 241.102 90.8863 241.366 90.8863 241.714C90.8863 242.098 90.6103 242.302 90.1903 242.302H89.5183L89.5183 243.43H90.2503C90.7663 243.43 91.0423 243.67 91.0423 244.054C91.0423 244.474 90.7303 244.726 90.1183 244.738C89.5783 244.738 89.1823 244.498 89.0503 244.066H87.3583C87.6103 245.494 88.9063 246.082 90.1303 246.082ZM96.6692 246.082C98.4092 246.082 99.8252 244.714 99.8252 242.95C99.8252 241.198 98.4092 239.818 96.6692 239.818C94.9292 239.818 93.5132 241.198 93.5132 242.95C93.5132 244.714 94.9292 246.082 96.6692 246.082ZM96.6692 244.546C95.8052 244.546 95.1692 243.874 95.1692 242.95C95.1692 242.026 95.8052 241.354 96.6692 241.354C97.5212 241.354 98.1572 242.026 98.1572 242.95C98.1572 243.874 97.5212 244.546 96.6692 244.546ZM101.011 245.95H102.655L102.655 243.646H105.127L105.127 245.95H106.771L106.771 239.95H105.127L105.127 242.218H102.655L102.655 239.95H101.011L101.011 245.95ZM110.794 246.082C111.622 246.082 112.246 245.662 112.522 245.278L112.522 245.95H114.166L114.166 239.95H112.522L112.522 240.622C112.246 240.238 111.622 239.818 110.794 239.818C109.198 239.818 107.974 241.258 107.974 242.95C107.974 244.642 109.198 246.082 110.794 246.082ZM111.142 244.582C110.23 244.582 109.63 243.898 109.63 242.95C109.63 242.002 110.23 241.318 111.142 241.318C112.054 241.318 112.654 242.002 112.654 242.95C112.654 243.898 112.054 244.582 111.142 244.582Z" fill="black"/>
<path d="M215 130.511V153.044H244.797C245.686 148.35 244.115 138.961 230.714 138.961C223.598 138.961 215 133.18 215 130.511Z" fill="white"/>
<rect x="215" y="139" width="96" height="22" rx="10" fill="white"/>
<path d="M225.012 154H226.812L227.628 152.056H231.264L232.092 154H233.916L230.232 145.48H228.684L225.012 154ZM229.452 147.772L230.616 150.532H228.276L229.452 147.772ZM236.354 156.508V153.328C236.63 153.712 237.266 154.132 238.094 154.132C239.69 154.132 240.914 152.692 240.914 151C240.914 149.308 239.69 147.868 238.094 147.868C237.266 147.868 236.63 148.288 236.354 148.672V148H234.71V156.508H236.354ZM237.734 152.632C236.822 152.632 236.222 151.948 236.222 151C236.222 150.052 236.822 149.368 237.734 149.368C238.646 149.368 239.246 150.052 239.246 151C239.246 151.948 238.646 152.632 237.734 152.632ZM244.876 154.132C246.4 154.132 247.6 153.256 247.948 152.044H246.232C246.04 152.464 245.536 152.704 244.96 152.704C243.928 152.704 243.4 152.092 243.34 151.384H248.02C248.116 149.128 246.64 147.868 244.888 147.868C243.064 147.868 241.732 149.2 241.732 150.988C241.732 152.812 243.04 154.132 244.876 154.132ZM244.84 149.2C245.392 149.2 246.028 149.5 246.22 150.304H243.4C243.556 149.632 244.072 149.2 244.84 149.2ZM249.218 154H250.862V151.696H253.334V154H254.978V148H253.334V150.268H250.862V148H249.218V154ZM259.001 154.132C259.829 154.132 260.453 153.712 260.729 153.328V154H262.373V148H260.729V148.672C260.453 148.288 259.829 147.868 259.001 147.868C257.405 147.868 256.181 149.308 256.181 151C256.181 152.692 257.405 154.132 259.001 154.132ZM259.349 152.632C258.437 152.632 257.837 151.948 257.837 151C257.837 150.052 258.437 149.368 259.349 149.368C260.261 149.368 260.861 150.052 260.861 151C260.861 151.948 260.261 152.632 259.349 152.632ZM267.734 154H269.378V145.48H267.134L265.934 147.1H267.734V154ZM274.12 154.132C275.98 154.132 277.288 152.716 277.288 150.76V148.696C277.288 146.752 275.98 145.336 274.12 145.336C272.248 145.336 270.94 146.752 270.94 148.696V150.76C270.94 152.716 272.248 154.132 274.12 154.132ZM274.12 152.512C273.208 152.512 272.584 151.864 272.584 150.76V148.696C272.584 147.592 273.208 146.956 274.12 146.956C275.032 146.956 275.644 147.592 275.644 148.696V150.76C275.644 151.864 275.032 152.512 274.12 152.512ZM281.69 154.132C283.55 154.132 284.858 152.716 284.858 150.76V148.696C284.858 146.752 283.55 145.336 281.69 145.336C279.818 145.336 278.51 146.752 278.51 148.696V150.76C278.51 152.716 279.818 154.132 281.69 154.132ZM281.69 152.512C280.778 152.512 280.154 151.864 280.154 150.76V148.696C280.154 147.592 280.778 146.956 281.69 146.956C282.602 146.956 283.214 147.592 283.214 148.696V150.76C283.214 151.864 282.602 152.512 281.69 152.512ZM288.991 148V154H290.635V150.532L292.363 152.704L294.079 150.532V154H295.723V148H294.331L292.351 150.496L290.383 148H288.991ZM300.42 147.928H298.488C298.62 147.7 299.16 147.412 299.352 147.28C299.928 146.896 300.396 146.404 300.396 145.444C300.396 144.352 299.568 143.812 298.704 143.812C297.648 143.812 296.844 144.556 296.844 145.564H298.02C298.008 145.264 298.248 144.964 298.668 144.964C299.04 144.964 299.22 145.204 299.22 145.492C299.22 145.864 298.848 146.224 298.464 146.476C297.696 147.016 296.82 147.496 296.82 148.696V149.08H300.42V147.928Z" fill="black"/>
<path d="M112 130.533V108H141.797C142.686 112.694 141.115 122.083 127.714 122.083C120.598 122.083 112 127.865 112 130.533Z" fill="white"/>
<rect x="112" y="100" width="67" height="22" rx="10" fill="white"/>
<path d="M125.552 115H127.1L130.628 106.48H128.708L126.332 112.396L123.92 106.48H122.036L125.552 115ZM131.596 115H133.336V111.412H133.756L136.684 115H138.784L135.724 111.22C136.864 110.872 137.476 110.152 137.476 109C137.476 107.584 136.444 106.48 134.86 106.48H131.596V115ZM133.336 109.924V108.076H134.656C135.316 108.076 135.748 108.412 135.748 109C135.748 109.576 135.316 109.924 134.656 109.924H133.336ZM140.657 115H142.457L143.273 113.056H146.909L147.737 115H149.561L145.877 106.48H144.329L140.657 115ZM145.097 108.772L146.261 111.532H143.921L145.097 108.772ZM152.351 115.132C153.119 115.132 153.671 114.796 153.995 114.316V115H155.639V109H153.995V111.928C153.995 113.092 153.491 113.632 152.759 113.632C152.039 113.632 151.739 113.116 151.739 112.204V109H150.095V112.48C150.095 114.064 150.911 115.132 152.351 115.132ZM160.126 115.072C160.594 115.072 160.894 115.024 161.17 114.94V113.488C160.978 113.56 160.75 113.596 160.498 113.596C159.778 113.596 159.478 113.308 159.478 112.576V110.44H161.17V109H159.478V107.332H157.834V109H156.622V110.44H157.834V112.9C157.834 114.376 158.854 115.072 160.126 115.072ZM165.021 115.132C166.761 115.132 168.177 113.764 168.177 112C168.177 110.248 166.761 108.868 165.021 108.868C163.281 108.868 161.865 110.248 161.865 112C161.865 113.764 163.281 115.132 165.021 115.132ZM165.021 113.596C164.157 113.596 163.521 112.924 163.521 112C163.521 111.076 164.157 110.404 165.021 110.404C165.873 110.404 166.509 111.076 166.509 112C166.509 112.924 165.873 113.596 165.021 113.596Z" fill="black"/>
<path d="M100 142.533V120H70.2032C69.3138 124.694 70.8851 134.083 84.2863 134.083C91.402 134.083 100 139.865 100 142.533Z" fill="white"/>
<rect y="100" width="100" height="34" rx="10" fill="white"/>
<path d="M11.448 115H15.048C16.56 115 17.688 113.908 17.688 112.492C17.688 111.532 17.184 110.848 16.428 110.476C16.848 110.104 17.1 109.612 17.1 108.952C17.1 107.608 16.008 106.48 14.568 106.48H11.448V115ZM13.188 113.404V111.448H14.928C15.588 111.448 15.996 111.868 15.996 112.432C15.996 112.996 15.588 113.404 14.928 113.404H13.188ZM13.188 109.972V108.064H14.4C15.012 108.064 15.408 108.508 15.408 109.024C15.408 109.552 15.012 109.972 14.4 109.972H13.188ZM21.6575 115.132C23.1815 115.132 24.3815 114.256 24.7295 113.044H23.0135C22.8215 113.464 22.3175 113.704 21.7415 113.704C20.7095 113.704 20.1815 113.092 20.1215 112.384H24.8015C24.8975 110.128 23.4215 108.868 21.6695 108.868C19.8455 108.868 18.5135 110.2 18.5135 111.988C18.5135 113.812 19.8215 115.132 21.6575 115.132ZM21.6215 110.2C22.1735 110.2 22.8095 110.5 23.0015 111.304H20.1815C20.3375 110.632 20.8535 110.2 21.6215 110.2ZM25.999 115H27.643V112.696H30.115V115H31.759V109H30.115V111.268H27.643V109H25.999V115ZM32.9027 113.56V116.476H34.3787V115H38.5547V116.476H40.0307V113.56H39.0587V109H33.8987V112.012C33.8987 113.176 33.5507 113.56 33.0587 113.56H32.9027ZM35.5427 110.44H37.4147V113.56H35.2427C35.4347 113.224 35.5427 112.864 35.5427 112.108V110.44ZM42.6625 115L45.3505 111.46V115H46.9825V109H45.5185L42.8305 112.54V109H41.1865V115H42.6625ZM48.5811 115H50.2251V112.696H52.6971V115H54.3411V109H52.6971V111.268H50.2251V109H48.5811V115ZM55.9287 115H57.5727V110.44H60.0687V109H55.9287V115ZM63.6575 115.132C65.3975 115.132 66.8135 113.764 66.8135 112C66.8135 110.248 65.3975 108.868 63.6575 108.868C61.9175 108.868 60.5015 110.248 60.5015 112C60.5015 113.764 61.9175 115.132 63.6575 115.132ZM63.6575 113.596C62.7935 113.596 62.1575 112.924 62.1575 112C62.1575 111.076 62.7935 110.404 63.6575 110.404C64.5095 110.404 65.1455 111.076 65.1455 112C65.1455 112.924 64.5095 113.596 63.6575 113.596ZM67.999 115H71.287C72.883 115 73.483 114.064 73.483 113.176C73.483 112.612 73.183 112.108 72.703 111.808C72.967 111.508 73.099 111.172 73.099 110.8C73.099 109.9 72.427 109 70.867 109H67.999V115ZM69.643 113.656V112.468H71.203C71.575 112.468 71.851 112.672 71.851 113.056C71.851 113.452 71.575 113.656 71.203 113.656H69.643ZM69.643 111.364V110.26H70.867C71.143 110.26 71.467 110.392 71.467 110.812C71.467 111.232 71.143 111.364 70.867 111.364H69.643ZM80.451 115H82.095V109H80.451V115ZM74.667 115H77.439C79.035 115 79.647 113.764 79.647 112.864C79.647 111.964 79.035 110.788 77.439 110.788H76.311V109H74.667V115ZM76.311 112.192H77.247C77.787 112.192 78.099 112.408 78.099 112.876C78.099 113.344 77.787 113.596 77.247 113.596H76.311V112.192ZM86.4504 115.132C87.9744 115.132 89.1744 114.256 89.5224 113.044H87.8064C87.6144 113.464 87.1104 113.704 86.5344 113.704C85.5024 113.704 84.9744 113.092 84.9144 112.384H89.5944C89.6904 110.128 88.2144 108.868 86.4624 108.868C84.6384 108.868 83.3064 110.2 83.3064 111.988C83.3064 113.812 84.6144 115.132 86.4504 115.132ZM86.4144 110.2C86.9664 110.2 87.6024 110.5 87.7944 111.304H84.9744C85.1304 110.632 85.6464 110.2 86.4144 110.2ZM36.5678 127.132C37.3958 127.132 38.0198 126.712 38.2958 126.328V127H39.9398V121H38.2958V121.672C38.0198 121.288 37.3958 120.868 36.5678 120.868C34.9718 120.868 33.7478 122.308 33.7478 124C33.7478 125.692 34.9718 127.132 36.5678 127.132ZM36.9158 125.632C36.0038 125.632 35.4038 124.948 35.4038 124C35.4038 123.052 36.0038 122.368 36.9158 122.368C37.8278 122.368 38.4278 123.052 38.4278 124C38.4278 124.948 37.8278 125.632 36.9158 125.632ZM41.5381 127H44.8261C46.4221 127 47.0221 126.064 47.0221 125.176C47.0221 124.612 46.7221 124.108 46.2421 123.808C46.5061 123.508 46.6381 123.172 46.6381 122.8C46.6381 121.9 45.9661 121 44.4061 121H41.5381V127ZM43.1821 125.656V124.468H44.7421C45.1141 124.468 45.3901 124.672 45.3901 125.056C45.3901 125.452 45.1141 125.656 44.7421 125.656H43.1821ZM43.1821 123.364V122.26H44.4061C44.6821 122.26 45.0061 122.392 45.0061 122.812C45.0061 123.232 44.6821 123.364 44.4061 123.364H43.1821ZM49.1572 127H50.8012V122.44H52.5772V121H47.5012V122.44H49.1572V127ZM56.1926 127.132C57.9326 127.132 59.3486 125.764 59.3486 124C59.3486 122.248 57.9326 120.868 56.1926 120.868C54.4526 120.868 53.0366 122.248 53.0366 124C53.0366 125.764 54.4526 127.132 56.1926 127.132ZM56.1926 125.596C55.3286 125.596 54.6926 124.924 54.6926 124C54.6926 123.076 55.3286 122.404 56.1926 122.404C57.0446 122.404 57.6806 123.076 57.6806 124C57.6806 124.924 57.0446 125.596 56.1926 125.596ZM60.5342 121V127H62.1782V123.532L63.9062 125.704L65.6222 123.532V127H67.2662V121H65.8742L63.8942 123.496L61.9262 121H60.5342ZM71.2905 127.132C72.1185 127.132 72.7425 126.712 73.0185 126.328V127H74.6625V121H73.0185V121.672C72.7425 121.288 72.1185 120.868 71.2905 120.868C69.6945 120.868 68.4705 122.308 68.4705 124C68.4705 125.692 69.6945 127.132 71.2905 127.132ZM71.6385 125.632C70.7265 125.632 70.1265 124.948 70.1265 124C70.1265 123.052 70.7265 122.368 71.6385 122.368C72.5505 122.368 73.1505 123.052 73.1505 124C73.1505 124.948 72.5505 125.632 71.6385 125.632ZM77.3408 127H78.9848V122.44H80.7608V121H75.6848V122.44H77.3408V127ZM87.5526 127H89.1966V121H87.5526V127ZM81.7686 127H84.5406C86.1366 127 86.7486 125.764 86.7486 124.864C86.7486 123.964 86.1366 122.788 84.5406 122.788H83.4126V121H81.7686V127ZM83.4126 124.192H84.3486C84.8886 124.192 85.2006 124.408 85.2006 124.876C85.2006 125.344 84.8886 125.596 84.3486 125.596H83.4126V124.192Z" fill="black"/>
<path d="M178 90.5329V68H148.203C147.314 72.6944 148.885 82.0831 162.286 82.0831C169.402 82.0831 178 87.8645 178 90.5329Z" fill="white"/>
<rect x="111" y="60" width="67" height="22" rx="10" fill="white"/>
<path d="M124.552 75H126.1L129.628 66.48H127.708L125.332 72.396L122.92 66.48H121.036L124.552 75ZM130.596 75H132.336V71.412H132.756L135.684 75H137.784L134.724 71.22C135.864 70.872 136.476 70.152 136.476 69C136.476 67.584 135.444 66.48 133.86 66.48H130.596V75ZM132.336 69.924V68.076H133.656C134.316 68.076 134.748 68.412 134.748 69C134.748 69.576 134.316 69.924 133.656 69.924H132.336ZM139.657 75H141.457L142.273 73.056H145.909L146.737 75H148.561L144.877 66.48H143.329L139.657 75ZM144.097 68.772L145.261 71.532H142.921L144.097 68.772ZM151.351 75.132C152.119 75.132 152.671 74.796 152.995 74.316V75H154.639V69H152.995V71.928C152.995 73.092 152.491 73.632 151.759 73.632C151.039 73.632 150.739 73.116 150.739 72.204V69H149.095V72.48C149.095 74.064 149.911 75.132 151.351 75.132ZM159.126 75.072C159.594 75.072 159.894 75.024 160.17 74.94V73.488C159.978 73.56 159.75 73.596 159.498 73.596C158.778 73.596 158.478 73.308 158.478 72.576V70.44H160.17V69H158.478V67.332H156.834V69H155.622V70.44H156.834V72.9C156.834 74.376 157.854 75.072 159.126 75.072ZM164.021 75.132C165.761 75.132 167.177 73.764 167.177 72C167.177 70.248 165.761 68.868 164.021 68.868C162.281 68.868 160.865 70.248 160.865 72C160.865 73.764 162.281 75.132 164.021 75.132ZM164.021 73.596C163.157 73.596 162.521 72.924 162.521 72C162.521 71.076 163.157 70.404 164.021 70.404C164.873 70.404 165.509 71.076 165.509 72C165.509 72.924 164.873 73.596 164.021 73.596Z" fill="black"/>
<path d="M183 168.5V191H212.797C213.686 186.312 212.115 176.938 198.714 176.938C191.598 176.938 183 171.164 183 168.5Z" fill="white"/>
<rect x="183" y="177" width="74" height="22" rx="10" fill="white"/>
<path d="M199.372 192H201.628L197.392 187.572L200.896 183.48H198.748L195.676 187.092V183.48H193.948V192H195.676V188.136L199.372 192ZM207.211 186H205.399L203.851 189.756L202.195 186H200.395L202.915 191.664L202.615 192.36C202.327 192.984 201.979 193.188 201.559 193.188C201.283 193.188 201.151 193.176 200.971 193.164V194.568C201.199 194.604 201.439 194.616 201.775 194.616C202.939 194.616 203.659 194.04 204.223 192.756L207.211 186ZM210.923 192.132C212.699 192.132 214.067 190.752 214.067 188.988C214.067 187.428 213.023 186.144 211.235 186.144C210.611 186.144 209.987 186.324 209.507 186.792C209.663 185.604 210.431 185.076 211.775 184.824L213.515 184.512V182.952L211.415 183.336C209.111 183.756 207.803 184.956 207.803 188.1V188.448C207.803 190.704 208.871 192.132 210.923 192.132ZM210.911 190.596C210.059 190.596 209.435 190.044 209.435 189.036C209.435 188.256 210.023 187.572 210.923 187.572C211.811 187.572 212.411 188.244 212.411 189.036C212.411 190.044 211.775 190.596 210.911 190.596ZM223.523 190.38H219.995C220.211 189.84 221.123 189.336 221.651 188.964C222.731 188.172 223.451 187.428 223.451 185.964C223.451 184.236 222.143 183.336 220.715 183.336C219.023 183.336 217.739 184.476 217.739 186.156H219.395C219.383 185.472 219.923 184.956 220.679 184.956C221.411 184.956 221.807 185.436 221.807 186.06C221.807 186.744 221.207 187.296 220.463 187.812C219.215 188.712 217.715 189.528 217.715 191.436V192H223.523V190.38ZM227.51 192.132C229.286 192.132 230.486 191.028 230.486 189.324C230.486 187.596 229.454 186.384 227.834 186.384C227.354 186.384 226.946 186.492 226.658 186.672L226.982 185.076H229.862V183.48H225.71L224.75 188.316L226.202 188.76C226.394 188.244 226.862 187.872 227.534 187.872C228.302 187.872 228.842 188.436 228.842 189.192C228.842 189.924 228.362 190.512 227.51 190.512C226.85 190.512 226.322 190.092 226.178 189.528H224.474C224.534 191.052 225.95 192.132 227.51 192.132ZM234.491 186V192H236.135V188.532L237.863 190.704L239.579 188.532V192H241.223V186H239.831L237.851 188.496L235.883 186H234.491ZM245.92 185.928H243.988C244.12 185.7 244.66 185.412 244.852 185.28C245.428 184.896 245.896 184.404 245.896 183.444C245.896 182.352 245.068 181.812 244.204 181.812C243.148 181.812 242.344 182.556 242.344 183.564H243.52C243.508 183.264 243.748 182.964 244.168 182.964C244.54 182.964 244.72 183.204 244.72 183.492C244.72 183.864 244.348 184.224 243.964 184.476C243.196 185.016 242.32 185.496 242.32 186.696V187.08H245.92V185.928Z" fill="black"/>
</g>
<defs>
<filter id="filter0_d_1058_4434" x="120.502" y="108.488" width="25.5166" height="18.1133" filterUnits="userSpaceOnUse" color-interpolation-filters="sRGB">
<feFlood flood-opacity="0" result="BackgroundImageFix"/>
<feColorMatrix in="SourceAlpha" type="matrix" values="0 0 0 0 0 0 0 0 0 0 0 0 0 0 0 0 0 0 127 0" result="hardAlpha"/>
<feOffset/>
<feGaussianBlur stdDeviation="2"/>
<feComposite in2="hardAlpha" operator="out"/>
<feColorMatrix type="matrix" values="0 0 0 0 0 0 0 0 0 0 0 0 0 0 0 0 0 0 0.25 0"/>
<feBlend mode="normal" in2="BackgroundImageFix" result="effect1_dropShadow_1058_4434"/>
<feBlend mode="normal" in="SourceGraphic" in2="effect1_dropShadow_1058_4434" result="shape"/>
</filter>
<filter id="filter1_d_1058_4434" x="122.869" y="109.772" width="22.1992" height="16.198" filterUnits="userSpaceOnUse" color-interpolation-filters="sRGB">
<feFlood flood-opacity="0" result="BackgroundImageFix"/>
<feColorMatrix in="SourceAlpha" type="matrix" values="0 0 0 0 0 0 0 0 0 0 0 0 0 0 0 0 0 0 127 0" result="hardAlpha"/>
<feOffset/>
<feGaussianBlur stdDeviation="2"/>
<feComposite in2="hardAlpha" operator="out"/>
<feColorMatrix type="matrix" values="0 0 0 0 0 0 0 0 0 0 0 0 0 0 0 0 0 0 0.25 0"/>
<feBlend mode="normal" in2="BackgroundImageFix" result="effect1_dropShadow_1058_4434"/>
<feBlend mode="normal" in="SourceGraphic" in2="effect1_dropShadow_1058_4434" result="shape"/>
</filter>
<filter id="filter2_d_1058_4434" x="137.002" y="98.9617" width="25.5166" height="18.1133" filterUnits="userSpaceOnUse" color-interpolation-filters="sRGB">
<feFlood flood-opacity="0" result="BackgroundImageFix"/>
<feColorMatrix in="SourceAlpha" type="matrix" values="0 0 0 0 0 0 0 0 0 0 0 0 0 0 0 0 0 0 127 0" result="hardAlpha"/>
<feOffset/>
<feGaussianBlur stdDeviation="2"/>
<feComposite in2="hardAlpha" operator="out"/>
<feColorMatrix type="matrix" values="0 0 0 0 0 0 0 0 0 0 0 0 0 0 0 0 0 0 0.25 0"/>
<feBlend mode="normal" in2="BackgroundImageFix" result="effect1_dropShadow_1058_4434"/>
<feBlend mode="normal" in="SourceGraphic" in2="effect1_dropShadow_1058_4434" result="shape"/>
</filter>
<filter id="filter3_d_1058_4434" x="139.369" y="100.245" width="22.1992" height="16.198" filterUnits="userSpaceOnUse" color-interpolation-filters="sRGB">
<feFlood flood-opacity="0" result="BackgroundImageFix"/>
<feColorMatrix in="SourceAlpha" type="matrix" values="0 0 0 0 0 0 0 0 0 0 0 0 0 0 0 0 0 0 127 0" result="hardAlpha"/>
<feOffset/>
<feGaussianBlur stdDeviation="2"/>
<feComposite in2="hardAlpha" operator="out"/>
<feColorMatrix type="matrix" values="0 0 0 0 0 0 0 0 0 0 0 0 0 0 0 0 0 0 0.25 0"/>
<feBlend mode="normal" in2="BackgroundImageFix" result="effect1_dropShadow_1058_4434"/>
<feBlend mode="normal" in="SourceGraphic" in2="effect1_dropShadow_1058_4434" result="shape"/>
</filter>
<filter id="filter4_d_1058_4434" x="108.927" y="199.392" width="32.6621" height="26.3623" filterUnits="userSpaceOnUse" color-interpolation-filters="sRGB">
<feFlood flood-opacity="0" result="BackgroundImageFix"/>
<feColorMatrix in="SourceAlpha" type="matrix" values="0 0 0 0 0 0 0 0 0 0 0 0 0 0 0 0 0 0 127 0" result="hardAlpha"/>
<feOffset/>
<feGaussianBlur stdDeviation="2"/>
<feComposite in2="hardAlpha" operator="out"/>
<feColorMatrix type="matrix" values="0 0 0 0 0 0 0 0 0 0 0 0 0 0 0 0 0 0 0.25 0"/>
<feBlend mode="normal" in2="BackgroundImageFix" result="effect1_dropShadow_1058_4434"/>
<feBlend mode="normal" in="SourceGraphic" in2="effect1_dropShadow_1058_4434" result="shape"/>
</filter>
<filter id="filter5_d_1058_4434" x="110.957" y="201.56" width="17.0276" height="13.2122" filterUnits="userSpaceOnUse" color-interpolation-filters="sRGB">
<feFlood flood-opacity="0" result="BackgroundImageFix"/>
<feColorMatrix in="SourceAlpha" type="matrix" values="0 0 0 0 0 0 0 0 0 0 0 0 0 0 0 0 0 0 127 0" result="hardAlpha"/>
<feOffset/>
<feGaussianBlur stdDeviation="2"/>
<feComposite in2="hardAlpha" operator="out"/>
<feColorMatrix type="matrix" values="0 0 0 0 0 0 0 0 0 0 0 0 0 0 0 0 0 0 0.25 0"/>
<feBlend mode="normal" in2="BackgroundImageFix" result="effect1_dropShadow_1058_4434"/>
<feBlend mode="normal" in="SourceGraphic" in2="effect1_dropShadow_1058_4434" result="shape"/>
</filter>
<filter id="filter6_d_1058_4434" x="116.621" y="204.83" width="16.5349" height="12.9277" filterUnits="userSpaceOnUse" color-interpolation-filters="sRGB">
<feFlood flood-opacity="0" result="BackgroundImageFix"/>
<feColorMatrix in="SourceAlpha" type="matrix" values="0 0 0 0 0 0 0 0 0 0 0 0 0 0 0 0 0 0 127 0" result="hardAlpha"/>
<feOffset/>
<feGaussianBlur stdDeviation="2"/>
<feComposite in2="hardAlpha" operator="out"/>
<feColorMatrix type="matrix" values="0 0 0 0 0 0 0 0 0 0 0 0 0 0 0 0 0 0 0.25 0"/>
<feBlend mode="normal" in2="BackgroundImageFix" result="effect1_dropShadow_1058_4434"/>
<feBlend mode="normal" in="SourceGraphic" in2="effect1_dropShadow_1058_4434" result="shape"/>
</filter>
<filter id="filter7_d_1058_4434" x="121.793" y="207.816" width="17.0276" height="13.2122" filterUnits="userSpaceOnUse" color-interpolation-filters="sRGB">
<feFlood flood-opacity="0" result="BackgroundImageFix"/>
<feColorMatrix in="SourceAlpha" type="matrix" values="0 0 0 0 0 0 0 0 0 0 0 0 0 0 0 0 0 0 127 0" result="hardAlpha"/>
<feOffset/>
<feGaussianBlur stdDeviation="2"/>
<feComposite in2="hardAlpha" operator="out"/>
<feColorMatrix type="matrix" values="0 0 0 0 0 0 0 0 0 0 0 0 0 0 0 0 0 0 0.25 0"/>
<feBlend mode="normal" in2="BackgroundImageFix" result="effect1_dropShadow_1058_4434"/>
<feBlend mode="normal" in="SourceGraphic" in2="effect1_dropShadow_1058_4434" result="shape"/>
</filter>
<filter id="filter8_d_1058_4434" x="116.129" y="210.659" width="17.7664" height="13.6387" filterUnits="userSpaceOnUse" color-interpolation-filters="sRGB">
<feFlood flood-opacity="0" result="BackgroundImageFix"/>
<feColorMatrix in="SourceAlpha" type="matrix" values="0 0 0 0 0 0 0 0 0 0 0 0 0 0 0 0 0 0 127 0" result="hardAlpha"/>
<feOffset/>
<feGaussianBlur stdDeviation="2"/>
<feComposite in2="hardAlpha" operator="out"/>
<feColorMatrix type="matrix" values="0 0 0 0 0 0 0 0 0 0 0 0 0 0 0 0 0 0 0.25 0"/>
<feBlend mode="normal" in2="BackgroundImageFix" result="effect1_dropShadow_1058_4434"/>
<feBlend mode="normal" in="SourceGraphic" in2="effect1_dropShadow_1058_4434" result="shape"/>
</filter>
<clipPath id="clip0_1058_4434">
<rect width="349" height="253" fill="white"/>
</clipPath>
</defs>
</svg>
