<svg width="1488" height="1116" viewBox="0 0 1488 1116" fill="none" xmlns="http://www.w3.org/2000/svg">
<circle cx="357" cy="-24" r="1131" fill="#CE2127"/>
<path opacity="0.15" fill-rule="evenodd" clip-rule="evenodd" d="M482.867 -1021.83L395.8 -971.125L310.308 -1024.6L398.883 -1175L482.867 -1021.83ZM392.542 -761.054C383.904 -745.452 374.765 -728.848 365.181 -711.32C294.985 -582.929 201.209 -405.309 106.735 -208.181C12.1472 -10.8149 -82.4648 204.707 -154.819 409.138C-227.823 615.407 -275.344 802.696 -281.165 946L-481 937.38C-473.872 761.882 -417.809 550.667 -342.72 338.508C-266.981 124.511 -168.991 -98.321 -72.5951 -299.458C23.9144 -500.833 119.504 -681.866 190.927 -812.502C226.661 -877.861 256.4 -930.704 277.252 -967.286C287.68 -985.58 295.888 -999.813 301.517 -1009.52C304.332 -1014.37 306.502 -1018.1 307.982 -1020.63C308.722 -1021.89 309.29 -1022.86 309.679 -1023.53C309.874 -1023.86 310.024 -1024.11 310.129 -1024.29L310.289 -1024.56C310.3 -1024.58 310.308 -1024.6 395.8 -971.125C482.867 -1021.83 482.875 -1021.81 482.886 -1021.79L483.457 -1020.75C483.822 -1020.08 484.351 -1019.11 485.042 -1017.84C486.422 -1015.3 488.444 -1011.57 491.064 -1006.72C496.305 -996.997 503.943 -982.751 513.634 -964.445C533.014 -927.837 560.623 -874.964 593.718 -809.573C659.867 -678.875 748.147 -497.753 836.525 -296.272C924.795 -95.0337 1013.8 127.963 1080.91 342.156C1147.46 554.54 1195 766.027 1195 941.69H994.99C994.99 798.55 955.135 611.534 890.578 405.49C826.589 201.255 740.798 -14.1023 654.271 -211.368C567.849 -408.389 481.331 -585.92 416.381 -714.25C408.062 -730.686 400.101 -746.309 392.542 -761.054Z" fill="#EEEEEE"/>
<path opacity="0.15" fill-rule="evenodd" clip-rule="evenodd" d="M231.095 967.195L318.158 918L403.646 969.883L315.076 1115.82L231.095 967.195ZM321.416 714.169C330.053 699.03 339.193 682.919 348.776 665.912C418.968 541.334 512.739 368.99 607.208 177.717C701.791 -13.7867 796.398 -222.907 868.748 -421.266C941.749 -621.408 989.267 -803.134 995.087 -942.182L1194.91 -933.818C1187.79 -763.532 1131.73 -558.592 1056.64 -352.734C980.905 -145.093 882.919 71.1201 786.529 266.283C690.024 461.677 594.44 637.333 523.02 764.089C487.289 827.506 457.551 878.779 436.7 914.275C426.273 932.025 418.065 945.836 412.436 955.254C409.622 959.963 407.452 963.575 405.972 966.032C405.232 967.26 404.664 968.2 404.275 968.844C404.08 969.166 403.929 969.415 403.824 969.588L403.665 969.852C403.654 969.87 403.646 969.883 318.158 918C231.095 967.195 231.088 967.181 231.077 967.162L230.505 966.148C230.141 965.501 229.612 964.559 228.921 963.327C227.541 960.865 225.519 957.248 222.899 952.533C217.658 943.104 210.021 929.281 200.331 911.518C180.951 875.997 153.344 824.695 120.25 761.246C54.1051 634.431 -34.1705 458.688 -122.543 263.191C-210.809 67.9305 -299.813 -148.442 -366.919 -356.273C-433.458 -562.349 -481 -767.555 -481 -938H-281C-281 -799.112 -241.147 -617.651 -176.594 -417.727C-112.608 -219.558 -26.8221 -10.597 59.7013 180.809C146.118 371.978 232.632 544.236 297.578 668.754C305.897 684.702 313.858 699.861 321.416 714.169Z" fill="#EEEEEE"/>
</svg>
