<svg width="26" height="26" viewBox="0 0 26 26" fill="none" xmlns="http://www.w3.org/2000/svg">
<path d="M22.2141 22.183C24.639 19.7419 26 16.4408 26 12.9999C26 9.55916 24.639 6.25798 22.2141 3.81691V3.78589H22.183C19.742 1.36095 16.4408 0 13 0C9.55916 0 6.25805 1.36095 3.81697 3.78589H3.78595V3.81691C1.36101 6.25798 0 9.55916 0 12.9999C0 16.4408 1.36101 19.7419 3.78595 22.183V22.214H3.81697C6.25805 24.639 9.55916 25.9999 13 25.9999C16.4408 25.9999 19.742 24.639 22.183 22.214H22.2141V22.183ZM19.999 19.1426C19.8803 19.041 19.7276 18.9879 19.5714 18.9939C19.4153 18.9999 19.2671 19.0647 19.1566 19.1752C19.0461 19.2857 18.9814 19.4338 18.9754 19.59C18.9693 19.7462 19.0225 19.8988 19.1241 20.0175L20.8552 21.7486C18.8589 23.5659 16.2973 24.6397 13.6019 24.789V22.3071C13.6019 22.1425 13.5365 21.9847 13.4201 21.8683C13.3038 21.752 13.1459 21.6866 12.9814 21.6866C12.8168 21.6866 12.659 21.752 12.5427 21.8683C12.4263 21.9847 12.3609 22.1425 12.3609 22.3071V24.789C9.66545 24.6397 7.10388 23.5659 5.10756 21.7486L6.83869 20.0175C6.94032 19.8988 6.99343 19.7462 6.98742 19.59C6.9814 19.4338 6.91668 19.2857 6.80617 19.1752C6.69567 19.0647 6.5475 18.9999 6.39139 18.9939C6.23521 18.9879 6.08251 19.041 5.96382 19.1426L4.23269 20.8738C2.42668 18.8731 1.36411 16.312 1.22339 13.6204H3.67427C3.83882 13.6204 3.99666 13.5551 4.113 13.4387C4.22934 13.3223 4.29474 13.1645 4.29474 12.9999C4.29474 12.8354 4.22934 12.6776 4.113 12.5612C3.99666 12.4449 3.83882 12.3795 3.67427 12.3795H1.22339C1.36411 9.68791 2.42668 7.12677 4.23269 5.12611L5.96382 6.85724C6.08009 6.97283 6.23732 7.03767 6.40125 7.03767C6.56518 7.03767 6.72241 6.97283 6.83869 6.85724C6.95428 6.74102 7.01912 6.58373 7.01912 6.4198C7.01912 6.25588 6.95428 6.09865 6.83869 5.98237L5.10756 4.25124C7.10822 2.44529 9.66936 1.38267 12.3609 1.24194V3.69282C12.3609 3.85737 12.4263 4.01522 12.5427 4.13156C12.659 4.24796 12.8168 4.31329 12.9814 4.31329C13.1459 4.31329 13.3038 4.24796 13.4201 4.13156C13.5365 4.01522 13.6019 3.85737 13.6019 3.69282V1.24194C16.2934 1.38267 18.8546 2.44529 20.8552 4.25124L19.1241 5.98237C19.0086 6.09865 18.9437 6.25588 18.9437 6.4198C18.9437 6.58373 19.0086 6.74102 19.1241 6.85724C19.2404 6.97283 19.3976 7.03767 19.5615 7.03767C19.7255 7.03767 19.8827 6.97283 19.999 6.85724L21.7301 5.12611C23.5474 7.12243 24.6211 9.68406 24.7704 12.3795H22.2885C22.124 12.3795 21.9661 12.4449 21.8498 12.5612C21.7334 12.6776 21.668 12.8354 21.668 12.9999C21.668 13.1645 21.7334 13.3223 21.8498 13.4387C21.9661 13.5551 22.124 13.6204 22.2885 13.6204H24.7704C24.6211 16.3159 23.5474 18.8775 21.7301 20.8738L19.999 19.1426Z" fill="#CE2127"/>
<path d="M13.6018 12.7455V8.65661C13.6018 8.49206 13.5365 8.33421 13.4201 8.21787C13.3037 8.10153 13.1459 8.03613 12.9813 8.03613C12.8168 8.03613 12.6589 8.10153 12.5426 8.21787C12.4262 8.33421 12.3608 8.49206 12.3608 8.65661V12.9999C12.3604 13.0816 12.3761 13.1626 12.4069 13.2381C12.4378 13.3137 12.4833 13.3825 12.5408 13.4405L16.8841 17.7838C16.9418 17.8419 17.0104 17.8881 17.086 17.9196C17.1616 17.9511 17.2427 17.9673 17.3246 17.9673C17.4065 17.9673 17.4876 17.9511 17.5633 17.9196C17.6389 17.8881 17.7075 17.8419 17.7652 17.7838C17.8233 17.7261 17.8695 17.6575 17.901 17.5819C17.9325 17.5063 17.9487 17.4252 17.9487 17.3433C17.9487 17.2614 17.9325 17.1803 17.901 17.1046C17.8695 17.029 17.8233 16.9604 17.7652 16.9027L13.6018 12.7455Z" fill="#CE2127"/>
</svg>
