<svg width="31" height="30" viewBox="0 0 31 30" fill="none" xmlns="http://www.w3.org/2000/svg">
<g clip-path="url(#clip0_1735_1587)">
<path d="M1.11472 19.2272H19.0275C19.195 19.2272 19.3559 19.1617 19.4758 19.0447C19.5957 18.9277 19.6651 18.7685 19.6691 18.601V0.672824C19.6691 0.502669 19.6015 0.339483 19.4811 0.21916C19.3608 0.0988412 19.1976 0.03125 19.0275 0.03125H1.11472C0.944563 0.03125 0.781377 0.0988412 0.661059 0.21916C0.540741 0.339483 0.473145 0.502669 0.473145 0.672824V18.601C0.477163 18.7685 0.54653 18.9277 0.666418 19.0447C0.7863 19.1617 0.947196 19.2272 1.11472 19.2272ZM1.75629 1.3144H18.3859V17.944H1.75629V1.3144Z" fill="#CE2127"/>
<path d="M19.1045 21.0645C18.9343 21.0645 18.7711 21.1321 18.6508 21.2524C18.5305 21.3727 18.4629 21.5359 18.4629 21.7061V25.1449L14.8701 22.7685C14.7485 22.6924 14.6051 22.6588 14.4623 22.6731C14.3196 22.6875 14.1857 22.7488 14.0817 22.8475C13.9776 22.9463 13.9094 23.0768 13.8876 23.2186C13.8659 23.3604 13.892 23.5054 13.9616 23.6308L15.1883 25.6838H5.07708L6.29864 23.7334C6.37096 23.6097 6.40016 23.4655 6.38164 23.3234C6.36311 23.1813 6.29792 23.0494 6.19635 22.9483C6.09472 22.8473 5.96241 22.7829 5.82023 22.7652C5.67801 22.7475 5.53399 22.7776 5.4107 22.8506L1.75629 25.1706V21.7061C1.75629 21.5359 1.6887 21.3727 1.56838 21.2524C1.44806 21.1321 1.28487 21.0645 1.11472 21.0645C0.944563 21.0645 0.781378 21.1321 0.661059 21.2524C0.540741 21.3727 0.473145 21.5359 0.473145 21.7061V26.3254C0.479396 26.427 0.508483 26.526 0.558243 26.6148C0.608009 26.7037 0.677165 26.7802 0.76057 26.8386L5.32858 29.8925C5.43334 29.9628 5.55662 30.0003 5.68273 30.0003C5.79441 29.9996 5.904 29.97 6.00085 29.9144C6.09765 29.8587 6.17844 29.779 6.23531 29.6828C6.29212 29.5867 6.32312 29.4775 6.32523 29.3658C6.32733 29.2542 6.30049 29.1438 6.24732 29.0457L5.02062 26.9926H15.1472L13.9462 28.9327C13.8705 29.0557 13.8384 29.2006 13.8552 29.344C13.8719 29.4874 13.9366 29.6209 14.0387 29.7231C14.1408 29.8252 14.2744 29.8898 14.4178 29.9066C14.5612 29.9234 14.7061 29.8913 14.829 29.8156L19.4484 26.8848C19.5639 26.8128 19.6524 26.7045 19.6999 26.5769C19.732 26.5004 19.7494 26.4185 19.7512 26.3357V21.7163C19.7526 21.6308 19.7368 21.5458 19.7048 21.4664C19.6729 21.3871 19.6254 21.3149 19.5651 21.2541C19.5049 21.1934 19.4331 21.1453 19.354 21.1128C19.2749 21.0802 19.19 21.0638 19.1045 21.0645Z" fill="#CE2127"/>
<path d="M30.3246 13.6219C30.2232 13.5177 30.09 13.4501 29.9461 13.4296C29.8021 13.4092 29.6554 13.4371 29.529 13.509L27.476 14.7408V4.63473L29.4264 5.85629C29.5493 5.93204 29.6942 5.96417 29.8376 5.94739C29.981 5.93061 30.1146 5.86589 30.2167 5.7638C30.3188 5.66171 30.3835 5.52811 30.4002 5.3847C30.417 5.2413 30.3849 5.09641 30.3092 4.97348L27.4298 0.405475C27.3819 0.286466 27.2998 0.184368 27.1938 0.112168C27.0878 0.0399675 26.9627 0.000923867 26.8344 0H22.2151C22.0449 0 21.8817 0.0675963 21.7614 0.187915C21.6411 0.308233 21.5735 0.471419 21.5735 0.641574C21.5735 0.81173 21.6411 0.974916 21.7614 1.09523C21.8817 1.21555 22.0449 1.28315 22.2151 1.28315H25.6488L23.2519 4.87596C23.178 4.99714 23.1464 5.13937 23.1621 5.28041C23.1777 5.42145 23.2397 5.55331 23.3382 5.6554C23.4368 5.75748 23.5664 5.824 23.7068 5.84458C23.8472 5.86512 23.9905 5.83858 24.1141 5.76903L26.1672 4.54234V14.6536L24.2117 13.4679C24.0884 13.3949 23.9443 13.3649 23.8021 13.3826C23.6599 13.4002 23.5276 13.4646 23.426 13.5657C23.3244 13.6667 23.2592 13.7986 23.2407 13.9407C23.2222 14.0828 23.2514 14.227 23.3237 14.3507L25.6334 18.0103H22.1894C22.0192 18.0103 21.8561 18.0779 21.7358 18.1982C21.6154 18.3185 21.5479 18.4817 21.5479 18.6518C21.5479 18.822 21.6154 18.9852 21.7358 19.1055C21.8561 19.2258 22.0192 19.2934 22.1894 19.2934H26.8088C26.8861 19.291 26.9625 19.2753 27.0346 19.2472C27.1643 19.2041 27.2762 19.1193 27.3528 19.006L30.3708 14.4175C30.4539 14.299 30.4945 14.1561 30.4862 14.0116C30.4777 13.8672 30.4208 13.7299 30.3246 13.6219Z" fill="#CE2127"/>
</g>
<defs>
<clipPath id="clip0_1735_1587">
<rect width="30" height="30" fill="white" transform="translate(0.333008)"/>
</clipPath>
</defs>
</svg>
