<svg width="31" height="30" viewBox="0 0 31 30" fill="none" xmlns="http://www.w3.org/2000/svg">
<path d="M22.1677 12.347C23.6677 11.3864 24.6667 9.70941 24.6667 7.79961C24.6667 4.82181 22.2439 2.39961 19.2667 2.39961C18.7525 2.39961 18.2437 2.47641 17.7481 2.62341C16.6477 1.38561 15.0493 0.599609 13.2667 0.599609C9.95835 0.599609 7.26675 3.29121 7.26675 6.59961C7.26675 8.65821 8.31015 10.478 9.89475 11.5586C6.34455 12.2882 3.66675 15.437 3.66675 19.1996V29.3996H22.8667V26.9996H27.6667V19.7996C27.6667 16.2992 25.3489 13.331 22.1677 12.347ZM18.4999 3.67161C18.7531 3.62361 19.0093 3.59961 19.2667 3.59961C21.5827 3.59961 23.4667 5.48421 23.4667 7.79961C23.4667 10.115 21.5827 11.9996 19.2667 11.9996C18.4429 11.9996 17.6497 11.7596 16.9711 11.3132C16.9801 11.306 16.9873 11.2982 16.9963 11.291C17.5111 10.8806 17.9557 10.388 18.3133 9.83241C18.3271 9.81081 18.3397 9.78801 18.3535 9.76641C18.4543 9.60501 18.5479 9.43881 18.6331 9.26721C18.6487 9.23541 18.6643 9.20301 18.6793 9.17121C18.7573 9.00801 18.8275 8.84061 18.8911 8.66961C18.9055 8.63121 18.9199 8.59281 18.9337 8.55381C18.9913 8.38821 19.0399 8.21961 19.0831 8.04741C19.0945 8.00301 19.1071 7.95861 19.1173 7.91421C19.1551 7.74501 19.1845 7.57281 19.2073 7.39821C19.2139 7.35141 19.2235 7.30581 19.2283 7.25901C19.2523 7.04301 19.2667 6.82281 19.2667 6.59961C19.2667 6.36201 19.2493 6.12861 19.2223 5.89821C19.2139 5.82561 19.2001 5.75421 19.1893 5.68161C19.1641 5.51961 19.1341 5.36001 19.0963 5.20281C19.0783 5.12721 19.0591 5.05221 19.0381 4.97781C18.9889 4.80321 18.9319 4.63281 18.8677 4.46481C18.8503 4.41981 18.8365 4.37361 18.8179 4.32861C18.7267 4.10601 18.6223 3.89061 18.5059 3.68241C18.5035 3.67881 18.5017 3.67521 18.4999 3.67161ZM8.46675 6.59961C8.46675 3.95301 10.6201 1.79961 13.2667 1.79961C14.7529 1.79961 16.0825 2.47881 16.9639 3.54201L17.0023 3.59181C17.0317 3.62781 17.0575 3.66681 17.0857 3.70341C17.3905 4.10481 17.6239 4.54221 17.7883 5.00361C17.7997 5.03541 17.8123 5.06601 17.8225 5.09781C17.8939 5.31201 17.9473 5.53221 17.9875 5.75541C17.9959 5.80281 18.0025 5.85081 18.0097 5.89881C18.0433 6.12981 18.0667 6.36261 18.0667 6.59961C18.0667 6.79641 18.0517 6.99081 18.0277 7.18341C18.0223 7.22901 18.0139 7.27341 18.0073 7.31841C17.9827 7.47681 17.9521 7.63341 17.9119 7.78761C17.9035 7.82061 17.8957 7.85361 17.8867 7.88661C17.7781 8.27241 17.6233 8.64261 17.4241 8.98821C17.4199 8.99481 17.4157 9.00141 17.4121 9.00801C17.3155 9.17361 17.2087 9.33261 17.0929 9.48621C17.0821 9.50061 17.0713 9.51561 17.0605 9.53001C16.8157 9.84681 16.5307 10.1336 16.2103 10.3832C16.1935 10.3964 16.1761 10.4084 16.1593 10.4216C16.0069 10.5368 15.8479 10.6448 15.6811 10.742C15.6619 10.7534 15.6433 10.7654 15.6241 10.7768L15.5311 10.8308C14.8555 11.1926 14.0851 11.3996 13.2667 11.3996C10.6201 11.3996 8.46675 9.24621 8.46675 6.59961ZM21.6667 28.1996H4.86675V19.1996C4.86675 15.5606 7.82775 12.5996 11.4667 12.5996H15.0667C15.9637 12.5996 16.8193 12.7808 17.5999 13.1066L17.7151 13.1582C17.7817 13.1876 17.8459 13.2212 17.9113 13.253C18.0895 13.3382 18.2617 13.4312 18.4297 13.5308C18.5059 13.5764 18.5833 13.6208 18.6577 13.6694C18.7375 13.721 18.8143 13.7756 18.8917 13.8308C18.9715 13.8878 19.0501 13.9466 19.1275 14.0072C19.1965 14.0612 19.2649 14.1146 19.3315 14.171C19.4329 14.2574 19.5307 14.3474 19.6267 14.4398C19.7023 14.5124 19.7761 14.5868 19.8481 14.663C19.9291 14.7488 20.0096 14.8352 20.0863 14.9246C20.1433 14.9918 20.1979 15.0602 20.2519 15.1292C20.3131 15.2072 20.3719 15.2864 20.4301 15.3674C20.4829 15.4406 20.5357 15.5138 20.5856 15.5894C20.6539 15.6932 20.7169 15.8006 20.7793 15.908C20.8447 16.0208 20.9053 16.1354 20.9641 16.2518C21.0073 16.337 21.0493 16.4228 21.0889 16.5104C21.1279 16.5968 21.1645 16.685 21.1993 16.7732C21.2365 16.8674 21.2707 16.9628 21.3043 17.0588C21.3319 17.1392 21.3619 17.219 21.3865 17.3006C21.4369 17.468 21.4807 17.6378 21.5179 17.81C21.5323 17.876 21.5425 17.9438 21.5551 18.0104C21.5797 18.1436 21.6007 18.278 21.6169 18.4136C21.6247 18.4772 21.6325 18.5408 21.6379 18.605C21.6541 18.8012 21.6667 18.9992 21.6667 19.1996V26.9996V28.1996ZM26.4667 25.7996H22.8667V19.1996C22.8667 18.9146 22.8493 18.6338 22.8193 18.3566C22.8121 18.29 22.7983 18.2252 22.7893 18.1592C22.7605 17.9462 22.7276 17.735 22.6819 17.528C22.6663 17.4584 22.6459 17.3906 22.6285 17.3216C22.5781 17.12 22.5229 16.9202 22.4576 16.7252C22.4347 16.6574 22.4083 16.5908 22.3837 16.5236C22.3135 16.3316 22.2374 16.1432 22.1528 15.9584C22.1215 15.8912 22.0891 15.8252 22.0561 15.7586C21.9673 15.5792 21.8725 15.4034 21.7705 15.2318C21.7315 15.1664 21.6926 15.1016 21.6523 15.0368C21.5455 14.8688 21.4321 14.7062 21.3133 14.5466C21.2683 14.4866 21.2251 14.4254 21.1789 14.3666C21.0481 14.2016 20.9095 14.0444 20.7667 13.8908C20.7247 13.8458 20.6863 13.799 20.6431 13.7546C20.4535 13.5608 20.2561 13.3748 20.0473 13.2014C23.6029 13.2974 26.4667 16.2206 26.4667 19.7996V25.7996Z" fill="#CE2127"/>
</svg>
