<svg width="332" height="335" viewBox="0 0 332 335" fill="none" xmlns="http://www.w3.org/2000/svg">
<path d="M217.308 122.668L107.38 210.028C105.196 211.848 104.468 215.488 106.652 217.672C107.744 219.128 109.2 219.856 111.02 219.856C112.112 219.856 113.568 219.492 114.296 218.764L224.224 131.404C226.408 129.584 227.136 125.944 224.952 123.76C223.132 121.212 219.856 120.848 217.308 122.668Z" fill="#CE2127"/>
<path d="M136.864 161.616C138.32 161.616 139.776 161.616 141.232 161.252C156.156 159.068 166.712 144.872 164.164 129.584C163.072 122.304 159.068 115.752 153.244 111.384C147.42 107.016 140.14 105.196 132.86 106.288C125.58 107.38 119.028 111.384 114.66 117.208C110.292 123.032 108.472 130.312 109.564 137.592C111.748 151.788 123.76 161.616 136.864 161.616ZM134.316 117.572C135.044 117.572 136.136 117.208 136.864 117.208C144.872 117.208 152.152 123.032 153.244 131.404C154.7 140.504 148.512 148.876 139.412 150.332C130.312 151.788 121.94 145.6 120.484 136.5C119.028 127.4 125.58 119.028 134.316 117.572Z" fill="#CE2127"/>
<path d="M195.104 179.816C179.816 179.816 167.44 192.192 167.44 207.48C167.44 222.768 179.816 235.144 195.104 235.144C210.392 235.144 222.768 222.768 222.768 207.48C222.404 192.192 210.028 179.816 195.104 179.816ZM195.104 223.86C186.004 223.86 178.36 216.216 178.36 207.116C178.36 198.016 186.004 190.372 195.104 190.372C204.204 190.372 211.848 198.016 211.848 207.116C211.484 216.58 204.204 223.86 195.104 223.86Z" fill="#CE2127"/>
<path d="M331.24 167.076C331.24 166.712 331.604 165.984 331.604 165.62C331.604 149.968 315.224 141.96 301.028 135.044C290.836 129.948 279.916 124.488 277.004 117.936C274.092 111.02 278.096 99.736 282.1 89.18C287.56 74.256 293.02 58.968 282.828 48.776C272.636 38.584 258.076 42.224 243.516 45.5C233.324 47.684 222.768 50.232 215.852 47.32C208.936 44.408 203.112 35.308 197.652 26.572C189.644 14.196 180.908 0 165.62 0C150.332 0 141.596 14.196 133.952 26.936C128.492 36.036 123.032 45.136 116.116 48.048C109.2 50.96 98.28 48.412 88.088 45.864C73.528 42.224 58.604 38.584 48.776 48.412C38.584 58.604 43.68 73.892 48.412 88.816C52.052 99.736 55.328 110.656 52.416 117.936C49.504 124.852 39.312 129.948 29.484 135.044C15.652 142.324 0 150.332 0 165.62C0 165.984 -3.52561e-07 166.712 0.364 167.076C0.364 167.44 0 168.168 0 168.532C0 183.82 15.652 192.192 29.484 199.108C39.312 204.204 49.504 209.3 52.416 216.216C55.328 223.132 51.688 234.416 48.412 245.336C43.68 260.26 38.584 275.548 48.776 285.74C58.968 295.932 73.892 291.928 88.088 288.288C98.28 285.74 109.2 283.192 116.116 286.104C123.032 289.016 128.492 298.116 133.952 307.216C141.596 319.956 150.332 334.152 165.62 334.152C180.908 334.152 190.008 319.956 197.652 307.58C203.112 298.844 208.936 289.744 215.852 286.832C223.132 283.92 233.324 286.104 243.516 288.652C257.712 291.928 272.636 295.568 282.828 285.376C293.02 275.184 287.56 259.896 282.1 244.972C278.096 234.052 274.092 223.132 277.004 216.216C279.916 209.3 290.472 204.204 301.028 199.108C315.224 191.828 331.604 183.82 331.604 168.532C331.604 167.804 331.24 167.44 331.24 167.076ZM295.932 189.28C283.92 195.468 271.18 201.656 266.812 212.212C262.08 223.132 267.176 236.236 271.544 248.976C275.912 260.988 280.28 272.636 274.82 277.732C268.996 283.556 257.712 281.008 245.7 278.096C233.688 275.184 221.676 272.636 211.12 277.004C200.928 281.372 194.376 291.564 188.188 301.756C181.272 312.676 174.72 323.232 165.256 323.232C156.156 323.232 149.604 312.676 142.688 301.392C136.5 290.836 129.948 280.28 119.756 275.912C109.2 271.544 96.824 274.456 84.812 277.732C72.8 280.644 61.516 283.556 55.692 278.096C50.232 272.636 53.872 260.988 57.876 248.976C61.88 236.236 66.248 223.132 61.516 212.576C57.148 202.02 45.136 195.832 33.488 190.008C21.476 183.82 10.192 177.996 10.192 168.896C10.192 168.532 10.192 167.804 9.828 167.44C9.828 167.076 10.192 166.348 10.192 165.984C10.192 157.248 21.476 151.424 33.488 144.872C45.136 139.048 57.148 132.86 61.516 122.304C65.884 111.384 61.88 98.28 57.876 85.904C53.872 73.528 50.232 61.88 55.692 56.784C61.516 50.96 72.8 53.872 84.812 57.148C96.824 60.06 109.2 63.336 119.756 58.968C129.948 54.6 136.5 44.044 142.688 33.488C149.604 22.204 155.792 11.648 165.256 11.648C174.72 11.648 181.272 22.204 188.188 33.124C194.74 43.316 201.292 53.508 211.12 57.876C221.676 62.244 233.688 59.332 245.7 56.784C257.712 53.872 268.996 51.324 274.82 57.148C280.28 62.244 275.912 73.892 271.544 85.904C266.812 98.644 262.08 111.748 266.812 122.668C271.18 133.224 283.92 139.412 295.932 145.6C308.672 151.788 320.32 157.976 320.32 166.712C320.32 167.076 320.32 167.804 320.684 168.168C320.684 168.532 320.32 169.26 320.32 169.624C320.684 176.904 308.672 183.092 295.932 189.28Z" fill="#CE2127"/>
</svg>
