<svg width="237" height="200" viewBox="0 0 237 200" fill="none" xmlns="http://www.w3.org/2000/svg">
<path d="M217.324 112.684L107.396 200.044C105.212 201.864 104.484 205.504 106.668 207.688C107.76 209.144 109.216 209.872 111.036 209.872C112.128 209.872 113.584 209.508 114.312 208.78L224.24 121.42C226.424 119.6 227.152 115.96 224.968 113.776C223.148 111.228 219.872 110.864 217.324 112.684Z" fill="#CE2127"/>
<path d="M136.88 151.632C138.336 151.632 139.792 151.632 141.248 151.268C156.172 149.084 166.728 134.888 164.18 119.6C163.088 112.32 159.084 105.768 153.26 101.4C147.436 97.032 140.156 95.212 132.876 96.304C125.596 97.396 119.044 101.4 114.676 107.224C110.308 113.048 108.488 120.328 109.58 127.608C111.764 141.804 123.776 151.632 136.88 151.632ZM134.332 107.588C135.06 107.588 136.152 107.224 136.88 107.224C144.888 107.224 152.168 113.048 153.26 121.42C154.716 130.52 148.528 138.892 139.428 140.348C130.328 141.804 121.956 135.616 120.5 126.516C119.044 117.416 125.596 109.044 134.332 107.588Z" fill="#CE2127"/>
<path d="M195.12 169.832C179.832 169.832 167.456 182.208 167.456 197.496C167.456 212.784 179.832 225.16 195.12 225.16C210.408 225.16 222.784 212.784 222.784 197.496C222.42 182.208 210.044 169.832 195.12 169.832ZM195.12 213.876C186.02 213.876 178.376 206.232 178.376 197.132C178.376 188.032 186.02 180.388 195.12 180.388C204.22 180.388 211.864 188.032 211.864 197.132C211.5 206.596 204.22 213.876 195.12 213.876Z" fill="#CE2127"/>
<path d="M331.256 157.092C331.256 156.728 331.62 156 331.62 155.636C331.62 139.984 315.24 131.976 301.044 125.06C290.852 119.964 279.932 114.504 277.02 107.952C274.108 101.036 278.112 89.752 282.116 79.196C287.576 64.272 293.036 48.984 282.844 38.792C272.652 28.6 258.092 32.24 243.532 35.516C233.34 37.7 222.784 40.248 215.868 37.336C208.952 34.424 203.128 25.324 197.668 16.588C189.66 4.21199 180.924 -9.98401 165.636 -9.98401C150.348 -9.98401 141.612 4.21199 133.968 16.952C128.508 26.052 123.048 35.152 116.132 38.064C109.216 40.976 98.296 38.428 88.104 35.88C73.544 32.24 58.62 28.6 48.792 38.428C38.6 48.62 43.696 63.908 48.428 78.832C52.068 89.752 55.344 100.672 52.432 107.952C49.52 114.868 39.328 119.964 29.5 125.06C15.668 132.34 0.0159912 140.348 0.0159912 155.636C0.0159912 156 0.0159909 156.728 0.379991 157.092C0.379991 157.456 0.0159912 158.184 0.0159912 158.548C0.0159912 173.836 15.668 182.208 29.5 189.124C39.328 194.22 49.52 199.316 52.432 206.232C55.344 213.148 51.704 224.432 48.428 235.352C43.696 250.276 38.6 265.564 48.792 275.756C58.984 285.948 73.908 281.944 88.104 278.304C98.296 275.756 109.216 273.208 116.132 276.12C123.048 279.032 128.508 288.132 133.968 297.232C141.612 309.972 150.348 324.168 165.636 324.168C180.924 324.168 190.024 309.972 197.668 297.596C203.128 288.86 208.952 279.76 215.868 276.848C223.148 273.936 233.34 276.12 243.532 278.668C257.728 281.944 272.652 285.584 282.844 275.392C293.036 265.2 287.576 249.912 282.116 234.988C278.112 224.068 274.108 213.148 277.02 206.232C279.932 199.316 290.488 194.22 301.044 189.124C315.24 181.844 331.62 173.836 331.62 158.548C331.62 157.82 331.256 157.456 331.256 157.092ZM295.948 179.296C283.936 185.484 271.196 191.672 266.828 202.228C262.096 213.148 267.192 226.252 271.56 238.992C275.928 251.004 280.296 262.652 274.836 267.748C269.012 273.572 257.728 271.024 245.716 268.112C233.704 265.2 221.692 262.652 211.136 267.02C200.944 271.388 194.392 281.58 188.204 291.772C181.288 302.692 174.736 313.248 165.272 313.248C156.172 313.248 149.62 302.692 142.704 291.408C136.516 280.852 129.964 270.296 119.772 265.928C109.216 261.56 96.84 264.472 84.828 267.748C72.816 270.66 61.532 273.572 55.708 268.112C50.248 262.652 53.888 251.004 57.892 238.992C61.896 226.252 66.264 213.148 61.532 202.592C57.164 192.036 45.152 185.848 33.504 180.024C21.492 173.836 10.208 168.012 10.208 158.912C10.208 158.548 10.208 157.82 9.84399 157.456C9.84399 157.092 10.208 156.364 10.208 156C10.208 147.264 21.492 141.44 33.504 134.888C45.152 129.064 57.164 122.876 61.532 112.32C65.9 101.4 61.896 88.296 57.892 75.92C53.888 63.544 50.248 51.896 55.708 46.8C61.532 40.976 72.816 43.888 84.828 47.164C96.84 50.076 109.216 53.352 119.772 48.984C129.964 44.616 136.516 34.06 142.704 23.504C149.62 12.22 155.808 1.66399 165.272 1.66399C174.736 1.66399 181.288 12.22 188.204 23.14C194.756 33.332 201.308 43.524 211.136 47.892C221.692 52.26 233.704 49.348 245.716 46.8C257.728 43.888 269.012 41.34 274.836 47.164C280.296 52.26 275.928 63.908 271.56 75.92C266.828 88.66 262.096 101.764 266.828 112.684C271.196 123.24 283.936 129.428 295.948 135.616C308.688 141.804 320.336 147.992 320.336 156.728C320.336 157.092 320.336 157.82 320.7 158.184C320.7 158.548 320.336 159.276 320.336 159.64C320.7 166.92 308.688 173.108 295.948 179.296Z" fill="#CE2127"/>
</svg>
