<svg width="241" height="248" viewBox="0 0 241 248" fill="none" xmlns="http://www.w3.org/2000/svg">
<path fill-rule="evenodd" clip-rule="evenodd" d="M108.144 47.4965L100.578 50.7604C95.3623 38.5548 87.2868 27.7828 77.0338 19.353C71.0882 14.5228 64.486 10.5625 57.4252 7.5912L60.6315 0C68.4123 3.2732 75.6865 7.63884 82.2347 12.9652C93.5184 22.2287 102.405 34.073 108.144 47.4965ZM141.118 50.7603C146.33 38.5538 154.406 27.7823 164.662 19.3569C170.605 14.5244 177.206 10.564 184.267 7.59506L181.06 0.0038636C173.279 3.27546 166.005 7.64126 159.457 12.9691C148.172 22.2337 139.284 34.0795 133.543 47.5046L141.118 50.7603ZM169.163 43.7132C177.009 35.4415 186.372 28.7541 196.741 24.0139C210.321 17.8535 225.214 15.1493 240.092 16.1424L240.628 7.90007C224.387 6.82725 208.133 9.78613 193.313 16.5133C181.99 21.6941 171.766 28.9982 163.195 38.0301L169.163 43.7132ZM110.959 65.2767C110.945 65.892 110.788 66.4953 110.501 67.0393L30.0555 224.262L26.9646 235.76L42.9137 240.046L40.7707 248L0.959991 237.326L3.103 229.372L19.0107 233.658L22.1016 222.119L31.0447 45.774C31.0851 45.1612 31.257 44.5645 31.5487 44.0242C31.8401 43.4839 32.2444 43.0124 32.7344 42.6419C33.2314 42.2768 33.8043 42.0279 34.4109 41.9137C35.0171 41.8 35.6411 41.8231 36.2374 41.9826L107.905 61.1872C108.496 61.3447 109.045 61.634 109.509 62.0337C109.973 62.4335 110.34 62.9329 110.583 63.4951C110.845 64.0518 110.974 64.6618 110.959 65.2767ZM100.857 67.8223L39.0398 51.2552L36.0313 110.27C38.0577 110.052 40.101 110.038 42.1307 110.229C45.421 110.713 48.781 110.196 51.7742 108.746C54.8334 107.475 57.4346 105.304 59.2335 102.523C61.8966 98.6363 65.6139 95.5912 69.9486 93.7445C74.1893 91.7148 78.927 90.9561 83.5897 91.5603C85.2872 91.7733 87.0057 91.7597 88.6999 91.5191L100.857 67.8223ZM41.4713 118.43C39.5207 118.213 37.5492 118.283 35.6192 118.636L31.292 203.78L84.4551 99.885L84.3403 99.8762H84.3403H84.3402H84.3401C83.8482 99.8381 83.3892 99.8026 82.9303 99.8026C79.6572 99.2994 76.3084 99.8022 73.3279 101.245C70.2548 102.531 67.6407 104.715 65.8274 107.509C63.1771 111.381 59.473 114.413 55.1536 116.246C50.9051 118.299 46.1472 119.059 41.4713 118.43ZM222.679 233.658L238.587 229.372L240.73 237.326L200.919 248L198.776 240.046L214.725 235.76L211.634 224.262L131.189 67.0393C130.912 66.492 130.762 65.8895 130.747 65.2767C130.733 64.6634 130.855 64.0547 131.106 63.4951C131.35 62.9329 131.717 62.4335 132.181 62.0337C132.645 61.634 133.193 61.3447 133.785 61.1872L205.452 41.9826C206.048 41.8231 206.673 41.8 207.279 41.9137C207.885 42.0279 208.458 42.2768 208.955 42.6419C209.445 43.0124 209.85 43.4839 210.141 44.0242C210.433 44.5645 210.605 45.1612 210.645 45.774L219.588 222.119L222.679 233.658ZM140.874 67.8223L152.99 91.5191C154.684 91.7597 156.403 91.7733 158.1 91.5603C162.763 90.9561 167.501 91.7148 171.741 93.7445C176.076 95.5912 179.793 98.6363 182.456 102.523C184.255 105.304 186.856 107.475 189.916 108.746C192.908 110.196 196.269 110.713 199.559 110.229C201.588 110.038 203.632 110.052 205.659 110.27L202.65 51.2552L140.874 67.8223ZM157.35 99.8762L157.235 99.885L210.398 203.78L206.071 118.636C204.127 118.282 202.142 118.213 200.177 118.43C195.515 119.056 190.771 118.296 186.536 116.246C182.216 114.413 178.512 111.381 175.862 107.509C174.049 104.715 171.435 102.531 168.362 101.245C165.381 99.8022 162.033 99.2994 158.76 99.8026C158.301 99.8026 157.841 99.8381 157.35 99.8762ZM72.5306 43.7131C64.6839 35.442 55.3215 28.7544 44.9518 24.0141C31.3713 17.8579 16.4794 15.1539 1.60135 16.1427L1.0656 7.90032C17.3062 6.82679 33.5604 9.78571 48.3806 16.5136C59.7039 21.6933 69.9277 28.9975 78.4981 38.03L72.5306 43.7131Z" fill="#CE2127"/>
</svg>
